G04 #@! TF.GenerationSoftware,KiCad,Pcbnew,7.0.6*
G04 #@! TF.CreationDate,2024-09-20T23:29:42+02:00*
G04 #@! TF.ProjectId,KoalaKeeb_v0.2_left,4b6f616c-614b-4656-9562-5f76302e325f,rev?*
G04 #@! TF.SameCoordinates,Original*
G04 #@! TF.FileFunction,Profile,NP*
%FSLAX46Y46*%
G04 Gerber Fmt 4.6, Leading zero omitted, Abs format (unit mm)*
G04 Created by KiCad (PCBNEW 7.0.6) date 2024-09-20 23:29:42*
%MOMM*%
%LPD*%
G01*
G04 APERTURE LIST*
G04 #@! TA.AperFunction,Profile*
%ADD10C,0.100000*%
G04 #@! TD*
G04 #@! TA.AperFunction,Profile*
%ADD11C,0.120000*%
G04 #@! TD*
G04 APERTURE END LIST*
D10*
X161493970Y-92040397D02*
G75*
G03*
X162290000Y-92920000I796030J-79603D01*
G01*
X280384707Y-72002354D02*
G75*
G03*
X280430000Y-71800000I-384707J192354D01*
G01*
X179010000Y-28330001D02*
G75*
G03*
X178119945Y-29230000I10000J-899999D01*
G01*
X197590000Y-26820000D02*
X197590000Y-23020000D01*
X161485849Y-41619995D02*
X161490000Y-51820000D01*
X258193072Y-107710785D02*
G75*
G03*
X166990000Y-92946401I-91203072J-274309215D01*
G01*
X232694161Y-28720000D02*
G75*
G03*
X233941469Y-29916902I1247339J51500D01*
G01*
X162689987Y-40415849D02*
G75*
G03*
X161485849Y-41619995I13J-1204151D01*
G01*
X166990000Y-92946401D02*
X162290000Y-92920000D01*
X280430000Y-38990000D02*
G75*
G03*
X279950000Y-38510000I-480000J0D01*
G01*
X161490000Y-51820000D02*
X161490000Y-59020000D01*
X161493970Y-92040397D02*
X161490000Y-59020000D01*
X214590000Y-23020000D02*
G75*
G03*
X213090000Y-21520000I-1500000J0D01*
G01*
X280384707Y-72002354D02*
X280140000Y-72420000D01*
X250142690Y-31071469D02*
G75*
G03*
X248938531Y-29867310I-1204190J-31D01*
G01*
X259230000Y-107480000D02*
X280140000Y-72420000D01*
X250130074Y-38129149D02*
G75*
G03*
X250520000Y-38519998I359926J-30851D01*
G01*
X176740000Y-40380036D02*
G75*
G03*
X178120000Y-39010000I0J1380036D01*
G01*
X199090000Y-21520000D02*
G75*
G03*
X197590000Y-23020000I0J-1500000D01*
G01*
X280430000Y-38990000D02*
X280430000Y-71800000D01*
X233941469Y-29916902D02*
X248938531Y-29867310D01*
X232694159Y-28720000D02*
G75*
G03*
X231490000Y-27515841I-1204159J0D01*
G01*
X196090000Y-28320000D02*
G75*
G03*
X197590000Y-26820000I0J1500000D01*
G01*
X250760000Y-38520000D02*
X250520000Y-38520000D01*
X199090000Y-21520000D02*
X213090000Y-21520000D01*
X178119945Y-29230000D02*
X178120000Y-39010000D01*
X176740000Y-40380036D02*
X174880000Y-40400000D01*
X162689987Y-40415836D02*
X174880000Y-40400000D01*
X179010000Y-28330000D02*
X196090000Y-28320000D01*
X216050660Y-27521259D02*
X231490000Y-27520000D01*
X214590000Y-23020000D02*
X214590000Y-26120000D01*
X258193072Y-107710784D02*
G75*
G03*
X259228691Y-107479054I386928J700784D01*
G01*
X279950000Y-38510000D02*
X250760000Y-38520000D01*
X250142690Y-31071469D02*
X250140000Y-38130000D01*
X214590002Y-26120000D02*
G75*
G03*
X216050660Y-27521259I1460698J60700D01*
G01*
D11*
X274300000Y-46950000D02*
X277700000Y-46950000D01*
X274300000Y-49950000D02*
X274300000Y-46950000D01*
X277700000Y-46950000D02*
X277700000Y-49950000D01*
X277700000Y-49950000D02*
X274300000Y-49950000D01*
X274300000Y-66150000D02*
X277700000Y-66150000D01*
X274300000Y-69150000D02*
X274300000Y-66150000D01*
X277700000Y-66150000D02*
X277700000Y-69150000D01*
X277700000Y-69150000D02*
X274300000Y-69150000D01*
X274300000Y-40550000D02*
X277700000Y-40550000D01*
X274300000Y-43550000D02*
X274300000Y-40550000D01*
X277700000Y-40550000D02*
X277700000Y-43550000D01*
X277700000Y-43550000D02*
X274300000Y-43550000D01*
X274300000Y-53350000D02*
X277700000Y-53350000D01*
X274300000Y-56350000D02*
X274300000Y-53350000D01*
X277700000Y-53350000D02*
X277700000Y-56350000D01*
X277700000Y-56350000D02*
X274300000Y-56350000D01*
X274300000Y-59750000D02*
X277700000Y-59750000D01*
X274300000Y-62750000D02*
X274300000Y-59750000D01*
X277700000Y-59750000D02*
X277700000Y-62750000D01*
X277700000Y-62750000D02*
X274300000Y-62750000D01*
X277700000Y-59550000D02*
X274300000Y-59550000D01*
X277700000Y-56550000D02*
X277700000Y-59550000D01*
X274300000Y-59550000D02*
X274300000Y-56550000D01*
X274300000Y-56550000D02*
X277700000Y-56550000D01*
X277700000Y-46750000D02*
X274300000Y-46750000D01*
X277700000Y-43750000D02*
X277700000Y-46750000D01*
X274300000Y-46750000D02*
X274300000Y-43750000D01*
X274300000Y-43750000D02*
X277700000Y-43750000D01*
X277700000Y-53150000D02*
X274300000Y-53150000D01*
X277700000Y-50150000D02*
X277700000Y-53150000D01*
X274300000Y-53150000D02*
X274300000Y-50150000D01*
X274300000Y-50150000D02*
X277700000Y-50150000D01*
X277700000Y-65950000D02*
X274300000Y-65950000D01*
X277700000Y-62950000D02*
X277700000Y-65950000D01*
X274300000Y-65950000D02*
X274300000Y-62950000D01*
X274300000Y-62950000D02*
X277700000Y-62950000D01*
X277700000Y-72350000D02*
X274300000Y-72350000D01*
X277700000Y-69350000D02*
X277700000Y-72350000D01*
X274300000Y-72350000D02*
X274300000Y-69350000D01*
X274300000Y-69350000D02*
X277700000Y-69350000D01*
M02*
