G04 #@! TF.GenerationSoftware,KiCad,Pcbnew,7.0.6*
G04 #@! TF.CreationDate,2024-09-20T23:29:42+02:00*
G04 #@! TF.ProjectId,KoalaKeeb_v0.2_left,4b6f616c-614b-4656-9562-5f76302e325f,rev?*
G04 #@! TF.SameCoordinates,Original*
G04 #@! TF.FileFunction,Paste,Top*
G04 #@! TF.FilePolarity,Positive*
%FSLAX46Y46*%
G04 Gerber Fmt 4.6, Leading zero omitted, Abs format (unit mm)*
G04 Created by KiCad (PCBNEW 7.0.6) date 2024-09-20 23:29:42*
%MOMM*%
%LPD*%
G01*
G04 APERTURE LIST*
G04 Aperture macros list*
%AMRoundRect*
0 Rectangle with rounded corners*
0 $1 Rounding radius*
0 $2 $3 $4 $5 $6 $7 $8 $9 X,Y pos of 4 corners*
0 Add a 4 corners polygon primitive as box body*
4,1,4,$2,$3,$4,$5,$6,$7,$8,$9,$2,$3,0*
0 Add four circle primitives for the rounded corners*
1,1,$1+$1,$2,$3*
1,1,$1+$1,$4,$5*
1,1,$1+$1,$6,$7*
1,1,$1+$1,$8,$9*
0 Add four rect primitives between the rounded corners*
20,1,$1+$1,$2,$3,$4,$5,0*
20,1,$1+$1,$4,$5,$6,$7,0*
20,1,$1+$1,$6,$7,$8,$9,0*
20,1,$1+$1,$8,$9,$2,$3,0*%
%AMRotRect*
0 Rectangle, with rotation*
0 The origin of the aperture is its center*
0 $1 length*
0 $2 width*
0 $3 Rotation angle, in degrees counterclockwise*
0 Add horizontal line*
21,1,$1,$2,0,0,$3*%
G04 Aperture macros list end*
%ADD10R,1.700000X0.820000*%
%ADD11RoundRect,0.205000X-0.645000X-0.205000X0.645000X-0.205000X0.645000X0.205000X-0.645000X0.205000X0*%
%ADD12RotRect,0.500000X1.000000X59.000000*%
%ADD13RotRect,0.500000X0.800000X149.000000*%
%ADD14RoundRect,0.205000X0.645000X0.205000X-0.645000X0.205000X-0.645000X-0.205000X0.645000X-0.205000X0*%
G04 APERTURE END LIST*
D10*
X273450000Y-49200000D03*
X273450000Y-47700000D03*
D11*
X278550000Y-47700000D03*
D10*
X278550000Y-49200000D03*
X273450000Y-68400000D03*
X273450000Y-66900000D03*
D11*
X278550000Y-66900000D03*
D10*
X278550000Y-68400000D03*
X273450000Y-42800000D03*
X273450000Y-41300000D03*
D11*
X278550000Y-41300000D03*
D10*
X278550000Y-42800000D03*
X273450000Y-55600000D03*
X273450000Y-54100000D03*
D11*
X278550000Y-54100000D03*
D10*
X278550000Y-55600000D03*
X273450000Y-62000000D03*
X273450000Y-60500000D03*
D11*
X278550000Y-60500000D03*
D10*
X278550000Y-62000000D03*
D12*
X268515405Y-83465806D03*
X270060519Y-80894304D03*
X270833076Y-79608553D03*
D13*
X272136856Y-78991983D03*
X273936907Y-80073563D03*
X270383144Y-85988017D03*
X268583093Y-84906437D03*
D10*
X278550000Y-57300000D03*
X278550000Y-58800000D03*
D14*
X273450000Y-58800000D03*
D10*
X273450000Y-57300000D03*
X278550000Y-44500000D03*
X278550000Y-46000000D03*
D14*
X273450000Y-46000000D03*
D10*
X273450000Y-44500000D03*
X278550000Y-50900000D03*
X278550000Y-52400000D03*
D14*
X273450000Y-52400000D03*
D10*
X273450000Y-50900000D03*
X278550000Y-63700000D03*
X278550000Y-65200000D03*
D14*
X273450000Y-65200000D03*
D10*
X273450000Y-63700000D03*
X278550000Y-70100000D03*
X278550000Y-71600000D03*
D14*
X273450000Y-71600000D03*
D10*
X273450000Y-70100000D03*
M02*
