G04 #@! TF.GenerationSoftware,KiCad,Pcbnew,7.0.6*
G04 #@! TF.CreationDate,2024-09-20T23:29:42+02:00*
G04 #@! TF.ProjectId,KoalaKeeb_v0.2_left,4b6f616c-614b-4656-9562-5f76302e325f,rev?*
G04 #@! TF.SameCoordinates,Original*
G04 #@! TF.FileFunction,Soldermask,Bot*
G04 #@! TF.FilePolarity,Negative*
%FSLAX46Y46*%
G04 Gerber Fmt 4.6, Leading zero omitted, Abs format (unit mm)*
G04 Created by KiCad (PCBNEW 7.0.6) date 2024-09-20 23:29:42*
%MOMM*%
%LPD*%
G01*
G04 APERTURE LIST*
G04 Aperture macros list*
%AMRotRect*
0 Rectangle, with rotation*
0 The origin of the aperture is its center*
0 $1 length*
0 $2 width*
0 $3 Rotation angle, in degrees counterclockwise*
0 Add horizontal line*
21,1,$1,$2,0,0,$3*%
G04 Aperture macros list end*
%ADD10C,1.701800*%
%ADD11C,3.000000*%
%ADD12C,3.429000*%
%ADD13C,0.990600*%
%ADD14R,2.600000X2.600000*%
%ADD15RotRect,2.600000X2.600000X350.000000*%
%ADD16C,2.500000*%
%ADD17C,0.850000*%
%ADD18RotRect,2.600000X2.600000X335.000000*%
%ADD19C,1.000000*%
%ADD20C,1.752600*%
G04 APERTURE END LIST*
D10*
X236500000Y-55000000D03*
D11*
X237000000Y-58750000D03*
D12*
X242000000Y-55000000D03*
D11*
X242000000Y-60950000D03*
D13*
X247220000Y-50800000D03*
D10*
X247500000Y-55000000D03*
D14*
X245275000Y-60950000D03*
X233725000Y-58750000D03*
D10*
X228583557Y-89044935D03*
D11*
X228424781Y-92824788D03*
D12*
X234000000Y-90000000D03*
D11*
X232966793Y-95859606D03*
D13*
X239870019Y-86770251D03*
D10*
X239416443Y-90955065D03*
D15*
X236192039Y-96428304D03*
X225199535Y-92256090D03*
D16*
X261814583Y-85625000D03*
X256185417Y-82375000D03*
D10*
X218500000Y-36000000D03*
D11*
X219000000Y-39750000D03*
D12*
X224000000Y-36000000D03*
D11*
X224000000Y-41950000D03*
D13*
X229220000Y-31800000D03*
D10*
X229500000Y-36000000D03*
D14*
X227275000Y-41950000D03*
X215725000Y-39750000D03*
D10*
X236500000Y-72000000D03*
D11*
X237000000Y-75750000D03*
D12*
X242000000Y-72000000D03*
D11*
X242000000Y-77950000D03*
D13*
X247220000Y-67800000D03*
D10*
X247500000Y-72000000D03*
D14*
X245275000Y-77950000D03*
X233725000Y-75750000D03*
D10*
X175500000Y-49000000D03*
D11*
X175000000Y-45250000D03*
D12*
X170000000Y-49000000D03*
D11*
X170000000Y-43050000D03*
D13*
X164780000Y-53200000D03*
D10*
X164500000Y-49000000D03*
D14*
X166725000Y-43050000D03*
X178275000Y-45250000D03*
D10*
X182500000Y-71000000D03*
D11*
X183000000Y-74750000D03*
D12*
X188000000Y-71000000D03*
D11*
X188000000Y-76950000D03*
D13*
X193220000Y-66800000D03*
D10*
X193500000Y-71000000D03*
D14*
X191275000Y-76950000D03*
X179725000Y-74750000D03*
D10*
X200500000Y-47000000D03*
D11*
X201000000Y-50750000D03*
D12*
X206000000Y-47000000D03*
D11*
X206000000Y-52950000D03*
D13*
X211220000Y-42800000D03*
D10*
X211500000Y-47000000D03*
D14*
X209275000Y-52950000D03*
X197725000Y-50750000D03*
D17*
X270487443Y-83775751D03*
X272032557Y-81204249D03*
D10*
X248015307Y-93675600D03*
D11*
X246883643Y-97285563D03*
D12*
X253000000Y-96000000D03*
D11*
X250485421Y-101392531D03*
D13*
X259505923Y-94399575D03*
D10*
X257984693Y-98324400D03*
D18*
X253453579Y-102776606D03*
X243915485Y-95901488D03*
D19*
X252904000Y-77625000D03*
X252904000Y-76375000D03*
D10*
X175500000Y-66000000D03*
D11*
X175000000Y-62250000D03*
D12*
X170000000Y-66000000D03*
D11*
X170000000Y-60050000D03*
D13*
X164780000Y-70200000D03*
D10*
X164500000Y-66000000D03*
D14*
X166725000Y-60050000D03*
X178275000Y-62250000D03*
D20*
X253380000Y-43030000D03*
X253380000Y-45570000D03*
X253380000Y-48110000D03*
X253380000Y-50650000D03*
X253380000Y-53190000D03*
X253380000Y-55730000D03*
X253380000Y-58270000D03*
X253380000Y-60810000D03*
X253380000Y-63350000D03*
X253380000Y-65890000D03*
X253380000Y-68430000D03*
X253380000Y-70970000D03*
X268620000Y-70970000D03*
X268620000Y-68430000D03*
X268620000Y-65890000D03*
X268620000Y-63350000D03*
X268620000Y-60810000D03*
X268620000Y-58270000D03*
X268620000Y-55730000D03*
X268620000Y-53190000D03*
X268620000Y-50650000D03*
X268620000Y-48110000D03*
X268620000Y-45570000D03*
X268620000Y-43030000D03*
D10*
X200500000Y-64000000D03*
D11*
X201000000Y-67750000D03*
D12*
X206000000Y-64000000D03*
D11*
X206000000Y-69950000D03*
D13*
X211220000Y-59800000D03*
D10*
X211500000Y-64000000D03*
D14*
X209275000Y-69950000D03*
X197725000Y-67750000D03*
D10*
X200500000Y-30000000D03*
D11*
X201000000Y-33750000D03*
D12*
X206000000Y-30000000D03*
D11*
X206000000Y-35950000D03*
D13*
X211220000Y-25800000D03*
D10*
X211500000Y-30000000D03*
D14*
X209275000Y-35950000D03*
X197725000Y-33750000D03*
D10*
X236500000Y-38000000D03*
D11*
X237000000Y-41750000D03*
D12*
X242000000Y-38000000D03*
D11*
X242000000Y-43950000D03*
D13*
X247220000Y-33800000D03*
D10*
X247500000Y-38000000D03*
D14*
X245275000Y-43950000D03*
X233725000Y-41750000D03*
D10*
X218500000Y-70000000D03*
D11*
X219000000Y-73750000D03*
D12*
X224000000Y-70000000D03*
D11*
X224000000Y-75950000D03*
D13*
X229220000Y-65800000D03*
D10*
X229500000Y-70000000D03*
D14*
X227275000Y-75950000D03*
X215725000Y-73750000D03*
D10*
X182500000Y-37000000D03*
D11*
X183000000Y-40750000D03*
D12*
X188000000Y-37000000D03*
D11*
X188000000Y-42950000D03*
D13*
X193220000Y-32800000D03*
D10*
X193500000Y-37000000D03*
D14*
X191275000Y-42950000D03*
X179725000Y-40750000D03*
D10*
X182500000Y-54000000D03*
D11*
X183000000Y-57750000D03*
D12*
X188000000Y-54000000D03*
D11*
X188000000Y-59950000D03*
D13*
X193220000Y-49800000D03*
D10*
X193500000Y-54000000D03*
D14*
X191275000Y-59950000D03*
X179725000Y-57750000D03*
D10*
X218500000Y-53000000D03*
D11*
X219000000Y-56750000D03*
D12*
X224000000Y-53000000D03*
D11*
X224000000Y-58950000D03*
D13*
X229220000Y-48800000D03*
D10*
X229500000Y-53000000D03*
D14*
X227275000Y-58950000D03*
X215725000Y-56750000D03*
D10*
X175500000Y-83000000D03*
D11*
X175000000Y-79250000D03*
D12*
X170000000Y-83000000D03*
D11*
X170000000Y-77050000D03*
D13*
X164780000Y-87200000D03*
D10*
X164500000Y-83000000D03*
D14*
X166725000Y-77050000D03*
X178275000Y-79250000D03*
M02*
