G04 #@! TF.GenerationSoftware,KiCad,Pcbnew,7.0.6*
G04 #@! TF.CreationDate,2024-10-08T23:05:02+02:00*
G04 #@! TF.ProjectId,KoalaKeeb_v1,4b6f616c-614b-4656-9562-5f76312e6b69,rev?*
G04 #@! TF.SameCoordinates,Original*
G04 #@! TF.FileFunction,Legend,Bot*
G04 #@! TF.FilePolarity,Positive*
%FSLAX46Y46*%
G04 Gerber Fmt 4.6, Leading zero omitted, Abs format (unit mm)*
G04 Created by KiCad (PCBNEW 7.0.6) date 2024-10-08 23:05:02*
%MOMM*%
%LPD*%
G01*
G04 APERTURE LIST*
G04 Aperture macros list*
%AMRoundRect*
0 Rectangle with rounded corners*
0 $1 Rounding radius*
0 $2 $3 $4 $5 $6 $7 $8 $9 X,Y pos of 4 corners*
0 Add a 4 corners polygon primitive as box body*
4,1,4,$2,$3,$4,$5,$6,$7,$8,$9,$2,$3,0*
0 Add four circle primitives for the rounded corners*
1,1,$1+$1,$2,$3*
1,1,$1+$1,$4,$5*
1,1,$1+$1,$6,$7*
1,1,$1+$1,$8,$9*
0 Add four rect primitives between the rounded corners*
20,1,$1+$1,$2,$3,$4,$5,0*
20,1,$1+$1,$4,$5,$6,$7,0*
20,1,$1+$1,$6,$7,$8,$9,0*
20,1,$1+$1,$8,$9,$2,$3,0*%
%AMRotRect*
0 Rectangle, with rotation*
0 The origin of the aperture is its center*
0 $1 length*
0 $2 width*
0 $3 Rotation angle, in degrees counterclockwise*
0 Add horizontal line*
21,1,$1,$2,0,0,$3*%
G04 Aperture macros list end*
%ADD10C,0.150000*%
%ADD11C,1.752600*%
%ADD12C,0.500000*%
%ADD13C,1.701800*%
%ADD14C,3.000000*%
%ADD15C,3.429000*%
%ADD16C,0.990600*%
%ADD17R,2.600000X2.600000*%
%ADD18C,1.000000*%
%ADD19RotRect,2.600000X2.600000X350.000000*%
%ADD20C,2.500000*%
%ADD21RotRect,2.600000X2.600000X10.000000*%
%ADD22RotRect,2.600000X2.600000X25.000000*%
%ADD23C,0.850000*%
%ADD24RotRect,2.600000X2.600000X335.000000*%
%ADD25R,1.700000X0.820000*%
%ADD26RoundRect,0.205000X0.645000X0.205000X-0.645000X0.205000X-0.645000X-0.205000X0.645000X-0.205000X0*%
%ADD27RoundRect,0.205000X-0.645000X-0.205000X0.645000X-0.205000X0.645000X0.205000X-0.645000X0.205000X0*%
G04 APERTURE END LIST*
D10*
X260025070Y-55922905D02*
X259948880Y-55922905D01*
X259948880Y-55922905D02*
X259872689Y-55961000D01*
X259872689Y-55961000D02*
X259834594Y-55999095D01*
X259834594Y-55999095D02*
X259796499Y-56075286D01*
X259796499Y-56075286D02*
X259758404Y-56227667D01*
X259758404Y-56227667D02*
X259758404Y-56418143D01*
X259758404Y-56418143D02*
X259796499Y-56570524D01*
X259796499Y-56570524D02*
X259834594Y-56646714D01*
X259834594Y-56646714D02*
X259872689Y-56684810D01*
X259872689Y-56684810D02*
X259948880Y-56722905D01*
X259948880Y-56722905D02*
X260025070Y-56722905D01*
X260025070Y-56722905D02*
X260101261Y-56684810D01*
X260101261Y-56684810D02*
X260139356Y-56646714D01*
X260139356Y-56646714D02*
X260177451Y-56570524D01*
X260177451Y-56570524D02*
X260215547Y-56418143D01*
X260215547Y-56418143D02*
X260215547Y-56227667D01*
X260215547Y-56227667D02*
X260177451Y-56075286D01*
X260177451Y-56075286D02*
X260139356Y-55999095D01*
X260139356Y-55999095D02*
X260101261Y-55961000D01*
X260101261Y-55961000D02*
X260025070Y-55922905D01*
X259491737Y-55922905D02*
X258996499Y-55922905D01*
X258996499Y-55922905D02*
X259263165Y-56227667D01*
X259263165Y-56227667D02*
X259148880Y-56227667D01*
X259148880Y-56227667D02*
X259072689Y-56265762D01*
X259072689Y-56265762D02*
X259034594Y-56303857D01*
X259034594Y-56303857D02*
X258996499Y-56380048D01*
X258996499Y-56380048D02*
X258996499Y-56570524D01*
X258996499Y-56570524D02*
X259034594Y-56646714D01*
X259034594Y-56646714D02*
X259072689Y-56684810D01*
X259072689Y-56684810D02*
X259148880Y-56722905D01*
X259148880Y-56722905D02*
X259377451Y-56722905D01*
X259377451Y-56722905D02*
X259453642Y-56684810D01*
X259453642Y-56684810D02*
X259491737Y-56646714D01*
X258234594Y-56722905D02*
X258691737Y-56722905D01*
X258463165Y-56722905D02*
X258463165Y-55922905D01*
X258463165Y-55922905D02*
X258539356Y-56037190D01*
X258539356Y-56037190D02*
X258615546Y-56113381D01*
X258615546Y-56113381D02*
X258691737Y-56151476D01*
X259752070Y-48341000D02*
X259828260Y-48302905D01*
X259828260Y-48302905D02*
X259942546Y-48302905D01*
X259942546Y-48302905D02*
X260056832Y-48341000D01*
X260056832Y-48341000D02*
X260133022Y-48417190D01*
X260133022Y-48417190D02*
X260171117Y-48493381D01*
X260171117Y-48493381D02*
X260209213Y-48645762D01*
X260209213Y-48645762D02*
X260209213Y-48760048D01*
X260209213Y-48760048D02*
X260171117Y-48912429D01*
X260171117Y-48912429D02*
X260133022Y-48988619D01*
X260133022Y-48988619D02*
X260056832Y-49064810D01*
X260056832Y-49064810D02*
X259942546Y-49102905D01*
X259942546Y-49102905D02*
X259866355Y-49102905D01*
X259866355Y-49102905D02*
X259752070Y-49064810D01*
X259752070Y-49064810D02*
X259713974Y-49026714D01*
X259713974Y-49026714D02*
X259713974Y-48760048D01*
X259713974Y-48760048D02*
X259866355Y-48760048D01*
X259371117Y-49102905D02*
X259371117Y-48302905D01*
X259371117Y-48302905D02*
X258913974Y-49102905D01*
X258913974Y-49102905D02*
X258913974Y-48302905D01*
X258533022Y-49102905D02*
X258533022Y-48302905D01*
X258533022Y-48302905D02*
X258342546Y-48302905D01*
X258342546Y-48302905D02*
X258228260Y-48341000D01*
X258228260Y-48341000D02*
X258152070Y-48417190D01*
X258152070Y-48417190D02*
X258113975Y-48493381D01*
X258113975Y-48493381D02*
X258075879Y-48645762D01*
X258075879Y-48645762D02*
X258075879Y-48760048D01*
X258075879Y-48760048D02*
X258113975Y-48912429D01*
X258113975Y-48912429D02*
X258152070Y-48988619D01*
X258152070Y-48988619D02*
X258228260Y-49064810D01*
X258228260Y-49064810D02*
X258342546Y-49102905D01*
X258342546Y-49102905D02*
X258533022Y-49102905D01*
X260025070Y-71162905D02*
X259948880Y-71162905D01*
X259948880Y-71162905D02*
X259872689Y-71201000D01*
X259872689Y-71201000D02*
X259834594Y-71239095D01*
X259834594Y-71239095D02*
X259796499Y-71315286D01*
X259796499Y-71315286D02*
X259758404Y-71467667D01*
X259758404Y-71467667D02*
X259758404Y-71658143D01*
X259758404Y-71658143D02*
X259796499Y-71810524D01*
X259796499Y-71810524D02*
X259834594Y-71886714D01*
X259834594Y-71886714D02*
X259872689Y-71924810D01*
X259872689Y-71924810D02*
X259948880Y-71962905D01*
X259948880Y-71962905D02*
X260025070Y-71962905D01*
X260025070Y-71962905D02*
X260101261Y-71924810D01*
X260101261Y-71924810D02*
X260139356Y-71886714D01*
X260139356Y-71886714D02*
X260177451Y-71810524D01*
X260177451Y-71810524D02*
X260215547Y-71658143D01*
X260215547Y-71658143D02*
X260215547Y-71467667D01*
X260215547Y-71467667D02*
X260177451Y-71315286D01*
X260177451Y-71315286D02*
X260139356Y-71239095D01*
X260139356Y-71239095D02*
X260101261Y-71201000D01*
X260101261Y-71201000D02*
X260025070Y-71162905D01*
X258996499Y-71962905D02*
X259453642Y-71962905D01*
X259225070Y-71962905D02*
X259225070Y-71162905D01*
X259225070Y-71162905D02*
X259301261Y-71277190D01*
X259301261Y-71277190D02*
X259377451Y-71353381D01*
X259377451Y-71353381D02*
X259453642Y-71391476D01*
X258501260Y-71162905D02*
X258425070Y-71162905D01*
X258425070Y-71162905D02*
X258348879Y-71201000D01*
X258348879Y-71201000D02*
X258310784Y-71239095D01*
X258310784Y-71239095D02*
X258272689Y-71315286D01*
X258272689Y-71315286D02*
X258234594Y-71467667D01*
X258234594Y-71467667D02*
X258234594Y-71658143D01*
X258234594Y-71658143D02*
X258272689Y-71810524D01*
X258272689Y-71810524D02*
X258310784Y-71886714D01*
X258310784Y-71886714D02*
X258348879Y-71924810D01*
X258348879Y-71924810D02*
X258425070Y-71962905D01*
X258425070Y-71962905D02*
X258501260Y-71962905D01*
X258501260Y-71962905D02*
X258577451Y-71924810D01*
X258577451Y-71924810D02*
X258615546Y-71886714D01*
X258615546Y-71886714D02*
X258653641Y-71810524D01*
X258653641Y-71810524D02*
X258691737Y-71658143D01*
X258691737Y-71658143D02*
X258691737Y-71467667D01*
X258691737Y-71467667D02*
X258653641Y-71315286D01*
X258653641Y-71315286D02*
X258615546Y-71239095D01*
X258615546Y-71239095D02*
X258577451Y-71201000D01*
X258577451Y-71201000D02*
X258501260Y-71162905D01*
X248684023Y-71962905D02*
X249141166Y-71962905D01*
X248912594Y-71962905D02*
X248912594Y-71162905D01*
X248912594Y-71162905D02*
X248988785Y-71277190D01*
X248988785Y-71277190D02*
X249064975Y-71353381D01*
X249064975Y-71353381D02*
X249141166Y-71391476D01*
X248188784Y-71162905D02*
X248112594Y-71162905D01*
X248112594Y-71162905D02*
X248036403Y-71201000D01*
X248036403Y-71201000D02*
X247998308Y-71239095D01*
X247998308Y-71239095D02*
X247960213Y-71315286D01*
X247960213Y-71315286D02*
X247922118Y-71467667D01*
X247922118Y-71467667D02*
X247922118Y-71658143D01*
X247922118Y-71658143D02*
X247960213Y-71810524D01*
X247960213Y-71810524D02*
X247998308Y-71886714D01*
X247998308Y-71886714D02*
X248036403Y-71924810D01*
X248036403Y-71924810D02*
X248112594Y-71962905D01*
X248112594Y-71962905D02*
X248188784Y-71962905D01*
X248188784Y-71962905D02*
X248264975Y-71924810D01*
X248264975Y-71924810D02*
X248303070Y-71886714D01*
X248303070Y-71886714D02*
X248341165Y-71810524D01*
X248341165Y-71810524D02*
X248379261Y-71658143D01*
X248379261Y-71658143D02*
X248379261Y-71467667D01*
X248379261Y-71467667D02*
X248341165Y-71315286D01*
X248341165Y-71315286D02*
X248303070Y-71239095D01*
X248303070Y-71239095D02*
X248264975Y-71201000D01*
X248264975Y-71201000D02*
X248188784Y-71162905D01*
X247236403Y-71429571D02*
X247236403Y-71962905D01*
X247426879Y-71124810D02*
X247617356Y-71696238D01*
X247617356Y-71696238D02*
X247122117Y-71696238D01*
X248836403Y-50881000D02*
X248912593Y-50842905D01*
X248912593Y-50842905D02*
X249026879Y-50842905D01*
X249026879Y-50842905D02*
X249141165Y-50881000D01*
X249141165Y-50881000D02*
X249217355Y-50957190D01*
X249217355Y-50957190D02*
X249255450Y-51033381D01*
X249255450Y-51033381D02*
X249293546Y-51185762D01*
X249293546Y-51185762D02*
X249293546Y-51300048D01*
X249293546Y-51300048D02*
X249255450Y-51452429D01*
X249255450Y-51452429D02*
X249217355Y-51528619D01*
X249217355Y-51528619D02*
X249141165Y-51604810D01*
X249141165Y-51604810D02*
X249026879Y-51642905D01*
X249026879Y-51642905D02*
X248950688Y-51642905D01*
X248950688Y-51642905D02*
X248836403Y-51604810D01*
X248836403Y-51604810D02*
X248798307Y-51566714D01*
X248798307Y-51566714D02*
X248798307Y-51300048D01*
X248798307Y-51300048D02*
X248950688Y-51300048D01*
X248455450Y-51642905D02*
X248455450Y-50842905D01*
X248455450Y-50842905D02*
X247998307Y-51642905D01*
X247998307Y-51642905D02*
X247998307Y-50842905D01*
X247617355Y-51642905D02*
X247617355Y-50842905D01*
X247617355Y-50842905D02*
X247426879Y-50842905D01*
X247426879Y-50842905D02*
X247312593Y-50881000D01*
X247312593Y-50881000D02*
X247236403Y-50957190D01*
X247236403Y-50957190D02*
X247198308Y-51033381D01*
X247198308Y-51033381D02*
X247160212Y-51185762D01*
X247160212Y-51185762D02*
X247160212Y-51300048D01*
X247160212Y-51300048D02*
X247198308Y-51452429D01*
X247198308Y-51452429D02*
X247236403Y-51528619D01*
X247236403Y-51528619D02*
X247312593Y-51604810D01*
X247312593Y-51604810D02*
X247426879Y-51642905D01*
X247426879Y-51642905D02*
X247617355Y-51642905D01*
X259758404Y-66882905D02*
X260215547Y-66882905D01*
X259986975Y-66882905D02*
X259986975Y-66082905D01*
X259986975Y-66082905D02*
X260063166Y-66197190D01*
X260063166Y-66197190D02*
X260139356Y-66273381D01*
X260139356Y-66273381D02*
X260215547Y-66311476D01*
X258996499Y-66882905D02*
X259453642Y-66882905D01*
X259225070Y-66882905D02*
X259225070Y-66082905D01*
X259225070Y-66082905D02*
X259301261Y-66197190D01*
X259301261Y-66197190D02*
X259377451Y-66273381D01*
X259377451Y-66273381D02*
X259453642Y-66311476D01*
X258729832Y-66082905D02*
X258234594Y-66082905D01*
X258234594Y-66082905D02*
X258501260Y-66387667D01*
X258501260Y-66387667D02*
X258386975Y-66387667D01*
X258386975Y-66387667D02*
X258310784Y-66425762D01*
X258310784Y-66425762D02*
X258272689Y-66463857D01*
X258272689Y-66463857D02*
X258234594Y-66540048D01*
X258234594Y-66540048D02*
X258234594Y-66730524D01*
X258234594Y-66730524D02*
X258272689Y-66806714D01*
X258272689Y-66806714D02*
X258310784Y-66844810D01*
X258310784Y-66844810D02*
X258386975Y-66882905D01*
X258386975Y-66882905D02*
X258615546Y-66882905D01*
X258615546Y-66882905D02*
X258691737Y-66844810D01*
X258691737Y-66844810D02*
X258729832Y-66806714D01*
X248836403Y-53421000D02*
X248912593Y-53382905D01*
X248912593Y-53382905D02*
X249026879Y-53382905D01*
X249026879Y-53382905D02*
X249141165Y-53421000D01*
X249141165Y-53421000D02*
X249217355Y-53497190D01*
X249217355Y-53497190D02*
X249255450Y-53573381D01*
X249255450Y-53573381D02*
X249293546Y-53725762D01*
X249293546Y-53725762D02*
X249293546Y-53840048D01*
X249293546Y-53840048D02*
X249255450Y-53992429D01*
X249255450Y-53992429D02*
X249217355Y-54068619D01*
X249217355Y-54068619D02*
X249141165Y-54144810D01*
X249141165Y-54144810D02*
X249026879Y-54182905D01*
X249026879Y-54182905D02*
X248950688Y-54182905D01*
X248950688Y-54182905D02*
X248836403Y-54144810D01*
X248836403Y-54144810D02*
X248798307Y-54106714D01*
X248798307Y-54106714D02*
X248798307Y-53840048D01*
X248798307Y-53840048D02*
X248950688Y-53840048D01*
X248455450Y-54182905D02*
X248455450Y-53382905D01*
X248455450Y-53382905D02*
X247998307Y-54182905D01*
X247998307Y-54182905D02*
X247998307Y-53382905D01*
X247617355Y-54182905D02*
X247617355Y-53382905D01*
X247617355Y-53382905D02*
X247426879Y-53382905D01*
X247426879Y-53382905D02*
X247312593Y-53421000D01*
X247312593Y-53421000D02*
X247236403Y-53497190D01*
X247236403Y-53497190D02*
X247198308Y-53573381D01*
X247198308Y-53573381D02*
X247160212Y-53725762D01*
X247160212Y-53725762D02*
X247160212Y-53840048D01*
X247160212Y-53840048D02*
X247198308Y-53992429D01*
X247198308Y-53992429D02*
X247236403Y-54068619D01*
X247236403Y-54068619D02*
X247312593Y-54144810D01*
X247312593Y-54144810D02*
X247426879Y-54182905D01*
X247426879Y-54182905D02*
X247617355Y-54182905D01*
X259758404Y-64342905D02*
X260215547Y-64342905D01*
X259986975Y-64342905D02*
X259986975Y-63542905D01*
X259986975Y-63542905D02*
X260063166Y-63657190D01*
X260063166Y-63657190D02*
X260139356Y-63733381D01*
X260139356Y-63733381D02*
X260215547Y-63771476D01*
X258996499Y-64342905D02*
X259453642Y-64342905D01*
X259225070Y-64342905D02*
X259225070Y-63542905D01*
X259225070Y-63542905D02*
X259301261Y-63657190D01*
X259301261Y-63657190D02*
X259377451Y-63733381D01*
X259377451Y-63733381D02*
X259453642Y-63771476D01*
X258272689Y-63542905D02*
X258653641Y-63542905D01*
X258653641Y-63542905D02*
X258691737Y-63923857D01*
X258691737Y-63923857D02*
X258653641Y-63885762D01*
X258653641Y-63885762D02*
X258577451Y-63847667D01*
X258577451Y-63847667D02*
X258386975Y-63847667D01*
X258386975Y-63847667D02*
X258310784Y-63885762D01*
X258310784Y-63885762D02*
X258272689Y-63923857D01*
X258272689Y-63923857D02*
X258234594Y-64000048D01*
X258234594Y-64000048D02*
X258234594Y-64190524D01*
X258234594Y-64190524D02*
X258272689Y-64266714D01*
X258272689Y-64266714D02*
X258310784Y-64304810D01*
X258310784Y-64304810D02*
X258386975Y-64342905D01*
X258386975Y-64342905D02*
X258577451Y-64342905D01*
X258577451Y-64342905D02*
X258653641Y-64304810D01*
X258653641Y-64304810D02*
X258691737Y-64266714D01*
X248950689Y-55922905D02*
X248874499Y-55922905D01*
X248874499Y-55922905D02*
X248798308Y-55961000D01*
X248798308Y-55961000D02*
X248760213Y-55999095D01*
X248760213Y-55999095D02*
X248722118Y-56075286D01*
X248722118Y-56075286D02*
X248684023Y-56227667D01*
X248684023Y-56227667D02*
X248684023Y-56418143D01*
X248684023Y-56418143D02*
X248722118Y-56570524D01*
X248722118Y-56570524D02*
X248760213Y-56646714D01*
X248760213Y-56646714D02*
X248798308Y-56684810D01*
X248798308Y-56684810D02*
X248874499Y-56722905D01*
X248874499Y-56722905D02*
X248950689Y-56722905D01*
X248950689Y-56722905D02*
X249026880Y-56684810D01*
X249026880Y-56684810D02*
X249064975Y-56646714D01*
X249064975Y-56646714D02*
X249103070Y-56570524D01*
X249103070Y-56570524D02*
X249141166Y-56418143D01*
X249141166Y-56418143D02*
X249141166Y-56227667D01*
X249141166Y-56227667D02*
X249103070Y-56075286D01*
X249103070Y-56075286D02*
X249064975Y-55999095D01*
X249064975Y-55999095D02*
X249026880Y-55961000D01*
X249026880Y-55961000D02*
X248950689Y-55922905D01*
X247922118Y-56722905D02*
X248379261Y-56722905D01*
X248150689Y-56722905D02*
X248150689Y-55922905D01*
X248150689Y-55922905D02*
X248226880Y-56037190D01*
X248226880Y-56037190D02*
X248303070Y-56113381D01*
X248303070Y-56113381D02*
X248379261Y-56151476D01*
X247655451Y-55922905D02*
X247122117Y-55922905D01*
X247122117Y-55922905D02*
X247464975Y-56722905D01*
X259713975Y-46562905D02*
X259980642Y-46181952D01*
X260171118Y-46562905D02*
X260171118Y-45762905D01*
X260171118Y-45762905D02*
X259866356Y-45762905D01*
X259866356Y-45762905D02*
X259790166Y-45801000D01*
X259790166Y-45801000D02*
X259752071Y-45839095D01*
X259752071Y-45839095D02*
X259713975Y-45915286D01*
X259713975Y-45915286D02*
X259713975Y-46029571D01*
X259713975Y-46029571D02*
X259752071Y-46105762D01*
X259752071Y-46105762D02*
X259790166Y-46143857D01*
X259790166Y-46143857D02*
X259866356Y-46181952D01*
X259866356Y-46181952D02*
X260171118Y-46181952D01*
X259409214Y-46334333D02*
X259028261Y-46334333D01*
X259485404Y-46562905D02*
X259218737Y-45762905D01*
X259218737Y-45762905D02*
X258952071Y-46562905D01*
X258761595Y-45762905D02*
X258571119Y-46562905D01*
X258571119Y-46562905D02*
X258418738Y-45991476D01*
X258418738Y-45991476D02*
X258266357Y-46562905D01*
X258266357Y-46562905D02*
X258075881Y-45762905D01*
X248950689Y-61032905D02*
X248874499Y-61032905D01*
X248874499Y-61032905D02*
X248798308Y-61071000D01*
X248798308Y-61071000D02*
X248760213Y-61109095D01*
X248760213Y-61109095D02*
X248722118Y-61185286D01*
X248722118Y-61185286D02*
X248684023Y-61337667D01*
X248684023Y-61337667D02*
X248684023Y-61528143D01*
X248684023Y-61528143D02*
X248722118Y-61680524D01*
X248722118Y-61680524D02*
X248760213Y-61756714D01*
X248760213Y-61756714D02*
X248798308Y-61794810D01*
X248798308Y-61794810D02*
X248874499Y-61832905D01*
X248874499Y-61832905D02*
X248950689Y-61832905D01*
X248950689Y-61832905D02*
X249026880Y-61794810D01*
X249026880Y-61794810D02*
X249064975Y-61756714D01*
X249064975Y-61756714D02*
X249103070Y-61680524D01*
X249103070Y-61680524D02*
X249141166Y-61528143D01*
X249141166Y-61528143D02*
X249141166Y-61337667D01*
X249141166Y-61337667D02*
X249103070Y-61185286D01*
X249103070Y-61185286D02*
X249064975Y-61109095D01*
X249064975Y-61109095D02*
X249026880Y-61071000D01*
X249026880Y-61071000D02*
X248950689Y-61032905D01*
X248379261Y-61109095D02*
X248341165Y-61071000D01*
X248341165Y-61071000D02*
X248264975Y-61032905D01*
X248264975Y-61032905D02*
X248074499Y-61032905D01*
X248074499Y-61032905D02*
X247998308Y-61071000D01*
X247998308Y-61071000D02*
X247960213Y-61109095D01*
X247960213Y-61109095D02*
X247922118Y-61185286D01*
X247922118Y-61185286D02*
X247922118Y-61261476D01*
X247922118Y-61261476D02*
X247960213Y-61375762D01*
X247960213Y-61375762D02*
X248417356Y-61832905D01*
X248417356Y-61832905D02*
X247922118Y-61832905D01*
X247617356Y-61109095D02*
X247579260Y-61071000D01*
X247579260Y-61071000D02*
X247503070Y-61032905D01*
X247503070Y-61032905D02*
X247312594Y-61032905D01*
X247312594Y-61032905D02*
X247236403Y-61071000D01*
X247236403Y-61071000D02*
X247198308Y-61109095D01*
X247198308Y-61109095D02*
X247160213Y-61185286D01*
X247160213Y-61185286D02*
X247160213Y-61261476D01*
X247160213Y-61261476D02*
X247198308Y-61375762D01*
X247198308Y-61375762D02*
X247655451Y-61832905D01*
X247655451Y-61832905D02*
X247160213Y-61832905D01*
X248950689Y-63532905D02*
X248874499Y-63532905D01*
X248874499Y-63532905D02*
X248798308Y-63571000D01*
X248798308Y-63571000D02*
X248760213Y-63609095D01*
X248760213Y-63609095D02*
X248722118Y-63685286D01*
X248722118Y-63685286D02*
X248684023Y-63837667D01*
X248684023Y-63837667D02*
X248684023Y-64028143D01*
X248684023Y-64028143D02*
X248722118Y-64180524D01*
X248722118Y-64180524D02*
X248760213Y-64256714D01*
X248760213Y-64256714D02*
X248798308Y-64294810D01*
X248798308Y-64294810D02*
X248874499Y-64332905D01*
X248874499Y-64332905D02*
X248950689Y-64332905D01*
X248950689Y-64332905D02*
X249026880Y-64294810D01*
X249026880Y-64294810D02*
X249064975Y-64256714D01*
X249064975Y-64256714D02*
X249103070Y-64180524D01*
X249103070Y-64180524D02*
X249141166Y-64028143D01*
X249141166Y-64028143D02*
X249141166Y-63837667D01*
X249141166Y-63837667D02*
X249103070Y-63685286D01*
X249103070Y-63685286D02*
X249064975Y-63609095D01*
X249064975Y-63609095D02*
X249026880Y-63571000D01*
X249026880Y-63571000D02*
X248950689Y-63532905D01*
X248379261Y-63609095D02*
X248341165Y-63571000D01*
X248341165Y-63571000D02*
X248264975Y-63532905D01*
X248264975Y-63532905D02*
X248074499Y-63532905D01*
X248074499Y-63532905D02*
X247998308Y-63571000D01*
X247998308Y-63571000D02*
X247960213Y-63609095D01*
X247960213Y-63609095D02*
X247922118Y-63685286D01*
X247922118Y-63685286D02*
X247922118Y-63761476D01*
X247922118Y-63761476D02*
X247960213Y-63875762D01*
X247960213Y-63875762D02*
X248417356Y-64332905D01*
X248417356Y-64332905D02*
X247922118Y-64332905D01*
X247236403Y-63799571D02*
X247236403Y-64332905D01*
X247426879Y-63494810D02*
X247617356Y-64066238D01*
X247617356Y-64066238D02*
X247122117Y-64066238D01*
X248950689Y-45762905D02*
X248874499Y-45762905D01*
X248874499Y-45762905D02*
X248798308Y-45801000D01*
X248798308Y-45801000D02*
X248760213Y-45839095D01*
X248760213Y-45839095D02*
X248722118Y-45915286D01*
X248722118Y-45915286D02*
X248684023Y-46067667D01*
X248684023Y-46067667D02*
X248684023Y-46258143D01*
X248684023Y-46258143D02*
X248722118Y-46410524D01*
X248722118Y-46410524D02*
X248760213Y-46486714D01*
X248760213Y-46486714D02*
X248798308Y-46524810D01*
X248798308Y-46524810D02*
X248874499Y-46562905D01*
X248874499Y-46562905D02*
X248950689Y-46562905D01*
X248950689Y-46562905D02*
X249026880Y-46524810D01*
X249026880Y-46524810D02*
X249064975Y-46486714D01*
X249064975Y-46486714D02*
X249103070Y-46410524D01*
X249103070Y-46410524D02*
X249141166Y-46258143D01*
X249141166Y-46258143D02*
X249141166Y-46067667D01*
X249141166Y-46067667D02*
X249103070Y-45915286D01*
X249103070Y-45915286D02*
X249064975Y-45839095D01*
X249064975Y-45839095D02*
X249026880Y-45801000D01*
X249026880Y-45801000D02*
X248950689Y-45762905D01*
X248188784Y-45762905D02*
X248112594Y-45762905D01*
X248112594Y-45762905D02*
X248036403Y-45801000D01*
X248036403Y-45801000D02*
X247998308Y-45839095D01*
X247998308Y-45839095D02*
X247960213Y-45915286D01*
X247960213Y-45915286D02*
X247922118Y-46067667D01*
X247922118Y-46067667D02*
X247922118Y-46258143D01*
X247922118Y-46258143D02*
X247960213Y-46410524D01*
X247960213Y-46410524D02*
X247998308Y-46486714D01*
X247998308Y-46486714D02*
X248036403Y-46524810D01*
X248036403Y-46524810D02*
X248112594Y-46562905D01*
X248112594Y-46562905D02*
X248188784Y-46562905D01*
X248188784Y-46562905D02*
X248264975Y-46524810D01*
X248264975Y-46524810D02*
X248303070Y-46486714D01*
X248303070Y-46486714D02*
X248341165Y-46410524D01*
X248341165Y-46410524D02*
X248379261Y-46258143D01*
X248379261Y-46258143D02*
X248379261Y-46067667D01*
X248379261Y-46067667D02*
X248341165Y-45915286D01*
X248341165Y-45915286D02*
X248303070Y-45839095D01*
X248303070Y-45839095D02*
X248264975Y-45801000D01*
X248264975Y-45801000D02*
X248188784Y-45762905D01*
X247236403Y-45762905D02*
X247388784Y-45762905D01*
X247388784Y-45762905D02*
X247464975Y-45801000D01*
X247464975Y-45801000D02*
X247503070Y-45839095D01*
X247503070Y-45839095D02*
X247579260Y-45953381D01*
X247579260Y-45953381D02*
X247617356Y-46105762D01*
X247617356Y-46105762D02*
X247617356Y-46410524D01*
X247617356Y-46410524D02*
X247579260Y-46486714D01*
X247579260Y-46486714D02*
X247541165Y-46524810D01*
X247541165Y-46524810D02*
X247464975Y-46562905D01*
X247464975Y-46562905D02*
X247312594Y-46562905D01*
X247312594Y-46562905D02*
X247236403Y-46524810D01*
X247236403Y-46524810D02*
X247198308Y-46486714D01*
X247198308Y-46486714D02*
X247160213Y-46410524D01*
X247160213Y-46410524D02*
X247160213Y-46220048D01*
X247160213Y-46220048D02*
X247198308Y-46143857D01*
X247198308Y-46143857D02*
X247236403Y-46105762D01*
X247236403Y-46105762D02*
X247312594Y-46067667D01*
X247312594Y-46067667D02*
X247464975Y-46067667D01*
X247464975Y-46067667D02*
X247541165Y-46105762D01*
X247541165Y-46105762D02*
X247579260Y-46143857D01*
X247579260Y-46143857D02*
X247617356Y-46220048D01*
X260025070Y-58462905D02*
X259948880Y-58462905D01*
X259948880Y-58462905D02*
X259872689Y-58501000D01*
X259872689Y-58501000D02*
X259834594Y-58539095D01*
X259834594Y-58539095D02*
X259796499Y-58615286D01*
X259796499Y-58615286D02*
X259758404Y-58767667D01*
X259758404Y-58767667D02*
X259758404Y-58958143D01*
X259758404Y-58958143D02*
X259796499Y-59110524D01*
X259796499Y-59110524D02*
X259834594Y-59186714D01*
X259834594Y-59186714D02*
X259872689Y-59224810D01*
X259872689Y-59224810D02*
X259948880Y-59262905D01*
X259948880Y-59262905D02*
X260025070Y-59262905D01*
X260025070Y-59262905D02*
X260101261Y-59224810D01*
X260101261Y-59224810D02*
X260139356Y-59186714D01*
X260139356Y-59186714D02*
X260177451Y-59110524D01*
X260177451Y-59110524D02*
X260215547Y-58958143D01*
X260215547Y-58958143D02*
X260215547Y-58767667D01*
X260215547Y-58767667D02*
X260177451Y-58615286D01*
X260177451Y-58615286D02*
X260139356Y-58539095D01*
X260139356Y-58539095D02*
X260101261Y-58501000D01*
X260101261Y-58501000D02*
X260025070Y-58462905D01*
X259453642Y-58539095D02*
X259415546Y-58501000D01*
X259415546Y-58501000D02*
X259339356Y-58462905D01*
X259339356Y-58462905D02*
X259148880Y-58462905D01*
X259148880Y-58462905D02*
X259072689Y-58501000D01*
X259072689Y-58501000D02*
X259034594Y-58539095D01*
X259034594Y-58539095D02*
X258996499Y-58615286D01*
X258996499Y-58615286D02*
X258996499Y-58691476D01*
X258996499Y-58691476D02*
X259034594Y-58805762D01*
X259034594Y-58805762D02*
X259491737Y-59262905D01*
X259491737Y-59262905D02*
X258996499Y-59262905D01*
X258615546Y-59262905D02*
X258463165Y-59262905D01*
X258463165Y-59262905D02*
X258386975Y-59224810D01*
X258386975Y-59224810D02*
X258348879Y-59186714D01*
X258348879Y-59186714D02*
X258272689Y-59072429D01*
X258272689Y-59072429D02*
X258234594Y-58920048D01*
X258234594Y-58920048D02*
X258234594Y-58615286D01*
X258234594Y-58615286D02*
X258272689Y-58539095D01*
X258272689Y-58539095D02*
X258310784Y-58501000D01*
X258310784Y-58501000D02*
X258386975Y-58462905D01*
X258386975Y-58462905D02*
X258539356Y-58462905D01*
X258539356Y-58462905D02*
X258615546Y-58501000D01*
X258615546Y-58501000D02*
X258653641Y-58539095D01*
X258653641Y-58539095D02*
X258691737Y-58615286D01*
X258691737Y-58615286D02*
X258691737Y-58805762D01*
X258691737Y-58805762D02*
X258653641Y-58881952D01*
X258653641Y-58881952D02*
X258615546Y-58920048D01*
X258615546Y-58920048D02*
X258539356Y-58958143D01*
X258539356Y-58958143D02*
X258386975Y-58958143D01*
X258386975Y-58958143D02*
X258310784Y-58920048D01*
X258310784Y-58920048D02*
X258272689Y-58881952D01*
X258272689Y-58881952D02*
X258234594Y-58805762D01*
X248684023Y-66882905D02*
X249141166Y-66882905D01*
X248912594Y-66882905D02*
X248912594Y-66082905D01*
X248912594Y-66082905D02*
X248988785Y-66197190D01*
X248988785Y-66197190D02*
X249064975Y-66273381D01*
X249064975Y-66273381D02*
X249141166Y-66311476D01*
X248188784Y-66082905D02*
X248112594Y-66082905D01*
X248112594Y-66082905D02*
X248036403Y-66121000D01*
X248036403Y-66121000D02*
X247998308Y-66159095D01*
X247998308Y-66159095D02*
X247960213Y-66235286D01*
X247960213Y-66235286D02*
X247922118Y-66387667D01*
X247922118Y-66387667D02*
X247922118Y-66578143D01*
X247922118Y-66578143D02*
X247960213Y-66730524D01*
X247960213Y-66730524D02*
X247998308Y-66806714D01*
X247998308Y-66806714D02*
X248036403Y-66844810D01*
X248036403Y-66844810D02*
X248112594Y-66882905D01*
X248112594Y-66882905D02*
X248188784Y-66882905D01*
X248188784Y-66882905D02*
X248264975Y-66844810D01*
X248264975Y-66844810D02*
X248303070Y-66806714D01*
X248303070Y-66806714D02*
X248341165Y-66730524D01*
X248341165Y-66730524D02*
X248379261Y-66578143D01*
X248379261Y-66578143D02*
X248379261Y-66387667D01*
X248379261Y-66387667D02*
X248341165Y-66235286D01*
X248341165Y-66235286D02*
X248303070Y-66159095D01*
X248303070Y-66159095D02*
X248264975Y-66121000D01*
X248264975Y-66121000D02*
X248188784Y-66082905D01*
X247426879Y-66082905D02*
X247350689Y-66082905D01*
X247350689Y-66082905D02*
X247274498Y-66121000D01*
X247274498Y-66121000D02*
X247236403Y-66159095D01*
X247236403Y-66159095D02*
X247198308Y-66235286D01*
X247198308Y-66235286D02*
X247160213Y-66387667D01*
X247160213Y-66387667D02*
X247160213Y-66578143D01*
X247160213Y-66578143D02*
X247198308Y-66730524D01*
X247198308Y-66730524D02*
X247236403Y-66806714D01*
X247236403Y-66806714D02*
X247274498Y-66844810D01*
X247274498Y-66844810D02*
X247350689Y-66882905D01*
X247350689Y-66882905D02*
X247426879Y-66882905D01*
X247426879Y-66882905D02*
X247503070Y-66844810D01*
X247503070Y-66844810D02*
X247541165Y-66806714D01*
X247541165Y-66806714D02*
X247579260Y-66730524D01*
X247579260Y-66730524D02*
X247617356Y-66578143D01*
X247617356Y-66578143D02*
X247617356Y-66387667D01*
X247617356Y-66387667D02*
X247579260Y-66235286D01*
X247579260Y-66235286D02*
X247541165Y-66159095D01*
X247541165Y-66159095D02*
X247503070Y-66121000D01*
X247503070Y-66121000D02*
X247426879Y-66082905D01*
X259713974Y-51642905D02*
X259980641Y-51261952D01*
X260171117Y-51642905D02*
X260171117Y-50842905D01*
X260171117Y-50842905D02*
X259866355Y-50842905D01*
X259866355Y-50842905D02*
X259790165Y-50881000D01*
X259790165Y-50881000D02*
X259752070Y-50919095D01*
X259752070Y-50919095D02*
X259713974Y-50995286D01*
X259713974Y-50995286D02*
X259713974Y-51109571D01*
X259713974Y-51109571D02*
X259752070Y-51185762D01*
X259752070Y-51185762D02*
X259790165Y-51223857D01*
X259790165Y-51223857D02*
X259866355Y-51261952D01*
X259866355Y-51261952D02*
X260171117Y-51261952D01*
X259409213Y-51604810D02*
X259294927Y-51642905D01*
X259294927Y-51642905D02*
X259104451Y-51642905D01*
X259104451Y-51642905D02*
X259028260Y-51604810D01*
X259028260Y-51604810D02*
X258990165Y-51566714D01*
X258990165Y-51566714D02*
X258952070Y-51490524D01*
X258952070Y-51490524D02*
X258952070Y-51414333D01*
X258952070Y-51414333D02*
X258990165Y-51338143D01*
X258990165Y-51338143D02*
X259028260Y-51300048D01*
X259028260Y-51300048D02*
X259104451Y-51261952D01*
X259104451Y-51261952D02*
X259256832Y-51223857D01*
X259256832Y-51223857D02*
X259333022Y-51185762D01*
X259333022Y-51185762D02*
X259371117Y-51147667D01*
X259371117Y-51147667D02*
X259409213Y-51071476D01*
X259409213Y-51071476D02*
X259409213Y-50995286D01*
X259409213Y-50995286D02*
X259371117Y-50919095D01*
X259371117Y-50919095D02*
X259333022Y-50881000D01*
X259333022Y-50881000D02*
X259256832Y-50842905D01*
X259256832Y-50842905D02*
X259066355Y-50842905D01*
X259066355Y-50842905D02*
X258952070Y-50881000D01*
X258723498Y-50842905D02*
X258266355Y-50842905D01*
X258494927Y-51642905D02*
X258494927Y-50842905D01*
X260025070Y-61002905D02*
X259948880Y-61002905D01*
X259948880Y-61002905D02*
X259872689Y-61041000D01*
X259872689Y-61041000D02*
X259834594Y-61079095D01*
X259834594Y-61079095D02*
X259796499Y-61155286D01*
X259796499Y-61155286D02*
X259758404Y-61307667D01*
X259758404Y-61307667D02*
X259758404Y-61498143D01*
X259758404Y-61498143D02*
X259796499Y-61650524D01*
X259796499Y-61650524D02*
X259834594Y-61726714D01*
X259834594Y-61726714D02*
X259872689Y-61764810D01*
X259872689Y-61764810D02*
X259948880Y-61802905D01*
X259948880Y-61802905D02*
X260025070Y-61802905D01*
X260025070Y-61802905D02*
X260101261Y-61764810D01*
X260101261Y-61764810D02*
X260139356Y-61726714D01*
X260139356Y-61726714D02*
X260177451Y-61650524D01*
X260177451Y-61650524D02*
X260215547Y-61498143D01*
X260215547Y-61498143D02*
X260215547Y-61307667D01*
X260215547Y-61307667D02*
X260177451Y-61155286D01*
X260177451Y-61155286D02*
X260139356Y-61079095D01*
X260139356Y-61079095D02*
X260101261Y-61041000D01*
X260101261Y-61041000D02*
X260025070Y-61002905D01*
X259263165Y-61002905D02*
X259186975Y-61002905D01*
X259186975Y-61002905D02*
X259110784Y-61041000D01*
X259110784Y-61041000D02*
X259072689Y-61079095D01*
X259072689Y-61079095D02*
X259034594Y-61155286D01*
X259034594Y-61155286D02*
X258996499Y-61307667D01*
X258996499Y-61307667D02*
X258996499Y-61498143D01*
X258996499Y-61498143D02*
X259034594Y-61650524D01*
X259034594Y-61650524D02*
X259072689Y-61726714D01*
X259072689Y-61726714D02*
X259110784Y-61764810D01*
X259110784Y-61764810D02*
X259186975Y-61802905D01*
X259186975Y-61802905D02*
X259263165Y-61802905D01*
X259263165Y-61802905D02*
X259339356Y-61764810D01*
X259339356Y-61764810D02*
X259377451Y-61726714D01*
X259377451Y-61726714D02*
X259415546Y-61650524D01*
X259415546Y-61650524D02*
X259453642Y-61498143D01*
X259453642Y-61498143D02*
X259453642Y-61307667D01*
X259453642Y-61307667D02*
X259415546Y-61155286D01*
X259415546Y-61155286D02*
X259377451Y-61079095D01*
X259377451Y-61079095D02*
X259339356Y-61041000D01*
X259339356Y-61041000D02*
X259263165Y-61002905D01*
X258691737Y-61079095D02*
X258653641Y-61041000D01*
X258653641Y-61041000D02*
X258577451Y-61002905D01*
X258577451Y-61002905D02*
X258386975Y-61002905D01*
X258386975Y-61002905D02*
X258310784Y-61041000D01*
X258310784Y-61041000D02*
X258272689Y-61079095D01*
X258272689Y-61079095D02*
X258234594Y-61155286D01*
X258234594Y-61155286D02*
X258234594Y-61231476D01*
X258234594Y-61231476D02*
X258272689Y-61345762D01*
X258272689Y-61345762D02*
X258729832Y-61802905D01*
X258729832Y-61802905D02*
X258234594Y-61802905D01*
X260291737Y-53382905D02*
X260025070Y-54182905D01*
X260025070Y-54182905D02*
X259758404Y-53382905D01*
X259034594Y-54106714D02*
X259072690Y-54144810D01*
X259072690Y-54144810D02*
X259186975Y-54182905D01*
X259186975Y-54182905D02*
X259263166Y-54182905D01*
X259263166Y-54182905D02*
X259377452Y-54144810D01*
X259377452Y-54144810D02*
X259453642Y-54068619D01*
X259453642Y-54068619D02*
X259491737Y-53992429D01*
X259491737Y-53992429D02*
X259529833Y-53840048D01*
X259529833Y-53840048D02*
X259529833Y-53725762D01*
X259529833Y-53725762D02*
X259491737Y-53573381D01*
X259491737Y-53573381D02*
X259453642Y-53497190D01*
X259453642Y-53497190D02*
X259377452Y-53421000D01*
X259377452Y-53421000D02*
X259263166Y-53382905D01*
X259263166Y-53382905D02*
X259186975Y-53382905D01*
X259186975Y-53382905D02*
X259072690Y-53421000D01*
X259072690Y-53421000D02*
X259034594Y-53459095D01*
X258234594Y-54106714D02*
X258272690Y-54144810D01*
X258272690Y-54144810D02*
X258386975Y-54182905D01*
X258386975Y-54182905D02*
X258463166Y-54182905D01*
X258463166Y-54182905D02*
X258577452Y-54144810D01*
X258577452Y-54144810D02*
X258653642Y-54068619D01*
X258653642Y-54068619D02*
X258691737Y-53992429D01*
X258691737Y-53992429D02*
X258729833Y-53840048D01*
X258729833Y-53840048D02*
X258729833Y-53725762D01*
X258729833Y-53725762D02*
X258691737Y-53573381D01*
X258691737Y-53573381D02*
X258653642Y-53497190D01*
X258653642Y-53497190D02*
X258577452Y-53421000D01*
X258577452Y-53421000D02*
X258463166Y-53382905D01*
X258463166Y-53382905D02*
X258386975Y-53382905D01*
X258386975Y-53382905D02*
X258272690Y-53421000D01*
X258272690Y-53421000D02*
X258234594Y-53459095D01*
X248950689Y-48232905D02*
X248874499Y-48232905D01*
X248874499Y-48232905D02*
X248798308Y-48271000D01*
X248798308Y-48271000D02*
X248760213Y-48309095D01*
X248760213Y-48309095D02*
X248722118Y-48385286D01*
X248722118Y-48385286D02*
X248684023Y-48537667D01*
X248684023Y-48537667D02*
X248684023Y-48728143D01*
X248684023Y-48728143D02*
X248722118Y-48880524D01*
X248722118Y-48880524D02*
X248760213Y-48956714D01*
X248760213Y-48956714D02*
X248798308Y-48994810D01*
X248798308Y-48994810D02*
X248874499Y-49032905D01*
X248874499Y-49032905D02*
X248950689Y-49032905D01*
X248950689Y-49032905D02*
X249026880Y-48994810D01*
X249026880Y-48994810D02*
X249064975Y-48956714D01*
X249064975Y-48956714D02*
X249103070Y-48880524D01*
X249103070Y-48880524D02*
X249141166Y-48728143D01*
X249141166Y-48728143D02*
X249141166Y-48537667D01*
X249141166Y-48537667D02*
X249103070Y-48385286D01*
X249103070Y-48385286D02*
X249064975Y-48309095D01*
X249064975Y-48309095D02*
X249026880Y-48271000D01*
X249026880Y-48271000D02*
X248950689Y-48232905D01*
X248188784Y-48232905D02*
X248112594Y-48232905D01*
X248112594Y-48232905D02*
X248036403Y-48271000D01*
X248036403Y-48271000D02*
X247998308Y-48309095D01*
X247998308Y-48309095D02*
X247960213Y-48385286D01*
X247960213Y-48385286D02*
X247922118Y-48537667D01*
X247922118Y-48537667D02*
X247922118Y-48728143D01*
X247922118Y-48728143D02*
X247960213Y-48880524D01*
X247960213Y-48880524D02*
X247998308Y-48956714D01*
X247998308Y-48956714D02*
X248036403Y-48994810D01*
X248036403Y-48994810D02*
X248112594Y-49032905D01*
X248112594Y-49032905D02*
X248188784Y-49032905D01*
X248188784Y-49032905D02*
X248264975Y-48994810D01*
X248264975Y-48994810D02*
X248303070Y-48956714D01*
X248303070Y-48956714D02*
X248341165Y-48880524D01*
X248341165Y-48880524D02*
X248379261Y-48728143D01*
X248379261Y-48728143D02*
X248379261Y-48537667D01*
X248379261Y-48537667D02*
X248341165Y-48385286D01*
X248341165Y-48385286D02*
X248303070Y-48309095D01*
X248303070Y-48309095D02*
X248264975Y-48271000D01*
X248264975Y-48271000D02*
X248188784Y-48232905D01*
X247464975Y-48575762D02*
X247541165Y-48537667D01*
X247541165Y-48537667D02*
X247579260Y-48499571D01*
X247579260Y-48499571D02*
X247617356Y-48423381D01*
X247617356Y-48423381D02*
X247617356Y-48385286D01*
X247617356Y-48385286D02*
X247579260Y-48309095D01*
X247579260Y-48309095D02*
X247541165Y-48271000D01*
X247541165Y-48271000D02*
X247464975Y-48232905D01*
X247464975Y-48232905D02*
X247312594Y-48232905D01*
X247312594Y-48232905D02*
X247236403Y-48271000D01*
X247236403Y-48271000D02*
X247198308Y-48309095D01*
X247198308Y-48309095D02*
X247160213Y-48385286D01*
X247160213Y-48385286D02*
X247160213Y-48423381D01*
X247160213Y-48423381D02*
X247198308Y-48499571D01*
X247198308Y-48499571D02*
X247236403Y-48537667D01*
X247236403Y-48537667D02*
X247312594Y-48575762D01*
X247312594Y-48575762D02*
X247464975Y-48575762D01*
X247464975Y-48575762D02*
X247541165Y-48613857D01*
X247541165Y-48613857D02*
X247579260Y-48651952D01*
X247579260Y-48651952D02*
X247617356Y-48728143D01*
X247617356Y-48728143D02*
X247617356Y-48880524D01*
X247617356Y-48880524D02*
X247579260Y-48956714D01*
X247579260Y-48956714D02*
X247541165Y-48994810D01*
X247541165Y-48994810D02*
X247464975Y-49032905D01*
X247464975Y-49032905D02*
X247312594Y-49032905D01*
X247312594Y-49032905D02*
X247236403Y-48994810D01*
X247236403Y-48994810D02*
X247198308Y-48956714D01*
X247198308Y-48956714D02*
X247160213Y-48880524D01*
X247160213Y-48880524D02*
X247160213Y-48728143D01*
X247160213Y-48728143D02*
X247198308Y-48651952D01*
X247198308Y-48651952D02*
X247236403Y-48613857D01*
X247236403Y-48613857D02*
X247312594Y-48575762D01*
X260027879Y-73742905D02*
X259951689Y-73742905D01*
X259951689Y-73742905D02*
X259875498Y-73781000D01*
X259875498Y-73781000D02*
X259837403Y-73819095D01*
X259837403Y-73819095D02*
X259799308Y-73895286D01*
X259799308Y-73895286D02*
X259761213Y-74047667D01*
X259761213Y-74047667D02*
X259761213Y-74238143D01*
X259761213Y-74238143D02*
X259799308Y-74390524D01*
X259799308Y-74390524D02*
X259837403Y-74466714D01*
X259837403Y-74466714D02*
X259875498Y-74504810D01*
X259875498Y-74504810D02*
X259951689Y-74542905D01*
X259951689Y-74542905D02*
X260027879Y-74542905D01*
X260027879Y-74542905D02*
X260104070Y-74504810D01*
X260104070Y-74504810D02*
X260142165Y-74466714D01*
X260142165Y-74466714D02*
X260180260Y-74390524D01*
X260180260Y-74390524D02*
X260218356Y-74238143D01*
X260218356Y-74238143D02*
X260218356Y-74047667D01*
X260218356Y-74047667D02*
X260180260Y-73895286D01*
X260180260Y-73895286D02*
X260142165Y-73819095D01*
X260142165Y-73819095D02*
X260104070Y-73781000D01*
X260104070Y-73781000D02*
X260027879Y-73742905D01*
X259265974Y-73742905D02*
X259189784Y-73742905D01*
X259189784Y-73742905D02*
X259113593Y-73781000D01*
X259113593Y-73781000D02*
X259075498Y-73819095D01*
X259075498Y-73819095D02*
X259037403Y-73895286D01*
X259037403Y-73895286D02*
X258999308Y-74047667D01*
X258999308Y-74047667D02*
X258999308Y-74238143D01*
X258999308Y-74238143D02*
X259037403Y-74390524D01*
X259037403Y-74390524D02*
X259075498Y-74466714D01*
X259075498Y-74466714D02*
X259113593Y-74504810D01*
X259113593Y-74504810D02*
X259189784Y-74542905D01*
X259189784Y-74542905D02*
X259265974Y-74542905D01*
X259265974Y-74542905D02*
X259342165Y-74504810D01*
X259342165Y-74504810D02*
X259380260Y-74466714D01*
X259380260Y-74466714D02*
X259418355Y-74390524D01*
X259418355Y-74390524D02*
X259456451Y-74238143D01*
X259456451Y-74238143D02*
X259456451Y-74047667D01*
X259456451Y-74047667D02*
X259418355Y-73895286D01*
X259418355Y-73895286D02*
X259380260Y-73819095D01*
X259380260Y-73819095D02*
X259342165Y-73781000D01*
X259342165Y-73781000D02*
X259265974Y-73742905D01*
X258618355Y-74542905D02*
X258465974Y-74542905D01*
X258465974Y-74542905D02*
X258389784Y-74504810D01*
X258389784Y-74504810D02*
X258351688Y-74466714D01*
X258351688Y-74466714D02*
X258275498Y-74352429D01*
X258275498Y-74352429D02*
X258237403Y-74200048D01*
X258237403Y-74200048D02*
X258237403Y-73895286D01*
X258237403Y-73895286D02*
X258275498Y-73819095D01*
X258275498Y-73819095D02*
X258313593Y-73781000D01*
X258313593Y-73781000D02*
X258389784Y-73742905D01*
X258389784Y-73742905D02*
X258542165Y-73742905D01*
X258542165Y-73742905D02*
X258618355Y-73781000D01*
X258618355Y-73781000D02*
X258656450Y-73819095D01*
X258656450Y-73819095D02*
X258694546Y-73895286D01*
X258694546Y-73895286D02*
X258694546Y-74085762D01*
X258694546Y-74085762D02*
X258656450Y-74161952D01*
X258656450Y-74161952D02*
X258618355Y-74200048D01*
X258618355Y-74200048D02*
X258542165Y-74238143D01*
X258542165Y-74238143D02*
X258389784Y-74238143D01*
X258389784Y-74238143D02*
X258313593Y-74200048D01*
X258313593Y-74200048D02*
X258275498Y-74161952D01*
X258275498Y-74161952D02*
X258237403Y-74085762D01*
X248691213Y-74512905D02*
X249148356Y-74512905D01*
X248919784Y-74512905D02*
X248919784Y-73712905D01*
X248919784Y-73712905D02*
X248995975Y-73827190D01*
X248995975Y-73827190D02*
X249072165Y-73903381D01*
X249072165Y-73903381D02*
X249148356Y-73941476D01*
X248195974Y-73712905D02*
X248119784Y-73712905D01*
X248119784Y-73712905D02*
X248043593Y-73751000D01*
X248043593Y-73751000D02*
X248005498Y-73789095D01*
X248005498Y-73789095D02*
X247967403Y-73865286D01*
X247967403Y-73865286D02*
X247929308Y-74017667D01*
X247929308Y-74017667D02*
X247929308Y-74208143D01*
X247929308Y-74208143D02*
X247967403Y-74360524D01*
X247967403Y-74360524D02*
X248005498Y-74436714D01*
X248005498Y-74436714D02*
X248043593Y-74474810D01*
X248043593Y-74474810D02*
X248119784Y-74512905D01*
X248119784Y-74512905D02*
X248195974Y-74512905D01*
X248195974Y-74512905D02*
X248272165Y-74474810D01*
X248272165Y-74474810D02*
X248310260Y-74436714D01*
X248310260Y-74436714D02*
X248348355Y-74360524D01*
X248348355Y-74360524D02*
X248386451Y-74208143D01*
X248386451Y-74208143D02*
X248386451Y-74017667D01*
X248386451Y-74017667D02*
X248348355Y-73865286D01*
X248348355Y-73865286D02*
X248310260Y-73789095D01*
X248310260Y-73789095D02*
X248272165Y-73751000D01*
X248272165Y-73751000D02*
X248195974Y-73712905D01*
X247243593Y-73712905D02*
X247395974Y-73712905D01*
X247395974Y-73712905D02*
X247472165Y-73751000D01*
X247472165Y-73751000D02*
X247510260Y-73789095D01*
X247510260Y-73789095D02*
X247586450Y-73903381D01*
X247586450Y-73903381D02*
X247624546Y-74055762D01*
X247624546Y-74055762D02*
X247624546Y-74360524D01*
X247624546Y-74360524D02*
X247586450Y-74436714D01*
X247586450Y-74436714D02*
X247548355Y-74474810D01*
X247548355Y-74474810D02*
X247472165Y-74512905D01*
X247472165Y-74512905D02*
X247319784Y-74512905D01*
X247319784Y-74512905D02*
X247243593Y-74474810D01*
X247243593Y-74474810D02*
X247205498Y-74436714D01*
X247205498Y-74436714D02*
X247167403Y-74360524D01*
X247167403Y-74360524D02*
X247167403Y-74170048D01*
X247167403Y-74170048D02*
X247205498Y-74093857D01*
X247205498Y-74093857D02*
X247243593Y-74055762D01*
X247243593Y-74055762D02*
X247319784Y-74017667D01*
X247319784Y-74017667D02*
X247472165Y-74017667D01*
X247472165Y-74017667D02*
X247548355Y-74055762D01*
X247548355Y-74055762D02*
X247586450Y-74093857D01*
X247586450Y-74093857D02*
X247624546Y-74170048D01*
X248957879Y-68672905D02*
X248881689Y-68672905D01*
X248881689Y-68672905D02*
X248805498Y-68711000D01*
X248805498Y-68711000D02*
X248767403Y-68749095D01*
X248767403Y-68749095D02*
X248729308Y-68825286D01*
X248729308Y-68825286D02*
X248691213Y-68977667D01*
X248691213Y-68977667D02*
X248691213Y-69168143D01*
X248691213Y-69168143D02*
X248729308Y-69320524D01*
X248729308Y-69320524D02*
X248767403Y-69396714D01*
X248767403Y-69396714D02*
X248805498Y-69434810D01*
X248805498Y-69434810D02*
X248881689Y-69472905D01*
X248881689Y-69472905D02*
X248957879Y-69472905D01*
X248957879Y-69472905D02*
X249034070Y-69434810D01*
X249034070Y-69434810D02*
X249072165Y-69396714D01*
X249072165Y-69396714D02*
X249110260Y-69320524D01*
X249110260Y-69320524D02*
X249148356Y-69168143D01*
X249148356Y-69168143D02*
X249148356Y-68977667D01*
X249148356Y-68977667D02*
X249110260Y-68825286D01*
X249110260Y-68825286D02*
X249072165Y-68749095D01*
X249072165Y-68749095D02*
X249034070Y-68711000D01*
X249034070Y-68711000D02*
X248957879Y-68672905D01*
X247929308Y-69472905D02*
X248386451Y-69472905D01*
X248157879Y-69472905D02*
X248157879Y-68672905D01*
X248157879Y-68672905D02*
X248234070Y-68787190D01*
X248234070Y-68787190D02*
X248310260Y-68863381D01*
X248310260Y-68863381D02*
X248386451Y-68901476D01*
X247167403Y-69472905D02*
X247624546Y-69472905D01*
X247395974Y-69472905D02*
X247395974Y-68672905D01*
X247395974Y-68672905D02*
X247472165Y-68787190D01*
X247472165Y-68787190D02*
X247548355Y-68863381D01*
X247548355Y-68863381D02*
X247624546Y-68901476D01*
X259758404Y-69422905D02*
X260215547Y-69422905D01*
X259986975Y-69422905D02*
X259986975Y-68622905D01*
X259986975Y-68622905D02*
X260063166Y-68737190D01*
X260063166Y-68737190D02*
X260139356Y-68813381D01*
X260139356Y-68813381D02*
X260215547Y-68851476D01*
X258996499Y-69422905D02*
X259453642Y-69422905D01*
X259225070Y-69422905D02*
X259225070Y-68622905D01*
X259225070Y-68622905D02*
X259301261Y-68737190D01*
X259301261Y-68737190D02*
X259377451Y-68813381D01*
X259377451Y-68813381D02*
X259453642Y-68851476D01*
X258234594Y-69422905D02*
X258691737Y-69422905D01*
X258463165Y-69422905D02*
X258463165Y-68622905D01*
X258463165Y-68622905D02*
X258539356Y-68737190D01*
X258539356Y-68737190D02*
X258615546Y-68813381D01*
X258615546Y-68813381D02*
X258691737Y-68851476D01*
X248950689Y-58532905D02*
X248874499Y-58532905D01*
X248874499Y-58532905D02*
X248798308Y-58571000D01*
X248798308Y-58571000D02*
X248760213Y-58609095D01*
X248760213Y-58609095D02*
X248722118Y-58685286D01*
X248722118Y-58685286D02*
X248684023Y-58837667D01*
X248684023Y-58837667D02*
X248684023Y-59028143D01*
X248684023Y-59028143D02*
X248722118Y-59180524D01*
X248722118Y-59180524D02*
X248760213Y-59256714D01*
X248760213Y-59256714D02*
X248798308Y-59294810D01*
X248798308Y-59294810D02*
X248874499Y-59332905D01*
X248874499Y-59332905D02*
X248950689Y-59332905D01*
X248950689Y-59332905D02*
X249026880Y-59294810D01*
X249026880Y-59294810D02*
X249064975Y-59256714D01*
X249064975Y-59256714D02*
X249103070Y-59180524D01*
X249103070Y-59180524D02*
X249141166Y-59028143D01*
X249141166Y-59028143D02*
X249141166Y-58837667D01*
X249141166Y-58837667D02*
X249103070Y-58685286D01*
X249103070Y-58685286D02*
X249064975Y-58609095D01*
X249064975Y-58609095D02*
X249026880Y-58571000D01*
X249026880Y-58571000D02*
X248950689Y-58532905D01*
X248379261Y-58609095D02*
X248341165Y-58571000D01*
X248341165Y-58571000D02*
X248264975Y-58532905D01*
X248264975Y-58532905D02*
X248074499Y-58532905D01*
X248074499Y-58532905D02*
X247998308Y-58571000D01*
X247998308Y-58571000D02*
X247960213Y-58609095D01*
X247960213Y-58609095D02*
X247922118Y-58685286D01*
X247922118Y-58685286D02*
X247922118Y-58761476D01*
X247922118Y-58761476D02*
X247960213Y-58875762D01*
X247960213Y-58875762D02*
X248417356Y-59332905D01*
X248417356Y-59332905D02*
X247922118Y-59332905D01*
X247426879Y-58532905D02*
X247350689Y-58532905D01*
X247350689Y-58532905D02*
X247274498Y-58571000D01*
X247274498Y-58571000D02*
X247236403Y-58609095D01*
X247236403Y-58609095D02*
X247198308Y-58685286D01*
X247198308Y-58685286D02*
X247160213Y-58837667D01*
X247160213Y-58837667D02*
X247160213Y-59028143D01*
X247160213Y-59028143D02*
X247198308Y-59180524D01*
X247198308Y-59180524D02*
X247236403Y-59256714D01*
X247236403Y-59256714D02*
X247274498Y-59294810D01*
X247274498Y-59294810D02*
X247350689Y-59332905D01*
X247350689Y-59332905D02*
X247426879Y-59332905D01*
X247426879Y-59332905D02*
X247503070Y-59294810D01*
X247503070Y-59294810D02*
X247541165Y-59256714D01*
X247541165Y-59256714D02*
X247579260Y-59180524D01*
X247579260Y-59180524D02*
X247617356Y-59028143D01*
X247617356Y-59028143D02*
X247617356Y-58837667D01*
X247617356Y-58837667D02*
X247579260Y-58685286D01*
X247579260Y-58685286D02*
X247541165Y-58609095D01*
X247541165Y-58609095D02*
X247503070Y-58571000D01*
X247503070Y-58571000D02*
X247426879Y-58532905D01*
X44572590Y-71852312D02*
X45029733Y-71852312D01*
X44801161Y-71852312D02*
X44801161Y-71052312D01*
X44801161Y-71052312D02*
X44877352Y-71166597D01*
X44877352Y-71166597D02*
X44953542Y-71242788D01*
X44953542Y-71242788D02*
X45029733Y-71280883D01*
X44077351Y-71052312D02*
X44001161Y-71052312D01*
X44001161Y-71052312D02*
X43924970Y-71090407D01*
X43924970Y-71090407D02*
X43886875Y-71128502D01*
X43886875Y-71128502D02*
X43848780Y-71204693D01*
X43848780Y-71204693D02*
X43810685Y-71357074D01*
X43810685Y-71357074D02*
X43810685Y-71547550D01*
X43810685Y-71547550D02*
X43848780Y-71699931D01*
X43848780Y-71699931D02*
X43886875Y-71776121D01*
X43886875Y-71776121D02*
X43924970Y-71814217D01*
X43924970Y-71814217D02*
X44001161Y-71852312D01*
X44001161Y-71852312D02*
X44077351Y-71852312D01*
X44077351Y-71852312D02*
X44153542Y-71814217D01*
X44153542Y-71814217D02*
X44191637Y-71776121D01*
X44191637Y-71776121D02*
X44229732Y-71699931D01*
X44229732Y-71699931D02*
X44267828Y-71547550D01*
X44267828Y-71547550D02*
X44267828Y-71357074D01*
X44267828Y-71357074D02*
X44229732Y-71204693D01*
X44229732Y-71204693D02*
X44191637Y-71128502D01*
X44191637Y-71128502D02*
X44153542Y-71090407D01*
X44153542Y-71090407D02*
X44077351Y-71052312D01*
X43124970Y-71318978D02*
X43124970Y-71852312D01*
X43315446Y-71014217D02*
X43505923Y-71585645D01*
X43505923Y-71585645D02*
X43010684Y-71585645D01*
X55646971Y-66772312D02*
X56104114Y-66772312D01*
X55875542Y-66772312D02*
X55875542Y-65972312D01*
X55875542Y-65972312D02*
X55951733Y-66086597D01*
X55951733Y-66086597D02*
X56027923Y-66162788D01*
X56027923Y-66162788D02*
X56104114Y-66200883D01*
X54885066Y-66772312D02*
X55342209Y-66772312D01*
X55113637Y-66772312D02*
X55113637Y-65972312D01*
X55113637Y-65972312D02*
X55189828Y-66086597D01*
X55189828Y-66086597D02*
X55266018Y-66162788D01*
X55266018Y-66162788D02*
X55342209Y-66200883D01*
X54618399Y-65972312D02*
X54123161Y-65972312D01*
X54123161Y-65972312D02*
X54389827Y-66277074D01*
X54389827Y-66277074D02*
X54275542Y-66277074D01*
X54275542Y-66277074D02*
X54199351Y-66315169D01*
X54199351Y-66315169D02*
X54161256Y-66353264D01*
X54161256Y-66353264D02*
X54123161Y-66429455D01*
X54123161Y-66429455D02*
X54123161Y-66619931D01*
X54123161Y-66619931D02*
X54161256Y-66696121D01*
X54161256Y-66696121D02*
X54199351Y-66734217D01*
X54199351Y-66734217D02*
X54275542Y-66772312D01*
X54275542Y-66772312D02*
X54504113Y-66772312D01*
X54504113Y-66772312D02*
X54580304Y-66734217D01*
X54580304Y-66734217D02*
X54618399Y-66696121D01*
X44839256Y-58422312D02*
X44763066Y-58422312D01*
X44763066Y-58422312D02*
X44686875Y-58460407D01*
X44686875Y-58460407D02*
X44648780Y-58498502D01*
X44648780Y-58498502D02*
X44610685Y-58574693D01*
X44610685Y-58574693D02*
X44572590Y-58727074D01*
X44572590Y-58727074D02*
X44572590Y-58917550D01*
X44572590Y-58917550D02*
X44610685Y-59069931D01*
X44610685Y-59069931D02*
X44648780Y-59146121D01*
X44648780Y-59146121D02*
X44686875Y-59184217D01*
X44686875Y-59184217D02*
X44763066Y-59222312D01*
X44763066Y-59222312D02*
X44839256Y-59222312D01*
X44839256Y-59222312D02*
X44915447Y-59184217D01*
X44915447Y-59184217D02*
X44953542Y-59146121D01*
X44953542Y-59146121D02*
X44991637Y-59069931D01*
X44991637Y-59069931D02*
X45029733Y-58917550D01*
X45029733Y-58917550D02*
X45029733Y-58727074D01*
X45029733Y-58727074D02*
X44991637Y-58574693D01*
X44991637Y-58574693D02*
X44953542Y-58498502D01*
X44953542Y-58498502D02*
X44915447Y-58460407D01*
X44915447Y-58460407D02*
X44839256Y-58422312D01*
X44267828Y-58498502D02*
X44229732Y-58460407D01*
X44229732Y-58460407D02*
X44153542Y-58422312D01*
X44153542Y-58422312D02*
X43963066Y-58422312D01*
X43963066Y-58422312D02*
X43886875Y-58460407D01*
X43886875Y-58460407D02*
X43848780Y-58498502D01*
X43848780Y-58498502D02*
X43810685Y-58574693D01*
X43810685Y-58574693D02*
X43810685Y-58650883D01*
X43810685Y-58650883D02*
X43848780Y-58765169D01*
X43848780Y-58765169D02*
X44305923Y-59222312D01*
X44305923Y-59222312D02*
X43810685Y-59222312D01*
X43315446Y-58422312D02*
X43239256Y-58422312D01*
X43239256Y-58422312D02*
X43163065Y-58460407D01*
X43163065Y-58460407D02*
X43124970Y-58498502D01*
X43124970Y-58498502D02*
X43086875Y-58574693D01*
X43086875Y-58574693D02*
X43048780Y-58727074D01*
X43048780Y-58727074D02*
X43048780Y-58917550D01*
X43048780Y-58917550D02*
X43086875Y-59069931D01*
X43086875Y-59069931D02*
X43124970Y-59146121D01*
X43124970Y-59146121D02*
X43163065Y-59184217D01*
X43163065Y-59184217D02*
X43239256Y-59222312D01*
X43239256Y-59222312D02*
X43315446Y-59222312D01*
X43315446Y-59222312D02*
X43391637Y-59184217D01*
X43391637Y-59184217D02*
X43429732Y-59146121D01*
X43429732Y-59146121D02*
X43467827Y-59069931D01*
X43467827Y-59069931D02*
X43505923Y-58917550D01*
X43505923Y-58917550D02*
X43505923Y-58727074D01*
X43505923Y-58727074D02*
X43467827Y-58574693D01*
X43467827Y-58574693D02*
X43429732Y-58498502D01*
X43429732Y-58498502D02*
X43391637Y-58460407D01*
X43391637Y-58460407D02*
X43315446Y-58422312D01*
X44839256Y-63422312D02*
X44763066Y-63422312D01*
X44763066Y-63422312D02*
X44686875Y-63460407D01*
X44686875Y-63460407D02*
X44648780Y-63498502D01*
X44648780Y-63498502D02*
X44610685Y-63574693D01*
X44610685Y-63574693D02*
X44572590Y-63727074D01*
X44572590Y-63727074D02*
X44572590Y-63917550D01*
X44572590Y-63917550D02*
X44610685Y-64069931D01*
X44610685Y-64069931D02*
X44648780Y-64146121D01*
X44648780Y-64146121D02*
X44686875Y-64184217D01*
X44686875Y-64184217D02*
X44763066Y-64222312D01*
X44763066Y-64222312D02*
X44839256Y-64222312D01*
X44839256Y-64222312D02*
X44915447Y-64184217D01*
X44915447Y-64184217D02*
X44953542Y-64146121D01*
X44953542Y-64146121D02*
X44991637Y-64069931D01*
X44991637Y-64069931D02*
X45029733Y-63917550D01*
X45029733Y-63917550D02*
X45029733Y-63727074D01*
X45029733Y-63727074D02*
X44991637Y-63574693D01*
X44991637Y-63574693D02*
X44953542Y-63498502D01*
X44953542Y-63498502D02*
X44915447Y-63460407D01*
X44915447Y-63460407D02*
X44839256Y-63422312D01*
X44267828Y-63498502D02*
X44229732Y-63460407D01*
X44229732Y-63460407D02*
X44153542Y-63422312D01*
X44153542Y-63422312D02*
X43963066Y-63422312D01*
X43963066Y-63422312D02*
X43886875Y-63460407D01*
X43886875Y-63460407D02*
X43848780Y-63498502D01*
X43848780Y-63498502D02*
X43810685Y-63574693D01*
X43810685Y-63574693D02*
X43810685Y-63650883D01*
X43810685Y-63650883D02*
X43848780Y-63765169D01*
X43848780Y-63765169D02*
X44305923Y-64222312D01*
X44305923Y-64222312D02*
X43810685Y-64222312D01*
X43124970Y-63688978D02*
X43124970Y-64222312D01*
X43315446Y-63384217D02*
X43505923Y-63955645D01*
X43505923Y-63955645D02*
X43010684Y-63955645D01*
X44724970Y-50770407D02*
X44801160Y-50732312D01*
X44801160Y-50732312D02*
X44915446Y-50732312D01*
X44915446Y-50732312D02*
X45029732Y-50770407D01*
X45029732Y-50770407D02*
X45105922Y-50846597D01*
X45105922Y-50846597D02*
X45144017Y-50922788D01*
X45144017Y-50922788D02*
X45182113Y-51075169D01*
X45182113Y-51075169D02*
X45182113Y-51189455D01*
X45182113Y-51189455D02*
X45144017Y-51341836D01*
X45144017Y-51341836D02*
X45105922Y-51418026D01*
X45105922Y-51418026D02*
X45029732Y-51494217D01*
X45029732Y-51494217D02*
X44915446Y-51532312D01*
X44915446Y-51532312D02*
X44839255Y-51532312D01*
X44839255Y-51532312D02*
X44724970Y-51494217D01*
X44724970Y-51494217D02*
X44686874Y-51456121D01*
X44686874Y-51456121D02*
X44686874Y-51189455D01*
X44686874Y-51189455D02*
X44839255Y-51189455D01*
X44344017Y-51532312D02*
X44344017Y-50732312D01*
X44344017Y-50732312D02*
X43886874Y-51532312D01*
X43886874Y-51532312D02*
X43886874Y-50732312D01*
X43505922Y-51532312D02*
X43505922Y-50732312D01*
X43505922Y-50732312D02*
X43315446Y-50732312D01*
X43315446Y-50732312D02*
X43201160Y-50770407D01*
X43201160Y-50770407D02*
X43124970Y-50846597D01*
X43124970Y-50846597D02*
X43086875Y-50922788D01*
X43086875Y-50922788D02*
X43048779Y-51075169D01*
X43048779Y-51075169D02*
X43048779Y-51189455D01*
X43048779Y-51189455D02*
X43086875Y-51341836D01*
X43086875Y-51341836D02*
X43124970Y-51418026D01*
X43124970Y-51418026D02*
X43201160Y-51494217D01*
X43201160Y-51494217D02*
X43315446Y-51532312D01*
X43315446Y-51532312D02*
X43505922Y-51532312D01*
X55916446Y-73632312D02*
X55840256Y-73632312D01*
X55840256Y-73632312D02*
X55764065Y-73670407D01*
X55764065Y-73670407D02*
X55725970Y-73708502D01*
X55725970Y-73708502D02*
X55687875Y-73784693D01*
X55687875Y-73784693D02*
X55649780Y-73937074D01*
X55649780Y-73937074D02*
X55649780Y-74127550D01*
X55649780Y-74127550D02*
X55687875Y-74279931D01*
X55687875Y-74279931D02*
X55725970Y-74356121D01*
X55725970Y-74356121D02*
X55764065Y-74394217D01*
X55764065Y-74394217D02*
X55840256Y-74432312D01*
X55840256Y-74432312D02*
X55916446Y-74432312D01*
X55916446Y-74432312D02*
X55992637Y-74394217D01*
X55992637Y-74394217D02*
X56030732Y-74356121D01*
X56030732Y-74356121D02*
X56068827Y-74279931D01*
X56068827Y-74279931D02*
X56106923Y-74127550D01*
X56106923Y-74127550D02*
X56106923Y-73937074D01*
X56106923Y-73937074D02*
X56068827Y-73784693D01*
X56068827Y-73784693D02*
X56030732Y-73708502D01*
X56030732Y-73708502D02*
X55992637Y-73670407D01*
X55992637Y-73670407D02*
X55916446Y-73632312D01*
X55154541Y-73632312D02*
X55078351Y-73632312D01*
X55078351Y-73632312D02*
X55002160Y-73670407D01*
X55002160Y-73670407D02*
X54964065Y-73708502D01*
X54964065Y-73708502D02*
X54925970Y-73784693D01*
X54925970Y-73784693D02*
X54887875Y-73937074D01*
X54887875Y-73937074D02*
X54887875Y-74127550D01*
X54887875Y-74127550D02*
X54925970Y-74279931D01*
X54925970Y-74279931D02*
X54964065Y-74356121D01*
X54964065Y-74356121D02*
X55002160Y-74394217D01*
X55002160Y-74394217D02*
X55078351Y-74432312D01*
X55078351Y-74432312D02*
X55154541Y-74432312D01*
X55154541Y-74432312D02*
X55230732Y-74394217D01*
X55230732Y-74394217D02*
X55268827Y-74356121D01*
X55268827Y-74356121D02*
X55306922Y-74279931D01*
X55306922Y-74279931D02*
X55345018Y-74127550D01*
X55345018Y-74127550D02*
X55345018Y-73937074D01*
X55345018Y-73937074D02*
X55306922Y-73784693D01*
X55306922Y-73784693D02*
X55268827Y-73708502D01*
X55268827Y-73708502D02*
X55230732Y-73670407D01*
X55230732Y-73670407D02*
X55154541Y-73632312D01*
X54506922Y-74432312D02*
X54354541Y-74432312D01*
X54354541Y-74432312D02*
X54278351Y-74394217D01*
X54278351Y-74394217D02*
X54240255Y-74356121D01*
X54240255Y-74356121D02*
X54164065Y-74241836D01*
X54164065Y-74241836D02*
X54125970Y-74089455D01*
X54125970Y-74089455D02*
X54125970Y-73784693D01*
X54125970Y-73784693D02*
X54164065Y-73708502D01*
X54164065Y-73708502D02*
X54202160Y-73670407D01*
X54202160Y-73670407D02*
X54278351Y-73632312D01*
X54278351Y-73632312D02*
X54430732Y-73632312D01*
X54430732Y-73632312D02*
X54506922Y-73670407D01*
X54506922Y-73670407D02*
X54545017Y-73708502D01*
X54545017Y-73708502D02*
X54583113Y-73784693D01*
X54583113Y-73784693D02*
X54583113Y-73975169D01*
X54583113Y-73975169D02*
X54545017Y-74051359D01*
X54545017Y-74051359D02*
X54506922Y-74089455D01*
X54506922Y-74089455D02*
X54430732Y-74127550D01*
X54430732Y-74127550D02*
X54278351Y-74127550D01*
X54278351Y-74127550D02*
X54202160Y-74089455D01*
X54202160Y-74089455D02*
X54164065Y-74051359D01*
X54164065Y-74051359D02*
X54125970Y-73975169D01*
X56180304Y-53272312D02*
X55913637Y-54072312D01*
X55913637Y-54072312D02*
X55646971Y-53272312D01*
X54923161Y-53996121D02*
X54961257Y-54034217D01*
X54961257Y-54034217D02*
X55075542Y-54072312D01*
X55075542Y-54072312D02*
X55151733Y-54072312D01*
X55151733Y-54072312D02*
X55266019Y-54034217D01*
X55266019Y-54034217D02*
X55342209Y-53958026D01*
X55342209Y-53958026D02*
X55380304Y-53881836D01*
X55380304Y-53881836D02*
X55418400Y-53729455D01*
X55418400Y-53729455D02*
X55418400Y-53615169D01*
X55418400Y-53615169D02*
X55380304Y-53462788D01*
X55380304Y-53462788D02*
X55342209Y-53386597D01*
X55342209Y-53386597D02*
X55266019Y-53310407D01*
X55266019Y-53310407D02*
X55151733Y-53272312D01*
X55151733Y-53272312D02*
X55075542Y-53272312D01*
X55075542Y-53272312D02*
X54961257Y-53310407D01*
X54961257Y-53310407D02*
X54923161Y-53348502D01*
X54123161Y-53996121D02*
X54161257Y-54034217D01*
X54161257Y-54034217D02*
X54275542Y-54072312D01*
X54275542Y-54072312D02*
X54351733Y-54072312D01*
X54351733Y-54072312D02*
X54466019Y-54034217D01*
X54466019Y-54034217D02*
X54542209Y-53958026D01*
X54542209Y-53958026D02*
X54580304Y-53881836D01*
X54580304Y-53881836D02*
X54618400Y-53729455D01*
X54618400Y-53729455D02*
X54618400Y-53615169D01*
X54618400Y-53615169D02*
X54580304Y-53462788D01*
X54580304Y-53462788D02*
X54542209Y-53386597D01*
X54542209Y-53386597D02*
X54466019Y-53310407D01*
X54466019Y-53310407D02*
X54351733Y-53272312D01*
X54351733Y-53272312D02*
X54275542Y-53272312D01*
X54275542Y-53272312D02*
X54161257Y-53310407D01*
X54161257Y-53310407D02*
X54123161Y-53348502D01*
X44839256Y-48122312D02*
X44763066Y-48122312D01*
X44763066Y-48122312D02*
X44686875Y-48160407D01*
X44686875Y-48160407D02*
X44648780Y-48198502D01*
X44648780Y-48198502D02*
X44610685Y-48274693D01*
X44610685Y-48274693D02*
X44572590Y-48427074D01*
X44572590Y-48427074D02*
X44572590Y-48617550D01*
X44572590Y-48617550D02*
X44610685Y-48769931D01*
X44610685Y-48769931D02*
X44648780Y-48846121D01*
X44648780Y-48846121D02*
X44686875Y-48884217D01*
X44686875Y-48884217D02*
X44763066Y-48922312D01*
X44763066Y-48922312D02*
X44839256Y-48922312D01*
X44839256Y-48922312D02*
X44915447Y-48884217D01*
X44915447Y-48884217D02*
X44953542Y-48846121D01*
X44953542Y-48846121D02*
X44991637Y-48769931D01*
X44991637Y-48769931D02*
X45029733Y-48617550D01*
X45029733Y-48617550D02*
X45029733Y-48427074D01*
X45029733Y-48427074D02*
X44991637Y-48274693D01*
X44991637Y-48274693D02*
X44953542Y-48198502D01*
X44953542Y-48198502D02*
X44915447Y-48160407D01*
X44915447Y-48160407D02*
X44839256Y-48122312D01*
X44077351Y-48122312D02*
X44001161Y-48122312D01*
X44001161Y-48122312D02*
X43924970Y-48160407D01*
X43924970Y-48160407D02*
X43886875Y-48198502D01*
X43886875Y-48198502D02*
X43848780Y-48274693D01*
X43848780Y-48274693D02*
X43810685Y-48427074D01*
X43810685Y-48427074D02*
X43810685Y-48617550D01*
X43810685Y-48617550D02*
X43848780Y-48769931D01*
X43848780Y-48769931D02*
X43886875Y-48846121D01*
X43886875Y-48846121D02*
X43924970Y-48884217D01*
X43924970Y-48884217D02*
X44001161Y-48922312D01*
X44001161Y-48922312D02*
X44077351Y-48922312D01*
X44077351Y-48922312D02*
X44153542Y-48884217D01*
X44153542Y-48884217D02*
X44191637Y-48846121D01*
X44191637Y-48846121D02*
X44229732Y-48769931D01*
X44229732Y-48769931D02*
X44267828Y-48617550D01*
X44267828Y-48617550D02*
X44267828Y-48427074D01*
X44267828Y-48427074D02*
X44229732Y-48274693D01*
X44229732Y-48274693D02*
X44191637Y-48198502D01*
X44191637Y-48198502D02*
X44153542Y-48160407D01*
X44153542Y-48160407D02*
X44077351Y-48122312D01*
X43353542Y-48465169D02*
X43429732Y-48427074D01*
X43429732Y-48427074D02*
X43467827Y-48388978D01*
X43467827Y-48388978D02*
X43505923Y-48312788D01*
X43505923Y-48312788D02*
X43505923Y-48274693D01*
X43505923Y-48274693D02*
X43467827Y-48198502D01*
X43467827Y-48198502D02*
X43429732Y-48160407D01*
X43429732Y-48160407D02*
X43353542Y-48122312D01*
X43353542Y-48122312D02*
X43201161Y-48122312D01*
X43201161Y-48122312D02*
X43124970Y-48160407D01*
X43124970Y-48160407D02*
X43086875Y-48198502D01*
X43086875Y-48198502D02*
X43048780Y-48274693D01*
X43048780Y-48274693D02*
X43048780Y-48312788D01*
X43048780Y-48312788D02*
X43086875Y-48388978D01*
X43086875Y-48388978D02*
X43124970Y-48427074D01*
X43124970Y-48427074D02*
X43201161Y-48465169D01*
X43201161Y-48465169D02*
X43353542Y-48465169D01*
X43353542Y-48465169D02*
X43429732Y-48503264D01*
X43429732Y-48503264D02*
X43467827Y-48541359D01*
X43467827Y-48541359D02*
X43505923Y-48617550D01*
X43505923Y-48617550D02*
X43505923Y-48769931D01*
X43505923Y-48769931D02*
X43467827Y-48846121D01*
X43467827Y-48846121D02*
X43429732Y-48884217D01*
X43429732Y-48884217D02*
X43353542Y-48922312D01*
X43353542Y-48922312D02*
X43201161Y-48922312D01*
X43201161Y-48922312D02*
X43124970Y-48884217D01*
X43124970Y-48884217D02*
X43086875Y-48846121D01*
X43086875Y-48846121D02*
X43048780Y-48769931D01*
X43048780Y-48769931D02*
X43048780Y-48617550D01*
X43048780Y-48617550D02*
X43086875Y-48541359D01*
X43086875Y-48541359D02*
X43124970Y-48503264D01*
X43124970Y-48503264D02*
X43201161Y-48465169D01*
X55913637Y-60892312D02*
X55837447Y-60892312D01*
X55837447Y-60892312D02*
X55761256Y-60930407D01*
X55761256Y-60930407D02*
X55723161Y-60968502D01*
X55723161Y-60968502D02*
X55685066Y-61044693D01*
X55685066Y-61044693D02*
X55646971Y-61197074D01*
X55646971Y-61197074D02*
X55646971Y-61387550D01*
X55646971Y-61387550D02*
X55685066Y-61539931D01*
X55685066Y-61539931D02*
X55723161Y-61616121D01*
X55723161Y-61616121D02*
X55761256Y-61654217D01*
X55761256Y-61654217D02*
X55837447Y-61692312D01*
X55837447Y-61692312D02*
X55913637Y-61692312D01*
X55913637Y-61692312D02*
X55989828Y-61654217D01*
X55989828Y-61654217D02*
X56027923Y-61616121D01*
X56027923Y-61616121D02*
X56066018Y-61539931D01*
X56066018Y-61539931D02*
X56104114Y-61387550D01*
X56104114Y-61387550D02*
X56104114Y-61197074D01*
X56104114Y-61197074D02*
X56066018Y-61044693D01*
X56066018Y-61044693D02*
X56027923Y-60968502D01*
X56027923Y-60968502D02*
X55989828Y-60930407D01*
X55989828Y-60930407D02*
X55913637Y-60892312D01*
X55151732Y-60892312D02*
X55075542Y-60892312D01*
X55075542Y-60892312D02*
X54999351Y-60930407D01*
X54999351Y-60930407D02*
X54961256Y-60968502D01*
X54961256Y-60968502D02*
X54923161Y-61044693D01*
X54923161Y-61044693D02*
X54885066Y-61197074D01*
X54885066Y-61197074D02*
X54885066Y-61387550D01*
X54885066Y-61387550D02*
X54923161Y-61539931D01*
X54923161Y-61539931D02*
X54961256Y-61616121D01*
X54961256Y-61616121D02*
X54999351Y-61654217D01*
X54999351Y-61654217D02*
X55075542Y-61692312D01*
X55075542Y-61692312D02*
X55151732Y-61692312D01*
X55151732Y-61692312D02*
X55227923Y-61654217D01*
X55227923Y-61654217D02*
X55266018Y-61616121D01*
X55266018Y-61616121D02*
X55304113Y-61539931D01*
X55304113Y-61539931D02*
X55342209Y-61387550D01*
X55342209Y-61387550D02*
X55342209Y-61197074D01*
X55342209Y-61197074D02*
X55304113Y-61044693D01*
X55304113Y-61044693D02*
X55266018Y-60968502D01*
X55266018Y-60968502D02*
X55227923Y-60930407D01*
X55227923Y-60930407D02*
X55151732Y-60892312D01*
X54580304Y-60968502D02*
X54542208Y-60930407D01*
X54542208Y-60930407D02*
X54466018Y-60892312D01*
X54466018Y-60892312D02*
X54275542Y-60892312D01*
X54275542Y-60892312D02*
X54199351Y-60930407D01*
X54199351Y-60930407D02*
X54161256Y-60968502D01*
X54161256Y-60968502D02*
X54123161Y-61044693D01*
X54123161Y-61044693D02*
X54123161Y-61120883D01*
X54123161Y-61120883D02*
X54161256Y-61235169D01*
X54161256Y-61235169D02*
X54618399Y-61692312D01*
X54618399Y-61692312D02*
X54123161Y-61692312D01*
X55913637Y-71052312D02*
X55837447Y-71052312D01*
X55837447Y-71052312D02*
X55761256Y-71090407D01*
X55761256Y-71090407D02*
X55723161Y-71128502D01*
X55723161Y-71128502D02*
X55685066Y-71204693D01*
X55685066Y-71204693D02*
X55646971Y-71357074D01*
X55646971Y-71357074D02*
X55646971Y-71547550D01*
X55646971Y-71547550D02*
X55685066Y-71699931D01*
X55685066Y-71699931D02*
X55723161Y-71776121D01*
X55723161Y-71776121D02*
X55761256Y-71814217D01*
X55761256Y-71814217D02*
X55837447Y-71852312D01*
X55837447Y-71852312D02*
X55913637Y-71852312D01*
X55913637Y-71852312D02*
X55989828Y-71814217D01*
X55989828Y-71814217D02*
X56027923Y-71776121D01*
X56027923Y-71776121D02*
X56066018Y-71699931D01*
X56066018Y-71699931D02*
X56104114Y-71547550D01*
X56104114Y-71547550D02*
X56104114Y-71357074D01*
X56104114Y-71357074D02*
X56066018Y-71204693D01*
X56066018Y-71204693D02*
X56027923Y-71128502D01*
X56027923Y-71128502D02*
X55989828Y-71090407D01*
X55989828Y-71090407D02*
X55913637Y-71052312D01*
X54885066Y-71852312D02*
X55342209Y-71852312D01*
X55113637Y-71852312D02*
X55113637Y-71052312D01*
X55113637Y-71052312D02*
X55189828Y-71166597D01*
X55189828Y-71166597D02*
X55266018Y-71242788D01*
X55266018Y-71242788D02*
X55342209Y-71280883D01*
X54389827Y-71052312D02*
X54313637Y-71052312D01*
X54313637Y-71052312D02*
X54237446Y-71090407D01*
X54237446Y-71090407D02*
X54199351Y-71128502D01*
X54199351Y-71128502D02*
X54161256Y-71204693D01*
X54161256Y-71204693D02*
X54123161Y-71357074D01*
X54123161Y-71357074D02*
X54123161Y-71547550D01*
X54123161Y-71547550D02*
X54161256Y-71699931D01*
X54161256Y-71699931D02*
X54199351Y-71776121D01*
X54199351Y-71776121D02*
X54237446Y-71814217D01*
X54237446Y-71814217D02*
X54313637Y-71852312D01*
X54313637Y-71852312D02*
X54389827Y-71852312D01*
X54389827Y-71852312D02*
X54466018Y-71814217D01*
X54466018Y-71814217D02*
X54504113Y-71776121D01*
X54504113Y-71776121D02*
X54542208Y-71699931D01*
X54542208Y-71699931D02*
X54580304Y-71547550D01*
X54580304Y-71547550D02*
X54580304Y-71357074D01*
X54580304Y-71357074D02*
X54542208Y-71204693D01*
X54542208Y-71204693D02*
X54504113Y-71128502D01*
X54504113Y-71128502D02*
X54466018Y-71090407D01*
X54466018Y-71090407D02*
X54389827Y-71052312D01*
X44839256Y-55812312D02*
X44763066Y-55812312D01*
X44763066Y-55812312D02*
X44686875Y-55850407D01*
X44686875Y-55850407D02*
X44648780Y-55888502D01*
X44648780Y-55888502D02*
X44610685Y-55964693D01*
X44610685Y-55964693D02*
X44572590Y-56117074D01*
X44572590Y-56117074D02*
X44572590Y-56307550D01*
X44572590Y-56307550D02*
X44610685Y-56459931D01*
X44610685Y-56459931D02*
X44648780Y-56536121D01*
X44648780Y-56536121D02*
X44686875Y-56574217D01*
X44686875Y-56574217D02*
X44763066Y-56612312D01*
X44763066Y-56612312D02*
X44839256Y-56612312D01*
X44839256Y-56612312D02*
X44915447Y-56574217D01*
X44915447Y-56574217D02*
X44953542Y-56536121D01*
X44953542Y-56536121D02*
X44991637Y-56459931D01*
X44991637Y-56459931D02*
X45029733Y-56307550D01*
X45029733Y-56307550D02*
X45029733Y-56117074D01*
X45029733Y-56117074D02*
X44991637Y-55964693D01*
X44991637Y-55964693D02*
X44953542Y-55888502D01*
X44953542Y-55888502D02*
X44915447Y-55850407D01*
X44915447Y-55850407D02*
X44839256Y-55812312D01*
X43810685Y-56612312D02*
X44267828Y-56612312D01*
X44039256Y-56612312D02*
X44039256Y-55812312D01*
X44039256Y-55812312D02*
X44115447Y-55926597D01*
X44115447Y-55926597D02*
X44191637Y-56002788D01*
X44191637Y-56002788D02*
X44267828Y-56040883D01*
X43544018Y-55812312D02*
X43010684Y-55812312D01*
X43010684Y-55812312D02*
X43353542Y-56612312D01*
X55646971Y-69312312D02*
X56104114Y-69312312D01*
X55875542Y-69312312D02*
X55875542Y-68512312D01*
X55875542Y-68512312D02*
X55951733Y-68626597D01*
X55951733Y-68626597D02*
X56027923Y-68702788D01*
X56027923Y-68702788D02*
X56104114Y-68740883D01*
X54885066Y-69312312D02*
X55342209Y-69312312D01*
X55113637Y-69312312D02*
X55113637Y-68512312D01*
X55113637Y-68512312D02*
X55189828Y-68626597D01*
X55189828Y-68626597D02*
X55266018Y-68702788D01*
X55266018Y-68702788D02*
X55342209Y-68740883D01*
X54123161Y-69312312D02*
X54580304Y-69312312D01*
X54351732Y-69312312D02*
X54351732Y-68512312D01*
X54351732Y-68512312D02*
X54427923Y-68626597D01*
X54427923Y-68626597D02*
X54504113Y-68702788D01*
X54504113Y-68702788D02*
X54580304Y-68740883D01*
X44839256Y-45652312D02*
X44763066Y-45652312D01*
X44763066Y-45652312D02*
X44686875Y-45690407D01*
X44686875Y-45690407D02*
X44648780Y-45728502D01*
X44648780Y-45728502D02*
X44610685Y-45804693D01*
X44610685Y-45804693D02*
X44572590Y-45957074D01*
X44572590Y-45957074D02*
X44572590Y-46147550D01*
X44572590Y-46147550D02*
X44610685Y-46299931D01*
X44610685Y-46299931D02*
X44648780Y-46376121D01*
X44648780Y-46376121D02*
X44686875Y-46414217D01*
X44686875Y-46414217D02*
X44763066Y-46452312D01*
X44763066Y-46452312D02*
X44839256Y-46452312D01*
X44839256Y-46452312D02*
X44915447Y-46414217D01*
X44915447Y-46414217D02*
X44953542Y-46376121D01*
X44953542Y-46376121D02*
X44991637Y-46299931D01*
X44991637Y-46299931D02*
X45029733Y-46147550D01*
X45029733Y-46147550D02*
X45029733Y-45957074D01*
X45029733Y-45957074D02*
X44991637Y-45804693D01*
X44991637Y-45804693D02*
X44953542Y-45728502D01*
X44953542Y-45728502D02*
X44915447Y-45690407D01*
X44915447Y-45690407D02*
X44839256Y-45652312D01*
X44077351Y-45652312D02*
X44001161Y-45652312D01*
X44001161Y-45652312D02*
X43924970Y-45690407D01*
X43924970Y-45690407D02*
X43886875Y-45728502D01*
X43886875Y-45728502D02*
X43848780Y-45804693D01*
X43848780Y-45804693D02*
X43810685Y-45957074D01*
X43810685Y-45957074D02*
X43810685Y-46147550D01*
X43810685Y-46147550D02*
X43848780Y-46299931D01*
X43848780Y-46299931D02*
X43886875Y-46376121D01*
X43886875Y-46376121D02*
X43924970Y-46414217D01*
X43924970Y-46414217D02*
X44001161Y-46452312D01*
X44001161Y-46452312D02*
X44077351Y-46452312D01*
X44077351Y-46452312D02*
X44153542Y-46414217D01*
X44153542Y-46414217D02*
X44191637Y-46376121D01*
X44191637Y-46376121D02*
X44229732Y-46299931D01*
X44229732Y-46299931D02*
X44267828Y-46147550D01*
X44267828Y-46147550D02*
X44267828Y-45957074D01*
X44267828Y-45957074D02*
X44229732Y-45804693D01*
X44229732Y-45804693D02*
X44191637Y-45728502D01*
X44191637Y-45728502D02*
X44153542Y-45690407D01*
X44153542Y-45690407D02*
X44077351Y-45652312D01*
X43124970Y-45652312D02*
X43277351Y-45652312D01*
X43277351Y-45652312D02*
X43353542Y-45690407D01*
X43353542Y-45690407D02*
X43391637Y-45728502D01*
X43391637Y-45728502D02*
X43467827Y-45842788D01*
X43467827Y-45842788D02*
X43505923Y-45995169D01*
X43505923Y-45995169D02*
X43505923Y-46299931D01*
X43505923Y-46299931D02*
X43467827Y-46376121D01*
X43467827Y-46376121D02*
X43429732Y-46414217D01*
X43429732Y-46414217D02*
X43353542Y-46452312D01*
X43353542Y-46452312D02*
X43201161Y-46452312D01*
X43201161Y-46452312D02*
X43124970Y-46414217D01*
X43124970Y-46414217D02*
X43086875Y-46376121D01*
X43086875Y-46376121D02*
X43048780Y-46299931D01*
X43048780Y-46299931D02*
X43048780Y-46109455D01*
X43048780Y-46109455D02*
X43086875Y-46033264D01*
X43086875Y-46033264D02*
X43124970Y-45995169D01*
X43124970Y-45995169D02*
X43201161Y-45957074D01*
X43201161Y-45957074D02*
X43353542Y-45957074D01*
X43353542Y-45957074D02*
X43429732Y-45995169D01*
X43429732Y-45995169D02*
X43467827Y-46033264D01*
X43467827Y-46033264D02*
X43505923Y-46109455D01*
X44724970Y-53310407D02*
X44801160Y-53272312D01*
X44801160Y-53272312D02*
X44915446Y-53272312D01*
X44915446Y-53272312D02*
X45029732Y-53310407D01*
X45029732Y-53310407D02*
X45105922Y-53386597D01*
X45105922Y-53386597D02*
X45144017Y-53462788D01*
X45144017Y-53462788D02*
X45182113Y-53615169D01*
X45182113Y-53615169D02*
X45182113Y-53729455D01*
X45182113Y-53729455D02*
X45144017Y-53881836D01*
X45144017Y-53881836D02*
X45105922Y-53958026D01*
X45105922Y-53958026D02*
X45029732Y-54034217D01*
X45029732Y-54034217D02*
X44915446Y-54072312D01*
X44915446Y-54072312D02*
X44839255Y-54072312D01*
X44839255Y-54072312D02*
X44724970Y-54034217D01*
X44724970Y-54034217D02*
X44686874Y-53996121D01*
X44686874Y-53996121D02*
X44686874Y-53729455D01*
X44686874Y-53729455D02*
X44839255Y-53729455D01*
X44344017Y-54072312D02*
X44344017Y-53272312D01*
X44344017Y-53272312D02*
X43886874Y-54072312D01*
X43886874Y-54072312D02*
X43886874Y-53272312D01*
X43505922Y-54072312D02*
X43505922Y-53272312D01*
X43505922Y-53272312D02*
X43315446Y-53272312D01*
X43315446Y-53272312D02*
X43201160Y-53310407D01*
X43201160Y-53310407D02*
X43124970Y-53386597D01*
X43124970Y-53386597D02*
X43086875Y-53462788D01*
X43086875Y-53462788D02*
X43048779Y-53615169D01*
X43048779Y-53615169D02*
X43048779Y-53729455D01*
X43048779Y-53729455D02*
X43086875Y-53881836D01*
X43086875Y-53881836D02*
X43124970Y-53958026D01*
X43124970Y-53958026D02*
X43201160Y-54034217D01*
X43201160Y-54034217D02*
X43315446Y-54072312D01*
X43315446Y-54072312D02*
X43505922Y-54072312D01*
X55640637Y-48230407D02*
X55716827Y-48192312D01*
X55716827Y-48192312D02*
X55831113Y-48192312D01*
X55831113Y-48192312D02*
X55945399Y-48230407D01*
X55945399Y-48230407D02*
X56021589Y-48306597D01*
X56021589Y-48306597D02*
X56059684Y-48382788D01*
X56059684Y-48382788D02*
X56097780Y-48535169D01*
X56097780Y-48535169D02*
X56097780Y-48649455D01*
X56097780Y-48649455D02*
X56059684Y-48801836D01*
X56059684Y-48801836D02*
X56021589Y-48878026D01*
X56021589Y-48878026D02*
X55945399Y-48954217D01*
X55945399Y-48954217D02*
X55831113Y-48992312D01*
X55831113Y-48992312D02*
X55754922Y-48992312D01*
X55754922Y-48992312D02*
X55640637Y-48954217D01*
X55640637Y-48954217D02*
X55602541Y-48916121D01*
X55602541Y-48916121D02*
X55602541Y-48649455D01*
X55602541Y-48649455D02*
X55754922Y-48649455D01*
X55259684Y-48992312D02*
X55259684Y-48192312D01*
X55259684Y-48192312D02*
X54802541Y-48992312D01*
X54802541Y-48992312D02*
X54802541Y-48192312D01*
X54421589Y-48992312D02*
X54421589Y-48192312D01*
X54421589Y-48192312D02*
X54231113Y-48192312D01*
X54231113Y-48192312D02*
X54116827Y-48230407D01*
X54116827Y-48230407D02*
X54040637Y-48306597D01*
X54040637Y-48306597D02*
X54002542Y-48382788D01*
X54002542Y-48382788D02*
X53964446Y-48535169D01*
X53964446Y-48535169D02*
X53964446Y-48649455D01*
X53964446Y-48649455D02*
X54002542Y-48801836D01*
X54002542Y-48801836D02*
X54040637Y-48878026D01*
X54040637Y-48878026D02*
X54116827Y-48954217D01*
X54116827Y-48954217D02*
X54231113Y-48992312D01*
X54231113Y-48992312D02*
X54421589Y-48992312D01*
X44839256Y-60922312D02*
X44763066Y-60922312D01*
X44763066Y-60922312D02*
X44686875Y-60960407D01*
X44686875Y-60960407D02*
X44648780Y-60998502D01*
X44648780Y-60998502D02*
X44610685Y-61074693D01*
X44610685Y-61074693D02*
X44572590Y-61227074D01*
X44572590Y-61227074D02*
X44572590Y-61417550D01*
X44572590Y-61417550D02*
X44610685Y-61569931D01*
X44610685Y-61569931D02*
X44648780Y-61646121D01*
X44648780Y-61646121D02*
X44686875Y-61684217D01*
X44686875Y-61684217D02*
X44763066Y-61722312D01*
X44763066Y-61722312D02*
X44839256Y-61722312D01*
X44839256Y-61722312D02*
X44915447Y-61684217D01*
X44915447Y-61684217D02*
X44953542Y-61646121D01*
X44953542Y-61646121D02*
X44991637Y-61569931D01*
X44991637Y-61569931D02*
X45029733Y-61417550D01*
X45029733Y-61417550D02*
X45029733Y-61227074D01*
X45029733Y-61227074D02*
X44991637Y-61074693D01*
X44991637Y-61074693D02*
X44953542Y-60998502D01*
X44953542Y-60998502D02*
X44915447Y-60960407D01*
X44915447Y-60960407D02*
X44839256Y-60922312D01*
X44267828Y-60998502D02*
X44229732Y-60960407D01*
X44229732Y-60960407D02*
X44153542Y-60922312D01*
X44153542Y-60922312D02*
X43963066Y-60922312D01*
X43963066Y-60922312D02*
X43886875Y-60960407D01*
X43886875Y-60960407D02*
X43848780Y-60998502D01*
X43848780Y-60998502D02*
X43810685Y-61074693D01*
X43810685Y-61074693D02*
X43810685Y-61150883D01*
X43810685Y-61150883D02*
X43848780Y-61265169D01*
X43848780Y-61265169D02*
X44305923Y-61722312D01*
X44305923Y-61722312D02*
X43810685Y-61722312D01*
X43505923Y-60998502D02*
X43467827Y-60960407D01*
X43467827Y-60960407D02*
X43391637Y-60922312D01*
X43391637Y-60922312D02*
X43201161Y-60922312D01*
X43201161Y-60922312D02*
X43124970Y-60960407D01*
X43124970Y-60960407D02*
X43086875Y-60998502D01*
X43086875Y-60998502D02*
X43048780Y-61074693D01*
X43048780Y-61074693D02*
X43048780Y-61150883D01*
X43048780Y-61150883D02*
X43086875Y-61265169D01*
X43086875Y-61265169D02*
X43544018Y-61722312D01*
X43544018Y-61722312D02*
X43048780Y-61722312D01*
X55646971Y-64232312D02*
X56104114Y-64232312D01*
X55875542Y-64232312D02*
X55875542Y-63432312D01*
X55875542Y-63432312D02*
X55951733Y-63546597D01*
X55951733Y-63546597D02*
X56027923Y-63622788D01*
X56027923Y-63622788D02*
X56104114Y-63660883D01*
X54885066Y-64232312D02*
X55342209Y-64232312D01*
X55113637Y-64232312D02*
X55113637Y-63432312D01*
X55113637Y-63432312D02*
X55189828Y-63546597D01*
X55189828Y-63546597D02*
X55266018Y-63622788D01*
X55266018Y-63622788D02*
X55342209Y-63660883D01*
X54161256Y-63432312D02*
X54542208Y-63432312D01*
X54542208Y-63432312D02*
X54580304Y-63813264D01*
X54580304Y-63813264D02*
X54542208Y-63775169D01*
X54542208Y-63775169D02*
X54466018Y-63737074D01*
X54466018Y-63737074D02*
X54275542Y-63737074D01*
X54275542Y-63737074D02*
X54199351Y-63775169D01*
X54199351Y-63775169D02*
X54161256Y-63813264D01*
X54161256Y-63813264D02*
X54123161Y-63889455D01*
X54123161Y-63889455D02*
X54123161Y-64079931D01*
X54123161Y-64079931D02*
X54161256Y-64156121D01*
X54161256Y-64156121D02*
X54199351Y-64194217D01*
X54199351Y-64194217D02*
X54275542Y-64232312D01*
X54275542Y-64232312D02*
X54466018Y-64232312D01*
X54466018Y-64232312D02*
X54542208Y-64194217D01*
X54542208Y-64194217D02*
X54580304Y-64156121D01*
X44846446Y-68562312D02*
X44770256Y-68562312D01*
X44770256Y-68562312D02*
X44694065Y-68600407D01*
X44694065Y-68600407D02*
X44655970Y-68638502D01*
X44655970Y-68638502D02*
X44617875Y-68714693D01*
X44617875Y-68714693D02*
X44579780Y-68867074D01*
X44579780Y-68867074D02*
X44579780Y-69057550D01*
X44579780Y-69057550D02*
X44617875Y-69209931D01*
X44617875Y-69209931D02*
X44655970Y-69286121D01*
X44655970Y-69286121D02*
X44694065Y-69324217D01*
X44694065Y-69324217D02*
X44770256Y-69362312D01*
X44770256Y-69362312D02*
X44846446Y-69362312D01*
X44846446Y-69362312D02*
X44922637Y-69324217D01*
X44922637Y-69324217D02*
X44960732Y-69286121D01*
X44960732Y-69286121D02*
X44998827Y-69209931D01*
X44998827Y-69209931D02*
X45036923Y-69057550D01*
X45036923Y-69057550D02*
X45036923Y-68867074D01*
X45036923Y-68867074D02*
X44998827Y-68714693D01*
X44998827Y-68714693D02*
X44960732Y-68638502D01*
X44960732Y-68638502D02*
X44922637Y-68600407D01*
X44922637Y-68600407D02*
X44846446Y-68562312D01*
X43817875Y-69362312D02*
X44275018Y-69362312D01*
X44046446Y-69362312D02*
X44046446Y-68562312D01*
X44046446Y-68562312D02*
X44122637Y-68676597D01*
X44122637Y-68676597D02*
X44198827Y-68752788D01*
X44198827Y-68752788D02*
X44275018Y-68790883D01*
X43055970Y-69362312D02*
X43513113Y-69362312D01*
X43284541Y-69362312D02*
X43284541Y-68562312D01*
X43284541Y-68562312D02*
X43360732Y-68676597D01*
X43360732Y-68676597D02*
X43436922Y-68752788D01*
X43436922Y-68752788D02*
X43513113Y-68790883D01*
X55602541Y-51532312D02*
X55869208Y-51151359D01*
X56059684Y-51532312D02*
X56059684Y-50732312D01*
X56059684Y-50732312D02*
X55754922Y-50732312D01*
X55754922Y-50732312D02*
X55678732Y-50770407D01*
X55678732Y-50770407D02*
X55640637Y-50808502D01*
X55640637Y-50808502D02*
X55602541Y-50884693D01*
X55602541Y-50884693D02*
X55602541Y-50998978D01*
X55602541Y-50998978D02*
X55640637Y-51075169D01*
X55640637Y-51075169D02*
X55678732Y-51113264D01*
X55678732Y-51113264D02*
X55754922Y-51151359D01*
X55754922Y-51151359D02*
X56059684Y-51151359D01*
X55297780Y-51494217D02*
X55183494Y-51532312D01*
X55183494Y-51532312D02*
X54993018Y-51532312D01*
X54993018Y-51532312D02*
X54916827Y-51494217D01*
X54916827Y-51494217D02*
X54878732Y-51456121D01*
X54878732Y-51456121D02*
X54840637Y-51379931D01*
X54840637Y-51379931D02*
X54840637Y-51303740D01*
X54840637Y-51303740D02*
X54878732Y-51227550D01*
X54878732Y-51227550D02*
X54916827Y-51189455D01*
X54916827Y-51189455D02*
X54993018Y-51151359D01*
X54993018Y-51151359D02*
X55145399Y-51113264D01*
X55145399Y-51113264D02*
X55221589Y-51075169D01*
X55221589Y-51075169D02*
X55259684Y-51037074D01*
X55259684Y-51037074D02*
X55297780Y-50960883D01*
X55297780Y-50960883D02*
X55297780Y-50884693D01*
X55297780Y-50884693D02*
X55259684Y-50808502D01*
X55259684Y-50808502D02*
X55221589Y-50770407D01*
X55221589Y-50770407D02*
X55145399Y-50732312D01*
X55145399Y-50732312D02*
X54954922Y-50732312D01*
X54954922Y-50732312D02*
X54840637Y-50770407D01*
X54612065Y-50732312D02*
X54154922Y-50732312D01*
X54383494Y-51532312D02*
X54383494Y-50732312D01*
X44579780Y-74402312D02*
X45036923Y-74402312D01*
X44808351Y-74402312D02*
X44808351Y-73602312D01*
X44808351Y-73602312D02*
X44884542Y-73716597D01*
X44884542Y-73716597D02*
X44960732Y-73792788D01*
X44960732Y-73792788D02*
X45036923Y-73830883D01*
X44084541Y-73602312D02*
X44008351Y-73602312D01*
X44008351Y-73602312D02*
X43932160Y-73640407D01*
X43932160Y-73640407D02*
X43894065Y-73678502D01*
X43894065Y-73678502D02*
X43855970Y-73754693D01*
X43855970Y-73754693D02*
X43817875Y-73907074D01*
X43817875Y-73907074D02*
X43817875Y-74097550D01*
X43817875Y-74097550D02*
X43855970Y-74249931D01*
X43855970Y-74249931D02*
X43894065Y-74326121D01*
X43894065Y-74326121D02*
X43932160Y-74364217D01*
X43932160Y-74364217D02*
X44008351Y-74402312D01*
X44008351Y-74402312D02*
X44084541Y-74402312D01*
X44084541Y-74402312D02*
X44160732Y-74364217D01*
X44160732Y-74364217D02*
X44198827Y-74326121D01*
X44198827Y-74326121D02*
X44236922Y-74249931D01*
X44236922Y-74249931D02*
X44275018Y-74097550D01*
X44275018Y-74097550D02*
X44275018Y-73907074D01*
X44275018Y-73907074D02*
X44236922Y-73754693D01*
X44236922Y-73754693D02*
X44198827Y-73678502D01*
X44198827Y-73678502D02*
X44160732Y-73640407D01*
X44160732Y-73640407D02*
X44084541Y-73602312D01*
X43132160Y-73602312D02*
X43284541Y-73602312D01*
X43284541Y-73602312D02*
X43360732Y-73640407D01*
X43360732Y-73640407D02*
X43398827Y-73678502D01*
X43398827Y-73678502D02*
X43475017Y-73792788D01*
X43475017Y-73792788D02*
X43513113Y-73945169D01*
X43513113Y-73945169D02*
X43513113Y-74249931D01*
X43513113Y-74249931D02*
X43475017Y-74326121D01*
X43475017Y-74326121D02*
X43436922Y-74364217D01*
X43436922Y-74364217D02*
X43360732Y-74402312D01*
X43360732Y-74402312D02*
X43208351Y-74402312D01*
X43208351Y-74402312D02*
X43132160Y-74364217D01*
X43132160Y-74364217D02*
X43094065Y-74326121D01*
X43094065Y-74326121D02*
X43055970Y-74249931D01*
X43055970Y-74249931D02*
X43055970Y-74059455D01*
X43055970Y-74059455D02*
X43094065Y-73983264D01*
X43094065Y-73983264D02*
X43132160Y-73945169D01*
X43132160Y-73945169D02*
X43208351Y-73907074D01*
X43208351Y-73907074D02*
X43360732Y-73907074D01*
X43360732Y-73907074D02*
X43436922Y-73945169D01*
X43436922Y-73945169D02*
X43475017Y-73983264D01*
X43475017Y-73983264D02*
X43513113Y-74059455D01*
X55602542Y-46452312D02*
X55869209Y-46071359D01*
X56059685Y-46452312D02*
X56059685Y-45652312D01*
X56059685Y-45652312D02*
X55754923Y-45652312D01*
X55754923Y-45652312D02*
X55678733Y-45690407D01*
X55678733Y-45690407D02*
X55640638Y-45728502D01*
X55640638Y-45728502D02*
X55602542Y-45804693D01*
X55602542Y-45804693D02*
X55602542Y-45918978D01*
X55602542Y-45918978D02*
X55640638Y-45995169D01*
X55640638Y-45995169D02*
X55678733Y-46033264D01*
X55678733Y-46033264D02*
X55754923Y-46071359D01*
X55754923Y-46071359D02*
X56059685Y-46071359D01*
X55297781Y-46223740D02*
X54916828Y-46223740D01*
X55373971Y-46452312D02*
X55107304Y-45652312D01*
X55107304Y-45652312D02*
X54840638Y-46452312D01*
X54650162Y-45652312D02*
X54459686Y-46452312D01*
X54459686Y-46452312D02*
X54307305Y-45880883D01*
X54307305Y-45880883D02*
X54154924Y-46452312D01*
X54154924Y-46452312D02*
X53964448Y-45652312D01*
X55913637Y-58352312D02*
X55837447Y-58352312D01*
X55837447Y-58352312D02*
X55761256Y-58390407D01*
X55761256Y-58390407D02*
X55723161Y-58428502D01*
X55723161Y-58428502D02*
X55685066Y-58504693D01*
X55685066Y-58504693D02*
X55646971Y-58657074D01*
X55646971Y-58657074D02*
X55646971Y-58847550D01*
X55646971Y-58847550D02*
X55685066Y-58999931D01*
X55685066Y-58999931D02*
X55723161Y-59076121D01*
X55723161Y-59076121D02*
X55761256Y-59114217D01*
X55761256Y-59114217D02*
X55837447Y-59152312D01*
X55837447Y-59152312D02*
X55913637Y-59152312D01*
X55913637Y-59152312D02*
X55989828Y-59114217D01*
X55989828Y-59114217D02*
X56027923Y-59076121D01*
X56027923Y-59076121D02*
X56066018Y-58999931D01*
X56066018Y-58999931D02*
X56104114Y-58847550D01*
X56104114Y-58847550D02*
X56104114Y-58657074D01*
X56104114Y-58657074D02*
X56066018Y-58504693D01*
X56066018Y-58504693D02*
X56027923Y-58428502D01*
X56027923Y-58428502D02*
X55989828Y-58390407D01*
X55989828Y-58390407D02*
X55913637Y-58352312D01*
X55342209Y-58428502D02*
X55304113Y-58390407D01*
X55304113Y-58390407D02*
X55227923Y-58352312D01*
X55227923Y-58352312D02*
X55037447Y-58352312D01*
X55037447Y-58352312D02*
X54961256Y-58390407D01*
X54961256Y-58390407D02*
X54923161Y-58428502D01*
X54923161Y-58428502D02*
X54885066Y-58504693D01*
X54885066Y-58504693D02*
X54885066Y-58580883D01*
X54885066Y-58580883D02*
X54923161Y-58695169D01*
X54923161Y-58695169D02*
X55380304Y-59152312D01*
X55380304Y-59152312D02*
X54885066Y-59152312D01*
X54504113Y-59152312D02*
X54351732Y-59152312D01*
X54351732Y-59152312D02*
X54275542Y-59114217D01*
X54275542Y-59114217D02*
X54237446Y-59076121D01*
X54237446Y-59076121D02*
X54161256Y-58961836D01*
X54161256Y-58961836D02*
X54123161Y-58809455D01*
X54123161Y-58809455D02*
X54123161Y-58504693D01*
X54123161Y-58504693D02*
X54161256Y-58428502D01*
X54161256Y-58428502D02*
X54199351Y-58390407D01*
X54199351Y-58390407D02*
X54275542Y-58352312D01*
X54275542Y-58352312D02*
X54427923Y-58352312D01*
X54427923Y-58352312D02*
X54504113Y-58390407D01*
X54504113Y-58390407D02*
X54542208Y-58428502D01*
X54542208Y-58428502D02*
X54580304Y-58504693D01*
X54580304Y-58504693D02*
X54580304Y-58695169D01*
X54580304Y-58695169D02*
X54542208Y-58771359D01*
X54542208Y-58771359D02*
X54504113Y-58809455D01*
X54504113Y-58809455D02*
X54427923Y-58847550D01*
X54427923Y-58847550D02*
X54275542Y-58847550D01*
X54275542Y-58847550D02*
X54199351Y-58809455D01*
X54199351Y-58809455D02*
X54161256Y-58771359D01*
X54161256Y-58771359D02*
X54123161Y-58695169D01*
X55913637Y-55812312D02*
X55837447Y-55812312D01*
X55837447Y-55812312D02*
X55761256Y-55850407D01*
X55761256Y-55850407D02*
X55723161Y-55888502D01*
X55723161Y-55888502D02*
X55685066Y-55964693D01*
X55685066Y-55964693D02*
X55646971Y-56117074D01*
X55646971Y-56117074D02*
X55646971Y-56307550D01*
X55646971Y-56307550D02*
X55685066Y-56459931D01*
X55685066Y-56459931D02*
X55723161Y-56536121D01*
X55723161Y-56536121D02*
X55761256Y-56574217D01*
X55761256Y-56574217D02*
X55837447Y-56612312D01*
X55837447Y-56612312D02*
X55913637Y-56612312D01*
X55913637Y-56612312D02*
X55989828Y-56574217D01*
X55989828Y-56574217D02*
X56027923Y-56536121D01*
X56027923Y-56536121D02*
X56066018Y-56459931D01*
X56066018Y-56459931D02*
X56104114Y-56307550D01*
X56104114Y-56307550D02*
X56104114Y-56117074D01*
X56104114Y-56117074D02*
X56066018Y-55964693D01*
X56066018Y-55964693D02*
X56027923Y-55888502D01*
X56027923Y-55888502D02*
X55989828Y-55850407D01*
X55989828Y-55850407D02*
X55913637Y-55812312D01*
X55380304Y-55812312D02*
X54885066Y-55812312D01*
X54885066Y-55812312D02*
X55151732Y-56117074D01*
X55151732Y-56117074D02*
X55037447Y-56117074D01*
X55037447Y-56117074D02*
X54961256Y-56155169D01*
X54961256Y-56155169D02*
X54923161Y-56193264D01*
X54923161Y-56193264D02*
X54885066Y-56269455D01*
X54885066Y-56269455D02*
X54885066Y-56459931D01*
X54885066Y-56459931D02*
X54923161Y-56536121D01*
X54923161Y-56536121D02*
X54961256Y-56574217D01*
X54961256Y-56574217D02*
X55037447Y-56612312D01*
X55037447Y-56612312D02*
X55266018Y-56612312D01*
X55266018Y-56612312D02*
X55342209Y-56574217D01*
X55342209Y-56574217D02*
X55380304Y-56536121D01*
X54123161Y-56612312D02*
X54580304Y-56612312D01*
X54351732Y-56612312D02*
X54351732Y-55812312D01*
X54351732Y-55812312D02*
X54427923Y-55926597D01*
X54427923Y-55926597D02*
X54504113Y-56002788D01*
X54504113Y-56002788D02*
X54580304Y-56040883D01*
X44572590Y-66772312D02*
X45029733Y-66772312D01*
X44801161Y-66772312D02*
X44801161Y-65972312D01*
X44801161Y-65972312D02*
X44877352Y-66086597D01*
X44877352Y-66086597D02*
X44953542Y-66162788D01*
X44953542Y-66162788D02*
X45029733Y-66200883D01*
X44077351Y-65972312D02*
X44001161Y-65972312D01*
X44001161Y-65972312D02*
X43924970Y-66010407D01*
X43924970Y-66010407D02*
X43886875Y-66048502D01*
X43886875Y-66048502D02*
X43848780Y-66124693D01*
X43848780Y-66124693D02*
X43810685Y-66277074D01*
X43810685Y-66277074D02*
X43810685Y-66467550D01*
X43810685Y-66467550D02*
X43848780Y-66619931D01*
X43848780Y-66619931D02*
X43886875Y-66696121D01*
X43886875Y-66696121D02*
X43924970Y-66734217D01*
X43924970Y-66734217D02*
X44001161Y-66772312D01*
X44001161Y-66772312D02*
X44077351Y-66772312D01*
X44077351Y-66772312D02*
X44153542Y-66734217D01*
X44153542Y-66734217D02*
X44191637Y-66696121D01*
X44191637Y-66696121D02*
X44229732Y-66619931D01*
X44229732Y-66619931D02*
X44267828Y-66467550D01*
X44267828Y-66467550D02*
X44267828Y-66277074D01*
X44267828Y-66277074D02*
X44229732Y-66124693D01*
X44229732Y-66124693D02*
X44191637Y-66048502D01*
X44191637Y-66048502D02*
X44153542Y-66010407D01*
X44153542Y-66010407D02*
X44077351Y-65972312D01*
X43315446Y-65972312D02*
X43239256Y-65972312D01*
X43239256Y-65972312D02*
X43163065Y-66010407D01*
X43163065Y-66010407D02*
X43124970Y-66048502D01*
X43124970Y-66048502D02*
X43086875Y-66124693D01*
X43086875Y-66124693D02*
X43048780Y-66277074D01*
X43048780Y-66277074D02*
X43048780Y-66467550D01*
X43048780Y-66467550D02*
X43086875Y-66619931D01*
X43086875Y-66619931D02*
X43124970Y-66696121D01*
X43124970Y-66696121D02*
X43163065Y-66734217D01*
X43163065Y-66734217D02*
X43239256Y-66772312D01*
X43239256Y-66772312D02*
X43315446Y-66772312D01*
X43315446Y-66772312D02*
X43391637Y-66734217D01*
X43391637Y-66734217D02*
X43429732Y-66696121D01*
X43429732Y-66696121D02*
X43467827Y-66619931D01*
X43467827Y-66619931D02*
X43505923Y-66467550D01*
X43505923Y-66467550D02*
X43505923Y-66277074D01*
X43505923Y-66277074D02*
X43467827Y-66124693D01*
X43467827Y-66124693D02*
X43429732Y-66048502D01*
X43429732Y-66048502D02*
X43391637Y-66010407D01*
X43391637Y-66010407D02*
X43315446Y-65972312D01*
X227687880Y-59670610D02*
X227687880Y-60170610D01*
X227687880Y-63770610D02*
X227687880Y-64370610D01*
X227687880Y-64370610D02*
X232187880Y-64370610D01*
X232187880Y-59670610D02*
X227687880Y-59670610D01*
X232187880Y-60370610D02*
X232187880Y-59670610D01*
X232687880Y-64870610D02*
X232687880Y-65870610D01*
X233187880Y-66370610D02*
X232687880Y-65870610D01*
X236187880Y-61870610D02*
X233687880Y-61870610D01*
X236187880Y-66370610D02*
X233187880Y-66370610D01*
X236687880Y-62370610D02*
X236187880Y-61870610D01*
X236687880Y-65870610D02*
X236187880Y-66370610D01*
X232687880Y-64870610D02*
G75*
G03*
X232187880Y-64370610I-500001J-1D01*
G01*
X232187880Y-60370610D02*
G75*
G03*
X233687880Y-61870610I1500001J1D01*
G01*
X133576447Y-70560017D02*
X133576447Y-71060017D01*
X133576447Y-74660017D02*
X133576447Y-75260017D01*
X133576447Y-75260017D02*
X138076447Y-75260017D01*
X138076447Y-70560017D02*
X133576447Y-70560017D01*
X138076447Y-71260017D02*
X138076447Y-70560017D01*
X138576447Y-75760017D02*
X138576447Y-76760017D01*
X139076447Y-77260017D02*
X138576447Y-76760017D01*
X142076447Y-72760017D02*
X139576447Y-72760017D01*
X142076447Y-77260017D02*
X139076447Y-77260017D01*
X142576447Y-73260017D02*
X142076447Y-72760017D01*
X142576447Y-76760017D02*
X142076447Y-77260017D01*
X138576447Y-75760017D02*
G75*
G03*
X138076447Y-75260017I-500001J-1D01*
G01*
X138076447Y-71260017D02*
G75*
G03*
X139576447Y-72760017I1500001J1D01*
G01*
X219533753Y-93432284D02*
X219446929Y-93924688D01*
X218821796Y-97469996D02*
X218717607Y-98060881D01*
X218717607Y-98060881D02*
X223149242Y-98842298D01*
X223965388Y-94213701D02*
X219533753Y-93432284D01*
X223843835Y-94903067D02*
X223965388Y-94213701D01*
X223554822Y-99421526D02*
X223381174Y-100406333D01*
X223786753Y-100985561D02*
X223381174Y-100406333D01*
X227522593Y-97074871D02*
X225060574Y-96640751D01*
X226741177Y-101506506D02*
X223786753Y-100985561D01*
X227928173Y-97654099D02*
X227522593Y-97074871D01*
X227320405Y-101100926D02*
X226741177Y-101506506D01*
X223554821Y-99421526D02*
G75*
G03*
X223149242Y-98842298I-492404J86824D01*
G01*
X223843835Y-94903067D02*
G75*
G03*
X225060574Y-96640750I1477214J-260470D01*
G01*
X115576447Y-41560017D02*
X115576447Y-42060017D01*
X115576447Y-45660017D02*
X115576447Y-46260017D01*
X115576447Y-46260017D02*
X120076447Y-46260017D01*
X120076447Y-41560017D02*
X115576447Y-41560017D01*
X120076447Y-42260017D02*
X120076447Y-41560017D01*
X120576447Y-46760017D02*
X120576447Y-47760017D01*
X121076447Y-48260017D02*
X120576447Y-47760017D01*
X124076447Y-43760017D02*
X121576447Y-43760017D01*
X124076447Y-48260017D02*
X121076447Y-48260017D01*
X124576447Y-44260017D02*
X124076447Y-43760017D01*
X124576447Y-47760017D02*
X124076447Y-48260017D01*
X120576447Y-46760017D02*
G75*
G03*
X120076447Y-46260017I-500001J-1D01*
G01*
X120076447Y-42260017D02*
G75*
G03*
X121576447Y-43760017I1500001J1D01*
G01*
X79576447Y-57560017D02*
X79576447Y-58060017D01*
X79576447Y-61660017D02*
X79576447Y-62260017D01*
X79576447Y-62260017D02*
X84076447Y-62260017D01*
X84076447Y-57560017D02*
X79576447Y-57560017D01*
X84076447Y-58260017D02*
X84076447Y-57560017D01*
X84576447Y-62760017D02*
X84576447Y-63760017D01*
X85076447Y-64260017D02*
X84576447Y-63760017D01*
X88076447Y-59760017D02*
X85576447Y-59760017D01*
X88076447Y-64260017D02*
X85076447Y-64260017D01*
X88576447Y-60260017D02*
X88076447Y-59760017D01*
X88576447Y-63760017D02*
X88076447Y-64260017D01*
X84576447Y-62760017D02*
G75*
G03*
X84076447Y-62260017I-500001J-1D01*
G01*
X84076447Y-58260017D02*
G75*
G03*
X85576447Y-59760017I1500001J1D01*
G01*
X75576447Y-56560017D02*
X75576447Y-56060017D01*
X75576447Y-52460017D02*
X75576447Y-51860017D01*
X75576447Y-51860017D02*
X71076447Y-51860017D01*
X71076447Y-56560017D02*
X75576447Y-56560017D01*
X71076447Y-55860017D02*
X71076447Y-56560017D01*
X70576447Y-51360017D02*
X70576447Y-50360017D01*
X70076447Y-49860017D02*
X70576447Y-50360017D01*
X67076447Y-54360017D02*
X69576447Y-54360017D01*
X67076447Y-49860017D02*
X70076447Y-49860017D01*
X66576447Y-53860017D02*
X67076447Y-54360017D01*
X66576447Y-50360017D02*
X67076447Y-49860017D01*
X70576447Y-51360017D02*
G75*
G03*
X71076447Y-51860017I500001J1D01*
G01*
X71076447Y-55860017D02*
G75*
G03*
X69576447Y-54360017I-1500001J-1D01*
G01*
X209687880Y-40670610D02*
X209687880Y-41170610D01*
X209687880Y-44770610D02*
X209687880Y-45370610D01*
X209687880Y-45370610D02*
X214187880Y-45370610D01*
X214187880Y-40670610D02*
X209687880Y-40670610D01*
X214187880Y-41370610D02*
X214187880Y-40670610D01*
X214687880Y-45870610D02*
X214687880Y-46870610D01*
X215187880Y-47370610D02*
X214687880Y-46870610D01*
X218187880Y-42870610D02*
X215687880Y-42870610D01*
X218187880Y-47370610D02*
X215187880Y-47370610D01*
X218687880Y-43370610D02*
X218187880Y-42870610D01*
X218687880Y-46870610D02*
X218187880Y-47370610D01*
X214687880Y-45870610D02*
G75*
G03*
X214187880Y-45370610I-500001J-1D01*
G01*
X214187880Y-41370610D02*
G75*
G03*
X215687880Y-42870610I1500001J1D01*
G01*
X227687880Y-76670610D02*
X227687880Y-77170610D01*
X227687880Y-80770610D02*
X227687880Y-81370610D01*
X227687880Y-81370610D02*
X232187880Y-81370610D01*
X232187880Y-76670610D02*
X227687880Y-76670610D01*
X232187880Y-77370610D02*
X232187880Y-76670610D01*
X232687880Y-81870610D02*
X232687880Y-82870610D01*
X233187880Y-83370610D02*
X232687880Y-82870610D01*
X236187880Y-78870610D02*
X233687880Y-78870610D01*
X236187880Y-83370610D02*
X233187880Y-83370610D01*
X236687880Y-79370610D02*
X236187880Y-78870610D01*
X236687880Y-82870610D02*
X236187880Y-83370610D01*
X232687880Y-81870610D02*
G75*
G03*
X232187880Y-81370610I-500001J-1D01*
G01*
X232187880Y-77370610D02*
G75*
G03*
X233687880Y-78870610I1500001J1D01*
G01*
X79576447Y-74560017D02*
X79576447Y-75060017D01*
X79576447Y-78660017D02*
X79576447Y-79260017D01*
X79576447Y-79260017D02*
X84076447Y-79260017D01*
X84076447Y-74560017D02*
X79576447Y-74560017D01*
X84076447Y-75260017D02*
X84076447Y-74560017D01*
X84576447Y-79760017D02*
X84576447Y-80760017D01*
X85076447Y-81260017D02*
X84576447Y-80760017D01*
X88076447Y-76760017D02*
X85576447Y-76760017D01*
X88076447Y-81260017D02*
X85076447Y-81260017D01*
X88576447Y-77260017D02*
X88076447Y-76760017D01*
X88576447Y-80760017D02*
X88076447Y-81260017D01*
X84576447Y-79760017D02*
G75*
G03*
X84076447Y-79260017I-500001J-1D01*
G01*
X84076447Y-75260017D02*
G75*
G03*
X85576447Y-76760017I1500001J1D01*
G01*
X69943265Y-95752766D02*
X70030089Y-96245170D01*
X70655223Y-99790478D02*
X70759411Y-100381362D01*
X70759411Y-100381362D02*
X75191046Y-99599946D01*
X74374900Y-94971349D02*
X69943265Y-95752766D01*
X74496454Y-95660715D02*
X74374900Y-94971349D01*
X75770274Y-100005525D02*
X75943922Y-100990333D01*
X76523150Y-101395913D02*
X75943922Y-100990333D01*
X78696157Y-96443333D02*
X76234138Y-96877454D01*
X79477574Y-100874968D02*
X76523150Y-101395913D01*
X79275385Y-96848913D02*
X78696157Y-96443333D01*
X79883153Y-100295740D02*
X79477574Y-100874968D01*
X75770275Y-100005525D02*
G75*
G03*
X75191046Y-99599946I-492405J-86826D01*
G01*
X74496454Y-95660715D02*
G75*
G03*
X76234138Y-96877454I1477212J260474D01*
G01*
X79576447Y-40560017D02*
X79576447Y-41060017D01*
X79576447Y-44660017D02*
X79576447Y-45260017D01*
X79576447Y-45260017D02*
X84076447Y-45260017D01*
X84076447Y-40560017D02*
X79576447Y-40560017D01*
X84076447Y-41260017D02*
X84076447Y-40560017D01*
X84576447Y-45760017D02*
X84576447Y-46760017D01*
X85076447Y-47260017D02*
X84576447Y-46760017D01*
X88076447Y-42760017D02*
X85576447Y-42760017D01*
X88076447Y-47260017D02*
X85076447Y-47260017D01*
X88576447Y-43260017D02*
X88076447Y-42760017D01*
X88576447Y-46760017D02*
X88076447Y-47260017D01*
X84576447Y-45760017D02*
G75*
G03*
X84076447Y-45260017I-500001J-1D01*
G01*
X84076447Y-41260017D02*
G75*
G03*
X85576447Y-42760017I1500001J1D01*
G01*
X51866220Y-103377807D02*
X52077529Y-103830960D01*
X53598955Y-107093668D02*
X53852526Y-107637453D01*
X53852526Y-107637453D02*
X57930911Y-105735671D01*
X55944605Y-101476024D02*
X51866220Y-103377807D01*
X56240438Y-102110440D02*
X55944605Y-101476024D01*
X58595374Y-105977516D02*
X59017992Y-106883823D01*
X59682455Y-107125668D02*
X59017992Y-106883823D01*
X60499596Y-101779428D02*
X58233827Y-102835974D01*
X62401378Y-105857813D02*
X59682455Y-107125668D01*
X61164059Y-102021273D02*
X60499596Y-101779428D01*
X62643223Y-105193350D02*
X62401378Y-105857813D01*
X58595373Y-105977517D02*
G75*
G03*
X57930911Y-105735671I-453154J-211309D01*
G01*
X56240438Y-102110440D02*
G75*
G03*
X58233827Y-102835973I1359462J633930D01*
G01*
X115576447Y-58560017D02*
X115576447Y-59060017D01*
X115576447Y-62660017D02*
X115576447Y-63260017D01*
X115576447Y-63260017D02*
X120076447Y-63260017D01*
X120076447Y-58560017D02*
X115576447Y-58560017D01*
X120076447Y-59260017D02*
X120076447Y-58560017D01*
X120576447Y-63760017D02*
X120576447Y-64760017D01*
X121076447Y-65260017D02*
X120576447Y-64760017D01*
X124076447Y-60760017D02*
X121576447Y-60760017D01*
X124076447Y-65260017D02*
X121076447Y-65260017D01*
X124576447Y-61260017D02*
X124076447Y-60760017D01*
X124576447Y-64760017D02*
X124076447Y-65260017D01*
X120576447Y-63760017D02*
G75*
G03*
X120076447Y-63260017I-500001J-1D01*
G01*
X120076447Y-59260017D02*
G75*
G03*
X121576447Y-60760017I1500001J1D01*
G01*
X169687880Y-50670610D02*
X169687880Y-50170610D01*
X169687880Y-46570610D02*
X169687880Y-45970610D01*
X169687880Y-45970610D02*
X165187880Y-45970610D01*
X165187880Y-50670610D02*
X169687880Y-50670610D01*
X165187880Y-49970610D02*
X165187880Y-50670610D01*
X164687880Y-45470610D02*
X164687880Y-44470610D01*
X164187880Y-43970610D02*
X164687880Y-44470610D01*
X161187880Y-48470610D02*
X163687880Y-48470610D01*
X161187880Y-43970610D02*
X164187880Y-43970610D01*
X160687880Y-47970610D02*
X161187880Y-48470610D01*
X160687880Y-44470610D02*
X161187880Y-43970610D01*
X164687880Y-45470610D02*
G75*
G03*
X165187880Y-45970610I500001J1D01*
G01*
X165187880Y-49970610D02*
G75*
G03*
X163687880Y-48470610I-1500001J-1D01*
G01*
X173687880Y-75670610D02*
X173687880Y-76170610D01*
X173687880Y-79770610D02*
X173687880Y-80370610D01*
X173687880Y-80370610D02*
X178187880Y-80370610D01*
X178187880Y-75670610D02*
X173687880Y-75670610D01*
X178187880Y-76370610D02*
X178187880Y-75670610D01*
X178687880Y-80870610D02*
X178687880Y-81870610D01*
X179187880Y-82370610D02*
X178687880Y-81870610D01*
X182187880Y-77870610D02*
X179687880Y-77870610D01*
X182187880Y-82370610D02*
X179187880Y-82370610D01*
X182687880Y-78370610D02*
X182187880Y-77870610D01*
X182687880Y-81870610D02*
X182187880Y-82370610D01*
X178687880Y-80870610D02*
G75*
G03*
X178187880Y-80370610I-500001J-1D01*
G01*
X178187880Y-76370610D02*
G75*
G03*
X179687880Y-77870610I1500001J1D01*
G01*
X97576447Y-68560017D02*
X97576447Y-69060017D01*
X97576447Y-72660017D02*
X97576447Y-73260017D01*
X97576447Y-73260017D02*
X102076447Y-73260017D01*
X102076447Y-68560017D02*
X97576447Y-68560017D01*
X102076447Y-69260017D02*
X102076447Y-68560017D01*
X102576447Y-73760017D02*
X102576447Y-74760017D01*
X103076447Y-75260017D02*
X102576447Y-74760017D01*
X106076447Y-70760017D02*
X103576447Y-70760017D01*
X106076447Y-75260017D02*
X103076447Y-75260017D01*
X106576447Y-71260017D02*
X106076447Y-70760017D01*
X106576447Y-74760017D02*
X106076447Y-75260017D01*
X102576447Y-73760017D02*
G75*
G03*
X102076447Y-73260017I-500001J-1D01*
G01*
X102076447Y-69260017D02*
G75*
G03*
X103576447Y-70760017I1500001J1D01*
G01*
X191687880Y-51670610D02*
X191687880Y-52170610D01*
X191687880Y-55770610D02*
X191687880Y-56370610D01*
X191687880Y-56370610D02*
X196187880Y-56370610D01*
X196187880Y-51670610D02*
X191687880Y-51670610D01*
X196187880Y-52370610D02*
X196187880Y-51670610D01*
X196687880Y-56870610D02*
X196687880Y-57870610D01*
X197187880Y-58370610D02*
X196687880Y-57870610D01*
X200187880Y-53870610D02*
X197687880Y-53870610D01*
X200187880Y-58370610D02*
X197187880Y-58370610D01*
X200687880Y-54370610D02*
X200187880Y-53870610D01*
X200687880Y-57870610D02*
X200187880Y-58370610D01*
X196687880Y-56870610D02*
G75*
G03*
X196187880Y-56370610I-500001J-1D01*
G01*
X196187880Y-52370610D02*
G75*
G03*
X197687880Y-53870610I1500001J1D01*
G01*
X238709798Y-97571744D02*
X238498489Y-98024898D01*
X236977063Y-101287606D02*
X236723492Y-101831390D01*
X236723492Y-101831390D02*
X240801877Y-103733173D01*
X242788183Y-99473526D02*
X238709798Y-97571744D01*
X242492350Y-100107941D02*
X242788183Y-99473526D01*
X241043722Y-104397636D02*
X240621104Y-105303943D01*
X240862949Y-105968406D02*
X240621104Y-105303943D01*
X245483654Y-103157876D02*
X243217885Y-102101331D01*
X243581872Y-107236261D02*
X240862949Y-105968406D01*
X245725499Y-103822339D02*
X245483654Y-103157876D01*
X244246335Y-106994416D02*
X243581872Y-107236261D01*
X241043721Y-104397636D02*
G75*
G03*
X240801877Y-103733173I-453154J211309D01*
G01*
X242492351Y-100107941D02*
G75*
G03*
X243217885Y-102101331I1359464J-633927D01*
G01*
X115576447Y-75560017D02*
X115576447Y-76060017D01*
X115576447Y-79660017D02*
X115576447Y-80260017D01*
X115576447Y-80260017D02*
X120076447Y-80260017D01*
X120076447Y-75560017D02*
X115576447Y-75560017D01*
X120076447Y-76260017D02*
X120076447Y-75560017D01*
X120576447Y-80760017D02*
X120576447Y-81760017D01*
X121076447Y-82260017D02*
X120576447Y-81760017D01*
X124076447Y-77760017D02*
X121576447Y-77760017D01*
X124076447Y-82260017D02*
X121076447Y-82260017D01*
X124576447Y-78260017D02*
X124076447Y-77760017D01*
X124576447Y-81760017D02*
X124076447Y-82260017D01*
X120576447Y-80760017D02*
G75*
G03*
X120076447Y-80260017I-500001J-1D01*
G01*
X120076447Y-76260017D02*
G75*
G03*
X121576447Y-77760017I1500001J1D01*
G01*
X169687880Y-67670610D02*
X169687880Y-67170610D01*
X169687880Y-63570610D02*
X169687880Y-62970610D01*
X169687880Y-62970610D02*
X165187880Y-62970610D01*
X165187880Y-67670610D02*
X169687880Y-67670610D01*
X165187880Y-66970610D02*
X165187880Y-67670610D01*
X164687880Y-62470610D02*
X164687880Y-61470610D01*
X164187880Y-60970610D02*
X164687880Y-61470610D01*
X161187880Y-65470610D02*
X163687880Y-65470610D01*
X161187880Y-60970610D02*
X164187880Y-60970610D01*
X160687880Y-64970610D02*
X161187880Y-65470610D01*
X160687880Y-61470610D02*
X161187880Y-60970610D01*
X164687880Y-62470610D02*
G75*
G03*
X165187880Y-62970610I500001J1D01*
G01*
X165187880Y-66970610D02*
G75*
G03*
X163687880Y-65470610I-1500001J-1D01*
G01*
X191687880Y-68670610D02*
X191687880Y-69170610D01*
X191687880Y-72770610D02*
X191687880Y-73370610D01*
X191687880Y-73370610D02*
X196187880Y-73370610D01*
X196187880Y-68670610D02*
X191687880Y-68670610D01*
X196187880Y-69370610D02*
X196187880Y-68670610D01*
X196687880Y-73870610D02*
X196687880Y-74870610D01*
X197187880Y-75370610D02*
X196687880Y-74870610D01*
X200187880Y-70870610D02*
X197687880Y-70870610D01*
X200187880Y-75370610D02*
X197187880Y-75370610D01*
X200687880Y-71370610D02*
X200187880Y-70870610D01*
X200687880Y-74870610D02*
X200187880Y-75370610D01*
X196687880Y-73870610D02*
G75*
G03*
X196187880Y-73370610I-500001J-1D01*
G01*
X196187880Y-69370610D02*
G75*
G03*
X197687880Y-70870610I1500001J1D01*
G01*
X191687880Y-34670610D02*
X191687880Y-35170610D01*
X191687880Y-38770610D02*
X191687880Y-39370610D01*
X191687880Y-39370610D02*
X196187880Y-39370610D01*
X196187880Y-34670610D02*
X191687880Y-34670610D01*
X196187880Y-35370610D02*
X196187880Y-34670610D01*
X196687880Y-39870610D02*
X196687880Y-40870610D01*
X197187880Y-41370610D02*
X196687880Y-40870610D01*
X200187880Y-36870610D02*
X197687880Y-36870610D01*
X200187880Y-41370610D02*
X197187880Y-41370610D01*
X200687880Y-37370610D02*
X200187880Y-36870610D01*
X200687880Y-40870610D02*
X200187880Y-41370610D01*
X196687880Y-39870610D02*
G75*
G03*
X196187880Y-39370610I-500001J-1D01*
G01*
X196187880Y-35370610D02*
G75*
G03*
X197687880Y-36870610I1500001J1D01*
G01*
X227687880Y-42670610D02*
X227687880Y-43170610D01*
X227687880Y-46770610D02*
X227687880Y-47370610D01*
X227687880Y-47370610D02*
X232187880Y-47370610D01*
X232187880Y-42670610D02*
X227687880Y-42670610D01*
X232187880Y-43370610D02*
X232187880Y-42670610D01*
X232687880Y-47870610D02*
X232687880Y-48870610D01*
X233187880Y-49370610D02*
X232687880Y-48870610D01*
X236187880Y-44870610D02*
X233687880Y-44870610D01*
X236187880Y-49370610D02*
X233187880Y-49370610D01*
X236687880Y-45370610D02*
X236187880Y-44870610D01*
X236687880Y-48870610D02*
X236187880Y-49370610D01*
X232687880Y-47870610D02*
G75*
G03*
X232187880Y-47370610I-500001J-1D01*
G01*
X232187880Y-43370610D02*
G75*
G03*
X233687880Y-44870610I1500001J1D01*
G01*
X75576447Y-73560017D02*
X75576447Y-73060017D01*
X75576447Y-69460017D02*
X75576447Y-68860017D01*
X75576447Y-68860017D02*
X71076447Y-68860017D01*
X71076447Y-73560017D02*
X75576447Y-73560017D01*
X71076447Y-72860017D02*
X71076447Y-73560017D01*
X70576447Y-68360017D02*
X70576447Y-67360017D01*
X70076447Y-66860017D02*
X70576447Y-67360017D01*
X67076447Y-71360017D02*
X69576447Y-71360017D01*
X67076447Y-66860017D02*
X70076447Y-66860017D01*
X66576447Y-70860017D02*
X67076447Y-71360017D01*
X66576447Y-67360017D02*
X67076447Y-66860017D01*
X70576447Y-68360017D02*
G75*
G03*
X71076447Y-68860017I500001J1D01*
G01*
X71076447Y-72860017D02*
G75*
G03*
X69576447Y-71360017I-1500001J-1D01*
G01*
X209687880Y-74670610D02*
X209687880Y-75170610D01*
X209687880Y-78770610D02*
X209687880Y-79370610D01*
X209687880Y-79370610D02*
X214187880Y-79370610D01*
X214187880Y-74670610D02*
X209687880Y-74670610D01*
X214187880Y-75370610D02*
X214187880Y-74670610D01*
X214687880Y-79870610D02*
X214687880Y-80870610D01*
X215187880Y-81370610D02*
X214687880Y-80870610D01*
X218187880Y-76870610D02*
X215687880Y-76870610D01*
X218187880Y-81370610D02*
X215187880Y-81370610D01*
X218687880Y-77370610D02*
X218187880Y-76870610D01*
X218687880Y-80870610D02*
X218187880Y-81370610D01*
X214687880Y-79870610D02*
G75*
G03*
X214187880Y-79370610I-500001J-1D01*
G01*
X214187880Y-75370610D02*
G75*
G03*
X215687880Y-76870610I1500001J1D01*
G01*
X133576447Y-87560017D02*
X133576447Y-88060017D01*
X133576447Y-91660017D02*
X133576447Y-92260017D01*
X133576447Y-92260017D02*
X138076447Y-92260017D01*
X138076447Y-87560017D02*
X133576447Y-87560017D01*
X138076447Y-88260017D02*
X138076447Y-87560017D01*
X138576447Y-92760017D02*
X138576447Y-93760017D01*
X139076447Y-94260017D02*
X138576447Y-93760017D01*
X142076447Y-89760017D02*
X139576447Y-89760017D01*
X142076447Y-94260017D02*
X139076447Y-94260017D01*
X142576447Y-90260017D02*
X142076447Y-89760017D01*
X142576447Y-93760017D02*
X142076447Y-94260017D01*
X138576447Y-92760017D02*
G75*
G03*
X138076447Y-92260017I-500001J-1D01*
G01*
X138076447Y-88260017D02*
G75*
G03*
X139576447Y-89760017I1500001J1D01*
G01*
X173687880Y-41670610D02*
X173687880Y-42170610D01*
X173687880Y-45770610D02*
X173687880Y-46370610D01*
X173687880Y-46370610D02*
X178187880Y-46370610D01*
X178187880Y-41670610D02*
X173687880Y-41670610D01*
X178187880Y-42370610D02*
X178187880Y-41670610D01*
X178687880Y-46870610D02*
X178687880Y-47870610D01*
X179187880Y-48370610D02*
X178687880Y-47870610D01*
X182187880Y-43870610D02*
X179687880Y-43870610D01*
X182187880Y-48370610D02*
X179187880Y-48370610D01*
X182687880Y-44370610D02*
X182187880Y-43870610D01*
X182687880Y-47870610D02*
X182187880Y-48370610D01*
X178687880Y-46870610D02*
G75*
G03*
X178187880Y-46370610I-500001J-1D01*
G01*
X178187880Y-42370610D02*
G75*
G03*
X179687880Y-43870610I1500001J1D01*
G01*
X75576447Y-39560017D02*
X75576447Y-39060017D01*
X75576447Y-35460017D02*
X75576447Y-34860017D01*
X75576447Y-34860017D02*
X71076447Y-34860017D01*
X71076447Y-39560017D02*
X75576447Y-39560017D01*
X71076447Y-38860017D02*
X71076447Y-39560017D01*
X70576447Y-34360017D02*
X70576447Y-33360017D01*
X70076447Y-32860017D02*
X70576447Y-33360017D01*
X67076447Y-37360017D02*
X69576447Y-37360017D01*
X67076447Y-32860017D02*
X70076447Y-32860017D01*
X66576447Y-36860017D02*
X67076447Y-37360017D01*
X66576447Y-33360017D02*
X67076447Y-32860017D01*
X70576447Y-34360017D02*
G75*
G03*
X71076447Y-34860017I500001J1D01*
G01*
X71076447Y-38860017D02*
G75*
G03*
X69576447Y-37360017I-1500001J-1D01*
G01*
X97576447Y-34560017D02*
X97576447Y-35060017D01*
X97576447Y-38660017D02*
X97576447Y-39260017D01*
X97576447Y-39260017D02*
X102076447Y-39260017D01*
X102076447Y-34560017D02*
X97576447Y-34560017D01*
X102076447Y-35260017D02*
X102076447Y-34560017D01*
X102576447Y-39760017D02*
X102576447Y-40760017D01*
X103076447Y-41260017D02*
X102576447Y-40760017D01*
X106076447Y-36760017D02*
X103576447Y-36760017D01*
X106076447Y-41260017D02*
X103076447Y-41260017D01*
X106576447Y-37260017D02*
X106076447Y-36760017D01*
X106576447Y-40760017D02*
X106076447Y-41260017D01*
X102576447Y-39760017D02*
G75*
G03*
X102076447Y-39260017I-500001J-1D01*
G01*
X102076447Y-35260017D02*
G75*
G03*
X103576447Y-36760017I1500001J1D01*
G01*
X97576447Y-51560017D02*
X97576447Y-52060017D01*
X97576447Y-55660017D02*
X97576447Y-56260017D01*
X97576447Y-56260017D02*
X102076447Y-56260017D01*
X102076447Y-51560017D02*
X97576447Y-51560017D01*
X102076447Y-52260017D02*
X102076447Y-51560017D01*
X102576447Y-56760017D02*
X102576447Y-57760017D01*
X103076447Y-58260017D02*
X102576447Y-57760017D01*
X106076447Y-53760017D02*
X103576447Y-53760017D01*
X106076447Y-58260017D02*
X103076447Y-58260017D01*
X106576447Y-54260017D02*
X106076447Y-53760017D01*
X106576447Y-57760017D02*
X106076447Y-58260017D01*
X102576447Y-56760017D02*
G75*
G03*
X102076447Y-56260017I-500001J-1D01*
G01*
X102076447Y-52260017D02*
G75*
G03*
X103576447Y-53760017I1500001J1D01*
G01*
X133576447Y-53560017D02*
X133576447Y-54060017D01*
X133576447Y-57660017D02*
X133576447Y-58260017D01*
X133576447Y-58260017D02*
X138076447Y-58260017D01*
X138076447Y-53560017D02*
X133576447Y-53560017D01*
X138076447Y-54260017D02*
X138076447Y-53560017D01*
X138576447Y-58760017D02*
X138576447Y-59760017D01*
X139076447Y-60260017D02*
X138576447Y-59760017D01*
X142076447Y-55760017D02*
X139576447Y-55760017D01*
X142076447Y-60260017D02*
X139076447Y-60260017D01*
X142576447Y-56260017D02*
X142076447Y-55760017D01*
X142576447Y-59760017D02*
X142076447Y-60260017D01*
X138576447Y-58760017D02*
G75*
G03*
X138076447Y-58260017I-500001J-1D01*
G01*
X138076447Y-54260017D02*
G75*
G03*
X139576447Y-55760017I1500001J1D01*
G01*
X173687880Y-58670610D02*
X173687880Y-59170610D01*
X173687880Y-62770610D02*
X173687880Y-63370610D01*
X173687880Y-63370610D02*
X178187880Y-63370610D01*
X178187880Y-58670610D02*
X173687880Y-58670610D01*
X178187880Y-59370610D02*
X178187880Y-58670610D01*
X178687880Y-63870610D02*
X178687880Y-64870610D01*
X179187880Y-65370610D02*
X178687880Y-64870610D01*
X182187880Y-60870610D02*
X179687880Y-60870610D01*
X182187880Y-65370610D02*
X179187880Y-65370610D01*
X182687880Y-61370610D02*
X182187880Y-60870610D01*
X182687880Y-64870610D02*
X182187880Y-65370610D01*
X178687880Y-63870610D02*
G75*
G03*
X178187880Y-63370610I-500001J-1D01*
G01*
X178187880Y-59370610D02*
G75*
G03*
X179687880Y-60870610I1500001J1D01*
G01*
X209687880Y-57670610D02*
X209687880Y-58170610D01*
X209687880Y-61770610D02*
X209687880Y-62370610D01*
X209687880Y-62370610D02*
X214187880Y-62370610D01*
X214187880Y-57670610D02*
X209687880Y-57670610D01*
X214187880Y-58370610D02*
X214187880Y-57670610D01*
X214687880Y-62870610D02*
X214687880Y-63870610D01*
X215187880Y-64370610D02*
X214687880Y-63870610D01*
X218187880Y-59870610D02*
X215687880Y-59870610D01*
X218187880Y-64370610D02*
X215187880Y-64370610D01*
X218687880Y-60370610D02*
X218187880Y-59870610D01*
X218687880Y-63870610D02*
X218187880Y-64370610D01*
X214687880Y-62870610D02*
G75*
G03*
X214187880Y-62370610I-500001J-1D01*
G01*
X214187880Y-58370610D02*
G75*
G03*
X215687880Y-59870610I1500001J1D01*
G01*
X169687880Y-84670610D02*
X169687880Y-84170610D01*
X169687880Y-80570610D02*
X169687880Y-79970610D01*
X169687880Y-79970610D02*
X165187880Y-79970610D01*
X165187880Y-84670610D02*
X169687880Y-84670610D01*
X165187880Y-83970610D02*
X165187880Y-84670610D01*
X164687880Y-79470610D02*
X164687880Y-78470610D01*
X164187880Y-77970610D02*
X164687880Y-78470610D01*
X161187880Y-82470610D02*
X163687880Y-82470610D01*
X161187880Y-77970610D02*
X164187880Y-77970610D01*
X160687880Y-81970610D02*
X161187880Y-82470610D01*
X160687880Y-78470610D02*
X161187880Y-77970610D01*
X164687880Y-79470610D02*
G75*
G03*
X165187880Y-79970610I500001J1D01*
G01*
X165187880Y-83970610D02*
G75*
G03*
X163687880Y-82470610I-1500001J-1D01*
G01*
D11*
X246067880Y-46200610D03*
X246067880Y-48740610D03*
X246067880Y-51280610D03*
X246067880Y-53820610D03*
X246067880Y-56360610D03*
X246067880Y-58900610D03*
X246067880Y-61440610D03*
X246067880Y-63980610D03*
X246067880Y-66520610D03*
X246067880Y-69060610D03*
X246067880Y-71600610D03*
X246067880Y-74140610D03*
X261307880Y-74140610D03*
X261307880Y-71600610D03*
X261307880Y-69060610D03*
X261307880Y-66520610D03*
X261307880Y-63980610D03*
X261307880Y-61440610D03*
X261307880Y-58900610D03*
X261307880Y-56360610D03*
X261307880Y-53820610D03*
X261307880Y-51280610D03*
X261307880Y-48740610D03*
X261307880Y-46200610D03*
X41956447Y-46090017D03*
X41956447Y-48630017D03*
X41956447Y-51170017D03*
X41956447Y-53710017D03*
X41956447Y-56250017D03*
X41956447Y-58790017D03*
X41956447Y-61330017D03*
X41956447Y-63870017D03*
X41956447Y-66410017D03*
X41956447Y-68950017D03*
X41956447Y-71490017D03*
X41956447Y-74030017D03*
X57196447Y-74030017D03*
X57196447Y-71490017D03*
X57196447Y-68950017D03*
X57196447Y-66410017D03*
X57196447Y-63870017D03*
X57196447Y-61330017D03*
X57196447Y-58790017D03*
X57196447Y-56250017D03*
X57196447Y-53710017D03*
X57196447Y-51170017D03*
X57196447Y-48630017D03*
X57196447Y-46090017D03*
%LPC*%
D12*
X149100000Y-81240000D03*
X154100000Y-81240000D03*
X149100000Y-80490000D03*
X149100000Y-80490000D03*
X154100000Y-80490000D03*
X154100000Y-80490000D03*
X149100000Y-79740000D03*
X154100000Y-79740000D03*
X149100000Y-78990000D03*
X154100000Y-78990000D03*
X149100000Y-78240000D03*
X154100000Y-78240000D03*
X149100000Y-77490000D03*
X154100000Y-77490000D03*
X149100000Y-76740000D03*
X154100000Y-76740000D03*
X149100000Y-75990000D03*
X154100000Y-75990000D03*
X149100000Y-75240000D03*
X154100000Y-75240000D03*
X149100000Y-74490000D03*
X154100000Y-74490000D03*
X149100000Y-73740000D03*
X154100000Y-73740000D03*
D13*
X229187880Y-58170610D03*
D14*
X229687880Y-61920610D03*
D15*
X234687880Y-58170610D03*
D14*
X234687880Y-64120610D03*
D16*
X239907880Y-53970610D03*
D13*
X240187880Y-58170610D03*
D17*
X237962880Y-64120610D03*
X226412880Y-61920610D03*
D18*
X57672447Y-79435017D03*
X57672447Y-80685017D03*
D13*
X135076447Y-69060017D03*
D14*
X135576447Y-72810017D03*
D15*
X140576447Y-69060017D03*
D14*
X140576447Y-75010017D03*
D16*
X145796447Y-64860017D03*
D13*
X146076447Y-69060017D03*
D17*
X143851447Y-75010017D03*
X132301447Y-72810017D03*
D13*
X221271437Y-92215545D03*
D14*
X221112661Y-95995398D03*
D15*
X226687880Y-93170610D03*
D14*
X225654673Y-99030216D03*
D16*
X232557899Y-89940861D03*
D13*
X232104323Y-94125675D03*
D19*
X228879919Y-99598914D03*
X217887415Y-95426700D03*
D13*
X117076447Y-40060017D03*
D14*
X117576447Y-43810017D03*
D15*
X122576447Y-40060017D03*
D14*
X122576447Y-46010017D03*
D16*
X127796447Y-35860017D03*
D13*
X128076447Y-40060017D03*
D17*
X125851447Y-46010017D03*
X114301447Y-43810017D03*
D12*
X149120000Y-62600000D03*
X154120000Y-62600000D03*
X149120000Y-61850000D03*
X149120000Y-61850000D03*
X154120000Y-61850000D03*
X154120000Y-61850000D03*
X149120000Y-61100000D03*
X154120000Y-61100000D03*
X149120000Y-60350000D03*
X154120000Y-60350000D03*
X149120000Y-59600000D03*
X154120000Y-59600000D03*
X149120000Y-58850000D03*
X154120000Y-58850000D03*
X149120000Y-58100000D03*
X154120000Y-58100000D03*
X149120000Y-57350000D03*
X154120000Y-57350000D03*
X149120000Y-56600000D03*
X154120000Y-56600000D03*
X149120000Y-55850000D03*
X154120000Y-55850000D03*
X149120000Y-55100000D03*
X154120000Y-55100000D03*
D20*
X254502463Y-88795610D03*
X248873297Y-85545610D03*
D13*
X81076447Y-56060017D03*
D14*
X81576447Y-59810017D03*
D15*
X86576447Y-56060017D03*
D14*
X86576447Y-62010017D03*
D16*
X91796447Y-51860017D03*
D13*
X92076447Y-56060017D03*
D17*
X89851447Y-62010017D03*
X78301447Y-59810017D03*
D13*
X74076447Y-58060017D03*
D14*
X73576447Y-54310017D03*
D15*
X68576447Y-58060017D03*
D14*
X68576447Y-52110017D03*
D16*
X63356447Y-62260017D03*
D13*
X63076447Y-58060017D03*
D17*
X65301447Y-52110017D03*
X76851447Y-54310017D03*
D13*
X211187880Y-39170610D03*
D14*
X211687880Y-42920610D03*
D15*
X216687880Y-39170610D03*
D14*
X216687880Y-45120610D03*
D16*
X221907880Y-34970610D03*
D13*
X222187880Y-39170610D03*
D17*
X219962880Y-45120610D03*
X208412880Y-42920610D03*
D13*
X229187880Y-75170610D03*
D14*
X229687880Y-78920610D03*
D15*
X234687880Y-75170610D03*
D14*
X234687880Y-81120610D03*
D16*
X239907880Y-70970610D03*
D13*
X240187880Y-75170610D03*
D17*
X237962880Y-81120610D03*
X226412880Y-78920610D03*
D13*
X81076447Y-73060017D03*
D14*
X81576447Y-76810017D03*
D15*
X86576447Y-73060017D03*
D14*
X86576447Y-79010017D03*
D16*
X91796447Y-68860017D03*
D13*
X92076447Y-73060017D03*
D17*
X89851447Y-79010017D03*
X78301447Y-76810017D03*
D13*
X71160004Y-94015082D03*
D14*
X72303589Y-97621287D03*
D15*
X76576447Y-93060017D03*
D14*
X77609654Y-98919623D03*
D16*
X80987821Y-88017381D03*
D13*
X81992890Y-92104952D03*
D21*
X80834899Y-98350925D03*
X69078344Y-98189985D03*
D13*
X81076447Y-39060017D03*
D14*
X81576447Y-42810017D03*
D15*
X86576447Y-39060017D03*
D14*
X86576447Y-45010017D03*
D16*
X91796447Y-34860017D03*
D13*
X92076447Y-39060017D03*
D17*
X89851447Y-45010017D03*
X78301447Y-42810017D03*
D13*
X52591754Y-101384417D03*
D14*
X54629727Y-104571763D03*
D15*
X57576447Y-99060017D03*
D14*
X60091026Y-104452548D03*
D16*
X60532377Y-93047457D03*
D13*
X62561140Y-96735617D03*
D22*
X63059184Y-103068474D03*
X51661569Y-105955837D03*
D23*
X37632707Y-84293525D03*
X39240187Y-86826509D03*
D13*
X117076447Y-57060017D03*
D14*
X117576447Y-60810017D03*
D15*
X122576447Y-57060017D03*
D14*
X122576447Y-63010017D03*
D16*
X127796447Y-52860017D03*
D13*
X128076447Y-57060017D03*
D17*
X125851447Y-63010017D03*
X114301447Y-60810017D03*
D13*
X168187880Y-52170610D03*
D14*
X167687880Y-48420610D03*
D15*
X162687880Y-52170610D03*
D14*
X162687880Y-46220610D03*
D16*
X157467880Y-56370610D03*
D13*
X157187880Y-52170610D03*
D17*
X159412880Y-46220610D03*
X170962880Y-48420610D03*
D13*
X175187880Y-74170610D03*
D14*
X175687880Y-77920610D03*
D15*
X180687880Y-74170610D03*
D14*
X180687880Y-80120610D03*
D16*
X185907880Y-69970610D03*
D13*
X186187880Y-74170610D03*
D17*
X183962880Y-80120610D03*
X172412880Y-77920610D03*
D13*
X99076447Y-67060017D03*
D14*
X99576447Y-70810017D03*
D15*
X104576447Y-67060017D03*
D14*
X104576447Y-73010017D03*
D16*
X109796447Y-62860017D03*
D13*
X110076447Y-67060017D03*
D17*
X107851447Y-73010017D03*
X96301447Y-70810017D03*
D13*
X193187880Y-50170610D03*
D14*
X193687880Y-53920610D03*
D15*
X198687880Y-50170610D03*
D14*
X198687880Y-56120610D03*
D16*
X203907880Y-45970610D03*
D13*
X204187880Y-50170610D03*
D17*
X201962880Y-56120610D03*
X190412880Y-53920610D03*
D23*
X263944140Y-86927102D03*
X265551620Y-84394118D03*
D13*
X240703187Y-96846210D03*
D14*
X239571523Y-100456173D03*
D15*
X245687880Y-99170610D03*
D14*
X243173301Y-104563141D03*
D16*
X252193803Y-97570185D03*
D13*
X250672573Y-101495010D03*
D24*
X246141459Y-105947216D03*
X236603365Y-99072098D03*
D18*
X245591880Y-80795610D03*
X245591880Y-79545610D03*
D13*
X117076447Y-74060017D03*
D14*
X117576447Y-77810017D03*
D15*
X122576447Y-74060017D03*
D14*
X122576447Y-80010017D03*
D16*
X127796447Y-69860017D03*
D13*
X128076447Y-74060017D03*
D17*
X125851447Y-80010017D03*
X114301447Y-77810017D03*
D13*
X168187880Y-69170610D03*
D14*
X167687880Y-65420610D03*
D15*
X162687880Y-69170610D03*
D14*
X162687880Y-63220610D03*
D16*
X157467880Y-73370610D03*
D13*
X157187880Y-69170610D03*
D17*
X159412880Y-63220610D03*
X170962880Y-65420610D03*
D11*
X246067880Y-46200610D03*
X246067880Y-48740610D03*
X246067880Y-51280610D03*
X246067880Y-53820610D03*
X246067880Y-56360610D03*
X246067880Y-58900610D03*
X246067880Y-61440610D03*
X246067880Y-63980610D03*
X246067880Y-66520610D03*
X246067880Y-69060610D03*
X246067880Y-71600610D03*
X246067880Y-74140610D03*
X261307880Y-74140610D03*
X261307880Y-71600610D03*
X261307880Y-69060610D03*
X261307880Y-66520610D03*
X261307880Y-63980610D03*
X261307880Y-61440610D03*
X261307880Y-58900610D03*
X261307880Y-56360610D03*
X261307880Y-53820610D03*
X261307880Y-51280610D03*
X261307880Y-48740610D03*
X261307880Y-46200610D03*
D13*
X193187880Y-67170610D03*
D14*
X193687880Y-70920610D03*
D15*
X198687880Y-67170610D03*
D14*
X198687880Y-73120610D03*
D16*
X203907880Y-62970610D03*
D13*
X204187880Y-67170610D03*
D17*
X201962880Y-73120610D03*
X190412880Y-70920610D03*
D13*
X193187880Y-33170610D03*
D14*
X193687880Y-36920610D03*
D15*
X198687880Y-33170610D03*
D14*
X198687880Y-39120610D03*
D16*
X203907880Y-28970610D03*
D13*
X204187880Y-33170610D03*
D17*
X201962880Y-39120610D03*
X190412880Y-36920610D03*
D13*
X229187880Y-41170610D03*
D14*
X229687880Y-44920610D03*
D15*
X234687880Y-41170610D03*
D14*
X234687880Y-47120610D03*
D16*
X239907880Y-36970610D03*
D13*
X240187880Y-41170610D03*
D17*
X237962880Y-47120610D03*
X226412880Y-44920610D03*
D13*
X74076447Y-75060017D03*
D14*
X73576447Y-71310017D03*
D15*
X68576447Y-75060017D03*
D14*
X68576447Y-69110017D03*
D16*
X63356447Y-79260017D03*
D13*
X63076447Y-75060017D03*
D17*
X65301447Y-69110017D03*
X76851447Y-71310017D03*
D13*
X211187880Y-73170610D03*
D14*
X211687880Y-76920610D03*
D15*
X216687880Y-73170610D03*
D14*
X216687880Y-79120610D03*
D16*
X221907880Y-68970610D03*
D13*
X222187880Y-73170610D03*
D17*
X219962880Y-79120610D03*
X208412880Y-76920610D03*
D13*
X135076447Y-86060017D03*
D14*
X135576447Y-89810017D03*
D15*
X140576447Y-86060017D03*
D14*
X140576447Y-92010017D03*
D16*
X145796447Y-81860017D03*
D13*
X146076447Y-86060017D03*
D17*
X143851447Y-92010017D03*
X132301447Y-89810017D03*
D13*
X175187880Y-40170610D03*
D14*
X175687880Y-43920610D03*
D15*
X180687880Y-40170610D03*
D14*
X180687880Y-46120610D03*
D16*
X185907880Y-35970610D03*
D13*
X186187880Y-40170610D03*
D17*
X183962880Y-46120610D03*
X172412880Y-43920610D03*
D13*
X74076447Y-41060017D03*
D14*
X73576447Y-37310017D03*
D15*
X68576447Y-41060017D03*
D14*
X68576447Y-35110017D03*
D16*
X63356447Y-45260017D03*
D13*
X63076447Y-41060017D03*
D17*
X65301447Y-35110017D03*
X76851447Y-37310017D03*
D20*
X54391030Y-85435017D03*
X48761864Y-88685017D03*
D11*
X41956447Y-46090017D03*
X41956447Y-48630017D03*
X41956447Y-51170017D03*
X41956447Y-53710017D03*
X41956447Y-56250017D03*
X41956447Y-58790017D03*
X41956447Y-61330017D03*
X41956447Y-63870017D03*
X41956447Y-66410017D03*
X41956447Y-68950017D03*
X41956447Y-71490017D03*
X41956447Y-74030017D03*
X57196447Y-74030017D03*
X57196447Y-71490017D03*
X57196447Y-68950017D03*
X57196447Y-66410017D03*
X57196447Y-63870017D03*
X57196447Y-61330017D03*
X57196447Y-58790017D03*
X57196447Y-56250017D03*
X57196447Y-53710017D03*
X57196447Y-51170017D03*
X57196447Y-48630017D03*
X57196447Y-46090017D03*
D13*
X99076447Y-33060017D03*
D14*
X99576447Y-36810017D03*
D15*
X104576447Y-33060017D03*
D14*
X104576447Y-39010017D03*
D16*
X109796447Y-28860017D03*
D13*
X110076447Y-33060017D03*
D17*
X107851447Y-39010017D03*
X96301447Y-36810017D03*
D13*
X99076447Y-50060017D03*
D14*
X99576447Y-53810017D03*
D15*
X104576447Y-50060017D03*
D14*
X104576447Y-56010017D03*
D16*
X109796447Y-45860017D03*
D13*
X110076447Y-50060017D03*
D17*
X107851447Y-56010017D03*
X96301447Y-53810017D03*
D13*
X135076447Y-52060017D03*
D14*
X135576447Y-55810017D03*
D15*
X140576447Y-52060017D03*
D14*
X140576447Y-58010017D03*
D16*
X145796447Y-47860017D03*
D13*
X146076447Y-52060017D03*
D17*
X143851447Y-58010017D03*
X132301447Y-55810017D03*
D13*
X175187880Y-57170610D03*
D14*
X175687880Y-60920610D03*
D15*
X180687880Y-57170610D03*
D14*
X180687880Y-63120610D03*
D16*
X185907880Y-52970610D03*
D13*
X186187880Y-57170610D03*
D17*
X183962880Y-63120610D03*
X172412880Y-60920610D03*
D13*
X211187880Y-56170610D03*
D14*
X211687880Y-59920610D03*
D15*
X216687880Y-56170610D03*
D14*
X216687880Y-62120610D03*
D16*
X221907880Y-51970610D03*
D13*
X222187880Y-56170610D03*
D17*
X219962880Y-62120610D03*
X208412880Y-59920610D03*
D13*
X168187880Y-86170610D03*
D14*
X167687880Y-82420610D03*
D15*
X162687880Y-86170610D03*
D14*
X162687880Y-80220610D03*
D16*
X157467880Y-90370610D03*
D13*
X157187880Y-86170610D03*
D17*
X159412880Y-80220610D03*
X170962880Y-82420610D03*
D25*
X37126447Y-74610017D03*
X37126447Y-73110017D03*
D26*
X32026447Y-73110017D03*
D25*
X32026447Y-74610017D03*
X271237880Y-52370610D03*
X271237880Y-50870610D03*
D26*
X266137880Y-50870610D03*
D25*
X266137880Y-52370610D03*
X37126447Y-61810017D03*
X37126447Y-60310017D03*
D26*
X32026447Y-60310017D03*
D25*
X32026447Y-61810017D03*
X32026447Y-57110017D03*
X32026447Y-58610017D03*
D27*
X37126447Y-58610017D03*
D25*
X37126447Y-57110017D03*
X271237880Y-71570610D03*
X271237880Y-70070610D03*
D26*
X266137880Y-70070610D03*
D25*
X266137880Y-71570610D03*
X271237880Y-45970610D03*
X271237880Y-44470610D03*
D26*
X266137880Y-44470610D03*
D25*
X266137880Y-45970610D03*
X271237880Y-58770610D03*
X271237880Y-57270610D03*
D26*
X266137880Y-57270610D03*
D25*
X266137880Y-58770610D03*
X37126447Y-49010017D03*
X37126447Y-47510017D03*
D26*
X32026447Y-47510017D03*
D25*
X32026447Y-49010017D03*
X32026447Y-44310017D03*
X32026447Y-45810017D03*
D27*
X37126447Y-45810017D03*
D25*
X37126447Y-44310017D03*
X271237880Y-65170610D03*
X271237880Y-63670610D03*
D26*
X266137880Y-63670610D03*
D25*
X266137880Y-65170610D03*
X32026447Y-69910017D03*
X32026447Y-71410017D03*
D27*
X37126447Y-71410017D03*
D25*
X37126447Y-69910017D03*
X37126447Y-68210017D03*
X37126447Y-66710017D03*
D26*
X32026447Y-66710017D03*
D25*
X32026447Y-68210017D03*
X32026447Y-50710017D03*
X32026447Y-52210017D03*
D27*
X37126447Y-52210017D03*
D25*
X37126447Y-50710017D03*
X266137880Y-60470610D03*
X266137880Y-61970610D03*
D27*
X271237880Y-61970610D03*
D25*
X271237880Y-60470610D03*
X37126447Y-55410017D03*
X37126447Y-53910017D03*
D26*
X32026447Y-53910017D03*
D25*
X32026447Y-55410017D03*
X32026447Y-63510017D03*
X32026447Y-65010017D03*
D27*
X37126447Y-65010017D03*
D25*
X37126447Y-63510017D03*
X266137880Y-47670610D03*
X266137880Y-49170610D03*
D27*
X271237880Y-49170610D03*
D25*
X271237880Y-47670610D03*
X266137880Y-54070610D03*
X266137880Y-55570610D03*
D27*
X271237880Y-55570610D03*
D25*
X271237880Y-54070610D03*
X266137880Y-66870610D03*
X266137880Y-68370610D03*
D27*
X271237880Y-68370610D03*
D25*
X271237880Y-66870610D03*
X266137880Y-73270610D03*
X266137880Y-74770610D03*
D27*
X271237880Y-74770610D03*
D25*
X271237880Y-73270610D03*
%LPD*%
M02*
