G04 #@! TF.GenerationSoftware,KiCad,Pcbnew,7.0.6*
G04 #@! TF.CreationDate,2024-10-08T23:05:02+02:00*
G04 #@! TF.ProjectId,KoalaKeeb_v1,4b6f616c-614b-4656-9562-5f76312e6b69,rev?*
G04 #@! TF.SameCoordinates,Original*
G04 #@! TF.FileFunction,Soldermask,Bot*
G04 #@! TF.FilePolarity,Negative*
%FSLAX46Y46*%
G04 Gerber Fmt 4.6, Leading zero omitted, Abs format (unit mm)*
G04 Created by KiCad (PCBNEW 7.0.6) date 2024-10-08 23:05:02*
%MOMM*%
%LPD*%
G01*
G04 APERTURE LIST*
G04 Aperture macros list*
%AMRoundRect*
0 Rectangle with rounded corners*
0 $1 Rounding radius*
0 $2 $3 $4 $5 $6 $7 $8 $9 X,Y pos of 4 corners*
0 Add a 4 corners polygon primitive as box body*
4,1,4,$2,$3,$4,$5,$6,$7,$8,$9,$2,$3,0*
0 Add four circle primitives for the rounded corners*
1,1,$1+$1,$2,$3*
1,1,$1+$1,$4,$5*
1,1,$1+$1,$6,$7*
1,1,$1+$1,$8,$9*
0 Add four rect primitives between the rounded corners*
20,1,$1+$1,$2,$3,$4,$5,0*
20,1,$1+$1,$4,$5,$6,$7,0*
20,1,$1+$1,$6,$7,$8,$9,0*
20,1,$1+$1,$8,$9,$2,$3,0*%
%AMRotRect*
0 Rectangle, with rotation*
0 The origin of the aperture is its center*
0 $1 length*
0 $2 width*
0 $3 Rotation angle, in degrees counterclockwise*
0 Add horizontal line*
21,1,$1,$2,0,0,$3*%
G04 Aperture macros list end*
%ADD10C,0.500000*%
%ADD11C,1.701800*%
%ADD12C,3.000000*%
%ADD13C,3.429000*%
%ADD14C,0.990600*%
%ADD15R,2.600000X2.600000*%
%ADD16C,1.000000*%
%ADD17RotRect,2.600000X2.600000X350.000000*%
%ADD18C,2.500000*%
%ADD19RotRect,2.600000X2.600000X10.000000*%
%ADD20RotRect,2.600000X2.600000X25.000000*%
%ADD21C,0.850000*%
%ADD22RotRect,2.600000X2.600000X335.000000*%
%ADD23C,1.752600*%
%ADD24R,1.700000X0.820000*%
%ADD25RoundRect,0.205000X0.645000X0.205000X-0.645000X0.205000X-0.645000X-0.205000X0.645000X-0.205000X0*%
%ADD26RoundRect,0.205000X-0.645000X-0.205000X0.645000X-0.205000X0.645000X0.205000X-0.645000X0.205000X0*%
G04 APERTURE END LIST*
D10*
X149100000Y-81240000D03*
X154100000Y-81240000D03*
X149100000Y-80490000D03*
X149100000Y-80490000D03*
X154100000Y-80490000D03*
X154100000Y-80490000D03*
X149100000Y-79740000D03*
X154100000Y-79740000D03*
X149100000Y-78990000D03*
X154100000Y-78990000D03*
X149100000Y-78240000D03*
X154100000Y-78240000D03*
X149100000Y-77490000D03*
X154100000Y-77490000D03*
X149100000Y-76740000D03*
X154100000Y-76740000D03*
X149100000Y-75990000D03*
X154100000Y-75990000D03*
X149100000Y-75240000D03*
X154100000Y-75240000D03*
X149100000Y-74490000D03*
X154100000Y-74490000D03*
X149100000Y-73740000D03*
X154100000Y-73740000D03*
D11*
X229187880Y-58170610D03*
D12*
X229687880Y-61920610D03*
D13*
X234687880Y-58170610D03*
D12*
X234687880Y-64120610D03*
D14*
X239907880Y-53970610D03*
D11*
X240187880Y-58170610D03*
D15*
X237962880Y-64120610D03*
X226412880Y-61920610D03*
D16*
X57672447Y-79435017D03*
X57672447Y-80685017D03*
D11*
X135076447Y-69060017D03*
D12*
X135576447Y-72810017D03*
D13*
X140576447Y-69060017D03*
D12*
X140576447Y-75010017D03*
D14*
X145796447Y-64860017D03*
D11*
X146076447Y-69060017D03*
D15*
X143851447Y-75010017D03*
X132301447Y-72810017D03*
D11*
X221271437Y-92215545D03*
D12*
X221112661Y-95995398D03*
D13*
X226687880Y-93170610D03*
D12*
X225654673Y-99030216D03*
D14*
X232557899Y-89940861D03*
D11*
X232104323Y-94125675D03*
D17*
X228879919Y-99598914D03*
X217887415Y-95426700D03*
D11*
X117076447Y-40060017D03*
D12*
X117576447Y-43810017D03*
D13*
X122576447Y-40060017D03*
D12*
X122576447Y-46010017D03*
D14*
X127796447Y-35860017D03*
D11*
X128076447Y-40060017D03*
D15*
X125851447Y-46010017D03*
X114301447Y-43810017D03*
D10*
X149120000Y-62600000D03*
X154120000Y-62600000D03*
X149120000Y-61850000D03*
X149120000Y-61850000D03*
X154120000Y-61850000D03*
X154120000Y-61850000D03*
X149120000Y-61100000D03*
X154120000Y-61100000D03*
X149120000Y-60350000D03*
X154120000Y-60350000D03*
X149120000Y-59600000D03*
X154120000Y-59600000D03*
X149120000Y-58850000D03*
X154120000Y-58850000D03*
X149120000Y-58100000D03*
X154120000Y-58100000D03*
X149120000Y-57350000D03*
X154120000Y-57350000D03*
X149120000Y-56600000D03*
X154120000Y-56600000D03*
X149120000Y-55850000D03*
X154120000Y-55850000D03*
X149120000Y-55100000D03*
X154120000Y-55100000D03*
D18*
X254502463Y-88795610D03*
X248873297Y-85545610D03*
D11*
X81076447Y-56060017D03*
D12*
X81576447Y-59810017D03*
D13*
X86576447Y-56060017D03*
D12*
X86576447Y-62010017D03*
D14*
X91796447Y-51860017D03*
D11*
X92076447Y-56060017D03*
D15*
X89851447Y-62010017D03*
X78301447Y-59810017D03*
D11*
X74076447Y-58060017D03*
D12*
X73576447Y-54310017D03*
D13*
X68576447Y-58060017D03*
D12*
X68576447Y-52110017D03*
D14*
X63356447Y-62260017D03*
D11*
X63076447Y-58060017D03*
D15*
X65301447Y-52110017D03*
X76851447Y-54310017D03*
D11*
X211187880Y-39170610D03*
D12*
X211687880Y-42920610D03*
D13*
X216687880Y-39170610D03*
D12*
X216687880Y-45120610D03*
D14*
X221907880Y-34970610D03*
D11*
X222187880Y-39170610D03*
D15*
X219962880Y-45120610D03*
X208412880Y-42920610D03*
D11*
X229187880Y-75170610D03*
D12*
X229687880Y-78920610D03*
D13*
X234687880Y-75170610D03*
D12*
X234687880Y-81120610D03*
D14*
X239907880Y-70970610D03*
D11*
X240187880Y-75170610D03*
D15*
X237962880Y-81120610D03*
X226412880Y-78920610D03*
D11*
X81076447Y-73060017D03*
D12*
X81576447Y-76810017D03*
D13*
X86576447Y-73060017D03*
D12*
X86576447Y-79010017D03*
D14*
X91796447Y-68860017D03*
D11*
X92076447Y-73060017D03*
D15*
X89851447Y-79010017D03*
X78301447Y-76810017D03*
D11*
X71160004Y-94015082D03*
D12*
X72303589Y-97621287D03*
D13*
X76576447Y-93060017D03*
D12*
X77609654Y-98919623D03*
D14*
X80987821Y-88017381D03*
D11*
X81992890Y-92104952D03*
D19*
X80834899Y-98350925D03*
X69078344Y-98189985D03*
D11*
X81076447Y-39060017D03*
D12*
X81576447Y-42810017D03*
D13*
X86576447Y-39060017D03*
D12*
X86576447Y-45010017D03*
D14*
X91796447Y-34860017D03*
D11*
X92076447Y-39060017D03*
D15*
X89851447Y-45010017D03*
X78301447Y-42810017D03*
D11*
X52591754Y-101384417D03*
D12*
X54629727Y-104571763D03*
D13*
X57576447Y-99060017D03*
D12*
X60091026Y-104452548D03*
D14*
X60532377Y-93047457D03*
D11*
X62561140Y-96735617D03*
D20*
X63059184Y-103068474D03*
X51661569Y-105955837D03*
D21*
X37632707Y-84293525D03*
X39240187Y-86826509D03*
D11*
X117076447Y-57060017D03*
D12*
X117576447Y-60810017D03*
D13*
X122576447Y-57060017D03*
D12*
X122576447Y-63010017D03*
D14*
X127796447Y-52860017D03*
D11*
X128076447Y-57060017D03*
D15*
X125851447Y-63010017D03*
X114301447Y-60810017D03*
D11*
X168187880Y-52170610D03*
D12*
X167687880Y-48420610D03*
D13*
X162687880Y-52170610D03*
D12*
X162687880Y-46220610D03*
D14*
X157467880Y-56370610D03*
D11*
X157187880Y-52170610D03*
D15*
X159412880Y-46220610D03*
X170962880Y-48420610D03*
D11*
X175187880Y-74170610D03*
D12*
X175687880Y-77920610D03*
D13*
X180687880Y-74170610D03*
D12*
X180687880Y-80120610D03*
D14*
X185907880Y-69970610D03*
D11*
X186187880Y-74170610D03*
D15*
X183962880Y-80120610D03*
X172412880Y-77920610D03*
D11*
X99076447Y-67060017D03*
D12*
X99576447Y-70810017D03*
D13*
X104576447Y-67060017D03*
D12*
X104576447Y-73010017D03*
D14*
X109796447Y-62860017D03*
D11*
X110076447Y-67060017D03*
D15*
X107851447Y-73010017D03*
X96301447Y-70810017D03*
D11*
X193187880Y-50170610D03*
D12*
X193687880Y-53920610D03*
D13*
X198687880Y-50170610D03*
D12*
X198687880Y-56120610D03*
D14*
X203907880Y-45970610D03*
D11*
X204187880Y-50170610D03*
D15*
X201962880Y-56120610D03*
X190412880Y-53920610D03*
D21*
X263944140Y-86927102D03*
X265551620Y-84394118D03*
D11*
X240703187Y-96846210D03*
D12*
X239571523Y-100456173D03*
D13*
X245687880Y-99170610D03*
D12*
X243173301Y-104563141D03*
D14*
X252193803Y-97570185D03*
D11*
X250672573Y-101495010D03*
D22*
X246141459Y-105947216D03*
X236603365Y-99072098D03*
D16*
X245591880Y-80795610D03*
X245591880Y-79545610D03*
D11*
X117076447Y-74060017D03*
D12*
X117576447Y-77810017D03*
D13*
X122576447Y-74060017D03*
D12*
X122576447Y-80010017D03*
D14*
X127796447Y-69860017D03*
D11*
X128076447Y-74060017D03*
D15*
X125851447Y-80010017D03*
X114301447Y-77810017D03*
D11*
X168187880Y-69170610D03*
D12*
X167687880Y-65420610D03*
D13*
X162687880Y-69170610D03*
D12*
X162687880Y-63220610D03*
D14*
X157467880Y-73370610D03*
D11*
X157187880Y-69170610D03*
D15*
X159412880Y-63220610D03*
X170962880Y-65420610D03*
D23*
X246067880Y-46200610D03*
X246067880Y-48740610D03*
X246067880Y-51280610D03*
X246067880Y-53820610D03*
X246067880Y-56360610D03*
X246067880Y-58900610D03*
X246067880Y-61440610D03*
X246067880Y-63980610D03*
X246067880Y-66520610D03*
X246067880Y-69060610D03*
X246067880Y-71600610D03*
X246067880Y-74140610D03*
X261307880Y-74140610D03*
X261307880Y-71600610D03*
X261307880Y-69060610D03*
X261307880Y-66520610D03*
X261307880Y-63980610D03*
X261307880Y-61440610D03*
X261307880Y-58900610D03*
X261307880Y-56360610D03*
X261307880Y-53820610D03*
X261307880Y-51280610D03*
X261307880Y-48740610D03*
X261307880Y-46200610D03*
D11*
X193187880Y-67170610D03*
D12*
X193687880Y-70920610D03*
D13*
X198687880Y-67170610D03*
D12*
X198687880Y-73120610D03*
D14*
X203907880Y-62970610D03*
D11*
X204187880Y-67170610D03*
D15*
X201962880Y-73120610D03*
X190412880Y-70920610D03*
D11*
X193187880Y-33170610D03*
D12*
X193687880Y-36920610D03*
D13*
X198687880Y-33170610D03*
D12*
X198687880Y-39120610D03*
D14*
X203907880Y-28970610D03*
D11*
X204187880Y-33170610D03*
D15*
X201962880Y-39120610D03*
X190412880Y-36920610D03*
D11*
X229187880Y-41170610D03*
D12*
X229687880Y-44920610D03*
D13*
X234687880Y-41170610D03*
D12*
X234687880Y-47120610D03*
D14*
X239907880Y-36970610D03*
D11*
X240187880Y-41170610D03*
D15*
X237962880Y-47120610D03*
X226412880Y-44920610D03*
D11*
X74076447Y-75060017D03*
D12*
X73576447Y-71310017D03*
D13*
X68576447Y-75060017D03*
D12*
X68576447Y-69110017D03*
D14*
X63356447Y-79260017D03*
D11*
X63076447Y-75060017D03*
D15*
X65301447Y-69110017D03*
X76851447Y-71310017D03*
D11*
X211187880Y-73170610D03*
D12*
X211687880Y-76920610D03*
D13*
X216687880Y-73170610D03*
D12*
X216687880Y-79120610D03*
D14*
X221907880Y-68970610D03*
D11*
X222187880Y-73170610D03*
D15*
X219962880Y-79120610D03*
X208412880Y-76920610D03*
D11*
X135076447Y-86060017D03*
D12*
X135576447Y-89810017D03*
D13*
X140576447Y-86060017D03*
D12*
X140576447Y-92010017D03*
D14*
X145796447Y-81860017D03*
D11*
X146076447Y-86060017D03*
D15*
X143851447Y-92010017D03*
X132301447Y-89810017D03*
D11*
X175187880Y-40170610D03*
D12*
X175687880Y-43920610D03*
D13*
X180687880Y-40170610D03*
D12*
X180687880Y-46120610D03*
D14*
X185907880Y-35970610D03*
D11*
X186187880Y-40170610D03*
D15*
X183962880Y-46120610D03*
X172412880Y-43920610D03*
D11*
X74076447Y-41060017D03*
D12*
X73576447Y-37310017D03*
D13*
X68576447Y-41060017D03*
D12*
X68576447Y-35110017D03*
D14*
X63356447Y-45260017D03*
D11*
X63076447Y-41060017D03*
D15*
X65301447Y-35110017D03*
X76851447Y-37310017D03*
D18*
X54391030Y-85435017D03*
X48761864Y-88685017D03*
D23*
X41956447Y-46090017D03*
X41956447Y-48630017D03*
X41956447Y-51170017D03*
X41956447Y-53710017D03*
X41956447Y-56250017D03*
X41956447Y-58790017D03*
X41956447Y-61330017D03*
X41956447Y-63870017D03*
X41956447Y-66410017D03*
X41956447Y-68950017D03*
X41956447Y-71490017D03*
X41956447Y-74030017D03*
X57196447Y-74030017D03*
X57196447Y-71490017D03*
X57196447Y-68950017D03*
X57196447Y-66410017D03*
X57196447Y-63870017D03*
X57196447Y-61330017D03*
X57196447Y-58790017D03*
X57196447Y-56250017D03*
X57196447Y-53710017D03*
X57196447Y-51170017D03*
X57196447Y-48630017D03*
X57196447Y-46090017D03*
D11*
X99076447Y-33060017D03*
D12*
X99576447Y-36810017D03*
D13*
X104576447Y-33060017D03*
D12*
X104576447Y-39010017D03*
D14*
X109796447Y-28860017D03*
D11*
X110076447Y-33060017D03*
D15*
X107851447Y-39010017D03*
X96301447Y-36810017D03*
D11*
X99076447Y-50060017D03*
D12*
X99576447Y-53810017D03*
D13*
X104576447Y-50060017D03*
D12*
X104576447Y-56010017D03*
D14*
X109796447Y-45860017D03*
D11*
X110076447Y-50060017D03*
D15*
X107851447Y-56010017D03*
X96301447Y-53810017D03*
D11*
X135076447Y-52060017D03*
D12*
X135576447Y-55810017D03*
D13*
X140576447Y-52060017D03*
D12*
X140576447Y-58010017D03*
D14*
X145796447Y-47860017D03*
D11*
X146076447Y-52060017D03*
D15*
X143851447Y-58010017D03*
X132301447Y-55810017D03*
D11*
X175187880Y-57170610D03*
D12*
X175687880Y-60920610D03*
D13*
X180687880Y-57170610D03*
D12*
X180687880Y-63120610D03*
D14*
X185907880Y-52970610D03*
D11*
X186187880Y-57170610D03*
D15*
X183962880Y-63120610D03*
X172412880Y-60920610D03*
D11*
X211187880Y-56170610D03*
D12*
X211687880Y-59920610D03*
D13*
X216687880Y-56170610D03*
D12*
X216687880Y-62120610D03*
D14*
X221907880Y-51970610D03*
D11*
X222187880Y-56170610D03*
D15*
X219962880Y-62120610D03*
X208412880Y-59920610D03*
D11*
X168187880Y-86170610D03*
D12*
X167687880Y-82420610D03*
D13*
X162687880Y-86170610D03*
D12*
X162687880Y-80220610D03*
D14*
X157467880Y-90370610D03*
D11*
X157187880Y-86170610D03*
D15*
X159412880Y-80220610D03*
X170962880Y-82420610D03*
D24*
X37126447Y-74610017D03*
X37126447Y-73110017D03*
D25*
X32026447Y-73110017D03*
D24*
X32026447Y-74610017D03*
X271237880Y-52370610D03*
X271237880Y-50870610D03*
D25*
X266137880Y-50870610D03*
D24*
X266137880Y-52370610D03*
X37126447Y-61810017D03*
X37126447Y-60310017D03*
D25*
X32026447Y-60310017D03*
D24*
X32026447Y-61810017D03*
X32026447Y-57110017D03*
X32026447Y-58610017D03*
D26*
X37126447Y-58610017D03*
D24*
X37126447Y-57110017D03*
X271237880Y-71570610D03*
X271237880Y-70070610D03*
D25*
X266137880Y-70070610D03*
D24*
X266137880Y-71570610D03*
X271237880Y-45970610D03*
X271237880Y-44470610D03*
D25*
X266137880Y-44470610D03*
D24*
X266137880Y-45970610D03*
X271237880Y-58770610D03*
X271237880Y-57270610D03*
D25*
X266137880Y-57270610D03*
D24*
X266137880Y-58770610D03*
X37126447Y-49010017D03*
X37126447Y-47510017D03*
D25*
X32026447Y-47510017D03*
D24*
X32026447Y-49010017D03*
X32026447Y-44310017D03*
X32026447Y-45810017D03*
D26*
X37126447Y-45810017D03*
D24*
X37126447Y-44310017D03*
X271237880Y-65170610D03*
X271237880Y-63670610D03*
D25*
X266137880Y-63670610D03*
D24*
X266137880Y-65170610D03*
X32026447Y-69910017D03*
X32026447Y-71410017D03*
D26*
X37126447Y-71410017D03*
D24*
X37126447Y-69910017D03*
X37126447Y-68210017D03*
X37126447Y-66710017D03*
D25*
X32026447Y-66710017D03*
D24*
X32026447Y-68210017D03*
X32026447Y-50710017D03*
X32026447Y-52210017D03*
D26*
X37126447Y-52210017D03*
D24*
X37126447Y-50710017D03*
X266137880Y-60470610D03*
X266137880Y-61970610D03*
D26*
X271237880Y-61970610D03*
D24*
X271237880Y-60470610D03*
X37126447Y-55410017D03*
X37126447Y-53910017D03*
D25*
X32026447Y-53910017D03*
D24*
X32026447Y-55410017D03*
X32026447Y-63510017D03*
X32026447Y-65010017D03*
D26*
X37126447Y-65010017D03*
D24*
X37126447Y-63510017D03*
X266137880Y-47670610D03*
X266137880Y-49170610D03*
D26*
X271237880Y-49170610D03*
D24*
X271237880Y-47670610D03*
X266137880Y-54070610D03*
X266137880Y-55570610D03*
D26*
X271237880Y-55570610D03*
D24*
X271237880Y-54070610D03*
X266137880Y-66870610D03*
X266137880Y-68370610D03*
D26*
X271237880Y-68370610D03*
D24*
X271237880Y-66870610D03*
X266137880Y-73270610D03*
X266137880Y-74770610D03*
D26*
X271237880Y-74770610D03*
D24*
X271237880Y-73270610D03*
M02*
