M48
; DRILL file {KiCad 7.0.6} date Tue Oct  8 23:05:18 2024
; FORMAT={-:-/ absolute / metric / decimal}
; #@! TF.CreationDate,2024-10-08T23:05:18+02:00
; #@! TF.GenerationSoftware,Kicad,Pcbnew,7.0.6
; #@! TF.FileFunction,Plated,1,2,PTH
FMAT,2
METRIC
; #@! TA.AperFunction,Plated,PTH,ViaDrill
T1C0.400
; #@! TA.AperFunction,Plated,PTH,ComponentDrill
T2C0.500
; #@! TA.AperFunction,Plated,PTH,ComponentDrill
T3C1.092
; #@! TA.AperFunction,Plated,PTH,ComponentDrill
T4C1.300
%
G90
G05
T1
X30.376Y-53.91
X30.376Y-60.31
X30.396Y-66.69
X30.446Y-47.5
X30.456Y-73.12
X38.586Y-43.27
X38.586Y-49.02
X38.706Y-61.81
X38.756Y-55.42
X38.766Y-74.6
X38.776Y-68.2
X44.576Y-75.06
X46.056Y-61.21
X47.576Y-78.06
X51.576Y-73.06
X52.576Y-62.06
X62.716Y-52.88
X75.306Y-61.8
X79.226Y-54.05
X90.356Y-70.62
X186.508Y-45.301
X222.328Y-45.631
X222.338Y-62.801
X240.498Y-64.111
X254.968Y-83.781
X259.758Y-79.001
X263.658Y-49.501
X264.738Y-44.231
X264.798Y-50.851
X264.798Y-57.271
X264.798Y-70.071
X264.818Y-63.681
X272.578Y-45.971
X272.578Y-52.371
X272.588Y-71.571
X272.598Y-65.181
X272.608Y-58.781
T2
X57.672Y-79.435
X57.672Y-80.685
X245.592Y-79.546
X245.592Y-80.796
T3
X41.956Y-46.09
X41.956Y-48.63
X41.956Y-51.17
X41.956Y-53.71
X41.956Y-56.25
X41.956Y-58.79
X41.956Y-61.33
X41.956Y-63.87
X41.956Y-66.41
X41.956Y-68.95
X41.956Y-71.49
X41.956Y-74.03
X57.196Y-46.09
X57.196Y-48.63
X57.196Y-51.17
X57.196Y-53.71
X57.196Y-56.25
X57.196Y-58.79
X57.196Y-61.33
X57.196Y-63.87
X57.196Y-66.41
X57.196Y-68.95
X57.196Y-71.49
X57.196Y-74.03
X246.068Y-46.201
X246.068Y-48.741
X246.068Y-51.281
X246.068Y-53.821
X246.068Y-56.361
X246.068Y-58.901
X246.068Y-61.441
X246.068Y-63.981
X246.068Y-66.521
X246.068Y-69.061
X246.068Y-71.601
X246.068Y-74.141
X261.308Y-46.201
X261.308Y-48.741
X261.308Y-51.281
X261.308Y-53.821
X261.308Y-56.361
X261.308Y-58.901
X261.308Y-61.441
X261.308Y-63.981
X261.308Y-66.521
X261.308Y-69.061
X261.308Y-71.601
X261.308Y-74.141
T4
X48.762Y-88.685
X54.391Y-85.435
X248.873Y-85.546
X254.502Y-88.796
T0
M30
