G04 #@! TF.GenerationSoftware,KiCad,Pcbnew,7.0.6*
G04 #@! TF.CreationDate,2024-10-08T23:05:02+02:00*
G04 #@! TF.ProjectId,KoalaKeeb_v1,4b6f616c-614b-4656-9562-5f76312e6b69,rev?*
G04 #@! TF.SameCoordinates,Original*
G04 #@! TF.FileFunction,Profile,NP*
%FSLAX46Y46*%
G04 Gerber Fmt 4.6, Leading zero omitted, Abs format (unit mm)*
G04 Created by KiCad (PCBNEW 7.0.6) date 2024-10-08 23:05:02*
%MOMM*%
%LPD*%
G01*
G04 APERTURE LIST*
G04 #@! TA.AperFunction,Profile*
%ADD10C,0.100000*%
G04 #@! TD*
G04 #@! TA.AperFunction,Profile*
%ADD11C,0.120000*%
G04 #@! TD*
G04 APERTURE END LIST*
D10*
X169357880Y-43450646D02*
X167497880Y-43470610D01*
X207207890Y-26090610D02*
G75*
G03*
X205707880Y-24590610I-1499990J10D01*
G01*
X112990480Y-29889620D02*
G75*
G03*
X114490417Y-31389620I1500020J20D01*
G01*
X149090417Y-54889620D02*
X149090417Y-62089620D01*
X275371850Y-43111007D02*
X275351850Y-73071007D01*
X155307867Y-43486446D02*
X167497880Y-43470610D01*
X147890430Y-43485456D02*
X135700417Y-43469620D01*
X275124509Y-73742695D02*
G75*
G03*
X275351849Y-73071007I-1262709J801695D01*
G01*
X27846449Y-73070017D02*
G75*
G03*
X28073793Y-73741703I1490051J130017D01*
G01*
X190207880Y-29890610D02*
X190207880Y-26090610D01*
X132460480Y-42079620D02*
G75*
G03*
X133840417Y-43449656I1380020J10020D01*
G01*
X207207892Y-29190609D02*
G75*
G03*
X208668540Y-30591869I1460708J60709D01*
G01*
X143590417Y-96016021D02*
X148290417Y-95989620D01*
X191707880Y-24590680D02*
G75*
G03*
X190207880Y-26090610I-80J-1499920D01*
G01*
X226559349Y-32987512D02*
X241556411Y-32937920D01*
X154111859Y-95111008D02*
G75*
G03*
X154907880Y-95990610I796041J-79592D01*
G01*
X27826447Y-43110017D02*
X27846447Y-73070017D01*
X29306447Y-41630047D02*
G75*
G03*
X27826447Y-43110017I-47J-1479953D01*
G01*
X242760580Y-34142079D02*
G75*
G03*
X241556411Y-32937920I-1204280J-121D01*
G01*
X94529757Y-30590878D02*
G75*
G03*
X95990417Y-29189620I-57J1461978D01*
G01*
X132460533Y-32299620D02*
G75*
G03*
X131570417Y-31399622I-900033J20D01*
G01*
X133840417Y-43449656D02*
X135700417Y-43469620D01*
X76638948Y-32986522D02*
X61641886Y-32936930D01*
X59306447Y-41630091D02*
G75*
G03*
X60436447Y-40510017I-47J1130091D01*
G01*
X59306447Y-41630061D02*
X29306447Y-41630017D01*
X148290417Y-95989615D02*
G75*
G03*
X149086447Y-95110017I-17J800015D01*
G01*
X275371793Y-43111007D02*
G75*
G03*
X273891850Y-41631007I-1479993J7D01*
G01*
X242760570Y-34142079D02*
X242761850Y-40511007D01*
X51450455Y-110623169D02*
G75*
G03*
X52387344Y-110780404I545945J383169D01*
G01*
X250810954Y-110781390D02*
G75*
G03*
X159607880Y-96017011I-91203054J-274309210D01*
G01*
X188707880Y-31390680D02*
G75*
G03*
X190207880Y-29890610I-80J1500080D01*
G01*
X61641886Y-32936927D02*
G75*
G03*
X60437727Y-34141089I114J-1204273D01*
G01*
X169357880Y-43450616D02*
G75*
G03*
X170737880Y-42080610I20J1380016D01*
G01*
X170737825Y-32300610D02*
X170737880Y-42080610D01*
X149094544Y-44689615D02*
G75*
G03*
X147890430Y-43485456I-1204244J-85D01*
G01*
X112990417Y-29889620D02*
X112990417Y-26089620D01*
X225312047Y-31790610D02*
G75*
G03*
X226559349Y-32987512I1247253J51410D01*
G01*
X208668540Y-30591869D02*
X224107880Y-30590610D01*
X149086447Y-95110017D02*
X149090417Y-62089620D01*
X28076447Y-73740017D02*
X51450512Y-110623129D01*
X154107880Y-54890610D02*
X154107880Y-62090610D01*
X76638948Y-32986517D02*
G75*
G03*
X77886258Y-31789620I52J1248317D01*
G01*
X143590417Y-96016026D02*
G75*
G03*
X52387345Y-110780406I-17J-289073574D01*
G01*
X275121850Y-73741007D02*
X251747785Y-110624119D01*
X154111850Y-95111007D02*
X154107880Y-62090610D01*
X155307867Y-43486529D02*
G75*
G03*
X154103729Y-44690605I33J-1204171D01*
G01*
X112990480Y-26089620D02*
G75*
G03*
X111490417Y-24589620I-1499980J20D01*
G01*
X94529757Y-30590879D02*
X79090417Y-30589620D01*
X159607880Y-96017011D02*
X154907880Y-95990610D01*
X191707880Y-24590610D02*
X205707880Y-24590610D01*
X111490417Y-24589620D02*
X97490417Y-24589620D01*
X131570417Y-31399620D02*
X114490417Y-31389620D01*
X79090417Y-30585458D02*
G75*
G03*
X77886258Y-31789620I83J-1204242D01*
G01*
X154103729Y-44690605D02*
X154107880Y-54890610D01*
X97490417Y-24589617D02*
G75*
G03*
X95990417Y-26089620I-17J-1499983D01*
G01*
X60437727Y-34141089D02*
X60436447Y-40510017D01*
X95990417Y-26089620D02*
X95990417Y-29189620D01*
X250810912Y-110781450D02*
G75*
G03*
X251747785Y-110624119I390888J540450D01*
G01*
X225312049Y-31790610D02*
G75*
G03*
X224107880Y-30586451I-1204249J-90D01*
G01*
X243891850Y-41631051D02*
X273891850Y-41631007D01*
X207207880Y-26090610D02*
X207207880Y-29190610D01*
X242761793Y-40511008D02*
G75*
G03*
X243891850Y-41631051I1130007J10008D01*
G01*
X171627880Y-31400610D02*
X188707880Y-31390610D01*
X149094568Y-44689615D02*
X149090417Y-54889620D01*
X132460472Y-32299620D02*
X132460417Y-42079620D01*
X171627880Y-31400581D02*
G75*
G03*
X170737825Y-32300610I10020J-900019D01*
G01*
D11*
X36276447Y-75360017D02*
X36276447Y-72360017D01*
X36276447Y-72360017D02*
X32876447Y-72360017D01*
X32876447Y-75360017D02*
X36276447Y-75360017D01*
X32876447Y-72360017D02*
X32876447Y-75360017D01*
X270387880Y-53120610D02*
X270387880Y-50120610D01*
X270387880Y-50120610D02*
X266987880Y-50120610D01*
X266987880Y-53120610D02*
X270387880Y-53120610D01*
X266987880Y-50120610D02*
X266987880Y-53120610D01*
X36276447Y-62560017D02*
X36276447Y-59560017D01*
X36276447Y-59560017D02*
X32876447Y-59560017D01*
X32876447Y-62560017D02*
X36276447Y-62560017D01*
X32876447Y-59560017D02*
X32876447Y-62560017D01*
X32876447Y-56360017D02*
X32876447Y-59360017D01*
X32876447Y-59360017D02*
X36276447Y-59360017D01*
X36276447Y-56360017D02*
X32876447Y-56360017D01*
X36276447Y-59360017D02*
X36276447Y-56360017D01*
X270387880Y-72320610D02*
X270387880Y-69320610D01*
X270387880Y-69320610D02*
X266987880Y-69320610D01*
X266987880Y-72320610D02*
X270387880Y-72320610D01*
X266987880Y-69320610D02*
X266987880Y-72320610D01*
X270387880Y-46720610D02*
X270387880Y-43720610D01*
X270387880Y-43720610D02*
X266987880Y-43720610D01*
X266987880Y-46720610D02*
X270387880Y-46720610D01*
X266987880Y-43720610D02*
X266987880Y-46720610D01*
X270387880Y-59520610D02*
X270387880Y-56520610D01*
X270387880Y-56520610D02*
X266987880Y-56520610D01*
X266987880Y-59520610D02*
X270387880Y-59520610D01*
X266987880Y-56520610D02*
X266987880Y-59520610D01*
X36276447Y-49760017D02*
X36276447Y-46760017D01*
X36276447Y-46760017D02*
X32876447Y-46760017D01*
X32876447Y-49760017D02*
X36276447Y-49760017D01*
X32876447Y-46760017D02*
X32876447Y-49760017D01*
X32876447Y-43560017D02*
X32876447Y-46560017D01*
X32876447Y-46560017D02*
X36276447Y-46560017D01*
X36276447Y-43560017D02*
X32876447Y-43560017D01*
X36276447Y-46560017D02*
X36276447Y-43560017D01*
X270387880Y-65920610D02*
X270387880Y-62920610D01*
X270387880Y-62920610D02*
X266987880Y-62920610D01*
X266987880Y-65920610D02*
X270387880Y-65920610D01*
X266987880Y-62920610D02*
X266987880Y-65920610D01*
X32876447Y-69160017D02*
X32876447Y-72160017D01*
X32876447Y-72160017D02*
X36276447Y-72160017D01*
X36276447Y-69160017D02*
X32876447Y-69160017D01*
X36276447Y-72160017D02*
X36276447Y-69160017D01*
X36276447Y-68960017D02*
X36276447Y-65960017D01*
X36276447Y-65960017D02*
X32876447Y-65960017D01*
X32876447Y-68960017D02*
X36276447Y-68960017D01*
X32876447Y-65960017D02*
X32876447Y-68960017D01*
X32876447Y-49960017D02*
X32876447Y-52960017D01*
X32876447Y-52960017D02*
X36276447Y-52960017D01*
X36276447Y-49960017D02*
X32876447Y-49960017D01*
X36276447Y-52960017D02*
X36276447Y-49960017D01*
X266987880Y-59720610D02*
X266987880Y-62720610D01*
X266987880Y-62720610D02*
X270387880Y-62720610D01*
X270387880Y-59720610D02*
X266987880Y-59720610D01*
X270387880Y-62720610D02*
X270387880Y-59720610D01*
X36276447Y-56160017D02*
X36276447Y-53160017D01*
X36276447Y-53160017D02*
X32876447Y-53160017D01*
X32876447Y-56160017D02*
X36276447Y-56160017D01*
X32876447Y-53160017D02*
X32876447Y-56160017D01*
X32876447Y-62760017D02*
X32876447Y-65760017D01*
X32876447Y-65760017D02*
X36276447Y-65760017D01*
X36276447Y-62760017D02*
X32876447Y-62760017D01*
X36276447Y-65760017D02*
X36276447Y-62760017D01*
X266987880Y-46920610D02*
X266987880Y-49920610D01*
X266987880Y-49920610D02*
X270387880Y-49920610D01*
X270387880Y-46920610D02*
X266987880Y-46920610D01*
X270387880Y-49920610D02*
X270387880Y-46920610D01*
X266987880Y-53320610D02*
X266987880Y-56320610D01*
X266987880Y-56320610D02*
X270387880Y-56320610D01*
X270387880Y-53320610D02*
X266987880Y-53320610D01*
X270387880Y-56320610D02*
X270387880Y-53320610D01*
X266987880Y-66120610D02*
X266987880Y-69120610D01*
X266987880Y-69120610D02*
X270387880Y-69120610D01*
X270387880Y-66120610D02*
X266987880Y-66120610D01*
X270387880Y-69120610D02*
X270387880Y-66120610D01*
X266987880Y-72520610D02*
X266987880Y-75520610D01*
X266987880Y-75520610D02*
X270387880Y-75520610D01*
X270387880Y-72520610D02*
X266987880Y-72520610D01*
X270387880Y-75520610D02*
X270387880Y-72520610D01*
M02*
