G04 #@! TF.GenerationSoftware,KiCad,Pcbnew,7.0.6*
G04 #@! TF.CreationDate,2024-10-08T23:05:02+02:00*
G04 #@! TF.ProjectId,KoalaKeeb_v1,4b6f616c-614b-4656-9562-5f76312e6b69,rev?*
G04 #@! TF.SameCoordinates,Original*
G04 #@! TF.FileFunction,Paste,Bot*
G04 #@! TF.FilePolarity,Positive*
%FSLAX46Y46*%
G04 Gerber Fmt 4.6, Leading zero omitted, Abs format (unit mm)*
G04 Created by KiCad (PCBNEW 7.0.6) date 2024-10-08 23:05:02*
%MOMM*%
%LPD*%
G01*
G04 APERTURE LIST*
G04 Aperture macros list*
%AMRoundRect*
0 Rectangle with rounded corners*
0 $1 Rounding radius*
0 $2 $3 $4 $5 $6 $7 $8 $9 X,Y pos of 4 corners*
0 Add a 4 corners polygon primitive as box body*
4,1,4,$2,$3,$4,$5,$6,$7,$8,$9,$2,$3,0*
0 Add four circle primitives for the rounded corners*
1,1,$1+$1,$2,$3*
1,1,$1+$1,$4,$5*
1,1,$1+$1,$6,$7*
1,1,$1+$1,$8,$9*
0 Add four rect primitives between the rounded corners*
20,1,$1+$1,$2,$3,$4,$5,0*
20,1,$1+$1,$4,$5,$6,$7,0*
20,1,$1+$1,$6,$7,$8,$9,0*
20,1,$1+$1,$8,$9,$2,$3,0*%
%AMRotRect*
0 Rectangle, with rotation*
0 The origin of the aperture is its center*
0 $1 length*
0 $2 width*
0 $3 Rotation angle, in degrees counterclockwise*
0 Add horizontal line*
21,1,$1,$2,0,0,$3*%
G04 Aperture macros list end*
%ADD10R,2.600000X2.600000*%
%ADD11RotRect,2.600000X2.600000X350.000000*%
%ADD12RotRect,2.600000X2.600000X10.000000*%
%ADD13RotRect,2.600000X2.600000X25.000000*%
%ADD14RotRect,2.600000X2.600000X335.000000*%
%ADD15R,1.700000X0.820000*%
%ADD16RoundRect,0.205000X0.645000X0.205000X-0.645000X0.205000X-0.645000X-0.205000X0.645000X-0.205000X0*%
%ADD17RoundRect,0.205000X-0.645000X-0.205000X0.645000X-0.205000X0.645000X0.205000X-0.645000X0.205000X0*%
G04 APERTURE END LIST*
D10*
X237962880Y-64120610D03*
X226412880Y-61920610D03*
X143851447Y-75010017D03*
X132301447Y-72810017D03*
D11*
X228879919Y-99598914D03*
X217887415Y-95426700D03*
D10*
X125851447Y-46010017D03*
X114301447Y-43810017D03*
X89851447Y-62010017D03*
X78301447Y-59810017D03*
X65301447Y-52110017D03*
X76851447Y-54310017D03*
X219962880Y-45120610D03*
X208412880Y-42920610D03*
X237962880Y-81120610D03*
X226412880Y-78920610D03*
X89851447Y-79010017D03*
X78301447Y-76810017D03*
D12*
X80834899Y-98350925D03*
X69078344Y-98189985D03*
D10*
X89851447Y-45010017D03*
X78301447Y-42810017D03*
D13*
X63059184Y-103068474D03*
X51661569Y-105955837D03*
D10*
X125851447Y-63010017D03*
X114301447Y-60810017D03*
X159412880Y-46220610D03*
X170962880Y-48420610D03*
X183962880Y-80120610D03*
X172412880Y-77920610D03*
X107851447Y-73010017D03*
X96301447Y-70810017D03*
X201962880Y-56120610D03*
X190412880Y-53920610D03*
D14*
X246141459Y-105947216D03*
X236603365Y-99072098D03*
D10*
X125851447Y-80010017D03*
X114301447Y-77810017D03*
X159412880Y-63220610D03*
X170962880Y-65420610D03*
X201962880Y-73120610D03*
X190412880Y-70920610D03*
X201962880Y-39120610D03*
X190412880Y-36920610D03*
X237962880Y-47120610D03*
X226412880Y-44920610D03*
X65301447Y-69110017D03*
X76851447Y-71310017D03*
X219962880Y-79120610D03*
X208412880Y-76920610D03*
X143851447Y-92010017D03*
X132301447Y-89810017D03*
X183962880Y-46120610D03*
X172412880Y-43920610D03*
X65301447Y-35110017D03*
X76851447Y-37310017D03*
X107851447Y-39010017D03*
X96301447Y-36810017D03*
X107851447Y-56010017D03*
X96301447Y-53810017D03*
X143851447Y-58010017D03*
X132301447Y-55810017D03*
X183962880Y-63120610D03*
X172412880Y-60920610D03*
X219962880Y-62120610D03*
X208412880Y-59920610D03*
X159412880Y-80220610D03*
X170962880Y-82420610D03*
D15*
X37126447Y-74610017D03*
X37126447Y-73110017D03*
D16*
X32026447Y-73110017D03*
D15*
X32026447Y-74610017D03*
X271237880Y-52370610D03*
X271237880Y-50870610D03*
D16*
X266137880Y-50870610D03*
D15*
X266137880Y-52370610D03*
X37126447Y-61810017D03*
X37126447Y-60310017D03*
D16*
X32026447Y-60310017D03*
D15*
X32026447Y-61810017D03*
X32026447Y-57110017D03*
X32026447Y-58610017D03*
D17*
X37126447Y-58610017D03*
D15*
X37126447Y-57110017D03*
X271237880Y-71570610D03*
X271237880Y-70070610D03*
D16*
X266137880Y-70070610D03*
D15*
X266137880Y-71570610D03*
X271237880Y-45970610D03*
X271237880Y-44470610D03*
D16*
X266137880Y-44470610D03*
D15*
X266137880Y-45970610D03*
X271237880Y-58770610D03*
X271237880Y-57270610D03*
D16*
X266137880Y-57270610D03*
D15*
X266137880Y-58770610D03*
X37126447Y-49010017D03*
X37126447Y-47510017D03*
D16*
X32026447Y-47510017D03*
D15*
X32026447Y-49010017D03*
X32026447Y-44310017D03*
X32026447Y-45810017D03*
D17*
X37126447Y-45810017D03*
D15*
X37126447Y-44310017D03*
X271237880Y-65170610D03*
X271237880Y-63670610D03*
D16*
X266137880Y-63670610D03*
D15*
X266137880Y-65170610D03*
X32026447Y-69910017D03*
X32026447Y-71410017D03*
D17*
X37126447Y-71410017D03*
D15*
X37126447Y-69910017D03*
X37126447Y-68210017D03*
X37126447Y-66710017D03*
D16*
X32026447Y-66710017D03*
D15*
X32026447Y-68210017D03*
X32026447Y-50710017D03*
X32026447Y-52210017D03*
D17*
X37126447Y-52210017D03*
D15*
X37126447Y-50710017D03*
X266137880Y-60470610D03*
X266137880Y-61970610D03*
D17*
X271237880Y-61970610D03*
D15*
X271237880Y-60470610D03*
X37126447Y-55410017D03*
X37126447Y-53910017D03*
D16*
X32026447Y-53910017D03*
D15*
X32026447Y-55410017D03*
X32026447Y-63510017D03*
X32026447Y-65010017D03*
D17*
X37126447Y-65010017D03*
D15*
X37126447Y-63510017D03*
X266137880Y-47670610D03*
X266137880Y-49170610D03*
D17*
X271237880Y-49170610D03*
D15*
X271237880Y-47670610D03*
X266137880Y-54070610D03*
X266137880Y-55570610D03*
D17*
X271237880Y-55570610D03*
D15*
X271237880Y-54070610D03*
X266137880Y-66870610D03*
X266137880Y-68370610D03*
D17*
X271237880Y-68370610D03*
D15*
X271237880Y-66870610D03*
X266137880Y-73270610D03*
X266137880Y-74770610D03*
D17*
X271237880Y-74770610D03*
D15*
X271237880Y-73270610D03*
M02*
