%TF.GenerationSoftware,KiCad,Pcbnew,7.0.6*%
%TF.CreationDate,2024-10-08T23:05:20+02:00*%
%TF.ProjectId,KoalaKeeb_v1,4b6f616c-614b-4656-9562-5f76312e6b69,rev?*%
%TF.SameCoordinates,Original*%
%TF.FileFunction,Drillmap*%
%TF.FilePolarity,Positive*%
%FSLAX45Y45*%
G04 Gerber Fmt 4.5, Leading zero omitted, Abs format (unit mm)*
G04 Created by KiCad (PCBNEW 7.0.6) date 2024-10-08 23:05:20*
%MOMM*%
%LPD*%
G01*
G04 APERTURE LIST*
%ADD10C,0.100000*%
%ADD11C,0.200000*%
%ADD12C,0.040000*%
%ADD13C,0.050000*%
%ADD14C,0.109220*%
%ADD15C,0.130000*%
G04 APERTURE END LIST*
D10*
X16935788Y-4345065D02*
X16749788Y-4347061D01*
X20720789Y-2609061D02*
G75*
G03*
X20570788Y-2459061I-149999J1D01*
G01*
X11299048Y-2988962D02*
G75*
G03*
X11449042Y-3138962I150002J2D01*
G01*
X14909042Y-5488962D02*
X14909042Y-6208962D01*
X27537185Y-4311101D02*
X27535185Y-7307101D01*
X15530787Y-4348645D02*
X16749788Y-4347061D01*
X14789043Y-4348546D02*
X13570042Y-4346962D01*
X27512451Y-7374269D02*
G75*
G03*
X27535185Y-7307101I-126271J80170D01*
G01*
X2784645Y-7307002D02*
G75*
G03*
X2807379Y-7374170I149005J13002D01*
G01*
X19020788Y-2989061D02*
X19020788Y-2609061D01*
X13246048Y-4207962D02*
G75*
G03*
X13384042Y-4344966I138002J1002D01*
G01*
X20720789Y-2919061D02*
G75*
G03*
X20866854Y-3059187I146071J6071D01*
G01*
X14359042Y-9601602D02*
X14829042Y-9598962D01*
X19170788Y-2459068D02*
G75*
G03*
X19020788Y-2609061I-8J-149992D01*
G01*
X22655935Y-3298751D02*
X24155641Y-3293792D01*
X15411186Y-9511101D02*
G75*
G03*
X15490788Y-9599061I79604J-7959D01*
G01*
X2782645Y-4311002D02*
X2784645Y-7307002D01*
X2930645Y-4163005D02*
G75*
G03*
X2782645Y-4311002I-5J-147995D01*
G01*
X24276058Y-3414208D02*
G75*
G03*
X24155641Y-3293792I-120428J-12D01*
G01*
X9452976Y-3059088D02*
G75*
G03*
X9599042Y-2918962I-6J146198D01*
G01*
X13246053Y-3229962D02*
G75*
G03*
X13157042Y-3139962I-90003J2D01*
G01*
X13384042Y-4344966D02*
X13570042Y-4346962D01*
X7663895Y-3298652D02*
X6164189Y-3293693D01*
X5930645Y-4163009D02*
G75*
G03*
X6043645Y-4051002I-5J113009D01*
G01*
X5930645Y-4163006D02*
X2930645Y-4163002D01*
X14829042Y-9598962D02*
G75*
G03*
X14908645Y-9511002I-2J80002D01*
G01*
X27537179Y-4311101D02*
G75*
G03*
X27389185Y-4163101I-147999J1D01*
G01*
X24276057Y-3414208D02*
X24276185Y-4051101D01*
X5145046Y-11062317D02*
G75*
G03*
X5238734Y-11078040I54595J38317D01*
G01*
X25081095Y-11078139D02*
G75*
G03*
X15960788Y-9601701I-9120305J-27430921D01*
G01*
X18870788Y-3139068D02*
G75*
G03*
X19020788Y-2989061I-8J150008D01*
G01*
X6164189Y-3293693D02*
G75*
G03*
X6043773Y-3414109I11J-120427D01*
G01*
X16935788Y-4345062D02*
G75*
G03*
X17073788Y-4208061I2J138002D01*
G01*
X17073783Y-3230061D02*
X17073788Y-4208061D01*
X14909454Y-4468962D02*
G75*
G03*
X14789043Y-4348546I-120424J-9D01*
G01*
X11299042Y-2988962D02*
X11299042Y-2608962D01*
X22531205Y-3179061D02*
G75*
G03*
X22655935Y-3298751I124725J5141D01*
G01*
X20866854Y-3059187D02*
X22410788Y-3059061D01*
X14908645Y-9511002D02*
X14909042Y-6208962D01*
X2807645Y-7374002D02*
X5145051Y-11062313D01*
X15410788Y-5489061D02*
X15410788Y-6209061D01*
X7663895Y-3298652D02*
G75*
G03*
X7788626Y-3178962I5J124832D01*
G01*
X14359042Y-9601603D02*
G75*
G03*
X5238735Y-11078041I-2J-28907357D01*
G01*
X27512185Y-7374101D02*
X25174778Y-11062412D01*
X15411185Y-9511101D02*
X15410788Y-6209061D01*
X15530787Y-4348653D02*
G75*
G03*
X15410373Y-4469061I3J-120417D01*
G01*
X11299048Y-2608962D02*
G75*
G03*
X11149042Y-2458962I-149998J2D01*
G01*
X9452976Y-3059088D02*
X7909042Y-3058962D01*
X15960788Y-9601701D02*
X15490788Y-9599061D01*
X19170788Y-2459061D02*
X20570788Y-2459061D01*
X11149042Y-2458962D02*
X9749042Y-2458962D01*
X13157042Y-3139962D02*
X11449042Y-3138962D01*
X7909042Y-3058546D02*
G75*
G03*
X7788626Y-3178962I8J-120424D01*
G01*
X15410373Y-4469061D02*
X15410788Y-5489061D01*
X9749042Y-2458962D02*
G75*
G03*
X9599042Y-2608962I-2J-149998D01*
G01*
X6043773Y-3414109D02*
X6043645Y-4051002D01*
X9599042Y-2608962D02*
X9599042Y-2918962D01*
X25081091Y-11078145D02*
G75*
G03*
X25174778Y-11062412I39089J54045D01*
G01*
X22531205Y-3179061D02*
G75*
G03*
X22410788Y-3058645I-120425J-9D01*
G01*
X24389185Y-4163105D02*
X27389185Y-4163101D01*
X20720788Y-2609061D02*
X20720788Y-2919061D01*
X24276179Y-4051101D02*
G75*
G03*
X24389185Y-4163105I113001J1001D01*
G01*
X17162788Y-3140061D02*
X18870788Y-3139061D01*
X14909457Y-4468962D02*
X14909042Y-5488962D01*
X13246047Y-3229962D02*
X13246042Y-4207962D01*
X17162788Y-3140058D02*
G75*
G03*
X17073783Y-3230061I1002J-90002D01*
G01*
D11*
D12*
X3017645Y-5371002D02*
X3057645Y-5411002D01*
X3057645Y-5371002D02*
X3017645Y-5411002D01*
X3017645Y-6011002D02*
X3057645Y-6051002D01*
X3057645Y-6011002D02*
X3017645Y-6051002D01*
X3019645Y-6649002D02*
X3059645Y-6689002D01*
X3059645Y-6649002D02*
X3019645Y-6689002D01*
X3024645Y-4730002D02*
X3064645Y-4770002D01*
X3064645Y-4730002D02*
X3024645Y-4770002D01*
X3025645Y-7292002D02*
X3065645Y-7332002D01*
X3065645Y-7292002D02*
X3025645Y-7332002D01*
X3838645Y-4307002D02*
X3878645Y-4347002D01*
X3878645Y-4307002D02*
X3838645Y-4347002D01*
X3838645Y-4882002D02*
X3878645Y-4922002D01*
X3878645Y-4882002D02*
X3838645Y-4922002D01*
X3850645Y-6161002D02*
X3890645Y-6201002D01*
X3890645Y-6161002D02*
X3850645Y-6201002D01*
X3855645Y-5522002D02*
X3895645Y-5562002D01*
X3895645Y-5522002D02*
X3855645Y-5562002D01*
X3856645Y-7440002D02*
X3896645Y-7480002D01*
X3896645Y-7440002D02*
X3856645Y-7480002D01*
X3857645Y-6800002D02*
X3897645Y-6840002D01*
X3897645Y-6800002D02*
X3857645Y-6840002D01*
X4437645Y-7486002D02*
X4477645Y-7526002D01*
X4477645Y-7486002D02*
X4437645Y-7526002D01*
X4585645Y-6101002D02*
X4625645Y-6141002D01*
X4625645Y-6101002D02*
X4585645Y-6141002D01*
X4737645Y-7786002D02*
X4777645Y-7826002D01*
X4777645Y-7786002D02*
X4737645Y-7826002D01*
X5137645Y-7286002D02*
X5177645Y-7326002D01*
X5177645Y-7286002D02*
X5137645Y-7326002D01*
X5237645Y-6186002D02*
X5277645Y-6226002D01*
X5277645Y-6186002D02*
X5237645Y-6226002D01*
X6251645Y-5268002D02*
X6291645Y-5308002D01*
X6291645Y-5268002D02*
X6251645Y-5308002D01*
X7510645Y-6160002D02*
X7550645Y-6200002D01*
X7550645Y-6160002D02*
X7510645Y-6200002D01*
X7902645Y-5385002D02*
X7942645Y-5425002D01*
X7942645Y-5385002D02*
X7902645Y-5425002D01*
X9015645Y-7042002D02*
X9055645Y-7082002D01*
X9055645Y-7042002D02*
X9015645Y-7082002D01*
X18630788Y-4510061D02*
X18670788Y-4550061D01*
X18670788Y-4510061D02*
X18630788Y-4550061D01*
X22212788Y-4543061D02*
X22252788Y-4583061D01*
X22252788Y-4543061D02*
X22212788Y-4583061D01*
X22213788Y-6260061D02*
X22253788Y-6300061D01*
X22253788Y-6260061D02*
X22213788Y-6300061D01*
X24029788Y-6391061D02*
X24069788Y-6431061D01*
X24069788Y-6391061D02*
X24029788Y-6431061D01*
X25476788Y-8358061D02*
X25516788Y-8398061D01*
X25516788Y-8358061D02*
X25476788Y-8398061D01*
X25955788Y-7880061D02*
X25995788Y-7920061D01*
X25995788Y-7880061D02*
X25955788Y-7920061D01*
X26345788Y-4930061D02*
X26385788Y-4970061D01*
X26385788Y-4930061D02*
X26345788Y-4970061D01*
X26453788Y-4403061D02*
X26493788Y-4443061D01*
X26493788Y-4403061D02*
X26453788Y-4443061D01*
X26459788Y-5065061D02*
X26499788Y-5105061D01*
X26499788Y-5065061D02*
X26459788Y-5105061D01*
X26459788Y-5707061D02*
X26499788Y-5747061D01*
X26499788Y-5707061D02*
X26459788Y-5747061D01*
X26459788Y-6987061D02*
X26499788Y-7027061D01*
X26499788Y-6987061D02*
X26459788Y-7027061D01*
X26461788Y-6348061D02*
X26501788Y-6388061D01*
X26501788Y-6348061D02*
X26461788Y-6388061D01*
X27237788Y-4577061D02*
X27277788Y-4617061D01*
X27277788Y-4577061D02*
X27237788Y-4617061D01*
X27237788Y-5217061D02*
X27277788Y-5257061D01*
X27277788Y-5217061D02*
X27237788Y-5257061D01*
X27238788Y-7137061D02*
X27278788Y-7177061D01*
X27278788Y-7137061D02*
X27238788Y-7177061D01*
X27239788Y-6498061D02*
X27279788Y-6538061D01*
X27279788Y-6498061D02*
X27239788Y-6538061D01*
X27240788Y-5858061D02*
X27280788Y-5898061D01*
X27280788Y-5858061D02*
X27240788Y-5898061D01*
D13*
X5792245Y-7943502D02*
G75*
G03*
X5792245Y-7943502I-25000J0D01*
G01*
X5792245Y-8068502D02*
G75*
G03*
X5792245Y-8068502I-25000J0D01*
G01*
X24584188Y-7954561D02*
G75*
G03*
X24584188Y-7954561I-25000J0D01*
G01*
X24584188Y-8079561D02*
G75*
G03*
X24584188Y-8079561I-25000J0D01*
G01*
D14*
X4195645Y-4554392D02*
X4195645Y-4663612D01*
X4141035Y-4609002D02*
X4250255Y-4609002D01*
X4195645Y-4808392D02*
X4195645Y-4917612D01*
X4141035Y-4863002D02*
X4250255Y-4863002D01*
X4195645Y-5062392D02*
X4195645Y-5171612D01*
X4141035Y-5117002D02*
X4250255Y-5117002D01*
X4195645Y-5316392D02*
X4195645Y-5425612D01*
X4141035Y-5371002D02*
X4250255Y-5371002D01*
X4195645Y-5570392D02*
X4195645Y-5679612D01*
X4141035Y-5625002D02*
X4250255Y-5625002D01*
X4195645Y-5824392D02*
X4195645Y-5933612D01*
X4141035Y-5879002D02*
X4250255Y-5879002D01*
X4195645Y-6078392D02*
X4195645Y-6187612D01*
X4141035Y-6133002D02*
X4250255Y-6133002D01*
X4195645Y-6332392D02*
X4195645Y-6441612D01*
X4141035Y-6387002D02*
X4250255Y-6387002D01*
X4195645Y-6586392D02*
X4195645Y-6695612D01*
X4141035Y-6641002D02*
X4250255Y-6641002D01*
X4195645Y-6840392D02*
X4195645Y-6949612D01*
X4141035Y-6895002D02*
X4250255Y-6895002D01*
X4195645Y-7094392D02*
X4195645Y-7203612D01*
X4141035Y-7149002D02*
X4250255Y-7149002D01*
X4195645Y-7348392D02*
X4195645Y-7457612D01*
X4141035Y-7403002D02*
X4250255Y-7403002D01*
X5719645Y-4554392D02*
X5719645Y-4663612D01*
X5665035Y-4609002D02*
X5774255Y-4609002D01*
X5719645Y-4808392D02*
X5719645Y-4917612D01*
X5665035Y-4863002D02*
X5774255Y-4863002D01*
X5719645Y-5062392D02*
X5719645Y-5171612D01*
X5665035Y-5117002D02*
X5774255Y-5117002D01*
X5719645Y-5316392D02*
X5719645Y-5425612D01*
X5665035Y-5371002D02*
X5774255Y-5371002D01*
X5719645Y-5570392D02*
X5719645Y-5679612D01*
X5665035Y-5625002D02*
X5774255Y-5625002D01*
X5719645Y-5824392D02*
X5719645Y-5933612D01*
X5665035Y-5879002D02*
X5774255Y-5879002D01*
X5719645Y-6078392D02*
X5719645Y-6187612D01*
X5665035Y-6133002D02*
X5774255Y-6133002D01*
X5719645Y-6332392D02*
X5719645Y-6441612D01*
X5665035Y-6387002D02*
X5774255Y-6387002D01*
X5719645Y-6586392D02*
X5719645Y-6695612D01*
X5665035Y-6641002D02*
X5774255Y-6641002D01*
X5719645Y-6840392D02*
X5719645Y-6949612D01*
X5665035Y-6895002D02*
X5774255Y-6895002D01*
X5719645Y-7094392D02*
X5719645Y-7203612D01*
X5665035Y-7149002D02*
X5774255Y-7149002D01*
X5719645Y-7348392D02*
X5719645Y-7457612D01*
X5665035Y-7403002D02*
X5774255Y-7403002D01*
X24606788Y-4565451D02*
X24606788Y-4674671D01*
X24552178Y-4620061D02*
X24661398Y-4620061D01*
X24606788Y-4819451D02*
X24606788Y-4928671D01*
X24552178Y-4874061D02*
X24661398Y-4874061D01*
X24606788Y-5073451D02*
X24606788Y-5182671D01*
X24552178Y-5128061D02*
X24661398Y-5128061D01*
X24606788Y-5327451D02*
X24606788Y-5436671D01*
X24552178Y-5382061D02*
X24661398Y-5382061D01*
X24606788Y-5581451D02*
X24606788Y-5690671D01*
X24552178Y-5636061D02*
X24661398Y-5636061D01*
X24606788Y-5835451D02*
X24606788Y-5944671D01*
X24552178Y-5890061D02*
X24661398Y-5890061D01*
X24606788Y-6089451D02*
X24606788Y-6198671D01*
X24552178Y-6144061D02*
X24661398Y-6144061D01*
X24606788Y-6343451D02*
X24606788Y-6452671D01*
X24552178Y-6398061D02*
X24661398Y-6398061D01*
X24606788Y-6597451D02*
X24606788Y-6706671D01*
X24552178Y-6652061D02*
X24661398Y-6652061D01*
X24606788Y-6851451D02*
X24606788Y-6960671D01*
X24552178Y-6906061D02*
X24661398Y-6906061D01*
X24606788Y-7105451D02*
X24606788Y-7214671D01*
X24552178Y-7160061D02*
X24661398Y-7160061D01*
X24606788Y-7359451D02*
X24606788Y-7468671D01*
X24552178Y-7414061D02*
X24661398Y-7414061D01*
X26130788Y-4565451D02*
X26130788Y-4674671D01*
X26076178Y-4620061D02*
X26185398Y-4620061D01*
X26130788Y-4819451D02*
X26130788Y-4928671D01*
X26076178Y-4874061D02*
X26185398Y-4874061D01*
X26130788Y-5073451D02*
X26130788Y-5182671D01*
X26076178Y-5128061D02*
X26185398Y-5128061D01*
X26130788Y-5327451D02*
X26130788Y-5436671D01*
X26076178Y-5382061D02*
X26185398Y-5382061D01*
X26130788Y-5581451D02*
X26130788Y-5690671D01*
X26076178Y-5636061D02*
X26185398Y-5636061D01*
X26130788Y-5835451D02*
X26130788Y-5944671D01*
X26076178Y-5890061D02*
X26185398Y-5890061D01*
X26130788Y-6089451D02*
X26130788Y-6198671D01*
X26076178Y-6144061D02*
X26185398Y-6144061D01*
X26130788Y-6343451D02*
X26130788Y-6452671D01*
X26076178Y-6398061D02*
X26185398Y-6398061D01*
X26130788Y-6597451D02*
X26130788Y-6706671D01*
X26076178Y-6652061D02*
X26185398Y-6652061D01*
X26130788Y-6851451D02*
X26130788Y-6960671D01*
X26076178Y-6906061D02*
X26185398Y-6906061D01*
X26130788Y-7105451D02*
X26130788Y-7214671D01*
X26076178Y-7160061D02*
X26185398Y-7160061D01*
X26130788Y-7359451D02*
X26130788Y-7468671D01*
X26076178Y-7414061D02*
X26185398Y-7414061D01*
D15*
X4922149Y-8914464D02*
X4922149Y-8822539D01*
X4830224Y-8822539D01*
X4830224Y-8914464D01*
X4922149Y-8914464D01*
X5485065Y-8589464D02*
X5485065Y-8497539D01*
X5393141Y-8497539D01*
X5393141Y-8589464D01*
X5485065Y-8589464D01*
X24933292Y-8600523D02*
X24933292Y-8508599D01*
X24841367Y-8508599D01*
X24841367Y-8600523D01*
X24933292Y-8600523D01*
X25496209Y-8925523D02*
X25496209Y-8833599D01*
X25404284Y-8833599D01*
X25404284Y-8925523D01*
X25496209Y-8925523D01*
D11*
X3038421Y-11407283D02*
X3038421Y-11207283D01*
X3038421Y-11207283D02*
X3086040Y-11207283D01*
X3086040Y-11207283D02*
X3114612Y-11216807D01*
X3114612Y-11216807D02*
X3133660Y-11235854D01*
X3133660Y-11235854D02*
X3143183Y-11254902D01*
X3143183Y-11254902D02*
X3152707Y-11292997D01*
X3152707Y-11292997D02*
X3152707Y-11321569D01*
X3152707Y-11321569D02*
X3143183Y-11359664D01*
X3143183Y-11359664D02*
X3133660Y-11378712D01*
X3133660Y-11378712D02*
X3114612Y-11397759D01*
X3114612Y-11397759D02*
X3086040Y-11407283D01*
X3086040Y-11407283D02*
X3038421Y-11407283D01*
X3238421Y-11407283D02*
X3238421Y-11273950D01*
X3238421Y-11312045D02*
X3247945Y-11292997D01*
X3247945Y-11292997D02*
X3257469Y-11283473D01*
X3257469Y-11283473D02*
X3276517Y-11273950D01*
X3276517Y-11273950D02*
X3295564Y-11273950D01*
X3362231Y-11407283D02*
X3362231Y-11273950D01*
X3362231Y-11207283D02*
X3352707Y-11216807D01*
X3352707Y-11216807D02*
X3362231Y-11226331D01*
X3362231Y-11226331D02*
X3371755Y-11216807D01*
X3371755Y-11216807D02*
X3362231Y-11207283D01*
X3362231Y-11207283D02*
X3362231Y-11226331D01*
X3486040Y-11407283D02*
X3466993Y-11397759D01*
X3466993Y-11397759D02*
X3457469Y-11378712D01*
X3457469Y-11378712D02*
X3457469Y-11207283D01*
X3590802Y-11407283D02*
X3571755Y-11397759D01*
X3571755Y-11397759D02*
X3562231Y-11378712D01*
X3562231Y-11378712D02*
X3562231Y-11207283D01*
X3819374Y-11407283D02*
X3819374Y-11207283D01*
X3819374Y-11207283D02*
X3886041Y-11350140D01*
X3886041Y-11350140D02*
X3952707Y-11207283D01*
X3952707Y-11207283D02*
X3952707Y-11407283D01*
X4133660Y-11407283D02*
X4133660Y-11302521D01*
X4133660Y-11302521D02*
X4124136Y-11283473D01*
X4124136Y-11283473D02*
X4105088Y-11273950D01*
X4105088Y-11273950D02*
X4066993Y-11273950D01*
X4066993Y-11273950D02*
X4047945Y-11283473D01*
X4133660Y-11397759D02*
X4114612Y-11407283D01*
X4114612Y-11407283D02*
X4066993Y-11407283D01*
X4066993Y-11407283D02*
X4047945Y-11397759D01*
X4047945Y-11397759D02*
X4038421Y-11378712D01*
X4038421Y-11378712D02*
X4038421Y-11359664D01*
X4038421Y-11359664D02*
X4047945Y-11340616D01*
X4047945Y-11340616D02*
X4066993Y-11331093D01*
X4066993Y-11331093D02*
X4114612Y-11331093D01*
X4114612Y-11331093D02*
X4133660Y-11321569D01*
X4228898Y-11273950D02*
X4228898Y-11473950D01*
X4228898Y-11283473D02*
X4247945Y-11273950D01*
X4247945Y-11273950D02*
X4286041Y-11273950D01*
X4286041Y-11273950D02*
X4305088Y-11283473D01*
X4305088Y-11283473D02*
X4314612Y-11292997D01*
X4314612Y-11292997D02*
X4324136Y-11312045D01*
X4324136Y-11312045D02*
X4324136Y-11369188D01*
X4324136Y-11369188D02*
X4314612Y-11388235D01*
X4314612Y-11388235D02*
X4305088Y-11397759D01*
X4305088Y-11397759D02*
X4286041Y-11407283D01*
X4286041Y-11407283D02*
X4247945Y-11407283D01*
X4247945Y-11407283D02*
X4228898Y-11397759D01*
X4409850Y-11388235D02*
X4419374Y-11397759D01*
X4419374Y-11397759D02*
X4409850Y-11407283D01*
X4409850Y-11407283D02*
X4400326Y-11397759D01*
X4400326Y-11397759D02*
X4409850Y-11388235D01*
X4409850Y-11388235D02*
X4409850Y-11407283D01*
X4409850Y-11283473D02*
X4419374Y-11292997D01*
X4419374Y-11292997D02*
X4409850Y-11302521D01*
X4409850Y-11302521D02*
X4400326Y-11292997D01*
X4400326Y-11292997D02*
X4409850Y-11283473D01*
X4409850Y-11283473D02*
X4409850Y-11302521D01*
D12*
X2737645Y-11715799D02*
X2777645Y-11755799D01*
X2777645Y-11715799D02*
X2737645Y-11755799D01*
D11*
X3076517Y-11627283D02*
X3095564Y-11627283D01*
X3095564Y-11627283D02*
X3114612Y-11636807D01*
X3114612Y-11636807D02*
X3124136Y-11646331D01*
X3124136Y-11646331D02*
X3133660Y-11665378D01*
X3133660Y-11665378D02*
X3143183Y-11703473D01*
X3143183Y-11703473D02*
X3143183Y-11751093D01*
X3143183Y-11751093D02*
X3133660Y-11789188D01*
X3133660Y-11789188D02*
X3124136Y-11808235D01*
X3124136Y-11808235D02*
X3114612Y-11817759D01*
X3114612Y-11817759D02*
X3095564Y-11827283D01*
X3095564Y-11827283D02*
X3076517Y-11827283D01*
X3076517Y-11827283D02*
X3057469Y-11817759D01*
X3057469Y-11817759D02*
X3047945Y-11808235D01*
X3047945Y-11808235D02*
X3038421Y-11789188D01*
X3038421Y-11789188D02*
X3028898Y-11751093D01*
X3028898Y-11751093D02*
X3028898Y-11703473D01*
X3028898Y-11703473D02*
X3038421Y-11665378D01*
X3038421Y-11665378D02*
X3047945Y-11646331D01*
X3047945Y-11646331D02*
X3057469Y-11636807D01*
X3057469Y-11636807D02*
X3076517Y-11627283D01*
X3228898Y-11808235D02*
X3238421Y-11817759D01*
X3238421Y-11817759D02*
X3228898Y-11827283D01*
X3228898Y-11827283D02*
X3219374Y-11817759D01*
X3219374Y-11817759D02*
X3228898Y-11808235D01*
X3228898Y-11808235D02*
X3228898Y-11827283D01*
X3409850Y-11693950D02*
X3409850Y-11827283D01*
X3362231Y-11617759D02*
X3314612Y-11760616D01*
X3314612Y-11760616D02*
X3438421Y-11760616D01*
X3552707Y-11627283D02*
X3571755Y-11627283D01*
X3571755Y-11627283D02*
X3590802Y-11636807D01*
X3590802Y-11636807D02*
X3600326Y-11646331D01*
X3600326Y-11646331D02*
X3609850Y-11665378D01*
X3609850Y-11665378D02*
X3619374Y-11703473D01*
X3619374Y-11703473D02*
X3619374Y-11751093D01*
X3619374Y-11751093D02*
X3609850Y-11789188D01*
X3609850Y-11789188D02*
X3600326Y-11808235D01*
X3600326Y-11808235D02*
X3590802Y-11817759D01*
X3590802Y-11817759D02*
X3571755Y-11827283D01*
X3571755Y-11827283D02*
X3552707Y-11827283D01*
X3552707Y-11827283D02*
X3533660Y-11817759D01*
X3533660Y-11817759D02*
X3524136Y-11808235D01*
X3524136Y-11808235D02*
X3514612Y-11789188D01*
X3514612Y-11789188D02*
X3505088Y-11751093D01*
X3505088Y-11751093D02*
X3505088Y-11703473D01*
X3505088Y-11703473D02*
X3514612Y-11665378D01*
X3514612Y-11665378D02*
X3524136Y-11646331D01*
X3524136Y-11646331D02*
X3533660Y-11636807D01*
X3533660Y-11636807D02*
X3552707Y-11627283D01*
X3743183Y-11627283D02*
X3762231Y-11627283D01*
X3762231Y-11627283D02*
X3781279Y-11636807D01*
X3781279Y-11636807D02*
X3790802Y-11646331D01*
X3790802Y-11646331D02*
X3800326Y-11665378D01*
X3800326Y-11665378D02*
X3809850Y-11703473D01*
X3809850Y-11703473D02*
X3809850Y-11751093D01*
X3809850Y-11751093D02*
X3800326Y-11789188D01*
X3800326Y-11789188D02*
X3790802Y-11808235D01*
X3790802Y-11808235D02*
X3781279Y-11817759D01*
X3781279Y-11817759D02*
X3762231Y-11827283D01*
X3762231Y-11827283D02*
X3743183Y-11827283D01*
X3743183Y-11827283D02*
X3724136Y-11817759D01*
X3724136Y-11817759D02*
X3714612Y-11808235D01*
X3714612Y-11808235D02*
X3705088Y-11789188D01*
X3705088Y-11789188D02*
X3695564Y-11751093D01*
X3695564Y-11751093D02*
X3695564Y-11703473D01*
X3695564Y-11703473D02*
X3705088Y-11665378D01*
X3705088Y-11665378D02*
X3714612Y-11646331D01*
X3714612Y-11646331D02*
X3724136Y-11636807D01*
X3724136Y-11636807D02*
X3743183Y-11627283D01*
X3895564Y-11827283D02*
X3895564Y-11693950D01*
X3895564Y-11712997D02*
X3905088Y-11703473D01*
X3905088Y-11703473D02*
X3924136Y-11693950D01*
X3924136Y-11693950D02*
X3952707Y-11693950D01*
X3952707Y-11693950D02*
X3971755Y-11703473D01*
X3971755Y-11703473D02*
X3981279Y-11722521D01*
X3981279Y-11722521D02*
X3981279Y-11827283D01*
X3981279Y-11722521D02*
X3990802Y-11703473D01*
X3990802Y-11703473D02*
X4009850Y-11693950D01*
X4009850Y-11693950D02*
X4038421Y-11693950D01*
X4038421Y-11693950D02*
X4057469Y-11703473D01*
X4057469Y-11703473D02*
X4066993Y-11722521D01*
X4066993Y-11722521D02*
X4066993Y-11827283D01*
X4162231Y-11827283D02*
X4162231Y-11693950D01*
X4162231Y-11712997D02*
X4171755Y-11703473D01*
X4171755Y-11703473D02*
X4190802Y-11693950D01*
X4190802Y-11693950D02*
X4219374Y-11693950D01*
X4219374Y-11693950D02*
X4238422Y-11703473D01*
X4238422Y-11703473D02*
X4247945Y-11722521D01*
X4247945Y-11722521D02*
X4247945Y-11827283D01*
X4247945Y-11722521D02*
X4257469Y-11703473D01*
X4257469Y-11703473D02*
X4276517Y-11693950D01*
X4276517Y-11693950D02*
X4305088Y-11693950D01*
X4305088Y-11693950D02*
X4324136Y-11703473D01*
X4324136Y-11703473D02*
X4333660Y-11722521D01*
X4333660Y-11722521D02*
X4333660Y-11827283D01*
X4724136Y-11617759D02*
X4552707Y-11874902D01*
X4981279Y-11627283D02*
X5000327Y-11627283D01*
X5000327Y-11627283D02*
X5019374Y-11636807D01*
X5019374Y-11636807D02*
X5028898Y-11646331D01*
X5028898Y-11646331D02*
X5038422Y-11665378D01*
X5038422Y-11665378D02*
X5047946Y-11703473D01*
X5047946Y-11703473D02*
X5047946Y-11751093D01*
X5047946Y-11751093D02*
X5038422Y-11789188D01*
X5038422Y-11789188D02*
X5028898Y-11808235D01*
X5028898Y-11808235D02*
X5019374Y-11817759D01*
X5019374Y-11817759D02*
X5000327Y-11827283D01*
X5000327Y-11827283D02*
X4981279Y-11827283D01*
X4981279Y-11827283D02*
X4962231Y-11817759D01*
X4962231Y-11817759D02*
X4952707Y-11808235D01*
X4952707Y-11808235D02*
X4943184Y-11789188D01*
X4943184Y-11789188D02*
X4933660Y-11751093D01*
X4933660Y-11751093D02*
X4933660Y-11703473D01*
X4933660Y-11703473D02*
X4943184Y-11665378D01*
X4943184Y-11665378D02*
X4952707Y-11646331D01*
X4952707Y-11646331D02*
X4962231Y-11636807D01*
X4962231Y-11636807D02*
X4981279Y-11627283D01*
X5133660Y-11808235D02*
X5143184Y-11817759D01*
X5143184Y-11817759D02*
X5133660Y-11827283D01*
X5133660Y-11827283D02*
X5124136Y-11817759D01*
X5124136Y-11817759D02*
X5133660Y-11808235D01*
X5133660Y-11808235D02*
X5133660Y-11827283D01*
X5266993Y-11627283D02*
X5286041Y-11627283D01*
X5286041Y-11627283D02*
X5305088Y-11636807D01*
X5305088Y-11636807D02*
X5314612Y-11646331D01*
X5314612Y-11646331D02*
X5324136Y-11665378D01*
X5324136Y-11665378D02*
X5333660Y-11703473D01*
X5333660Y-11703473D02*
X5333660Y-11751093D01*
X5333660Y-11751093D02*
X5324136Y-11789188D01*
X5324136Y-11789188D02*
X5314612Y-11808235D01*
X5314612Y-11808235D02*
X5305088Y-11817759D01*
X5305088Y-11817759D02*
X5286041Y-11827283D01*
X5286041Y-11827283D02*
X5266993Y-11827283D01*
X5266993Y-11827283D02*
X5247946Y-11817759D01*
X5247946Y-11817759D02*
X5238422Y-11808235D01*
X5238422Y-11808235D02*
X5228898Y-11789188D01*
X5228898Y-11789188D02*
X5219374Y-11751093D01*
X5219374Y-11751093D02*
X5219374Y-11703473D01*
X5219374Y-11703473D02*
X5228898Y-11665378D01*
X5228898Y-11665378D02*
X5238422Y-11646331D01*
X5238422Y-11646331D02*
X5247946Y-11636807D01*
X5247946Y-11636807D02*
X5266993Y-11627283D01*
X5524136Y-11827283D02*
X5409850Y-11827283D01*
X5466993Y-11827283D02*
X5466993Y-11627283D01*
X5466993Y-11627283D02*
X5447946Y-11655854D01*
X5447946Y-11655854D02*
X5428898Y-11674902D01*
X5428898Y-11674902D02*
X5409850Y-11684426D01*
X5705088Y-11627283D02*
X5609850Y-11627283D01*
X5609850Y-11627283D02*
X5600326Y-11722521D01*
X5600326Y-11722521D02*
X5609850Y-11712997D01*
X5609850Y-11712997D02*
X5628898Y-11703473D01*
X5628898Y-11703473D02*
X5676517Y-11703473D01*
X5676517Y-11703473D02*
X5695565Y-11712997D01*
X5695565Y-11712997D02*
X5705088Y-11722521D01*
X5705088Y-11722521D02*
X5714612Y-11741569D01*
X5714612Y-11741569D02*
X5714612Y-11789188D01*
X5714612Y-11789188D02*
X5705088Y-11808235D01*
X5705088Y-11808235D02*
X5695565Y-11817759D01*
X5695565Y-11817759D02*
X5676517Y-11827283D01*
X5676517Y-11827283D02*
X5628898Y-11827283D01*
X5628898Y-11827283D02*
X5609850Y-11817759D01*
X5609850Y-11817759D02*
X5600326Y-11808235D01*
X5781279Y-11627283D02*
X5914612Y-11627283D01*
X5914612Y-11627283D02*
X5828898Y-11827283D01*
X5981279Y-11627283D02*
X5981279Y-11665378D01*
X6057469Y-11627283D02*
X6057469Y-11665378D01*
X6352708Y-11903473D02*
X6343184Y-11893950D01*
X6343184Y-11893950D02*
X6324136Y-11865378D01*
X6324136Y-11865378D02*
X6314612Y-11846331D01*
X6314612Y-11846331D02*
X6305088Y-11817759D01*
X6305088Y-11817759D02*
X6295565Y-11770140D01*
X6295565Y-11770140D02*
X6295565Y-11732045D01*
X6295565Y-11732045D02*
X6305088Y-11684426D01*
X6305088Y-11684426D02*
X6314612Y-11655854D01*
X6314612Y-11655854D02*
X6324136Y-11636807D01*
X6324136Y-11636807D02*
X6343184Y-11608235D01*
X6343184Y-11608235D02*
X6352708Y-11598712D01*
X6409850Y-11627283D02*
X6533660Y-11627283D01*
X6533660Y-11627283D02*
X6466993Y-11703473D01*
X6466993Y-11703473D02*
X6495565Y-11703473D01*
X6495565Y-11703473D02*
X6514612Y-11712997D01*
X6514612Y-11712997D02*
X6524136Y-11722521D01*
X6524136Y-11722521D02*
X6533660Y-11741569D01*
X6533660Y-11741569D02*
X6533660Y-11789188D01*
X6533660Y-11789188D02*
X6524136Y-11808235D01*
X6524136Y-11808235D02*
X6514612Y-11817759D01*
X6514612Y-11817759D02*
X6495565Y-11827283D01*
X6495565Y-11827283D02*
X6438422Y-11827283D01*
X6438422Y-11827283D02*
X6419374Y-11817759D01*
X6419374Y-11817759D02*
X6409850Y-11808235D01*
X6600327Y-11627283D02*
X6733660Y-11627283D01*
X6733660Y-11627283D02*
X6647946Y-11827283D01*
X6962231Y-11827283D02*
X6962231Y-11627283D01*
X7047946Y-11827283D02*
X7047946Y-11722521D01*
X7047946Y-11722521D02*
X7038422Y-11703473D01*
X7038422Y-11703473D02*
X7019374Y-11693950D01*
X7019374Y-11693950D02*
X6990803Y-11693950D01*
X6990803Y-11693950D02*
X6971755Y-11703473D01*
X6971755Y-11703473D02*
X6962231Y-11712997D01*
X7171755Y-11827283D02*
X7152708Y-11817759D01*
X7152708Y-11817759D02*
X7143184Y-11808235D01*
X7143184Y-11808235D02*
X7133660Y-11789188D01*
X7133660Y-11789188D02*
X7133660Y-11732045D01*
X7133660Y-11732045D02*
X7143184Y-11712997D01*
X7143184Y-11712997D02*
X7152708Y-11703473D01*
X7152708Y-11703473D02*
X7171755Y-11693950D01*
X7171755Y-11693950D02*
X7200327Y-11693950D01*
X7200327Y-11693950D02*
X7219374Y-11703473D01*
X7219374Y-11703473D02*
X7228898Y-11712997D01*
X7228898Y-11712997D02*
X7238422Y-11732045D01*
X7238422Y-11732045D02*
X7238422Y-11789188D01*
X7238422Y-11789188D02*
X7228898Y-11808235D01*
X7228898Y-11808235D02*
X7219374Y-11817759D01*
X7219374Y-11817759D02*
X7200327Y-11827283D01*
X7200327Y-11827283D02*
X7171755Y-11827283D01*
X7352708Y-11827283D02*
X7333660Y-11817759D01*
X7333660Y-11817759D02*
X7324136Y-11798712D01*
X7324136Y-11798712D02*
X7324136Y-11627283D01*
X7505089Y-11817759D02*
X7486041Y-11827283D01*
X7486041Y-11827283D02*
X7447946Y-11827283D01*
X7447946Y-11827283D02*
X7428898Y-11817759D01*
X7428898Y-11817759D02*
X7419374Y-11798712D01*
X7419374Y-11798712D02*
X7419374Y-11722521D01*
X7419374Y-11722521D02*
X7428898Y-11703473D01*
X7428898Y-11703473D02*
X7447946Y-11693950D01*
X7447946Y-11693950D02*
X7486041Y-11693950D01*
X7486041Y-11693950D02*
X7505089Y-11703473D01*
X7505089Y-11703473D02*
X7514612Y-11722521D01*
X7514612Y-11722521D02*
X7514612Y-11741569D01*
X7514612Y-11741569D02*
X7419374Y-11760616D01*
X7590803Y-11817759D02*
X7609850Y-11827283D01*
X7609850Y-11827283D02*
X7647946Y-11827283D01*
X7647946Y-11827283D02*
X7666993Y-11817759D01*
X7666993Y-11817759D02*
X7676517Y-11798712D01*
X7676517Y-11798712D02*
X7676517Y-11789188D01*
X7676517Y-11789188D02*
X7666993Y-11770140D01*
X7666993Y-11770140D02*
X7647946Y-11760616D01*
X7647946Y-11760616D02*
X7619374Y-11760616D01*
X7619374Y-11760616D02*
X7600327Y-11751093D01*
X7600327Y-11751093D02*
X7590803Y-11732045D01*
X7590803Y-11732045D02*
X7590803Y-11722521D01*
X7590803Y-11722521D02*
X7600327Y-11703473D01*
X7600327Y-11703473D02*
X7619374Y-11693950D01*
X7619374Y-11693950D02*
X7647946Y-11693950D01*
X7647946Y-11693950D02*
X7666993Y-11703473D01*
X7743184Y-11903473D02*
X7752708Y-11893950D01*
X7752708Y-11893950D02*
X7771755Y-11865378D01*
X7771755Y-11865378D02*
X7781279Y-11846331D01*
X7781279Y-11846331D02*
X7790803Y-11817759D01*
X7790803Y-11817759D02*
X7800327Y-11770140D01*
X7800327Y-11770140D02*
X7800327Y-11732045D01*
X7800327Y-11732045D02*
X7790803Y-11684426D01*
X7790803Y-11684426D02*
X7781279Y-11655854D01*
X7781279Y-11655854D02*
X7771755Y-11636807D01*
X7771755Y-11636807D02*
X7752708Y-11608235D01*
X7752708Y-11608235D02*
X7743184Y-11598712D01*
D13*
X2777645Y-11999799D02*
G75*
G03*
X2777645Y-11999799I-25000J0D01*
G01*
D11*
X3076517Y-11891283D02*
X3095564Y-11891283D01*
X3095564Y-11891283D02*
X3114612Y-11900807D01*
X3114612Y-11900807D02*
X3124136Y-11910331D01*
X3124136Y-11910331D02*
X3133660Y-11929378D01*
X3133660Y-11929378D02*
X3143183Y-11967473D01*
X3143183Y-11967473D02*
X3143183Y-12015093D01*
X3143183Y-12015093D02*
X3133660Y-12053188D01*
X3133660Y-12053188D02*
X3124136Y-12072235D01*
X3124136Y-12072235D02*
X3114612Y-12081759D01*
X3114612Y-12081759D02*
X3095564Y-12091283D01*
X3095564Y-12091283D02*
X3076517Y-12091283D01*
X3076517Y-12091283D02*
X3057469Y-12081759D01*
X3057469Y-12081759D02*
X3047945Y-12072235D01*
X3047945Y-12072235D02*
X3038421Y-12053188D01*
X3038421Y-12053188D02*
X3028898Y-12015093D01*
X3028898Y-12015093D02*
X3028898Y-11967473D01*
X3028898Y-11967473D02*
X3038421Y-11929378D01*
X3038421Y-11929378D02*
X3047945Y-11910331D01*
X3047945Y-11910331D02*
X3057469Y-11900807D01*
X3057469Y-11900807D02*
X3076517Y-11891283D01*
X3228898Y-12072235D02*
X3238421Y-12081759D01*
X3238421Y-12081759D02*
X3228898Y-12091283D01*
X3228898Y-12091283D02*
X3219374Y-12081759D01*
X3219374Y-12081759D02*
X3228898Y-12072235D01*
X3228898Y-12072235D02*
X3228898Y-12091283D01*
X3419374Y-11891283D02*
X3324136Y-11891283D01*
X3324136Y-11891283D02*
X3314612Y-11986521D01*
X3314612Y-11986521D02*
X3324136Y-11976997D01*
X3324136Y-11976997D02*
X3343183Y-11967473D01*
X3343183Y-11967473D02*
X3390802Y-11967473D01*
X3390802Y-11967473D02*
X3409850Y-11976997D01*
X3409850Y-11976997D02*
X3419374Y-11986521D01*
X3419374Y-11986521D02*
X3428898Y-12005569D01*
X3428898Y-12005569D02*
X3428898Y-12053188D01*
X3428898Y-12053188D02*
X3419374Y-12072235D01*
X3419374Y-12072235D02*
X3409850Y-12081759D01*
X3409850Y-12081759D02*
X3390802Y-12091283D01*
X3390802Y-12091283D02*
X3343183Y-12091283D01*
X3343183Y-12091283D02*
X3324136Y-12081759D01*
X3324136Y-12081759D02*
X3314612Y-12072235D01*
X3552707Y-11891283D02*
X3571755Y-11891283D01*
X3571755Y-11891283D02*
X3590802Y-11900807D01*
X3590802Y-11900807D02*
X3600326Y-11910331D01*
X3600326Y-11910331D02*
X3609850Y-11929378D01*
X3609850Y-11929378D02*
X3619374Y-11967473D01*
X3619374Y-11967473D02*
X3619374Y-12015093D01*
X3619374Y-12015093D02*
X3609850Y-12053188D01*
X3609850Y-12053188D02*
X3600326Y-12072235D01*
X3600326Y-12072235D02*
X3590802Y-12081759D01*
X3590802Y-12081759D02*
X3571755Y-12091283D01*
X3571755Y-12091283D02*
X3552707Y-12091283D01*
X3552707Y-12091283D02*
X3533660Y-12081759D01*
X3533660Y-12081759D02*
X3524136Y-12072235D01*
X3524136Y-12072235D02*
X3514612Y-12053188D01*
X3514612Y-12053188D02*
X3505088Y-12015093D01*
X3505088Y-12015093D02*
X3505088Y-11967473D01*
X3505088Y-11967473D02*
X3514612Y-11929378D01*
X3514612Y-11929378D02*
X3524136Y-11910331D01*
X3524136Y-11910331D02*
X3533660Y-11900807D01*
X3533660Y-11900807D02*
X3552707Y-11891283D01*
X3743183Y-11891283D02*
X3762231Y-11891283D01*
X3762231Y-11891283D02*
X3781279Y-11900807D01*
X3781279Y-11900807D02*
X3790802Y-11910331D01*
X3790802Y-11910331D02*
X3800326Y-11929378D01*
X3800326Y-11929378D02*
X3809850Y-11967473D01*
X3809850Y-11967473D02*
X3809850Y-12015093D01*
X3809850Y-12015093D02*
X3800326Y-12053188D01*
X3800326Y-12053188D02*
X3790802Y-12072235D01*
X3790802Y-12072235D02*
X3781279Y-12081759D01*
X3781279Y-12081759D02*
X3762231Y-12091283D01*
X3762231Y-12091283D02*
X3743183Y-12091283D01*
X3743183Y-12091283D02*
X3724136Y-12081759D01*
X3724136Y-12081759D02*
X3714612Y-12072235D01*
X3714612Y-12072235D02*
X3705088Y-12053188D01*
X3705088Y-12053188D02*
X3695564Y-12015093D01*
X3695564Y-12015093D02*
X3695564Y-11967473D01*
X3695564Y-11967473D02*
X3705088Y-11929378D01*
X3705088Y-11929378D02*
X3714612Y-11910331D01*
X3714612Y-11910331D02*
X3724136Y-11900807D01*
X3724136Y-11900807D02*
X3743183Y-11891283D01*
X3895564Y-12091283D02*
X3895564Y-11957950D01*
X3895564Y-11976997D02*
X3905088Y-11967473D01*
X3905088Y-11967473D02*
X3924136Y-11957950D01*
X3924136Y-11957950D02*
X3952707Y-11957950D01*
X3952707Y-11957950D02*
X3971755Y-11967473D01*
X3971755Y-11967473D02*
X3981279Y-11986521D01*
X3981279Y-11986521D02*
X3981279Y-12091283D01*
X3981279Y-11986521D02*
X3990802Y-11967473D01*
X3990802Y-11967473D02*
X4009850Y-11957950D01*
X4009850Y-11957950D02*
X4038421Y-11957950D01*
X4038421Y-11957950D02*
X4057469Y-11967473D01*
X4057469Y-11967473D02*
X4066993Y-11986521D01*
X4066993Y-11986521D02*
X4066993Y-12091283D01*
X4162231Y-12091283D02*
X4162231Y-11957950D01*
X4162231Y-11976997D02*
X4171755Y-11967473D01*
X4171755Y-11967473D02*
X4190802Y-11957950D01*
X4190802Y-11957950D02*
X4219374Y-11957950D01*
X4219374Y-11957950D02*
X4238422Y-11967473D01*
X4238422Y-11967473D02*
X4247945Y-11986521D01*
X4247945Y-11986521D02*
X4247945Y-12091283D01*
X4247945Y-11986521D02*
X4257469Y-11967473D01*
X4257469Y-11967473D02*
X4276517Y-11957950D01*
X4276517Y-11957950D02*
X4305088Y-11957950D01*
X4305088Y-11957950D02*
X4324136Y-11967473D01*
X4324136Y-11967473D02*
X4333660Y-11986521D01*
X4333660Y-11986521D02*
X4333660Y-12091283D01*
X4724136Y-11881759D02*
X4552707Y-12138902D01*
X4981279Y-11891283D02*
X5000327Y-11891283D01*
X5000327Y-11891283D02*
X5019374Y-11900807D01*
X5019374Y-11900807D02*
X5028898Y-11910331D01*
X5028898Y-11910331D02*
X5038422Y-11929378D01*
X5038422Y-11929378D02*
X5047946Y-11967473D01*
X5047946Y-11967473D02*
X5047946Y-12015093D01*
X5047946Y-12015093D02*
X5038422Y-12053188D01*
X5038422Y-12053188D02*
X5028898Y-12072235D01*
X5028898Y-12072235D02*
X5019374Y-12081759D01*
X5019374Y-12081759D02*
X5000327Y-12091283D01*
X5000327Y-12091283D02*
X4981279Y-12091283D01*
X4981279Y-12091283D02*
X4962231Y-12081759D01*
X4962231Y-12081759D02*
X4952707Y-12072235D01*
X4952707Y-12072235D02*
X4943184Y-12053188D01*
X4943184Y-12053188D02*
X4933660Y-12015093D01*
X4933660Y-12015093D02*
X4933660Y-11967473D01*
X4933660Y-11967473D02*
X4943184Y-11929378D01*
X4943184Y-11929378D02*
X4952707Y-11910331D01*
X4952707Y-11910331D02*
X4962231Y-11900807D01*
X4962231Y-11900807D02*
X4981279Y-11891283D01*
X5133660Y-12072235D02*
X5143184Y-12081759D01*
X5143184Y-12081759D02*
X5133660Y-12091283D01*
X5133660Y-12091283D02*
X5124136Y-12081759D01*
X5124136Y-12081759D02*
X5133660Y-12072235D01*
X5133660Y-12072235D02*
X5133660Y-12091283D01*
X5266993Y-11891283D02*
X5286041Y-11891283D01*
X5286041Y-11891283D02*
X5305088Y-11900807D01*
X5305088Y-11900807D02*
X5314612Y-11910331D01*
X5314612Y-11910331D02*
X5324136Y-11929378D01*
X5324136Y-11929378D02*
X5333660Y-11967473D01*
X5333660Y-11967473D02*
X5333660Y-12015093D01*
X5333660Y-12015093D02*
X5324136Y-12053188D01*
X5324136Y-12053188D02*
X5314612Y-12072235D01*
X5314612Y-12072235D02*
X5305088Y-12081759D01*
X5305088Y-12081759D02*
X5286041Y-12091283D01*
X5286041Y-12091283D02*
X5266993Y-12091283D01*
X5266993Y-12091283D02*
X5247946Y-12081759D01*
X5247946Y-12081759D02*
X5238422Y-12072235D01*
X5238422Y-12072235D02*
X5228898Y-12053188D01*
X5228898Y-12053188D02*
X5219374Y-12015093D01*
X5219374Y-12015093D02*
X5219374Y-11967473D01*
X5219374Y-11967473D02*
X5228898Y-11929378D01*
X5228898Y-11929378D02*
X5238422Y-11910331D01*
X5238422Y-11910331D02*
X5247946Y-11900807D01*
X5247946Y-11900807D02*
X5266993Y-11891283D01*
X5524136Y-12091283D02*
X5409850Y-12091283D01*
X5466993Y-12091283D02*
X5466993Y-11891283D01*
X5466993Y-11891283D02*
X5447946Y-11919854D01*
X5447946Y-11919854D02*
X5428898Y-11938902D01*
X5428898Y-11938902D02*
X5409850Y-11948426D01*
X5619374Y-12091283D02*
X5657469Y-12091283D01*
X5657469Y-12091283D02*
X5676517Y-12081759D01*
X5676517Y-12081759D02*
X5686041Y-12072235D01*
X5686041Y-12072235D02*
X5705088Y-12043664D01*
X5705088Y-12043664D02*
X5714612Y-12005569D01*
X5714612Y-12005569D02*
X5714612Y-11929378D01*
X5714612Y-11929378D02*
X5705088Y-11910331D01*
X5705088Y-11910331D02*
X5695565Y-11900807D01*
X5695565Y-11900807D02*
X5676517Y-11891283D01*
X5676517Y-11891283D02*
X5638422Y-11891283D01*
X5638422Y-11891283D02*
X5619374Y-11900807D01*
X5619374Y-11900807D02*
X5609850Y-11910331D01*
X5609850Y-11910331D02*
X5600326Y-11929378D01*
X5600326Y-11929378D02*
X5600326Y-11976997D01*
X5600326Y-11976997D02*
X5609850Y-11996045D01*
X5609850Y-11996045D02*
X5619374Y-12005569D01*
X5619374Y-12005569D02*
X5638422Y-12015093D01*
X5638422Y-12015093D02*
X5676517Y-12015093D01*
X5676517Y-12015093D02*
X5695565Y-12005569D01*
X5695565Y-12005569D02*
X5705088Y-11996045D01*
X5705088Y-11996045D02*
X5714612Y-11976997D01*
X5781279Y-11891283D02*
X5914612Y-11891283D01*
X5914612Y-11891283D02*
X5828898Y-12091283D01*
X5981279Y-11891283D02*
X5981279Y-11929378D01*
X6057469Y-11891283D02*
X6057469Y-11929378D01*
X6352708Y-12167473D02*
X6343184Y-12157950D01*
X6343184Y-12157950D02*
X6324136Y-12129378D01*
X6324136Y-12129378D02*
X6314612Y-12110331D01*
X6314612Y-12110331D02*
X6305088Y-12081759D01*
X6305088Y-12081759D02*
X6295565Y-12034140D01*
X6295565Y-12034140D02*
X6295565Y-11996045D01*
X6295565Y-11996045D02*
X6305088Y-11948426D01*
X6305088Y-11948426D02*
X6314612Y-11919854D01*
X6314612Y-11919854D02*
X6324136Y-11900807D01*
X6324136Y-11900807D02*
X6343184Y-11872235D01*
X6343184Y-11872235D02*
X6352708Y-11862712D01*
X6514612Y-11957950D02*
X6514612Y-12091283D01*
X6466993Y-11881759D02*
X6419374Y-12024616D01*
X6419374Y-12024616D02*
X6543184Y-12024616D01*
X6771755Y-12091283D02*
X6771755Y-11891283D01*
X6857469Y-12091283D02*
X6857469Y-11986521D01*
X6857469Y-11986521D02*
X6847946Y-11967473D01*
X6847946Y-11967473D02*
X6828898Y-11957950D01*
X6828898Y-11957950D02*
X6800327Y-11957950D01*
X6800327Y-11957950D02*
X6781279Y-11967473D01*
X6781279Y-11967473D02*
X6771755Y-11976997D01*
X6981279Y-12091283D02*
X6962231Y-12081759D01*
X6962231Y-12081759D02*
X6952708Y-12072235D01*
X6952708Y-12072235D02*
X6943184Y-12053188D01*
X6943184Y-12053188D02*
X6943184Y-11996045D01*
X6943184Y-11996045D02*
X6952708Y-11976997D01*
X6952708Y-11976997D02*
X6962231Y-11967473D01*
X6962231Y-11967473D02*
X6981279Y-11957950D01*
X6981279Y-11957950D02*
X7009850Y-11957950D01*
X7009850Y-11957950D02*
X7028898Y-11967473D01*
X7028898Y-11967473D02*
X7038422Y-11976997D01*
X7038422Y-11976997D02*
X7047946Y-11996045D01*
X7047946Y-11996045D02*
X7047946Y-12053188D01*
X7047946Y-12053188D02*
X7038422Y-12072235D01*
X7038422Y-12072235D02*
X7028898Y-12081759D01*
X7028898Y-12081759D02*
X7009850Y-12091283D01*
X7009850Y-12091283D02*
X6981279Y-12091283D01*
X7162231Y-12091283D02*
X7143184Y-12081759D01*
X7143184Y-12081759D02*
X7133660Y-12062712D01*
X7133660Y-12062712D02*
X7133660Y-11891283D01*
X7314612Y-12081759D02*
X7295565Y-12091283D01*
X7295565Y-12091283D02*
X7257469Y-12091283D01*
X7257469Y-12091283D02*
X7238422Y-12081759D01*
X7238422Y-12081759D02*
X7228898Y-12062712D01*
X7228898Y-12062712D02*
X7228898Y-11986521D01*
X7228898Y-11986521D02*
X7238422Y-11967473D01*
X7238422Y-11967473D02*
X7257469Y-11957950D01*
X7257469Y-11957950D02*
X7295565Y-11957950D01*
X7295565Y-11957950D02*
X7314612Y-11967473D01*
X7314612Y-11967473D02*
X7324136Y-11986521D01*
X7324136Y-11986521D02*
X7324136Y-12005569D01*
X7324136Y-12005569D02*
X7228898Y-12024616D01*
X7400327Y-12081759D02*
X7419374Y-12091283D01*
X7419374Y-12091283D02*
X7457469Y-12091283D01*
X7457469Y-12091283D02*
X7476517Y-12081759D01*
X7476517Y-12081759D02*
X7486041Y-12062712D01*
X7486041Y-12062712D02*
X7486041Y-12053188D01*
X7486041Y-12053188D02*
X7476517Y-12034140D01*
X7476517Y-12034140D02*
X7457469Y-12024616D01*
X7457469Y-12024616D02*
X7428898Y-12024616D01*
X7428898Y-12024616D02*
X7409850Y-12015093D01*
X7409850Y-12015093D02*
X7400327Y-11996045D01*
X7400327Y-11996045D02*
X7400327Y-11986521D01*
X7400327Y-11986521D02*
X7409850Y-11967473D01*
X7409850Y-11967473D02*
X7428898Y-11957950D01*
X7428898Y-11957950D02*
X7457469Y-11957950D01*
X7457469Y-11957950D02*
X7476517Y-11967473D01*
X7552708Y-12167473D02*
X7562231Y-12157950D01*
X7562231Y-12157950D02*
X7581279Y-12129378D01*
X7581279Y-12129378D02*
X7590803Y-12110331D01*
X7590803Y-12110331D02*
X7600327Y-12081759D01*
X7600327Y-12081759D02*
X7609850Y-12034140D01*
X7609850Y-12034140D02*
X7609850Y-11996045D01*
X7609850Y-11996045D02*
X7600327Y-11948426D01*
X7600327Y-11948426D02*
X7590803Y-11919854D01*
X7590803Y-11919854D02*
X7581279Y-11900807D01*
X7581279Y-11900807D02*
X7562231Y-11872235D01*
X7562231Y-11872235D02*
X7552708Y-11862712D01*
D14*
X2723035Y-12209189D02*
X2723035Y-12318409D01*
X2668425Y-12263799D02*
X2777645Y-12263799D01*
D11*
X3143183Y-12355283D02*
X3028898Y-12355283D01*
X3086040Y-12355283D02*
X3086040Y-12155283D01*
X3086040Y-12155283D02*
X3066993Y-12183854D01*
X3066993Y-12183854D02*
X3047945Y-12202902D01*
X3047945Y-12202902D02*
X3028898Y-12212426D01*
X3228898Y-12336235D02*
X3238421Y-12345759D01*
X3238421Y-12345759D02*
X3228898Y-12355283D01*
X3228898Y-12355283D02*
X3219374Y-12345759D01*
X3219374Y-12345759D02*
X3228898Y-12336235D01*
X3228898Y-12336235D02*
X3228898Y-12355283D01*
X3362231Y-12155283D02*
X3381279Y-12155283D01*
X3381279Y-12155283D02*
X3400326Y-12164807D01*
X3400326Y-12164807D02*
X3409850Y-12174331D01*
X3409850Y-12174331D02*
X3419374Y-12193378D01*
X3419374Y-12193378D02*
X3428898Y-12231473D01*
X3428898Y-12231473D02*
X3428898Y-12279093D01*
X3428898Y-12279093D02*
X3419374Y-12317188D01*
X3419374Y-12317188D02*
X3409850Y-12336235D01*
X3409850Y-12336235D02*
X3400326Y-12345759D01*
X3400326Y-12345759D02*
X3381279Y-12355283D01*
X3381279Y-12355283D02*
X3362231Y-12355283D01*
X3362231Y-12355283D02*
X3343183Y-12345759D01*
X3343183Y-12345759D02*
X3333660Y-12336235D01*
X3333660Y-12336235D02*
X3324136Y-12317188D01*
X3324136Y-12317188D02*
X3314612Y-12279093D01*
X3314612Y-12279093D02*
X3314612Y-12231473D01*
X3314612Y-12231473D02*
X3324136Y-12193378D01*
X3324136Y-12193378D02*
X3333660Y-12174331D01*
X3333660Y-12174331D02*
X3343183Y-12164807D01*
X3343183Y-12164807D02*
X3362231Y-12155283D01*
X3524136Y-12355283D02*
X3562231Y-12355283D01*
X3562231Y-12355283D02*
X3581279Y-12345759D01*
X3581279Y-12345759D02*
X3590802Y-12336235D01*
X3590802Y-12336235D02*
X3609850Y-12307664D01*
X3609850Y-12307664D02*
X3619374Y-12269569D01*
X3619374Y-12269569D02*
X3619374Y-12193378D01*
X3619374Y-12193378D02*
X3609850Y-12174331D01*
X3609850Y-12174331D02*
X3600326Y-12164807D01*
X3600326Y-12164807D02*
X3581279Y-12155283D01*
X3581279Y-12155283D02*
X3543183Y-12155283D01*
X3543183Y-12155283D02*
X3524136Y-12164807D01*
X3524136Y-12164807D02*
X3514612Y-12174331D01*
X3514612Y-12174331D02*
X3505088Y-12193378D01*
X3505088Y-12193378D02*
X3505088Y-12240997D01*
X3505088Y-12240997D02*
X3514612Y-12260045D01*
X3514612Y-12260045D02*
X3524136Y-12269569D01*
X3524136Y-12269569D02*
X3543183Y-12279093D01*
X3543183Y-12279093D02*
X3581279Y-12279093D01*
X3581279Y-12279093D02*
X3600326Y-12269569D01*
X3600326Y-12269569D02*
X3609850Y-12260045D01*
X3609850Y-12260045D02*
X3619374Y-12240997D01*
X3695564Y-12174331D02*
X3705088Y-12164807D01*
X3705088Y-12164807D02*
X3724136Y-12155283D01*
X3724136Y-12155283D02*
X3771755Y-12155283D01*
X3771755Y-12155283D02*
X3790802Y-12164807D01*
X3790802Y-12164807D02*
X3800326Y-12174331D01*
X3800326Y-12174331D02*
X3809850Y-12193378D01*
X3809850Y-12193378D02*
X3809850Y-12212426D01*
X3809850Y-12212426D02*
X3800326Y-12240997D01*
X3800326Y-12240997D02*
X3686041Y-12355283D01*
X3686041Y-12355283D02*
X3809850Y-12355283D01*
X3895564Y-12355283D02*
X3895564Y-12221950D01*
X3895564Y-12240997D02*
X3905088Y-12231473D01*
X3905088Y-12231473D02*
X3924136Y-12221950D01*
X3924136Y-12221950D02*
X3952707Y-12221950D01*
X3952707Y-12221950D02*
X3971755Y-12231473D01*
X3971755Y-12231473D02*
X3981279Y-12250521D01*
X3981279Y-12250521D02*
X3981279Y-12355283D01*
X3981279Y-12250521D02*
X3990802Y-12231473D01*
X3990802Y-12231473D02*
X4009850Y-12221950D01*
X4009850Y-12221950D02*
X4038421Y-12221950D01*
X4038421Y-12221950D02*
X4057469Y-12231473D01*
X4057469Y-12231473D02*
X4066993Y-12250521D01*
X4066993Y-12250521D02*
X4066993Y-12355283D01*
X4162231Y-12355283D02*
X4162231Y-12221950D01*
X4162231Y-12240997D02*
X4171755Y-12231473D01*
X4171755Y-12231473D02*
X4190802Y-12221950D01*
X4190802Y-12221950D02*
X4219374Y-12221950D01*
X4219374Y-12221950D02*
X4238422Y-12231473D01*
X4238422Y-12231473D02*
X4247945Y-12250521D01*
X4247945Y-12250521D02*
X4247945Y-12355283D01*
X4247945Y-12250521D02*
X4257469Y-12231473D01*
X4257469Y-12231473D02*
X4276517Y-12221950D01*
X4276517Y-12221950D02*
X4305088Y-12221950D01*
X4305088Y-12221950D02*
X4324136Y-12231473D01*
X4324136Y-12231473D02*
X4333660Y-12250521D01*
X4333660Y-12250521D02*
X4333660Y-12355283D01*
X4724136Y-12145759D02*
X4552707Y-12402902D01*
X4981279Y-12155283D02*
X5000327Y-12155283D01*
X5000327Y-12155283D02*
X5019374Y-12164807D01*
X5019374Y-12164807D02*
X5028898Y-12174331D01*
X5028898Y-12174331D02*
X5038422Y-12193378D01*
X5038422Y-12193378D02*
X5047946Y-12231473D01*
X5047946Y-12231473D02*
X5047946Y-12279093D01*
X5047946Y-12279093D02*
X5038422Y-12317188D01*
X5038422Y-12317188D02*
X5028898Y-12336235D01*
X5028898Y-12336235D02*
X5019374Y-12345759D01*
X5019374Y-12345759D02*
X5000327Y-12355283D01*
X5000327Y-12355283D02*
X4981279Y-12355283D01*
X4981279Y-12355283D02*
X4962231Y-12345759D01*
X4962231Y-12345759D02*
X4952707Y-12336235D01*
X4952707Y-12336235D02*
X4943184Y-12317188D01*
X4943184Y-12317188D02*
X4933660Y-12279093D01*
X4933660Y-12279093D02*
X4933660Y-12231473D01*
X4933660Y-12231473D02*
X4943184Y-12193378D01*
X4943184Y-12193378D02*
X4952707Y-12174331D01*
X4952707Y-12174331D02*
X4962231Y-12164807D01*
X4962231Y-12164807D02*
X4981279Y-12155283D01*
X5133660Y-12336235D02*
X5143184Y-12345759D01*
X5143184Y-12345759D02*
X5133660Y-12355283D01*
X5133660Y-12355283D02*
X5124136Y-12345759D01*
X5124136Y-12345759D02*
X5133660Y-12336235D01*
X5133660Y-12336235D02*
X5133660Y-12355283D01*
X5266993Y-12155283D02*
X5286041Y-12155283D01*
X5286041Y-12155283D02*
X5305088Y-12164807D01*
X5305088Y-12164807D02*
X5314612Y-12174331D01*
X5314612Y-12174331D02*
X5324136Y-12193378D01*
X5324136Y-12193378D02*
X5333660Y-12231473D01*
X5333660Y-12231473D02*
X5333660Y-12279093D01*
X5333660Y-12279093D02*
X5324136Y-12317188D01*
X5324136Y-12317188D02*
X5314612Y-12336235D01*
X5314612Y-12336235D02*
X5305088Y-12345759D01*
X5305088Y-12345759D02*
X5286041Y-12355283D01*
X5286041Y-12355283D02*
X5266993Y-12355283D01*
X5266993Y-12355283D02*
X5247946Y-12345759D01*
X5247946Y-12345759D02*
X5238422Y-12336235D01*
X5238422Y-12336235D02*
X5228898Y-12317188D01*
X5228898Y-12317188D02*
X5219374Y-12279093D01*
X5219374Y-12279093D02*
X5219374Y-12231473D01*
X5219374Y-12231473D02*
X5228898Y-12193378D01*
X5228898Y-12193378D02*
X5238422Y-12174331D01*
X5238422Y-12174331D02*
X5247946Y-12164807D01*
X5247946Y-12164807D02*
X5266993Y-12155283D01*
X5505088Y-12221950D02*
X5505088Y-12355283D01*
X5457469Y-12145759D02*
X5409850Y-12288616D01*
X5409850Y-12288616D02*
X5533660Y-12288616D01*
X5590803Y-12155283D02*
X5714612Y-12155283D01*
X5714612Y-12155283D02*
X5647945Y-12231473D01*
X5647945Y-12231473D02*
X5676517Y-12231473D01*
X5676517Y-12231473D02*
X5695565Y-12240997D01*
X5695565Y-12240997D02*
X5705088Y-12250521D01*
X5705088Y-12250521D02*
X5714612Y-12269569D01*
X5714612Y-12269569D02*
X5714612Y-12317188D01*
X5714612Y-12317188D02*
X5705088Y-12336235D01*
X5705088Y-12336235D02*
X5695565Y-12345759D01*
X5695565Y-12345759D02*
X5676517Y-12355283D01*
X5676517Y-12355283D02*
X5619374Y-12355283D01*
X5619374Y-12355283D02*
X5600326Y-12345759D01*
X5600326Y-12345759D02*
X5590803Y-12336235D01*
X5838422Y-12155283D02*
X5857469Y-12155283D01*
X5857469Y-12155283D02*
X5876517Y-12164807D01*
X5876517Y-12164807D02*
X5886041Y-12174331D01*
X5886041Y-12174331D02*
X5895565Y-12193378D01*
X5895565Y-12193378D02*
X5905088Y-12231473D01*
X5905088Y-12231473D02*
X5905088Y-12279093D01*
X5905088Y-12279093D02*
X5895565Y-12317188D01*
X5895565Y-12317188D02*
X5886041Y-12336235D01*
X5886041Y-12336235D02*
X5876517Y-12345759D01*
X5876517Y-12345759D02*
X5857469Y-12355283D01*
X5857469Y-12355283D02*
X5838422Y-12355283D01*
X5838422Y-12355283D02*
X5819374Y-12345759D01*
X5819374Y-12345759D02*
X5809850Y-12336235D01*
X5809850Y-12336235D02*
X5800326Y-12317188D01*
X5800326Y-12317188D02*
X5790803Y-12279093D01*
X5790803Y-12279093D02*
X5790803Y-12231473D01*
X5790803Y-12231473D02*
X5800326Y-12193378D01*
X5800326Y-12193378D02*
X5809850Y-12174331D01*
X5809850Y-12174331D02*
X5819374Y-12164807D01*
X5819374Y-12164807D02*
X5838422Y-12155283D01*
X5981279Y-12155283D02*
X5981279Y-12193378D01*
X6057469Y-12155283D02*
X6057469Y-12193378D01*
X6352708Y-12431473D02*
X6343184Y-12421950D01*
X6343184Y-12421950D02*
X6324136Y-12393378D01*
X6324136Y-12393378D02*
X6314612Y-12374331D01*
X6314612Y-12374331D02*
X6305088Y-12345759D01*
X6305088Y-12345759D02*
X6295565Y-12298140D01*
X6295565Y-12298140D02*
X6295565Y-12260045D01*
X6295565Y-12260045D02*
X6305088Y-12212426D01*
X6305088Y-12212426D02*
X6314612Y-12183854D01*
X6314612Y-12183854D02*
X6324136Y-12164807D01*
X6324136Y-12164807D02*
X6343184Y-12136235D01*
X6343184Y-12136235D02*
X6352708Y-12126712D01*
X6514612Y-12221950D02*
X6514612Y-12355283D01*
X6466993Y-12145759D02*
X6419374Y-12288616D01*
X6419374Y-12288616D02*
X6543184Y-12288616D01*
X6647946Y-12240997D02*
X6628898Y-12231473D01*
X6628898Y-12231473D02*
X6619374Y-12221950D01*
X6619374Y-12221950D02*
X6609850Y-12202902D01*
X6609850Y-12202902D02*
X6609850Y-12193378D01*
X6609850Y-12193378D02*
X6619374Y-12174331D01*
X6619374Y-12174331D02*
X6628898Y-12164807D01*
X6628898Y-12164807D02*
X6647946Y-12155283D01*
X6647946Y-12155283D02*
X6686041Y-12155283D01*
X6686041Y-12155283D02*
X6705088Y-12164807D01*
X6705088Y-12164807D02*
X6714612Y-12174331D01*
X6714612Y-12174331D02*
X6724136Y-12193378D01*
X6724136Y-12193378D02*
X6724136Y-12202902D01*
X6724136Y-12202902D02*
X6714612Y-12221950D01*
X6714612Y-12221950D02*
X6705088Y-12231473D01*
X6705088Y-12231473D02*
X6686041Y-12240997D01*
X6686041Y-12240997D02*
X6647946Y-12240997D01*
X6647946Y-12240997D02*
X6628898Y-12250521D01*
X6628898Y-12250521D02*
X6619374Y-12260045D01*
X6619374Y-12260045D02*
X6609850Y-12279093D01*
X6609850Y-12279093D02*
X6609850Y-12317188D01*
X6609850Y-12317188D02*
X6619374Y-12336235D01*
X6619374Y-12336235D02*
X6628898Y-12345759D01*
X6628898Y-12345759D02*
X6647946Y-12355283D01*
X6647946Y-12355283D02*
X6686041Y-12355283D01*
X6686041Y-12355283D02*
X6705088Y-12345759D01*
X6705088Y-12345759D02*
X6714612Y-12336235D01*
X6714612Y-12336235D02*
X6724136Y-12317188D01*
X6724136Y-12317188D02*
X6724136Y-12279093D01*
X6724136Y-12279093D02*
X6714612Y-12260045D01*
X6714612Y-12260045D02*
X6705088Y-12250521D01*
X6705088Y-12250521D02*
X6686041Y-12240997D01*
X6962231Y-12355283D02*
X6962231Y-12155283D01*
X7047946Y-12355283D02*
X7047946Y-12250521D01*
X7047946Y-12250521D02*
X7038422Y-12231473D01*
X7038422Y-12231473D02*
X7019374Y-12221950D01*
X7019374Y-12221950D02*
X6990803Y-12221950D01*
X6990803Y-12221950D02*
X6971755Y-12231473D01*
X6971755Y-12231473D02*
X6962231Y-12240997D01*
X7171755Y-12355283D02*
X7152708Y-12345759D01*
X7152708Y-12345759D02*
X7143184Y-12336235D01*
X7143184Y-12336235D02*
X7133660Y-12317188D01*
X7133660Y-12317188D02*
X7133660Y-12260045D01*
X7133660Y-12260045D02*
X7143184Y-12240997D01*
X7143184Y-12240997D02*
X7152708Y-12231473D01*
X7152708Y-12231473D02*
X7171755Y-12221950D01*
X7171755Y-12221950D02*
X7200327Y-12221950D01*
X7200327Y-12221950D02*
X7219374Y-12231473D01*
X7219374Y-12231473D02*
X7228898Y-12240997D01*
X7228898Y-12240997D02*
X7238422Y-12260045D01*
X7238422Y-12260045D02*
X7238422Y-12317188D01*
X7238422Y-12317188D02*
X7228898Y-12336235D01*
X7228898Y-12336235D02*
X7219374Y-12345759D01*
X7219374Y-12345759D02*
X7200327Y-12355283D01*
X7200327Y-12355283D02*
X7171755Y-12355283D01*
X7352708Y-12355283D02*
X7333660Y-12345759D01*
X7333660Y-12345759D02*
X7324136Y-12326712D01*
X7324136Y-12326712D02*
X7324136Y-12155283D01*
X7505089Y-12345759D02*
X7486041Y-12355283D01*
X7486041Y-12355283D02*
X7447946Y-12355283D01*
X7447946Y-12355283D02*
X7428898Y-12345759D01*
X7428898Y-12345759D02*
X7419374Y-12326712D01*
X7419374Y-12326712D02*
X7419374Y-12250521D01*
X7419374Y-12250521D02*
X7428898Y-12231473D01*
X7428898Y-12231473D02*
X7447946Y-12221950D01*
X7447946Y-12221950D02*
X7486041Y-12221950D01*
X7486041Y-12221950D02*
X7505089Y-12231473D01*
X7505089Y-12231473D02*
X7514612Y-12250521D01*
X7514612Y-12250521D02*
X7514612Y-12269569D01*
X7514612Y-12269569D02*
X7419374Y-12288616D01*
X7590803Y-12345759D02*
X7609850Y-12355283D01*
X7609850Y-12355283D02*
X7647946Y-12355283D01*
X7647946Y-12355283D02*
X7666993Y-12345759D01*
X7666993Y-12345759D02*
X7676517Y-12326712D01*
X7676517Y-12326712D02*
X7676517Y-12317188D01*
X7676517Y-12317188D02*
X7666993Y-12298140D01*
X7666993Y-12298140D02*
X7647946Y-12288616D01*
X7647946Y-12288616D02*
X7619374Y-12288616D01*
X7619374Y-12288616D02*
X7600327Y-12279093D01*
X7600327Y-12279093D02*
X7590803Y-12260045D01*
X7590803Y-12260045D02*
X7590803Y-12250521D01*
X7590803Y-12250521D02*
X7600327Y-12231473D01*
X7600327Y-12231473D02*
X7619374Y-12221950D01*
X7619374Y-12221950D02*
X7647946Y-12221950D01*
X7647946Y-12221950D02*
X7666993Y-12231473D01*
X7743184Y-12431473D02*
X7752708Y-12421950D01*
X7752708Y-12421950D02*
X7771755Y-12393378D01*
X7771755Y-12393378D02*
X7781279Y-12374331D01*
X7781279Y-12374331D02*
X7790803Y-12345759D01*
X7790803Y-12345759D02*
X7800327Y-12298140D01*
X7800327Y-12298140D02*
X7800327Y-12260045D01*
X7800327Y-12260045D02*
X7790803Y-12212426D01*
X7790803Y-12212426D02*
X7781279Y-12183854D01*
X7781279Y-12183854D02*
X7771755Y-12164807D01*
X7771755Y-12164807D02*
X7752708Y-12136235D01*
X7752708Y-12136235D02*
X7743184Y-12126712D01*
D15*
X2758607Y-12573762D02*
X2758607Y-12481837D01*
X2666682Y-12481837D01*
X2666682Y-12573762D01*
X2758607Y-12573762D01*
D11*
X3143183Y-12619283D02*
X3028898Y-12619283D01*
X3086040Y-12619283D02*
X3086040Y-12419283D01*
X3086040Y-12419283D02*
X3066993Y-12447854D01*
X3066993Y-12447854D02*
X3047945Y-12466902D01*
X3047945Y-12466902D02*
X3028898Y-12476426D01*
X3228898Y-12600235D02*
X3238421Y-12609759D01*
X3238421Y-12609759D02*
X3228898Y-12619283D01*
X3228898Y-12619283D02*
X3219374Y-12609759D01*
X3219374Y-12609759D02*
X3228898Y-12600235D01*
X3228898Y-12600235D02*
X3228898Y-12619283D01*
X3305088Y-12419283D02*
X3428898Y-12419283D01*
X3428898Y-12419283D02*
X3362231Y-12495473D01*
X3362231Y-12495473D02*
X3390802Y-12495473D01*
X3390802Y-12495473D02*
X3409850Y-12504997D01*
X3409850Y-12504997D02*
X3419374Y-12514521D01*
X3419374Y-12514521D02*
X3428898Y-12533569D01*
X3428898Y-12533569D02*
X3428898Y-12581188D01*
X3428898Y-12581188D02*
X3419374Y-12600235D01*
X3419374Y-12600235D02*
X3409850Y-12609759D01*
X3409850Y-12609759D02*
X3390802Y-12619283D01*
X3390802Y-12619283D02*
X3333660Y-12619283D01*
X3333660Y-12619283D02*
X3314612Y-12609759D01*
X3314612Y-12609759D02*
X3305088Y-12600235D01*
X3552707Y-12419283D02*
X3571755Y-12419283D01*
X3571755Y-12419283D02*
X3590802Y-12428807D01*
X3590802Y-12428807D02*
X3600326Y-12438331D01*
X3600326Y-12438331D02*
X3609850Y-12457378D01*
X3609850Y-12457378D02*
X3619374Y-12495473D01*
X3619374Y-12495473D02*
X3619374Y-12543093D01*
X3619374Y-12543093D02*
X3609850Y-12581188D01*
X3609850Y-12581188D02*
X3600326Y-12600235D01*
X3600326Y-12600235D02*
X3590802Y-12609759D01*
X3590802Y-12609759D02*
X3571755Y-12619283D01*
X3571755Y-12619283D02*
X3552707Y-12619283D01*
X3552707Y-12619283D02*
X3533660Y-12609759D01*
X3533660Y-12609759D02*
X3524136Y-12600235D01*
X3524136Y-12600235D02*
X3514612Y-12581188D01*
X3514612Y-12581188D02*
X3505088Y-12543093D01*
X3505088Y-12543093D02*
X3505088Y-12495473D01*
X3505088Y-12495473D02*
X3514612Y-12457378D01*
X3514612Y-12457378D02*
X3524136Y-12438331D01*
X3524136Y-12438331D02*
X3533660Y-12428807D01*
X3533660Y-12428807D02*
X3552707Y-12419283D01*
X3743183Y-12419283D02*
X3762231Y-12419283D01*
X3762231Y-12419283D02*
X3781279Y-12428807D01*
X3781279Y-12428807D02*
X3790802Y-12438331D01*
X3790802Y-12438331D02*
X3800326Y-12457378D01*
X3800326Y-12457378D02*
X3809850Y-12495473D01*
X3809850Y-12495473D02*
X3809850Y-12543093D01*
X3809850Y-12543093D02*
X3800326Y-12581188D01*
X3800326Y-12581188D02*
X3790802Y-12600235D01*
X3790802Y-12600235D02*
X3781279Y-12609759D01*
X3781279Y-12609759D02*
X3762231Y-12619283D01*
X3762231Y-12619283D02*
X3743183Y-12619283D01*
X3743183Y-12619283D02*
X3724136Y-12609759D01*
X3724136Y-12609759D02*
X3714612Y-12600235D01*
X3714612Y-12600235D02*
X3705088Y-12581188D01*
X3705088Y-12581188D02*
X3695564Y-12543093D01*
X3695564Y-12543093D02*
X3695564Y-12495473D01*
X3695564Y-12495473D02*
X3705088Y-12457378D01*
X3705088Y-12457378D02*
X3714612Y-12438331D01*
X3714612Y-12438331D02*
X3724136Y-12428807D01*
X3724136Y-12428807D02*
X3743183Y-12419283D01*
X3895564Y-12619283D02*
X3895564Y-12485950D01*
X3895564Y-12504997D02*
X3905088Y-12495473D01*
X3905088Y-12495473D02*
X3924136Y-12485950D01*
X3924136Y-12485950D02*
X3952707Y-12485950D01*
X3952707Y-12485950D02*
X3971755Y-12495473D01*
X3971755Y-12495473D02*
X3981279Y-12514521D01*
X3981279Y-12514521D02*
X3981279Y-12619283D01*
X3981279Y-12514521D02*
X3990802Y-12495473D01*
X3990802Y-12495473D02*
X4009850Y-12485950D01*
X4009850Y-12485950D02*
X4038421Y-12485950D01*
X4038421Y-12485950D02*
X4057469Y-12495473D01*
X4057469Y-12495473D02*
X4066993Y-12514521D01*
X4066993Y-12514521D02*
X4066993Y-12619283D01*
X4162231Y-12619283D02*
X4162231Y-12485950D01*
X4162231Y-12504997D02*
X4171755Y-12495473D01*
X4171755Y-12495473D02*
X4190802Y-12485950D01*
X4190802Y-12485950D02*
X4219374Y-12485950D01*
X4219374Y-12485950D02*
X4238422Y-12495473D01*
X4238422Y-12495473D02*
X4247945Y-12514521D01*
X4247945Y-12514521D02*
X4247945Y-12619283D01*
X4247945Y-12514521D02*
X4257469Y-12495473D01*
X4257469Y-12495473D02*
X4276517Y-12485950D01*
X4276517Y-12485950D02*
X4305088Y-12485950D01*
X4305088Y-12485950D02*
X4324136Y-12495473D01*
X4324136Y-12495473D02*
X4333660Y-12514521D01*
X4333660Y-12514521D02*
X4333660Y-12619283D01*
X4724136Y-12409759D02*
X4552707Y-12666902D01*
X4981279Y-12419283D02*
X5000327Y-12419283D01*
X5000327Y-12419283D02*
X5019374Y-12428807D01*
X5019374Y-12428807D02*
X5028898Y-12438331D01*
X5028898Y-12438331D02*
X5038422Y-12457378D01*
X5038422Y-12457378D02*
X5047946Y-12495473D01*
X5047946Y-12495473D02*
X5047946Y-12543093D01*
X5047946Y-12543093D02*
X5038422Y-12581188D01*
X5038422Y-12581188D02*
X5028898Y-12600235D01*
X5028898Y-12600235D02*
X5019374Y-12609759D01*
X5019374Y-12609759D02*
X5000327Y-12619283D01*
X5000327Y-12619283D02*
X4981279Y-12619283D01*
X4981279Y-12619283D02*
X4962231Y-12609759D01*
X4962231Y-12609759D02*
X4952707Y-12600235D01*
X4952707Y-12600235D02*
X4943184Y-12581188D01*
X4943184Y-12581188D02*
X4933660Y-12543093D01*
X4933660Y-12543093D02*
X4933660Y-12495473D01*
X4933660Y-12495473D02*
X4943184Y-12457378D01*
X4943184Y-12457378D02*
X4952707Y-12438331D01*
X4952707Y-12438331D02*
X4962231Y-12428807D01*
X4962231Y-12428807D02*
X4981279Y-12419283D01*
X5133660Y-12600235D02*
X5143184Y-12609759D01*
X5143184Y-12609759D02*
X5133660Y-12619283D01*
X5133660Y-12619283D02*
X5124136Y-12609759D01*
X5124136Y-12609759D02*
X5133660Y-12600235D01*
X5133660Y-12600235D02*
X5133660Y-12619283D01*
X5266993Y-12419283D02*
X5286041Y-12419283D01*
X5286041Y-12419283D02*
X5305088Y-12428807D01*
X5305088Y-12428807D02*
X5314612Y-12438331D01*
X5314612Y-12438331D02*
X5324136Y-12457378D01*
X5324136Y-12457378D02*
X5333660Y-12495473D01*
X5333660Y-12495473D02*
X5333660Y-12543093D01*
X5333660Y-12543093D02*
X5324136Y-12581188D01*
X5324136Y-12581188D02*
X5314612Y-12600235D01*
X5314612Y-12600235D02*
X5305088Y-12609759D01*
X5305088Y-12609759D02*
X5286041Y-12619283D01*
X5286041Y-12619283D02*
X5266993Y-12619283D01*
X5266993Y-12619283D02*
X5247946Y-12609759D01*
X5247946Y-12609759D02*
X5238422Y-12600235D01*
X5238422Y-12600235D02*
X5228898Y-12581188D01*
X5228898Y-12581188D02*
X5219374Y-12543093D01*
X5219374Y-12543093D02*
X5219374Y-12495473D01*
X5219374Y-12495473D02*
X5228898Y-12457378D01*
X5228898Y-12457378D02*
X5238422Y-12438331D01*
X5238422Y-12438331D02*
X5247946Y-12428807D01*
X5247946Y-12428807D02*
X5266993Y-12419283D01*
X5514612Y-12419283D02*
X5419374Y-12419283D01*
X5419374Y-12419283D02*
X5409850Y-12514521D01*
X5409850Y-12514521D02*
X5419374Y-12504997D01*
X5419374Y-12504997D02*
X5438422Y-12495473D01*
X5438422Y-12495473D02*
X5486041Y-12495473D01*
X5486041Y-12495473D02*
X5505088Y-12504997D01*
X5505088Y-12504997D02*
X5514612Y-12514521D01*
X5514612Y-12514521D02*
X5524136Y-12533569D01*
X5524136Y-12533569D02*
X5524136Y-12581188D01*
X5524136Y-12581188D02*
X5514612Y-12600235D01*
X5514612Y-12600235D02*
X5505088Y-12609759D01*
X5505088Y-12609759D02*
X5486041Y-12619283D01*
X5486041Y-12619283D02*
X5438422Y-12619283D01*
X5438422Y-12619283D02*
X5419374Y-12609759D01*
X5419374Y-12609759D02*
X5409850Y-12600235D01*
X5714612Y-12619283D02*
X5600326Y-12619283D01*
X5657469Y-12619283D02*
X5657469Y-12419283D01*
X5657469Y-12419283D02*
X5638422Y-12447854D01*
X5638422Y-12447854D02*
X5619374Y-12466902D01*
X5619374Y-12466902D02*
X5600326Y-12476426D01*
X5790803Y-12438331D02*
X5800326Y-12428807D01*
X5800326Y-12428807D02*
X5819374Y-12419283D01*
X5819374Y-12419283D02*
X5866993Y-12419283D01*
X5866993Y-12419283D02*
X5886041Y-12428807D01*
X5886041Y-12428807D02*
X5895565Y-12438331D01*
X5895565Y-12438331D02*
X5905088Y-12457378D01*
X5905088Y-12457378D02*
X5905088Y-12476426D01*
X5905088Y-12476426D02*
X5895565Y-12504997D01*
X5895565Y-12504997D02*
X5781279Y-12619283D01*
X5781279Y-12619283D02*
X5905088Y-12619283D01*
X5981279Y-12419283D02*
X5981279Y-12457378D01*
X6057469Y-12419283D02*
X6057469Y-12457378D01*
X6352708Y-12695473D02*
X6343184Y-12685950D01*
X6343184Y-12685950D02*
X6324136Y-12657378D01*
X6324136Y-12657378D02*
X6314612Y-12638331D01*
X6314612Y-12638331D02*
X6305088Y-12609759D01*
X6305088Y-12609759D02*
X6295565Y-12562140D01*
X6295565Y-12562140D02*
X6295565Y-12524045D01*
X6295565Y-12524045D02*
X6305088Y-12476426D01*
X6305088Y-12476426D02*
X6314612Y-12447854D01*
X6314612Y-12447854D02*
X6324136Y-12428807D01*
X6324136Y-12428807D02*
X6343184Y-12400235D01*
X6343184Y-12400235D02*
X6352708Y-12390712D01*
X6514612Y-12485950D02*
X6514612Y-12619283D01*
X6466993Y-12409759D02*
X6419374Y-12552616D01*
X6419374Y-12552616D02*
X6543184Y-12552616D01*
X6771755Y-12619283D02*
X6771755Y-12419283D01*
X6857469Y-12619283D02*
X6857469Y-12514521D01*
X6857469Y-12514521D02*
X6847946Y-12495473D01*
X6847946Y-12495473D02*
X6828898Y-12485950D01*
X6828898Y-12485950D02*
X6800327Y-12485950D01*
X6800327Y-12485950D02*
X6781279Y-12495473D01*
X6781279Y-12495473D02*
X6771755Y-12504997D01*
X6981279Y-12619283D02*
X6962231Y-12609759D01*
X6962231Y-12609759D02*
X6952708Y-12600235D01*
X6952708Y-12600235D02*
X6943184Y-12581188D01*
X6943184Y-12581188D02*
X6943184Y-12524045D01*
X6943184Y-12524045D02*
X6952708Y-12504997D01*
X6952708Y-12504997D02*
X6962231Y-12495473D01*
X6962231Y-12495473D02*
X6981279Y-12485950D01*
X6981279Y-12485950D02*
X7009850Y-12485950D01*
X7009850Y-12485950D02*
X7028898Y-12495473D01*
X7028898Y-12495473D02*
X7038422Y-12504997D01*
X7038422Y-12504997D02*
X7047946Y-12524045D01*
X7047946Y-12524045D02*
X7047946Y-12581188D01*
X7047946Y-12581188D02*
X7038422Y-12600235D01*
X7038422Y-12600235D02*
X7028898Y-12609759D01*
X7028898Y-12609759D02*
X7009850Y-12619283D01*
X7009850Y-12619283D02*
X6981279Y-12619283D01*
X7162231Y-12619283D02*
X7143184Y-12609759D01*
X7143184Y-12609759D02*
X7133660Y-12590712D01*
X7133660Y-12590712D02*
X7133660Y-12419283D01*
X7314612Y-12609759D02*
X7295565Y-12619283D01*
X7295565Y-12619283D02*
X7257469Y-12619283D01*
X7257469Y-12619283D02*
X7238422Y-12609759D01*
X7238422Y-12609759D02*
X7228898Y-12590712D01*
X7228898Y-12590712D02*
X7228898Y-12514521D01*
X7228898Y-12514521D02*
X7238422Y-12495473D01*
X7238422Y-12495473D02*
X7257469Y-12485950D01*
X7257469Y-12485950D02*
X7295565Y-12485950D01*
X7295565Y-12485950D02*
X7314612Y-12495473D01*
X7314612Y-12495473D02*
X7324136Y-12514521D01*
X7324136Y-12514521D02*
X7324136Y-12533569D01*
X7324136Y-12533569D02*
X7228898Y-12552616D01*
X7400327Y-12609759D02*
X7419374Y-12619283D01*
X7419374Y-12619283D02*
X7457469Y-12619283D01*
X7457469Y-12619283D02*
X7476517Y-12609759D01*
X7476517Y-12609759D02*
X7486041Y-12590712D01*
X7486041Y-12590712D02*
X7486041Y-12581188D01*
X7486041Y-12581188D02*
X7476517Y-12562140D01*
X7476517Y-12562140D02*
X7457469Y-12552616D01*
X7457469Y-12552616D02*
X7428898Y-12552616D01*
X7428898Y-12552616D02*
X7409850Y-12543093D01*
X7409850Y-12543093D02*
X7400327Y-12524045D01*
X7400327Y-12524045D02*
X7400327Y-12514521D01*
X7400327Y-12514521D02*
X7409850Y-12495473D01*
X7409850Y-12495473D02*
X7428898Y-12485950D01*
X7428898Y-12485950D02*
X7457469Y-12485950D01*
X7457469Y-12485950D02*
X7476517Y-12495473D01*
X7552708Y-12695473D02*
X7562231Y-12685950D01*
X7562231Y-12685950D02*
X7581279Y-12657378D01*
X7581279Y-12657378D02*
X7590803Y-12638331D01*
X7590803Y-12638331D02*
X7600327Y-12609759D01*
X7600327Y-12609759D02*
X7609850Y-12562140D01*
X7609850Y-12562140D02*
X7609850Y-12524045D01*
X7609850Y-12524045D02*
X7600327Y-12476426D01*
X7600327Y-12476426D02*
X7590803Y-12447854D01*
X7590803Y-12447854D02*
X7581279Y-12428807D01*
X7581279Y-12428807D02*
X7562231Y-12400235D01*
X7562231Y-12400235D02*
X7552708Y-12390712D01*
M02*
