M48
; DRILL file {KiCad 7.0.6} date Tue Oct  8 23:05:18 2024
; FORMAT={-:-/ absolute / metric / decimal}
; #@! TF.CreationDate,2024-10-08T23:05:18+02:00
; #@! TF.GenerationSoftware,Kicad,Pcbnew,7.0.6
; #@! TF.FileFunction,NonPlated,1,2,NPTH
FMAT,2
METRIC
; #@! TA.AperFunction,NonPlated,NPTH,ComponentDrill
T1C0.500
; #@! TA.AperFunction,NonPlated,NPTH,ComponentDrill
T2C0.850
; #@! TA.AperFunction,NonPlated,NPTH,ComponentDrill
T3C0.991
; #@! TA.AperFunction,NonPlated,NPTH,ComponentDrill
T4C1.702
; #@! TA.AperFunction,NonPlated,NPTH,ComponentDrill
T5C3.000
; #@! TA.AperFunction,NonPlated,NPTH,ComponentDrill
T6C3.429
%
G90
G05
T1
X149.1Y-73.74
X149.1Y-74.49
X149.1Y-75.24
X149.1Y-75.99
X149.1Y-76.74
X149.1Y-77.49
X149.1Y-78.24
X149.1Y-78.99
X149.1Y-79.74
X149.1Y-80.49
X149.1Y-80.49
X149.1Y-81.24
X149.12Y-55.1
X149.12Y-55.85
X149.12Y-56.6
X149.12Y-57.35
X149.12Y-58.1
X149.12Y-58.85
X149.12Y-59.6
X149.12Y-60.35
X149.12Y-61.1
X149.12Y-61.85
X149.12Y-61.85
X149.12Y-62.6
X154.1Y-73.74
X154.1Y-74.49
X154.1Y-75.24
X154.1Y-75.99
X154.1Y-76.74
X154.1Y-77.49
X154.1Y-78.24
X154.1Y-78.99
X154.1Y-79.74
X154.1Y-80.49
X154.1Y-80.49
X154.1Y-81.24
X154.12Y-55.1
X154.12Y-55.85
X154.12Y-56.6
X154.12Y-57.35
X154.12Y-58.1
X154.12Y-58.85
X154.12Y-59.6
X154.12Y-60.35
X154.12Y-61.1
X154.12Y-61.85
X154.12Y-61.85
X154.12Y-62.6
T2
X37.633Y-84.294
X39.24Y-86.827
X263.944Y-86.927
X265.552Y-84.394
T3
X60.532Y-93.047
X63.356Y-45.26
X63.356Y-62.26
X63.356Y-79.26
X80.988Y-88.017
X91.796Y-34.86
X91.796Y-51.86
X91.796Y-68.86
X109.796Y-28.86
X109.796Y-45.86
X109.796Y-62.86
X127.796Y-35.86
X127.796Y-52.86
X127.796Y-69.86
X145.796Y-47.86
X145.796Y-64.86
X145.796Y-81.86
X157.468Y-56.371
X157.468Y-73.371
X157.468Y-90.371
X185.908Y-35.971
X185.908Y-52.971
X185.908Y-69.971
X203.908Y-28.971
X203.908Y-45.971
X203.908Y-62.971
X221.908Y-34.971
X221.908Y-51.971
X221.908Y-68.971
X232.558Y-89.941
X239.908Y-36.971
X239.908Y-53.971
X239.908Y-70.971
X252.194Y-97.57
T4
X52.592Y-101.384
X62.561Y-96.736
X63.076Y-41.06
X63.076Y-58.06
X63.076Y-75.06
X71.16Y-94.015
X74.076Y-41.06
X74.076Y-58.06
X74.076Y-75.06
X81.076Y-39.06
X81.076Y-56.06
X81.076Y-73.06
X81.993Y-92.105
X92.076Y-39.06
X92.076Y-56.06
X92.076Y-73.06
X99.076Y-33.06
X99.076Y-50.06
X99.076Y-67.06
X110.076Y-33.06
X110.076Y-50.06
X110.076Y-67.06
X117.076Y-40.06
X117.076Y-57.06
X117.076Y-74.06
X128.076Y-40.06
X128.076Y-57.06
X128.076Y-74.06
X135.076Y-52.06
X135.076Y-69.06
X135.076Y-86.06
X146.076Y-52.06
X146.076Y-69.06
X146.076Y-86.06
X157.188Y-52.171
X157.188Y-69.171
X157.188Y-86.171
X168.188Y-52.171
X168.188Y-69.171
X168.188Y-86.171
X175.188Y-40.171
X175.188Y-57.171
X175.188Y-74.171
X186.188Y-40.171
X186.188Y-57.171
X186.188Y-74.171
X193.188Y-33.171
X193.188Y-50.171
X193.188Y-67.171
X204.188Y-33.171
X204.188Y-50.171
X204.188Y-67.171
X211.188Y-39.171
X211.188Y-56.171
X211.188Y-73.171
X221.271Y-92.216
X222.188Y-39.171
X222.188Y-56.171
X222.188Y-73.171
X229.188Y-41.171
X229.188Y-58.171
X229.188Y-75.171
X232.104Y-94.126
X240.188Y-41.171
X240.188Y-58.171
X240.188Y-75.171
X240.703Y-96.846
X250.673Y-101.495
T5
X54.63Y-104.572
X60.091Y-104.453
X68.576Y-35.11
X68.576Y-52.11
X68.576Y-69.11
X72.304Y-97.621
X73.576Y-37.31
X73.576Y-54.31
X73.576Y-71.31
X77.61Y-98.92
X81.576Y-42.81
X81.576Y-59.81
X81.576Y-76.81
X86.576Y-45.01
X86.576Y-62.01
X86.576Y-79.01
X99.576Y-36.81
X99.576Y-53.81
X99.576Y-70.81
X104.576Y-39.01
X104.576Y-56.01
X104.576Y-73.01
X117.576Y-43.81
X117.576Y-60.81
X117.576Y-77.81
X122.576Y-46.01
X122.576Y-63.01
X122.576Y-80.01
X135.576Y-55.81
X135.576Y-72.81
X135.576Y-89.81
X140.576Y-58.01
X140.576Y-75.01
X140.576Y-92.01
X162.688Y-46.221
X162.688Y-63.221
X162.688Y-80.221
X167.688Y-48.421
X167.688Y-65.421
X167.688Y-82.421
X175.688Y-43.921
X175.688Y-60.921
X175.688Y-77.921
X180.688Y-46.121
X180.688Y-63.121
X180.688Y-80.121
X193.688Y-36.921
X193.688Y-53.921
X193.688Y-70.921
X198.688Y-39.121
X198.688Y-56.121
X198.688Y-73.121
X211.688Y-42.921
X211.688Y-59.921
X211.688Y-76.921
X216.688Y-45.121
X216.688Y-62.121
X216.688Y-79.121
X221.113Y-95.995
X225.655Y-99.03
X229.688Y-44.921
X229.688Y-61.921
X229.688Y-78.921
X234.688Y-47.121
X234.688Y-64.121
X234.688Y-81.121
X239.572Y-100.456
X243.173Y-104.563
T6
X57.576Y-99.06
X68.576Y-41.06
X68.576Y-58.06
X68.576Y-75.06
X76.576Y-93.06
X86.576Y-39.06
X86.576Y-56.06
X86.576Y-73.06
X104.576Y-33.06
X104.576Y-50.06
X104.576Y-67.06
X122.576Y-40.06
X122.576Y-57.06
X122.576Y-74.06
X140.576Y-52.06
X140.576Y-69.06
X140.576Y-86.06
X162.688Y-52.171
X162.688Y-69.171
X162.688Y-86.171
X180.688Y-40.171
X180.688Y-57.171
X180.688Y-74.171
X198.688Y-33.171
X198.688Y-50.171
X198.688Y-67.171
X216.688Y-39.171
X216.688Y-56.171
X216.688Y-73.171
X226.688Y-93.171
X234.688Y-41.171
X234.688Y-58.171
X234.688Y-75.171
X245.688Y-99.171
T0
M30
