G04 #@! TF.GenerationSoftware,KiCad,Pcbnew,7.0.6*
G04 #@! TF.CreationDate,2024-09-20T23:27:03+02:00*
G04 #@! TF.ProjectId,KoalaKeeb_v0.2_right,4b6f616c-614b-4656-9562-5f76302e325f,rev?*
G04 #@! TF.SameCoordinates,Original*
G04 #@! TF.FileFunction,Profile,NP*
%FSLAX46Y46*%
G04 Gerber Fmt 4.6, Leading zero omitted, Abs format (unit mm)*
G04 Created by KiCad (PCBNEW 7.0.6) date 2024-09-20 23:27:03*
%MOMM*%
%LPD*%
G01*
G04 APERTURE LIST*
G04 #@! TA.AperFunction,Profile*
%ADD10C,0.100000*%
G04 #@! TD*
G04 #@! TA.AperFunction,Profile*
%ADD11C,0.120000*%
G04 #@! TD*
G04 APERTURE END LIST*
D10*
X103953310Y-27530855D02*
G75*
G03*
X105413969Y-26129603I-34J1461954D01*
G01*
X122413970Y-23029603D02*
G75*
G03*
X120913970Y-21529603I-1500001J-1D01*
G01*
X86062501Y-29926480D02*
G75*
G03*
X87309811Y-28729603I-35J1248409D01*
G01*
X122413970Y-26829603D02*
G75*
G03*
X123913970Y-28329603I1500001J1D01*
G01*
X157713970Y-92929603D02*
G75*
G03*
X158510000Y-92050000I-1J800001D01*
G01*
X40053970Y-38519603D02*
X69243970Y-38529603D01*
X88513970Y-27525416D02*
G75*
G03*
X87309811Y-28729603I-4J-1204155D01*
G01*
X122413970Y-26829603D02*
X122413970Y-23029603D01*
X153013970Y-92956004D02*
X157713970Y-92929603D01*
X69483973Y-38529572D02*
G75*
G03*
X69873897Y-38138752I29993J360001D01*
G01*
X158518121Y-41629598D02*
G75*
G03*
X157313983Y-40425439I-1204174J-15D01*
G01*
X69861280Y-31081072D02*
X69863970Y-38139603D01*
X60773970Y-107489603D02*
X39863970Y-72429603D01*
X158510000Y-92050000D02*
X158513970Y-59029603D01*
X40053970Y-38519575D02*
G75*
G03*
X39573970Y-38999603I-4J-479996D01*
G01*
X140993970Y-28339603D02*
X123913970Y-28329603D01*
X39573956Y-71809603D02*
G75*
G03*
X39619263Y-72011957I430010J-9968D01*
G01*
X39619263Y-72011957D02*
X39863970Y-72429603D01*
X60775268Y-107488665D02*
G75*
G03*
X61810898Y-107720386I648698J469094D01*
G01*
X105413970Y-23029603D02*
X105413970Y-26129603D01*
X157313983Y-40425439D02*
X145123970Y-40409603D01*
X103953310Y-27530862D02*
X88513970Y-27529603D01*
X71065439Y-29876885D02*
G75*
G03*
X69861280Y-31081072I27J-1204186D01*
G01*
X120913970Y-21529603D02*
X106913970Y-21529603D01*
X39573970Y-38999603D02*
X39573970Y-71809603D01*
X153013970Y-92956004D02*
G75*
G03*
X61810898Y-107720388I-1J-289073596D01*
G01*
X69243970Y-38529603D02*
X69483970Y-38529603D01*
X158518121Y-41629598D02*
X158513970Y-51829603D01*
X86062501Y-29926505D02*
X71065439Y-29876913D01*
X106913970Y-21529603D02*
G75*
G03*
X105413970Y-23029603I1J-1500001D01*
G01*
X158513970Y-51829603D02*
X158513970Y-59029603D01*
X141883970Y-39019603D02*
G75*
G03*
X143263970Y-40389639I1380000J10000D01*
G01*
X143263970Y-40389639D02*
X145123970Y-40409603D01*
X141884025Y-29239603D02*
X141883970Y-39019603D01*
X141884025Y-29239603D02*
G75*
G03*
X140993970Y-28339605I-900053J1D01*
G01*
D11*
X45700000Y-65900000D02*
X42300000Y-65900000D01*
X45700000Y-62900000D02*
X45700000Y-65900000D01*
X42300000Y-65900000D02*
X42300000Y-62900000D01*
X42300000Y-62900000D02*
X45700000Y-62900000D01*
X42300000Y-46900000D02*
X45700000Y-46900000D01*
X42300000Y-49900000D02*
X42300000Y-46900000D01*
X45700000Y-46900000D02*
X45700000Y-49900000D01*
X45700000Y-49900000D02*
X42300000Y-49900000D01*
X42300000Y-40500000D02*
X45700000Y-40500000D01*
X42300000Y-43500000D02*
X42300000Y-40500000D01*
X45700000Y-40500000D02*
X45700000Y-43500000D01*
X45700000Y-43500000D02*
X42300000Y-43500000D01*
X42300000Y-66100000D02*
X45700000Y-66100000D01*
X42300000Y-69100000D02*
X42300000Y-66100000D01*
X45700000Y-66100000D02*
X45700000Y-69100000D01*
X45700000Y-69100000D02*
X42300000Y-69100000D01*
X45700000Y-46700000D02*
X42300000Y-46700000D01*
X45700000Y-43700000D02*
X45700000Y-46700000D01*
X42300000Y-46700000D02*
X42300000Y-43700000D01*
X42300000Y-43700000D02*
X45700000Y-43700000D01*
X42300000Y-59700000D02*
X45700000Y-59700000D01*
X42300000Y-62700000D02*
X42300000Y-59700000D01*
X45700000Y-59700000D02*
X45700000Y-62700000D01*
X45700000Y-62700000D02*
X42300000Y-62700000D01*
X45700000Y-53100000D02*
X42300000Y-53100000D01*
X45700000Y-50100000D02*
X45700000Y-53100000D01*
X42300000Y-53100000D02*
X42300000Y-50100000D01*
X42300000Y-50100000D02*
X45700000Y-50100000D01*
X45700000Y-59500000D02*
X42300000Y-59500000D01*
X45700000Y-56500000D02*
X45700000Y-59500000D01*
X42300000Y-59500000D02*
X42300000Y-56500000D01*
X42300000Y-56500000D02*
X45700000Y-56500000D01*
X42300000Y-53300000D02*
X45700000Y-53300000D01*
X42300000Y-56300000D02*
X42300000Y-53300000D01*
X45700000Y-53300000D02*
X45700000Y-56300000D01*
X45700000Y-56300000D02*
X42300000Y-56300000D01*
X45700000Y-72300000D02*
X42300000Y-72300000D01*
X45700000Y-69300000D02*
X45700000Y-72300000D01*
X42300000Y-72300000D02*
X42300000Y-69300000D01*
X42300000Y-69300000D02*
X45700000Y-69300000D01*
M02*
