%TF.GenerationSoftware,KiCad,Pcbnew,7.0.6*%
%TF.CreationDate,2024-09-20T23:27:32+02:00*%
%TF.ProjectId,KoalaKeeb_v0.2_right,4b6f616c-614b-4656-9562-5f76302e325f,rev?*%
%TF.SameCoordinates,Original*%
%TF.FileFunction,Drillmap*%
%TF.FilePolarity,Positive*%
%FSLAX45Y45*%
G04 Gerber Fmt 4.5, Leading zero omitted, Abs format (unit mm)*
G04 Created by KiCad (PCBNEW 7.0.6) date 2024-09-20 23:27:32*
%MOMM*%
%LPD*%
G01*
G04 APERTURE LIST*
%ADD10C,0.100000*%
%ADD11C,0.200000*%
%ADD12C,0.040000*%
%ADD13C,0.050000*%
%ADD14C,0.109220*%
%ADD15C,0.130000*%
G04 APERTURE END LIST*
D10*
X10395331Y-2753086D02*
G75*
G03*
X10541397Y-2612960I-3J146195D01*
G01*
X12241397Y-2302960D02*
G75*
G03*
X12091397Y-2152960I-150000J0D01*
G01*
X8606250Y-2992648D02*
G75*
G03*
X8730981Y-2872960I-4J124841D01*
G01*
X12241397Y-2682960D02*
G75*
G03*
X12391397Y-2832960I150000J0D01*
G01*
X15771397Y-9292960D02*
G75*
G03*
X15851000Y-9205000I0J80000D01*
G01*
X4005397Y-3851960D02*
X6924397Y-3852960D01*
X8851397Y-2752542D02*
G75*
G03*
X8730981Y-2872960I0J-120416D01*
G01*
X12241397Y-2682960D02*
X12241397Y-2302960D01*
X15301397Y-9295600D02*
X15771397Y-9292960D01*
X6948397Y-3852957D02*
G75*
G03*
X6987390Y-3813875I2999J36000D01*
G01*
X15851812Y-4162960D02*
G75*
G03*
X15731398Y-4042544I-120417J-2D01*
G01*
X6986128Y-3108107D02*
X6986397Y-3813960D01*
X6077397Y-10748960D02*
X3986397Y-7242960D01*
X15851000Y-9205000D02*
X15851397Y-5902960D01*
X4005397Y-3851957D02*
G75*
G03*
X3957397Y-3899960I0J-48000D01*
G01*
X14099397Y-2833960D02*
X12391397Y-2832960D01*
X3957396Y-7180960D02*
G75*
G03*
X3961926Y-7201196I43001J-997D01*
G01*
X3961926Y-7201196D02*
X3986397Y-7242960D01*
X6077527Y-10748867D02*
G75*
G03*
X6181090Y-10772039I64870J46909D01*
G01*
X10541397Y-2302960D02*
X10541397Y-2612960D01*
X15731398Y-4042544D02*
X14512397Y-4040960D01*
X10395331Y-2753086D02*
X8851397Y-2752960D01*
X7106544Y-2987688D02*
G75*
G03*
X6986128Y-3108107I3J-120419D01*
G01*
X12091397Y-2152960D02*
X10691397Y-2152960D01*
X3957397Y-3899960D02*
X3957397Y-7180960D01*
X15301397Y-9295600D02*
G75*
G03*
X6181090Y-10772039I0J-28907360D01*
G01*
X6924397Y-3852960D02*
X6948397Y-3852960D01*
X15851812Y-4162960D02*
X15851397Y-5182960D01*
X8606250Y-2992650D02*
X7106544Y-2987691D01*
X10691397Y-2152960D02*
G75*
G03*
X10541397Y-2302960I0J-150000D01*
G01*
X15851397Y-5182960D02*
X15851397Y-5902960D01*
X14188397Y-3901960D02*
G75*
G03*
X14326397Y-4038964I138000J1000D01*
G01*
X14326397Y-4038964D02*
X14512397Y-4040960D01*
X14188402Y-2923960D02*
X14188397Y-3901960D01*
X14188402Y-2923960D02*
G75*
G03*
X14099397Y-2833960I-90005J0D01*
G01*
D11*
D12*
X4078000Y-5534000D02*
X4118000Y-5574000D01*
X4118000Y-5534000D02*
X4078000Y-5574000D01*
X4079000Y-4254000D02*
X4119000Y-4294000D01*
X4119000Y-4254000D02*
X4079000Y-4294000D01*
X4079000Y-6175000D02*
X4119000Y-6215000D01*
X4119000Y-6175000D02*
X4079000Y-6215000D01*
X4080000Y-4894000D02*
X4120000Y-4934000D01*
X4120000Y-4894000D02*
X4080000Y-4934000D01*
X4082000Y-6814000D02*
X4122000Y-6854000D01*
X4122000Y-6814000D02*
X4082000Y-6854000D01*
X4127000Y-7245000D02*
X4167000Y-7285000D01*
X4167000Y-7245000D02*
X4127000Y-7285000D01*
X4677000Y-4104000D02*
X4717000Y-4144000D01*
X4717000Y-4104000D02*
X4677000Y-4144000D01*
X4679000Y-4744000D02*
X4719000Y-4784000D01*
X4719000Y-4744000D02*
X4679000Y-4784000D01*
X4679000Y-5386000D02*
X4719000Y-5426000D01*
X4719000Y-5386000D02*
X4679000Y-5426000D01*
X4679000Y-6025000D02*
X4719000Y-6065000D01*
X4719000Y-6025000D02*
X4679000Y-6065000D01*
X4679000Y-6665000D02*
X4719000Y-6705000D01*
X4719000Y-6665000D02*
X4679000Y-6705000D01*
X4780000Y-4380000D02*
X4820000Y-4420000D01*
X4820000Y-4380000D02*
X4780000Y-4420000D01*
X5380000Y-7180000D02*
X5420000Y-7220000D01*
X5420000Y-7180000D02*
X5380000Y-7220000D01*
X5528000Y-5795000D02*
X5568000Y-5835000D01*
X5568000Y-5795000D02*
X5528000Y-5835000D01*
X5680000Y-7480000D02*
X5720000Y-7520000D01*
X5720000Y-7480000D02*
X5680000Y-7520000D01*
X6080000Y-6980000D02*
X6120000Y-7020000D01*
X6120000Y-6980000D02*
X6080000Y-7020000D01*
X6180000Y-5880000D02*
X6220000Y-5920000D01*
X6220000Y-5880000D02*
X6180000Y-5920000D01*
X7194000Y-4962000D02*
X7234000Y-5002000D01*
X7234000Y-4962000D02*
X7194000Y-5002000D01*
X8453000Y-5854000D02*
X8493000Y-5894000D01*
X8493000Y-5854000D02*
X8453000Y-5894000D01*
X8845000Y-5079000D02*
X8885000Y-5119000D01*
X8885000Y-5079000D02*
X8845000Y-5119000D01*
X9958000Y-6736000D02*
X9998000Y-6776000D01*
X9998000Y-6736000D02*
X9958000Y-6776000D01*
D13*
X6734600Y-7637500D02*
G75*
G03*
X6734600Y-7637500I-25000J0D01*
G01*
X6734600Y-7762500D02*
G75*
G03*
X6734600Y-7762500I-25000J0D01*
G01*
D14*
X5138000Y-4248390D02*
X5138000Y-4357610D01*
X5083390Y-4303000D02*
X5192610Y-4303000D01*
X5138000Y-4502390D02*
X5138000Y-4611610D01*
X5083390Y-4557000D02*
X5192610Y-4557000D01*
X5138000Y-4756390D02*
X5138000Y-4865610D01*
X5083390Y-4811000D02*
X5192610Y-4811000D01*
X5138000Y-5010390D02*
X5138000Y-5119610D01*
X5083390Y-5065000D02*
X5192610Y-5065000D01*
X5138000Y-5264390D02*
X5138000Y-5373610D01*
X5083390Y-5319000D02*
X5192610Y-5319000D01*
X5138000Y-5518390D02*
X5138000Y-5627610D01*
X5083390Y-5573000D02*
X5192610Y-5573000D01*
X5138000Y-5772390D02*
X5138000Y-5881610D01*
X5083390Y-5827000D02*
X5192610Y-5827000D01*
X5138000Y-6026390D02*
X5138000Y-6135610D01*
X5083390Y-6081000D02*
X5192610Y-6081000D01*
X5138000Y-6280390D02*
X5138000Y-6389610D01*
X5083390Y-6335000D02*
X5192610Y-6335000D01*
X5138000Y-6534390D02*
X5138000Y-6643610D01*
X5083390Y-6589000D02*
X5192610Y-6589000D01*
X5138000Y-6788390D02*
X5138000Y-6897610D01*
X5083390Y-6843000D02*
X5192610Y-6843000D01*
X5138000Y-7042390D02*
X5138000Y-7151610D01*
X5083390Y-7097000D02*
X5192610Y-7097000D01*
X6662000Y-4248390D02*
X6662000Y-4357610D01*
X6607390Y-4303000D02*
X6716610Y-4303000D01*
X6662000Y-4502390D02*
X6662000Y-4611610D01*
X6607390Y-4557000D02*
X6716610Y-4557000D01*
X6662000Y-4756390D02*
X6662000Y-4865610D01*
X6607390Y-4811000D02*
X6716610Y-4811000D01*
X6662000Y-5010390D02*
X6662000Y-5119610D01*
X6607390Y-5065000D02*
X6716610Y-5065000D01*
X6662000Y-5264390D02*
X6662000Y-5373610D01*
X6607390Y-5319000D02*
X6716610Y-5319000D01*
X6662000Y-5518390D02*
X6662000Y-5627610D01*
X6607390Y-5573000D02*
X6716610Y-5573000D01*
X6662000Y-5772390D02*
X6662000Y-5881610D01*
X6607390Y-5827000D02*
X6716610Y-5827000D01*
X6662000Y-6026390D02*
X6662000Y-6135610D01*
X6607390Y-6081000D02*
X6716610Y-6081000D01*
X6662000Y-6280390D02*
X6662000Y-6389610D01*
X6607390Y-6335000D02*
X6716610Y-6335000D01*
X6662000Y-6534390D02*
X6662000Y-6643610D01*
X6607390Y-6589000D02*
X6716610Y-6589000D01*
X6662000Y-6788390D02*
X6662000Y-6897610D01*
X6607390Y-6843000D02*
X6716610Y-6843000D01*
X6662000Y-7042390D02*
X6662000Y-7151610D01*
X6607390Y-7097000D02*
X6716610Y-7097000D01*
D15*
X5864504Y-8608462D02*
X5864504Y-8516538D01*
X5772579Y-8516538D01*
X5772579Y-8608462D01*
X5864504Y-8608462D01*
X6427421Y-8283462D02*
X6427421Y-8191538D01*
X6335496Y-8191538D01*
X6335496Y-8283462D01*
X6427421Y-8283462D01*
D11*
X4213161Y-11098495D02*
X4213161Y-10898495D01*
X4213161Y-10898495D02*
X4260780Y-10898495D01*
X4260780Y-10898495D02*
X4289351Y-10908018D01*
X4289351Y-10908018D02*
X4308399Y-10927066D01*
X4308399Y-10927066D02*
X4317923Y-10946114D01*
X4317923Y-10946114D02*
X4327447Y-10984209D01*
X4327447Y-10984209D02*
X4327447Y-11012780D01*
X4327447Y-11012780D02*
X4317923Y-11050876D01*
X4317923Y-11050876D02*
X4308399Y-11069923D01*
X4308399Y-11069923D02*
X4289351Y-11088971D01*
X4289351Y-11088971D02*
X4260780Y-11098495D01*
X4260780Y-11098495D02*
X4213161Y-11098495D01*
X4413161Y-11098495D02*
X4413161Y-10965161D01*
X4413161Y-11003257D02*
X4422685Y-10984209D01*
X4422685Y-10984209D02*
X4432208Y-10974685D01*
X4432208Y-10974685D02*
X4451256Y-10965161D01*
X4451256Y-10965161D02*
X4470304Y-10965161D01*
X4536970Y-11098495D02*
X4536970Y-10965161D01*
X4536970Y-10898495D02*
X4527447Y-10908018D01*
X4527447Y-10908018D02*
X4536970Y-10917542D01*
X4536970Y-10917542D02*
X4546494Y-10908018D01*
X4546494Y-10908018D02*
X4536970Y-10898495D01*
X4536970Y-10898495D02*
X4536970Y-10917542D01*
X4660780Y-11098495D02*
X4641732Y-11088971D01*
X4641732Y-11088971D02*
X4632208Y-11069923D01*
X4632208Y-11069923D02*
X4632208Y-10898495D01*
X4765542Y-11098495D02*
X4746494Y-11088971D01*
X4746494Y-11088971D02*
X4736970Y-11069923D01*
X4736970Y-11069923D02*
X4736970Y-10898495D01*
X4994113Y-11098495D02*
X4994113Y-10898495D01*
X4994113Y-10898495D02*
X5060780Y-11041352D01*
X5060780Y-11041352D02*
X5127447Y-10898495D01*
X5127447Y-10898495D02*
X5127447Y-11098495D01*
X5308399Y-11098495D02*
X5308399Y-10993733D01*
X5308399Y-10993733D02*
X5298875Y-10974685D01*
X5298875Y-10974685D02*
X5279828Y-10965161D01*
X5279828Y-10965161D02*
X5241732Y-10965161D01*
X5241732Y-10965161D02*
X5222685Y-10974685D01*
X5308399Y-11088971D02*
X5289351Y-11098495D01*
X5289351Y-11098495D02*
X5241732Y-11098495D01*
X5241732Y-11098495D02*
X5222685Y-11088971D01*
X5222685Y-11088971D02*
X5213161Y-11069923D01*
X5213161Y-11069923D02*
X5213161Y-11050876D01*
X5213161Y-11050876D02*
X5222685Y-11031828D01*
X5222685Y-11031828D02*
X5241732Y-11022304D01*
X5241732Y-11022304D02*
X5289351Y-11022304D01*
X5289351Y-11022304D02*
X5308399Y-11012780D01*
X5403637Y-10965161D02*
X5403637Y-11165161D01*
X5403637Y-10974685D02*
X5422685Y-10965161D01*
X5422685Y-10965161D02*
X5460780Y-10965161D01*
X5460780Y-10965161D02*
X5479828Y-10974685D01*
X5479828Y-10974685D02*
X5489351Y-10984209D01*
X5489351Y-10984209D02*
X5498875Y-11003257D01*
X5498875Y-11003257D02*
X5498875Y-11060399D01*
X5498875Y-11060399D02*
X5489351Y-11079447D01*
X5489351Y-11079447D02*
X5479828Y-11088971D01*
X5479828Y-11088971D02*
X5460780Y-11098495D01*
X5460780Y-11098495D02*
X5422685Y-11098495D01*
X5422685Y-11098495D02*
X5403637Y-11088971D01*
X5584589Y-11079447D02*
X5594113Y-11088971D01*
X5594113Y-11088971D02*
X5584589Y-11098495D01*
X5584589Y-11098495D02*
X5575066Y-11088971D01*
X5575066Y-11088971D02*
X5584589Y-11079447D01*
X5584589Y-11079447D02*
X5584589Y-11098495D01*
X5584589Y-10974685D02*
X5594113Y-10984209D01*
X5594113Y-10984209D02*
X5584589Y-10993733D01*
X5584589Y-10993733D02*
X5575066Y-10984209D01*
X5575066Y-10984209D02*
X5584589Y-10974685D01*
X5584589Y-10974685D02*
X5584589Y-10993733D01*
D12*
X3912384Y-11407011D02*
X3952384Y-11447011D01*
X3952384Y-11407011D02*
X3912384Y-11447011D01*
D11*
X4251256Y-11318495D02*
X4270304Y-11318495D01*
X4270304Y-11318495D02*
X4289351Y-11328018D01*
X4289351Y-11328018D02*
X4298875Y-11337542D01*
X4298875Y-11337542D02*
X4308399Y-11356590D01*
X4308399Y-11356590D02*
X4317923Y-11394685D01*
X4317923Y-11394685D02*
X4317923Y-11442304D01*
X4317923Y-11442304D02*
X4308399Y-11480399D01*
X4308399Y-11480399D02*
X4298875Y-11499447D01*
X4298875Y-11499447D02*
X4289351Y-11508971D01*
X4289351Y-11508971D02*
X4270304Y-11518495D01*
X4270304Y-11518495D02*
X4251256Y-11518495D01*
X4251256Y-11518495D02*
X4232208Y-11508971D01*
X4232208Y-11508971D02*
X4222685Y-11499447D01*
X4222685Y-11499447D02*
X4213161Y-11480399D01*
X4213161Y-11480399D02*
X4203637Y-11442304D01*
X4203637Y-11442304D02*
X4203637Y-11394685D01*
X4203637Y-11394685D02*
X4213161Y-11356590D01*
X4213161Y-11356590D02*
X4222685Y-11337542D01*
X4222685Y-11337542D02*
X4232208Y-11328018D01*
X4232208Y-11328018D02*
X4251256Y-11318495D01*
X4403637Y-11499447D02*
X4413161Y-11508971D01*
X4413161Y-11508971D02*
X4403637Y-11518495D01*
X4403637Y-11518495D02*
X4394113Y-11508971D01*
X4394113Y-11508971D02*
X4403637Y-11499447D01*
X4403637Y-11499447D02*
X4403637Y-11518495D01*
X4584589Y-11385161D02*
X4584589Y-11518495D01*
X4536970Y-11308971D02*
X4489351Y-11451828D01*
X4489351Y-11451828D02*
X4613161Y-11451828D01*
X4727447Y-11318495D02*
X4746494Y-11318495D01*
X4746494Y-11318495D02*
X4765542Y-11328018D01*
X4765542Y-11328018D02*
X4775066Y-11337542D01*
X4775066Y-11337542D02*
X4784589Y-11356590D01*
X4784589Y-11356590D02*
X4794113Y-11394685D01*
X4794113Y-11394685D02*
X4794113Y-11442304D01*
X4794113Y-11442304D02*
X4784589Y-11480399D01*
X4784589Y-11480399D02*
X4775066Y-11499447D01*
X4775066Y-11499447D02*
X4765542Y-11508971D01*
X4765542Y-11508971D02*
X4746494Y-11518495D01*
X4746494Y-11518495D02*
X4727447Y-11518495D01*
X4727447Y-11518495D02*
X4708399Y-11508971D01*
X4708399Y-11508971D02*
X4698875Y-11499447D01*
X4698875Y-11499447D02*
X4689351Y-11480399D01*
X4689351Y-11480399D02*
X4679828Y-11442304D01*
X4679828Y-11442304D02*
X4679828Y-11394685D01*
X4679828Y-11394685D02*
X4689351Y-11356590D01*
X4689351Y-11356590D02*
X4698875Y-11337542D01*
X4698875Y-11337542D02*
X4708399Y-11328018D01*
X4708399Y-11328018D02*
X4727447Y-11318495D01*
X4917923Y-11318495D02*
X4936970Y-11318495D01*
X4936970Y-11318495D02*
X4956018Y-11328018D01*
X4956018Y-11328018D02*
X4965542Y-11337542D01*
X4965542Y-11337542D02*
X4975066Y-11356590D01*
X4975066Y-11356590D02*
X4984589Y-11394685D01*
X4984589Y-11394685D02*
X4984589Y-11442304D01*
X4984589Y-11442304D02*
X4975066Y-11480399D01*
X4975066Y-11480399D02*
X4965542Y-11499447D01*
X4965542Y-11499447D02*
X4956018Y-11508971D01*
X4956018Y-11508971D02*
X4936970Y-11518495D01*
X4936970Y-11518495D02*
X4917923Y-11518495D01*
X4917923Y-11518495D02*
X4898875Y-11508971D01*
X4898875Y-11508971D02*
X4889351Y-11499447D01*
X4889351Y-11499447D02*
X4879828Y-11480399D01*
X4879828Y-11480399D02*
X4870304Y-11442304D01*
X4870304Y-11442304D02*
X4870304Y-11394685D01*
X4870304Y-11394685D02*
X4879828Y-11356590D01*
X4879828Y-11356590D02*
X4889351Y-11337542D01*
X4889351Y-11337542D02*
X4898875Y-11328018D01*
X4898875Y-11328018D02*
X4917923Y-11318495D01*
X5070304Y-11518495D02*
X5070304Y-11385161D01*
X5070304Y-11404209D02*
X5079828Y-11394685D01*
X5079828Y-11394685D02*
X5098875Y-11385161D01*
X5098875Y-11385161D02*
X5127447Y-11385161D01*
X5127447Y-11385161D02*
X5146494Y-11394685D01*
X5146494Y-11394685D02*
X5156018Y-11413733D01*
X5156018Y-11413733D02*
X5156018Y-11518495D01*
X5156018Y-11413733D02*
X5165542Y-11394685D01*
X5165542Y-11394685D02*
X5184589Y-11385161D01*
X5184589Y-11385161D02*
X5213161Y-11385161D01*
X5213161Y-11385161D02*
X5232209Y-11394685D01*
X5232209Y-11394685D02*
X5241732Y-11413733D01*
X5241732Y-11413733D02*
X5241732Y-11518495D01*
X5336970Y-11518495D02*
X5336970Y-11385161D01*
X5336970Y-11404209D02*
X5346494Y-11394685D01*
X5346494Y-11394685D02*
X5365542Y-11385161D01*
X5365542Y-11385161D02*
X5394113Y-11385161D01*
X5394113Y-11385161D02*
X5413161Y-11394685D01*
X5413161Y-11394685D02*
X5422685Y-11413733D01*
X5422685Y-11413733D02*
X5422685Y-11518495D01*
X5422685Y-11413733D02*
X5432209Y-11394685D01*
X5432209Y-11394685D02*
X5451256Y-11385161D01*
X5451256Y-11385161D02*
X5479828Y-11385161D01*
X5479828Y-11385161D02*
X5498875Y-11394685D01*
X5498875Y-11394685D02*
X5508399Y-11413733D01*
X5508399Y-11413733D02*
X5508399Y-11518495D01*
X5898875Y-11308971D02*
X5727447Y-11566114D01*
X6156018Y-11318495D02*
X6175066Y-11318495D01*
X6175066Y-11318495D02*
X6194113Y-11328018D01*
X6194113Y-11328018D02*
X6203637Y-11337542D01*
X6203637Y-11337542D02*
X6213161Y-11356590D01*
X6213161Y-11356590D02*
X6222685Y-11394685D01*
X6222685Y-11394685D02*
X6222685Y-11442304D01*
X6222685Y-11442304D02*
X6213161Y-11480399D01*
X6213161Y-11480399D02*
X6203637Y-11499447D01*
X6203637Y-11499447D02*
X6194113Y-11508971D01*
X6194113Y-11508971D02*
X6175066Y-11518495D01*
X6175066Y-11518495D02*
X6156018Y-11518495D01*
X6156018Y-11518495D02*
X6136970Y-11508971D01*
X6136970Y-11508971D02*
X6127447Y-11499447D01*
X6127447Y-11499447D02*
X6117923Y-11480399D01*
X6117923Y-11480399D02*
X6108399Y-11442304D01*
X6108399Y-11442304D02*
X6108399Y-11394685D01*
X6108399Y-11394685D02*
X6117923Y-11356590D01*
X6117923Y-11356590D02*
X6127447Y-11337542D01*
X6127447Y-11337542D02*
X6136970Y-11328018D01*
X6136970Y-11328018D02*
X6156018Y-11318495D01*
X6308399Y-11499447D02*
X6317923Y-11508971D01*
X6317923Y-11508971D02*
X6308399Y-11518495D01*
X6308399Y-11518495D02*
X6298875Y-11508971D01*
X6298875Y-11508971D02*
X6308399Y-11499447D01*
X6308399Y-11499447D02*
X6308399Y-11518495D01*
X6441732Y-11318495D02*
X6460780Y-11318495D01*
X6460780Y-11318495D02*
X6479828Y-11328018D01*
X6479828Y-11328018D02*
X6489351Y-11337542D01*
X6489351Y-11337542D02*
X6498875Y-11356590D01*
X6498875Y-11356590D02*
X6508399Y-11394685D01*
X6508399Y-11394685D02*
X6508399Y-11442304D01*
X6508399Y-11442304D02*
X6498875Y-11480399D01*
X6498875Y-11480399D02*
X6489351Y-11499447D01*
X6489351Y-11499447D02*
X6479828Y-11508971D01*
X6479828Y-11508971D02*
X6460780Y-11518495D01*
X6460780Y-11518495D02*
X6441732Y-11518495D01*
X6441732Y-11518495D02*
X6422685Y-11508971D01*
X6422685Y-11508971D02*
X6413161Y-11499447D01*
X6413161Y-11499447D02*
X6403637Y-11480399D01*
X6403637Y-11480399D02*
X6394113Y-11442304D01*
X6394113Y-11442304D02*
X6394113Y-11394685D01*
X6394113Y-11394685D02*
X6403637Y-11356590D01*
X6403637Y-11356590D02*
X6413161Y-11337542D01*
X6413161Y-11337542D02*
X6422685Y-11328018D01*
X6422685Y-11328018D02*
X6441732Y-11318495D01*
X6698875Y-11518495D02*
X6584590Y-11518495D01*
X6641732Y-11518495D02*
X6641732Y-11318495D01*
X6641732Y-11318495D02*
X6622685Y-11347066D01*
X6622685Y-11347066D02*
X6603637Y-11366114D01*
X6603637Y-11366114D02*
X6584590Y-11375637D01*
X6879828Y-11318495D02*
X6784590Y-11318495D01*
X6784590Y-11318495D02*
X6775066Y-11413733D01*
X6775066Y-11413733D02*
X6784590Y-11404209D01*
X6784590Y-11404209D02*
X6803637Y-11394685D01*
X6803637Y-11394685D02*
X6851256Y-11394685D01*
X6851256Y-11394685D02*
X6870304Y-11404209D01*
X6870304Y-11404209D02*
X6879828Y-11413733D01*
X6879828Y-11413733D02*
X6889351Y-11432780D01*
X6889351Y-11432780D02*
X6889351Y-11480399D01*
X6889351Y-11480399D02*
X6879828Y-11499447D01*
X6879828Y-11499447D02*
X6870304Y-11508971D01*
X6870304Y-11508971D02*
X6851256Y-11518495D01*
X6851256Y-11518495D02*
X6803637Y-11518495D01*
X6803637Y-11518495D02*
X6784590Y-11508971D01*
X6784590Y-11508971D02*
X6775066Y-11499447D01*
X6956018Y-11318495D02*
X7089351Y-11318495D01*
X7089351Y-11318495D02*
X7003637Y-11518495D01*
X7156018Y-11318495D02*
X7156018Y-11356590D01*
X7232209Y-11318495D02*
X7232209Y-11356590D01*
X7527447Y-11594685D02*
X7517923Y-11585161D01*
X7517923Y-11585161D02*
X7498875Y-11556590D01*
X7498875Y-11556590D02*
X7489352Y-11537542D01*
X7489352Y-11537542D02*
X7479828Y-11508971D01*
X7479828Y-11508971D02*
X7470304Y-11461352D01*
X7470304Y-11461352D02*
X7470304Y-11423256D01*
X7470304Y-11423256D02*
X7479828Y-11375637D01*
X7479828Y-11375637D02*
X7489352Y-11347066D01*
X7489352Y-11347066D02*
X7498875Y-11328018D01*
X7498875Y-11328018D02*
X7517923Y-11299447D01*
X7517923Y-11299447D02*
X7527447Y-11289923D01*
X7594113Y-11337542D02*
X7603637Y-11328018D01*
X7603637Y-11328018D02*
X7622685Y-11318495D01*
X7622685Y-11318495D02*
X7670304Y-11318495D01*
X7670304Y-11318495D02*
X7689352Y-11328018D01*
X7689352Y-11328018D02*
X7698875Y-11337542D01*
X7698875Y-11337542D02*
X7708399Y-11356590D01*
X7708399Y-11356590D02*
X7708399Y-11375637D01*
X7708399Y-11375637D02*
X7698875Y-11404209D01*
X7698875Y-11404209D02*
X7584590Y-11518495D01*
X7584590Y-11518495D02*
X7708399Y-11518495D01*
X7898875Y-11518495D02*
X7784590Y-11518495D01*
X7841732Y-11518495D02*
X7841732Y-11318495D01*
X7841732Y-11318495D02*
X7822685Y-11347066D01*
X7822685Y-11347066D02*
X7803637Y-11366114D01*
X7803637Y-11366114D02*
X7784590Y-11375637D01*
X8136971Y-11518495D02*
X8136971Y-11318495D01*
X8222685Y-11518495D02*
X8222685Y-11413733D01*
X8222685Y-11413733D02*
X8213161Y-11394685D01*
X8213161Y-11394685D02*
X8194114Y-11385161D01*
X8194114Y-11385161D02*
X8165542Y-11385161D01*
X8165542Y-11385161D02*
X8146494Y-11394685D01*
X8146494Y-11394685D02*
X8136971Y-11404209D01*
X8346494Y-11518495D02*
X8327447Y-11508971D01*
X8327447Y-11508971D02*
X8317923Y-11499447D01*
X8317923Y-11499447D02*
X8308399Y-11480399D01*
X8308399Y-11480399D02*
X8308399Y-11423256D01*
X8308399Y-11423256D02*
X8317923Y-11404209D01*
X8317923Y-11404209D02*
X8327447Y-11394685D01*
X8327447Y-11394685D02*
X8346494Y-11385161D01*
X8346494Y-11385161D02*
X8375066Y-11385161D01*
X8375066Y-11385161D02*
X8394114Y-11394685D01*
X8394114Y-11394685D02*
X8403637Y-11404209D01*
X8403637Y-11404209D02*
X8413161Y-11423256D01*
X8413161Y-11423256D02*
X8413161Y-11480399D01*
X8413161Y-11480399D02*
X8403637Y-11499447D01*
X8403637Y-11499447D02*
X8394114Y-11508971D01*
X8394114Y-11508971D02*
X8375066Y-11518495D01*
X8375066Y-11518495D02*
X8346494Y-11518495D01*
X8527447Y-11518495D02*
X8508399Y-11508971D01*
X8508399Y-11508971D02*
X8498876Y-11489923D01*
X8498876Y-11489923D02*
X8498876Y-11318495D01*
X8679828Y-11508971D02*
X8660780Y-11518495D01*
X8660780Y-11518495D02*
X8622685Y-11518495D01*
X8622685Y-11518495D02*
X8603637Y-11508971D01*
X8603637Y-11508971D02*
X8594114Y-11489923D01*
X8594114Y-11489923D02*
X8594114Y-11413733D01*
X8594114Y-11413733D02*
X8603637Y-11394685D01*
X8603637Y-11394685D02*
X8622685Y-11385161D01*
X8622685Y-11385161D02*
X8660780Y-11385161D01*
X8660780Y-11385161D02*
X8679828Y-11394685D01*
X8679828Y-11394685D02*
X8689352Y-11413733D01*
X8689352Y-11413733D02*
X8689352Y-11432780D01*
X8689352Y-11432780D02*
X8594114Y-11451828D01*
X8765542Y-11508971D02*
X8784590Y-11518495D01*
X8784590Y-11518495D02*
X8822685Y-11518495D01*
X8822685Y-11518495D02*
X8841733Y-11508971D01*
X8841733Y-11508971D02*
X8851257Y-11489923D01*
X8851257Y-11489923D02*
X8851257Y-11480399D01*
X8851257Y-11480399D02*
X8841733Y-11461352D01*
X8841733Y-11461352D02*
X8822685Y-11451828D01*
X8822685Y-11451828D02*
X8794114Y-11451828D01*
X8794114Y-11451828D02*
X8775066Y-11442304D01*
X8775066Y-11442304D02*
X8765542Y-11423256D01*
X8765542Y-11423256D02*
X8765542Y-11413733D01*
X8765542Y-11413733D02*
X8775066Y-11394685D01*
X8775066Y-11394685D02*
X8794114Y-11385161D01*
X8794114Y-11385161D02*
X8822685Y-11385161D01*
X8822685Y-11385161D02*
X8841733Y-11394685D01*
X8917923Y-11594685D02*
X8927447Y-11585161D01*
X8927447Y-11585161D02*
X8946495Y-11556590D01*
X8946495Y-11556590D02*
X8956018Y-11537542D01*
X8956018Y-11537542D02*
X8965542Y-11508971D01*
X8965542Y-11508971D02*
X8975066Y-11461352D01*
X8975066Y-11461352D02*
X8975066Y-11423256D01*
X8975066Y-11423256D02*
X8965542Y-11375637D01*
X8965542Y-11375637D02*
X8956018Y-11347066D01*
X8956018Y-11347066D02*
X8946495Y-11328018D01*
X8946495Y-11328018D02*
X8927447Y-11299447D01*
X8927447Y-11299447D02*
X8917923Y-11289923D01*
D13*
X3952384Y-11691011D02*
G75*
G03*
X3952384Y-11691011I-25000J0D01*
G01*
D11*
X4251256Y-11582495D02*
X4270304Y-11582495D01*
X4270304Y-11582495D02*
X4289351Y-11592018D01*
X4289351Y-11592018D02*
X4298875Y-11601542D01*
X4298875Y-11601542D02*
X4308399Y-11620590D01*
X4308399Y-11620590D02*
X4317923Y-11658685D01*
X4317923Y-11658685D02*
X4317923Y-11706304D01*
X4317923Y-11706304D02*
X4308399Y-11744399D01*
X4308399Y-11744399D02*
X4298875Y-11763447D01*
X4298875Y-11763447D02*
X4289351Y-11772971D01*
X4289351Y-11772971D02*
X4270304Y-11782495D01*
X4270304Y-11782495D02*
X4251256Y-11782495D01*
X4251256Y-11782495D02*
X4232208Y-11772971D01*
X4232208Y-11772971D02*
X4222685Y-11763447D01*
X4222685Y-11763447D02*
X4213161Y-11744399D01*
X4213161Y-11744399D02*
X4203637Y-11706304D01*
X4203637Y-11706304D02*
X4203637Y-11658685D01*
X4203637Y-11658685D02*
X4213161Y-11620590D01*
X4213161Y-11620590D02*
X4222685Y-11601542D01*
X4222685Y-11601542D02*
X4232208Y-11592018D01*
X4232208Y-11592018D02*
X4251256Y-11582495D01*
X4403637Y-11763447D02*
X4413161Y-11772971D01*
X4413161Y-11772971D02*
X4403637Y-11782495D01*
X4403637Y-11782495D02*
X4394113Y-11772971D01*
X4394113Y-11772971D02*
X4403637Y-11763447D01*
X4403637Y-11763447D02*
X4403637Y-11782495D01*
X4594113Y-11582495D02*
X4498875Y-11582495D01*
X4498875Y-11582495D02*
X4489351Y-11677733D01*
X4489351Y-11677733D02*
X4498875Y-11668209D01*
X4498875Y-11668209D02*
X4517923Y-11658685D01*
X4517923Y-11658685D02*
X4565542Y-11658685D01*
X4565542Y-11658685D02*
X4584589Y-11668209D01*
X4584589Y-11668209D02*
X4594113Y-11677733D01*
X4594113Y-11677733D02*
X4603637Y-11696780D01*
X4603637Y-11696780D02*
X4603637Y-11744399D01*
X4603637Y-11744399D02*
X4594113Y-11763447D01*
X4594113Y-11763447D02*
X4584589Y-11772971D01*
X4584589Y-11772971D02*
X4565542Y-11782495D01*
X4565542Y-11782495D02*
X4517923Y-11782495D01*
X4517923Y-11782495D02*
X4498875Y-11772971D01*
X4498875Y-11772971D02*
X4489351Y-11763447D01*
X4727447Y-11582495D02*
X4746494Y-11582495D01*
X4746494Y-11582495D02*
X4765542Y-11592018D01*
X4765542Y-11592018D02*
X4775066Y-11601542D01*
X4775066Y-11601542D02*
X4784589Y-11620590D01*
X4784589Y-11620590D02*
X4794113Y-11658685D01*
X4794113Y-11658685D02*
X4794113Y-11706304D01*
X4794113Y-11706304D02*
X4784589Y-11744399D01*
X4784589Y-11744399D02*
X4775066Y-11763447D01*
X4775066Y-11763447D02*
X4765542Y-11772971D01*
X4765542Y-11772971D02*
X4746494Y-11782495D01*
X4746494Y-11782495D02*
X4727447Y-11782495D01*
X4727447Y-11782495D02*
X4708399Y-11772971D01*
X4708399Y-11772971D02*
X4698875Y-11763447D01*
X4698875Y-11763447D02*
X4689351Y-11744399D01*
X4689351Y-11744399D02*
X4679828Y-11706304D01*
X4679828Y-11706304D02*
X4679828Y-11658685D01*
X4679828Y-11658685D02*
X4689351Y-11620590D01*
X4689351Y-11620590D02*
X4698875Y-11601542D01*
X4698875Y-11601542D02*
X4708399Y-11592018D01*
X4708399Y-11592018D02*
X4727447Y-11582495D01*
X4917923Y-11582495D02*
X4936970Y-11582495D01*
X4936970Y-11582495D02*
X4956018Y-11592018D01*
X4956018Y-11592018D02*
X4965542Y-11601542D01*
X4965542Y-11601542D02*
X4975066Y-11620590D01*
X4975066Y-11620590D02*
X4984589Y-11658685D01*
X4984589Y-11658685D02*
X4984589Y-11706304D01*
X4984589Y-11706304D02*
X4975066Y-11744399D01*
X4975066Y-11744399D02*
X4965542Y-11763447D01*
X4965542Y-11763447D02*
X4956018Y-11772971D01*
X4956018Y-11772971D02*
X4936970Y-11782495D01*
X4936970Y-11782495D02*
X4917923Y-11782495D01*
X4917923Y-11782495D02*
X4898875Y-11772971D01*
X4898875Y-11772971D02*
X4889351Y-11763447D01*
X4889351Y-11763447D02*
X4879828Y-11744399D01*
X4879828Y-11744399D02*
X4870304Y-11706304D01*
X4870304Y-11706304D02*
X4870304Y-11658685D01*
X4870304Y-11658685D02*
X4879828Y-11620590D01*
X4879828Y-11620590D02*
X4889351Y-11601542D01*
X4889351Y-11601542D02*
X4898875Y-11592018D01*
X4898875Y-11592018D02*
X4917923Y-11582495D01*
X5070304Y-11782495D02*
X5070304Y-11649161D01*
X5070304Y-11668209D02*
X5079828Y-11658685D01*
X5079828Y-11658685D02*
X5098875Y-11649161D01*
X5098875Y-11649161D02*
X5127447Y-11649161D01*
X5127447Y-11649161D02*
X5146494Y-11658685D01*
X5146494Y-11658685D02*
X5156018Y-11677733D01*
X5156018Y-11677733D02*
X5156018Y-11782495D01*
X5156018Y-11677733D02*
X5165542Y-11658685D01*
X5165542Y-11658685D02*
X5184589Y-11649161D01*
X5184589Y-11649161D02*
X5213161Y-11649161D01*
X5213161Y-11649161D02*
X5232209Y-11658685D01*
X5232209Y-11658685D02*
X5241732Y-11677733D01*
X5241732Y-11677733D02*
X5241732Y-11782495D01*
X5336970Y-11782495D02*
X5336970Y-11649161D01*
X5336970Y-11668209D02*
X5346494Y-11658685D01*
X5346494Y-11658685D02*
X5365542Y-11649161D01*
X5365542Y-11649161D02*
X5394113Y-11649161D01*
X5394113Y-11649161D02*
X5413161Y-11658685D01*
X5413161Y-11658685D02*
X5422685Y-11677733D01*
X5422685Y-11677733D02*
X5422685Y-11782495D01*
X5422685Y-11677733D02*
X5432209Y-11658685D01*
X5432209Y-11658685D02*
X5451256Y-11649161D01*
X5451256Y-11649161D02*
X5479828Y-11649161D01*
X5479828Y-11649161D02*
X5498875Y-11658685D01*
X5498875Y-11658685D02*
X5508399Y-11677733D01*
X5508399Y-11677733D02*
X5508399Y-11782495D01*
X5898875Y-11572971D02*
X5727447Y-11830114D01*
X6156018Y-11582495D02*
X6175066Y-11582495D01*
X6175066Y-11582495D02*
X6194113Y-11592018D01*
X6194113Y-11592018D02*
X6203637Y-11601542D01*
X6203637Y-11601542D02*
X6213161Y-11620590D01*
X6213161Y-11620590D02*
X6222685Y-11658685D01*
X6222685Y-11658685D02*
X6222685Y-11706304D01*
X6222685Y-11706304D02*
X6213161Y-11744399D01*
X6213161Y-11744399D02*
X6203637Y-11763447D01*
X6203637Y-11763447D02*
X6194113Y-11772971D01*
X6194113Y-11772971D02*
X6175066Y-11782495D01*
X6175066Y-11782495D02*
X6156018Y-11782495D01*
X6156018Y-11782495D02*
X6136970Y-11772971D01*
X6136970Y-11772971D02*
X6127447Y-11763447D01*
X6127447Y-11763447D02*
X6117923Y-11744399D01*
X6117923Y-11744399D02*
X6108399Y-11706304D01*
X6108399Y-11706304D02*
X6108399Y-11658685D01*
X6108399Y-11658685D02*
X6117923Y-11620590D01*
X6117923Y-11620590D02*
X6127447Y-11601542D01*
X6127447Y-11601542D02*
X6136970Y-11592018D01*
X6136970Y-11592018D02*
X6156018Y-11582495D01*
X6308399Y-11763447D02*
X6317923Y-11772971D01*
X6317923Y-11772971D02*
X6308399Y-11782495D01*
X6308399Y-11782495D02*
X6298875Y-11772971D01*
X6298875Y-11772971D02*
X6308399Y-11763447D01*
X6308399Y-11763447D02*
X6308399Y-11782495D01*
X6441732Y-11582495D02*
X6460780Y-11582495D01*
X6460780Y-11582495D02*
X6479828Y-11592018D01*
X6479828Y-11592018D02*
X6489351Y-11601542D01*
X6489351Y-11601542D02*
X6498875Y-11620590D01*
X6498875Y-11620590D02*
X6508399Y-11658685D01*
X6508399Y-11658685D02*
X6508399Y-11706304D01*
X6508399Y-11706304D02*
X6498875Y-11744399D01*
X6498875Y-11744399D02*
X6489351Y-11763447D01*
X6489351Y-11763447D02*
X6479828Y-11772971D01*
X6479828Y-11772971D02*
X6460780Y-11782495D01*
X6460780Y-11782495D02*
X6441732Y-11782495D01*
X6441732Y-11782495D02*
X6422685Y-11772971D01*
X6422685Y-11772971D02*
X6413161Y-11763447D01*
X6413161Y-11763447D02*
X6403637Y-11744399D01*
X6403637Y-11744399D02*
X6394113Y-11706304D01*
X6394113Y-11706304D02*
X6394113Y-11658685D01*
X6394113Y-11658685D02*
X6403637Y-11620590D01*
X6403637Y-11620590D02*
X6413161Y-11601542D01*
X6413161Y-11601542D02*
X6422685Y-11592018D01*
X6422685Y-11592018D02*
X6441732Y-11582495D01*
X6698875Y-11782495D02*
X6584590Y-11782495D01*
X6641732Y-11782495D02*
X6641732Y-11582495D01*
X6641732Y-11582495D02*
X6622685Y-11611066D01*
X6622685Y-11611066D02*
X6603637Y-11630114D01*
X6603637Y-11630114D02*
X6584590Y-11639637D01*
X6794113Y-11782495D02*
X6832209Y-11782495D01*
X6832209Y-11782495D02*
X6851256Y-11772971D01*
X6851256Y-11772971D02*
X6860780Y-11763447D01*
X6860780Y-11763447D02*
X6879828Y-11734875D01*
X6879828Y-11734875D02*
X6889351Y-11696780D01*
X6889351Y-11696780D02*
X6889351Y-11620590D01*
X6889351Y-11620590D02*
X6879828Y-11601542D01*
X6879828Y-11601542D02*
X6870304Y-11592018D01*
X6870304Y-11592018D02*
X6851256Y-11582495D01*
X6851256Y-11582495D02*
X6813161Y-11582495D01*
X6813161Y-11582495D02*
X6794113Y-11592018D01*
X6794113Y-11592018D02*
X6784590Y-11601542D01*
X6784590Y-11601542D02*
X6775066Y-11620590D01*
X6775066Y-11620590D02*
X6775066Y-11668209D01*
X6775066Y-11668209D02*
X6784590Y-11687256D01*
X6784590Y-11687256D02*
X6794113Y-11696780D01*
X6794113Y-11696780D02*
X6813161Y-11706304D01*
X6813161Y-11706304D02*
X6851256Y-11706304D01*
X6851256Y-11706304D02*
X6870304Y-11696780D01*
X6870304Y-11696780D02*
X6879828Y-11687256D01*
X6879828Y-11687256D02*
X6889351Y-11668209D01*
X6956018Y-11582495D02*
X7089351Y-11582495D01*
X7089351Y-11582495D02*
X7003637Y-11782495D01*
X7156018Y-11582495D02*
X7156018Y-11620590D01*
X7232209Y-11582495D02*
X7232209Y-11620590D01*
X7527447Y-11858685D02*
X7517923Y-11849161D01*
X7517923Y-11849161D02*
X7498875Y-11820590D01*
X7498875Y-11820590D02*
X7489352Y-11801542D01*
X7489352Y-11801542D02*
X7479828Y-11772971D01*
X7479828Y-11772971D02*
X7470304Y-11725352D01*
X7470304Y-11725352D02*
X7470304Y-11687256D01*
X7470304Y-11687256D02*
X7479828Y-11639637D01*
X7479828Y-11639637D02*
X7489352Y-11611066D01*
X7489352Y-11611066D02*
X7498875Y-11592018D01*
X7498875Y-11592018D02*
X7517923Y-11563447D01*
X7517923Y-11563447D02*
X7527447Y-11553923D01*
X7594113Y-11601542D02*
X7603637Y-11592018D01*
X7603637Y-11592018D02*
X7622685Y-11582495D01*
X7622685Y-11582495D02*
X7670304Y-11582495D01*
X7670304Y-11582495D02*
X7689352Y-11592018D01*
X7689352Y-11592018D02*
X7698875Y-11601542D01*
X7698875Y-11601542D02*
X7708399Y-11620590D01*
X7708399Y-11620590D02*
X7708399Y-11639637D01*
X7708399Y-11639637D02*
X7698875Y-11668209D01*
X7698875Y-11668209D02*
X7584590Y-11782495D01*
X7584590Y-11782495D02*
X7708399Y-11782495D01*
X7946494Y-11782495D02*
X7946494Y-11582495D01*
X8032209Y-11782495D02*
X8032209Y-11677733D01*
X8032209Y-11677733D02*
X8022685Y-11658685D01*
X8022685Y-11658685D02*
X8003637Y-11649161D01*
X8003637Y-11649161D02*
X7975066Y-11649161D01*
X7975066Y-11649161D02*
X7956018Y-11658685D01*
X7956018Y-11658685D02*
X7946494Y-11668209D01*
X8156018Y-11782495D02*
X8136971Y-11772971D01*
X8136971Y-11772971D02*
X8127447Y-11763447D01*
X8127447Y-11763447D02*
X8117923Y-11744399D01*
X8117923Y-11744399D02*
X8117923Y-11687256D01*
X8117923Y-11687256D02*
X8127447Y-11668209D01*
X8127447Y-11668209D02*
X8136971Y-11658685D01*
X8136971Y-11658685D02*
X8156018Y-11649161D01*
X8156018Y-11649161D02*
X8184590Y-11649161D01*
X8184590Y-11649161D02*
X8203637Y-11658685D01*
X8203637Y-11658685D02*
X8213161Y-11668209D01*
X8213161Y-11668209D02*
X8222685Y-11687256D01*
X8222685Y-11687256D02*
X8222685Y-11744399D01*
X8222685Y-11744399D02*
X8213161Y-11763447D01*
X8213161Y-11763447D02*
X8203637Y-11772971D01*
X8203637Y-11772971D02*
X8184590Y-11782495D01*
X8184590Y-11782495D02*
X8156018Y-11782495D01*
X8336971Y-11782495D02*
X8317923Y-11772971D01*
X8317923Y-11772971D02*
X8308399Y-11753923D01*
X8308399Y-11753923D02*
X8308399Y-11582495D01*
X8489352Y-11772971D02*
X8470304Y-11782495D01*
X8470304Y-11782495D02*
X8432209Y-11782495D01*
X8432209Y-11782495D02*
X8413161Y-11772971D01*
X8413161Y-11772971D02*
X8403637Y-11753923D01*
X8403637Y-11753923D02*
X8403637Y-11677733D01*
X8403637Y-11677733D02*
X8413161Y-11658685D01*
X8413161Y-11658685D02*
X8432209Y-11649161D01*
X8432209Y-11649161D02*
X8470304Y-11649161D01*
X8470304Y-11649161D02*
X8489352Y-11658685D01*
X8489352Y-11658685D02*
X8498876Y-11677733D01*
X8498876Y-11677733D02*
X8498876Y-11696780D01*
X8498876Y-11696780D02*
X8403637Y-11715828D01*
X8575066Y-11772971D02*
X8594114Y-11782495D01*
X8594114Y-11782495D02*
X8632209Y-11782495D01*
X8632209Y-11782495D02*
X8651257Y-11772971D01*
X8651257Y-11772971D02*
X8660780Y-11753923D01*
X8660780Y-11753923D02*
X8660780Y-11744399D01*
X8660780Y-11744399D02*
X8651257Y-11725352D01*
X8651257Y-11725352D02*
X8632209Y-11715828D01*
X8632209Y-11715828D02*
X8603637Y-11715828D01*
X8603637Y-11715828D02*
X8584590Y-11706304D01*
X8584590Y-11706304D02*
X8575066Y-11687256D01*
X8575066Y-11687256D02*
X8575066Y-11677733D01*
X8575066Y-11677733D02*
X8584590Y-11658685D01*
X8584590Y-11658685D02*
X8603637Y-11649161D01*
X8603637Y-11649161D02*
X8632209Y-11649161D01*
X8632209Y-11649161D02*
X8651257Y-11658685D01*
X8727447Y-11858685D02*
X8736971Y-11849161D01*
X8736971Y-11849161D02*
X8756018Y-11820590D01*
X8756018Y-11820590D02*
X8765542Y-11801542D01*
X8765542Y-11801542D02*
X8775066Y-11772971D01*
X8775066Y-11772971D02*
X8784590Y-11725352D01*
X8784590Y-11725352D02*
X8784590Y-11687256D01*
X8784590Y-11687256D02*
X8775066Y-11639637D01*
X8775066Y-11639637D02*
X8765542Y-11611066D01*
X8765542Y-11611066D02*
X8756018Y-11592018D01*
X8756018Y-11592018D02*
X8736971Y-11563447D01*
X8736971Y-11563447D02*
X8727447Y-11553923D01*
D14*
X3897774Y-11900401D02*
X3897774Y-12009621D01*
X3843164Y-11955011D02*
X3952384Y-11955011D01*
D11*
X4317923Y-12046495D02*
X4203637Y-12046495D01*
X4260780Y-12046495D02*
X4260780Y-11846495D01*
X4260780Y-11846495D02*
X4241732Y-11875066D01*
X4241732Y-11875066D02*
X4222685Y-11894114D01*
X4222685Y-11894114D02*
X4203637Y-11903637D01*
X4403637Y-12027447D02*
X4413161Y-12036971D01*
X4413161Y-12036971D02*
X4403637Y-12046495D01*
X4403637Y-12046495D02*
X4394113Y-12036971D01*
X4394113Y-12036971D02*
X4403637Y-12027447D01*
X4403637Y-12027447D02*
X4403637Y-12046495D01*
X4536970Y-11846495D02*
X4556018Y-11846495D01*
X4556018Y-11846495D02*
X4575066Y-11856018D01*
X4575066Y-11856018D02*
X4584589Y-11865542D01*
X4584589Y-11865542D02*
X4594113Y-11884590D01*
X4594113Y-11884590D02*
X4603637Y-11922685D01*
X4603637Y-11922685D02*
X4603637Y-11970304D01*
X4603637Y-11970304D02*
X4594113Y-12008399D01*
X4594113Y-12008399D02*
X4584589Y-12027447D01*
X4584589Y-12027447D02*
X4575066Y-12036971D01*
X4575066Y-12036971D02*
X4556018Y-12046495D01*
X4556018Y-12046495D02*
X4536970Y-12046495D01*
X4536970Y-12046495D02*
X4517923Y-12036971D01*
X4517923Y-12036971D02*
X4508399Y-12027447D01*
X4508399Y-12027447D02*
X4498875Y-12008399D01*
X4498875Y-12008399D02*
X4489351Y-11970304D01*
X4489351Y-11970304D02*
X4489351Y-11922685D01*
X4489351Y-11922685D02*
X4498875Y-11884590D01*
X4498875Y-11884590D02*
X4508399Y-11865542D01*
X4508399Y-11865542D02*
X4517923Y-11856018D01*
X4517923Y-11856018D02*
X4536970Y-11846495D01*
X4698875Y-12046495D02*
X4736970Y-12046495D01*
X4736970Y-12046495D02*
X4756018Y-12036971D01*
X4756018Y-12036971D02*
X4765542Y-12027447D01*
X4765542Y-12027447D02*
X4784589Y-11998875D01*
X4784589Y-11998875D02*
X4794113Y-11960780D01*
X4794113Y-11960780D02*
X4794113Y-11884590D01*
X4794113Y-11884590D02*
X4784589Y-11865542D01*
X4784589Y-11865542D02*
X4775066Y-11856018D01*
X4775066Y-11856018D02*
X4756018Y-11846495D01*
X4756018Y-11846495D02*
X4717923Y-11846495D01*
X4717923Y-11846495D02*
X4698875Y-11856018D01*
X4698875Y-11856018D02*
X4689351Y-11865542D01*
X4689351Y-11865542D02*
X4679828Y-11884590D01*
X4679828Y-11884590D02*
X4679828Y-11932209D01*
X4679828Y-11932209D02*
X4689351Y-11951256D01*
X4689351Y-11951256D02*
X4698875Y-11960780D01*
X4698875Y-11960780D02*
X4717923Y-11970304D01*
X4717923Y-11970304D02*
X4756018Y-11970304D01*
X4756018Y-11970304D02*
X4775066Y-11960780D01*
X4775066Y-11960780D02*
X4784589Y-11951256D01*
X4784589Y-11951256D02*
X4794113Y-11932209D01*
X4870304Y-11865542D02*
X4879828Y-11856018D01*
X4879828Y-11856018D02*
X4898875Y-11846495D01*
X4898875Y-11846495D02*
X4946494Y-11846495D01*
X4946494Y-11846495D02*
X4965542Y-11856018D01*
X4965542Y-11856018D02*
X4975066Y-11865542D01*
X4975066Y-11865542D02*
X4984589Y-11884590D01*
X4984589Y-11884590D02*
X4984589Y-11903637D01*
X4984589Y-11903637D02*
X4975066Y-11932209D01*
X4975066Y-11932209D02*
X4860780Y-12046495D01*
X4860780Y-12046495D02*
X4984589Y-12046495D01*
X5070304Y-12046495D02*
X5070304Y-11913161D01*
X5070304Y-11932209D02*
X5079828Y-11922685D01*
X5079828Y-11922685D02*
X5098875Y-11913161D01*
X5098875Y-11913161D02*
X5127447Y-11913161D01*
X5127447Y-11913161D02*
X5146494Y-11922685D01*
X5146494Y-11922685D02*
X5156018Y-11941733D01*
X5156018Y-11941733D02*
X5156018Y-12046495D01*
X5156018Y-11941733D02*
X5165542Y-11922685D01*
X5165542Y-11922685D02*
X5184589Y-11913161D01*
X5184589Y-11913161D02*
X5213161Y-11913161D01*
X5213161Y-11913161D02*
X5232209Y-11922685D01*
X5232209Y-11922685D02*
X5241732Y-11941733D01*
X5241732Y-11941733D02*
X5241732Y-12046495D01*
X5336970Y-12046495D02*
X5336970Y-11913161D01*
X5336970Y-11932209D02*
X5346494Y-11922685D01*
X5346494Y-11922685D02*
X5365542Y-11913161D01*
X5365542Y-11913161D02*
X5394113Y-11913161D01*
X5394113Y-11913161D02*
X5413161Y-11922685D01*
X5413161Y-11922685D02*
X5422685Y-11941733D01*
X5422685Y-11941733D02*
X5422685Y-12046495D01*
X5422685Y-11941733D02*
X5432209Y-11922685D01*
X5432209Y-11922685D02*
X5451256Y-11913161D01*
X5451256Y-11913161D02*
X5479828Y-11913161D01*
X5479828Y-11913161D02*
X5498875Y-11922685D01*
X5498875Y-11922685D02*
X5508399Y-11941733D01*
X5508399Y-11941733D02*
X5508399Y-12046495D01*
X5898875Y-11836971D02*
X5727447Y-12094114D01*
X6156018Y-11846495D02*
X6175066Y-11846495D01*
X6175066Y-11846495D02*
X6194113Y-11856018D01*
X6194113Y-11856018D02*
X6203637Y-11865542D01*
X6203637Y-11865542D02*
X6213161Y-11884590D01*
X6213161Y-11884590D02*
X6222685Y-11922685D01*
X6222685Y-11922685D02*
X6222685Y-11970304D01*
X6222685Y-11970304D02*
X6213161Y-12008399D01*
X6213161Y-12008399D02*
X6203637Y-12027447D01*
X6203637Y-12027447D02*
X6194113Y-12036971D01*
X6194113Y-12036971D02*
X6175066Y-12046495D01*
X6175066Y-12046495D02*
X6156018Y-12046495D01*
X6156018Y-12046495D02*
X6136970Y-12036971D01*
X6136970Y-12036971D02*
X6127447Y-12027447D01*
X6127447Y-12027447D02*
X6117923Y-12008399D01*
X6117923Y-12008399D02*
X6108399Y-11970304D01*
X6108399Y-11970304D02*
X6108399Y-11922685D01*
X6108399Y-11922685D02*
X6117923Y-11884590D01*
X6117923Y-11884590D02*
X6127447Y-11865542D01*
X6127447Y-11865542D02*
X6136970Y-11856018D01*
X6136970Y-11856018D02*
X6156018Y-11846495D01*
X6308399Y-12027447D02*
X6317923Y-12036971D01*
X6317923Y-12036971D02*
X6308399Y-12046495D01*
X6308399Y-12046495D02*
X6298875Y-12036971D01*
X6298875Y-12036971D02*
X6308399Y-12027447D01*
X6308399Y-12027447D02*
X6308399Y-12046495D01*
X6441732Y-11846495D02*
X6460780Y-11846495D01*
X6460780Y-11846495D02*
X6479828Y-11856018D01*
X6479828Y-11856018D02*
X6489351Y-11865542D01*
X6489351Y-11865542D02*
X6498875Y-11884590D01*
X6498875Y-11884590D02*
X6508399Y-11922685D01*
X6508399Y-11922685D02*
X6508399Y-11970304D01*
X6508399Y-11970304D02*
X6498875Y-12008399D01*
X6498875Y-12008399D02*
X6489351Y-12027447D01*
X6489351Y-12027447D02*
X6479828Y-12036971D01*
X6479828Y-12036971D02*
X6460780Y-12046495D01*
X6460780Y-12046495D02*
X6441732Y-12046495D01*
X6441732Y-12046495D02*
X6422685Y-12036971D01*
X6422685Y-12036971D02*
X6413161Y-12027447D01*
X6413161Y-12027447D02*
X6403637Y-12008399D01*
X6403637Y-12008399D02*
X6394113Y-11970304D01*
X6394113Y-11970304D02*
X6394113Y-11922685D01*
X6394113Y-11922685D02*
X6403637Y-11884590D01*
X6403637Y-11884590D02*
X6413161Y-11865542D01*
X6413161Y-11865542D02*
X6422685Y-11856018D01*
X6422685Y-11856018D02*
X6441732Y-11846495D01*
X6679828Y-11913161D02*
X6679828Y-12046495D01*
X6632209Y-11836971D02*
X6584590Y-11979828D01*
X6584590Y-11979828D02*
X6708399Y-11979828D01*
X6765542Y-11846495D02*
X6889351Y-11846495D01*
X6889351Y-11846495D02*
X6822685Y-11922685D01*
X6822685Y-11922685D02*
X6851256Y-11922685D01*
X6851256Y-11922685D02*
X6870304Y-11932209D01*
X6870304Y-11932209D02*
X6879828Y-11941733D01*
X6879828Y-11941733D02*
X6889351Y-11960780D01*
X6889351Y-11960780D02*
X6889351Y-12008399D01*
X6889351Y-12008399D02*
X6879828Y-12027447D01*
X6879828Y-12027447D02*
X6870304Y-12036971D01*
X6870304Y-12036971D02*
X6851256Y-12046495D01*
X6851256Y-12046495D02*
X6794113Y-12046495D01*
X6794113Y-12046495D02*
X6775066Y-12036971D01*
X6775066Y-12036971D02*
X6765542Y-12027447D01*
X7013161Y-11846495D02*
X7032209Y-11846495D01*
X7032209Y-11846495D02*
X7051256Y-11856018D01*
X7051256Y-11856018D02*
X7060780Y-11865542D01*
X7060780Y-11865542D02*
X7070304Y-11884590D01*
X7070304Y-11884590D02*
X7079828Y-11922685D01*
X7079828Y-11922685D02*
X7079828Y-11970304D01*
X7079828Y-11970304D02*
X7070304Y-12008399D01*
X7070304Y-12008399D02*
X7060780Y-12027447D01*
X7060780Y-12027447D02*
X7051256Y-12036971D01*
X7051256Y-12036971D02*
X7032209Y-12046495D01*
X7032209Y-12046495D02*
X7013161Y-12046495D01*
X7013161Y-12046495D02*
X6994113Y-12036971D01*
X6994113Y-12036971D02*
X6984590Y-12027447D01*
X6984590Y-12027447D02*
X6975066Y-12008399D01*
X6975066Y-12008399D02*
X6965542Y-11970304D01*
X6965542Y-11970304D02*
X6965542Y-11922685D01*
X6965542Y-11922685D02*
X6975066Y-11884590D01*
X6975066Y-11884590D02*
X6984590Y-11865542D01*
X6984590Y-11865542D02*
X6994113Y-11856018D01*
X6994113Y-11856018D02*
X7013161Y-11846495D01*
X7156018Y-11846495D02*
X7156018Y-11884590D01*
X7232209Y-11846495D02*
X7232209Y-11884590D01*
X7527447Y-12122685D02*
X7517923Y-12113161D01*
X7517923Y-12113161D02*
X7498875Y-12084590D01*
X7498875Y-12084590D02*
X7489352Y-12065542D01*
X7489352Y-12065542D02*
X7479828Y-12036971D01*
X7479828Y-12036971D02*
X7470304Y-11989352D01*
X7470304Y-11989352D02*
X7470304Y-11951256D01*
X7470304Y-11951256D02*
X7479828Y-11903637D01*
X7479828Y-11903637D02*
X7489352Y-11875066D01*
X7489352Y-11875066D02*
X7498875Y-11856018D01*
X7498875Y-11856018D02*
X7517923Y-11827447D01*
X7517923Y-11827447D02*
X7527447Y-11817923D01*
X7594113Y-11865542D02*
X7603637Y-11856018D01*
X7603637Y-11856018D02*
X7622685Y-11846495D01*
X7622685Y-11846495D02*
X7670304Y-11846495D01*
X7670304Y-11846495D02*
X7689352Y-11856018D01*
X7689352Y-11856018D02*
X7698875Y-11865542D01*
X7698875Y-11865542D02*
X7708399Y-11884590D01*
X7708399Y-11884590D02*
X7708399Y-11903637D01*
X7708399Y-11903637D02*
X7698875Y-11932209D01*
X7698875Y-11932209D02*
X7584590Y-12046495D01*
X7584590Y-12046495D02*
X7708399Y-12046495D01*
X7879828Y-11913161D02*
X7879828Y-12046495D01*
X7832209Y-11836971D02*
X7784590Y-11979828D01*
X7784590Y-11979828D02*
X7908399Y-11979828D01*
X8136971Y-12046495D02*
X8136971Y-11846495D01*
X8222685Y-12046495D02*
X8222685Y-11941733D01*
X8222685Y-11941733D02*
X8213161Y-11922685D01*
X8213161Y-11922685D02*
X8194114Y-11913161D01*
X8194114Y-11913161D02*
X8165542Y-11913161D01*
X8165542Y-11913161D02*
X8146494Y-11922685D01*
X8146494Y-11922685D02*
X8136971Y-11932209D01*
X8346494Y-12046495D02*
X8327447Y-12036971D01*
X8327447Y-12036971D02*
X8317923Y-12027447D01*
X8317923Y-12027447D02*
X8308399Y-12008399D01*
X8308399Y-12008399D02*
X8308399Y-11951256D01*
X8308399Y-11951256D02*
X8317923Y-11932209D01*
X8317923Y-11932209D02*
X8327447Y-11922685D01*
X8327447Y-11922685D02*
X8346494Y-11913161D01*
X8346494Y-11913161D02*
X8375066Y-11913161D01*
X8375066Y-11913161D02*
X8394114Y-11922685D01*
X8394114Y-11922685D02*
X8403637Y-11932209D01*
X8403637Y-11932209D02*
X8413161Y-11951256D01*
X8413161Y-11951256D02*
X8413161Y-12008399D01*
X8413161Y-12008399D02*
X8403637Y-12027447D01*
X8403637Y-12027447D02*
X8394114Y-12036971D01*
X8394114Y-12036971D02*
X8375066Y-12046495D01*
X8375066Y-12046495D02*
X8346494Y-12046495D01*
X8527447Y-12046495D02*
X8508399Y-12036971D01*
X8508399Y-12036971D02*
X8498876Y-12017923D01*
X8498876Y-12017923D02*
X8498876Y-11846495D01*
X8679828Y-12036971D02*
X8660780Y-12046495D01*
X8660780Y-12046495D02*
X8622685Y-12046495D01*
X8622685Y-12046495D02*
X8603637Y-12036971D01*
X8603637Y-12036971D02*
X8594114Y-12017923D01*
X8594114Y-12017923D02*
X8594114Y-11941733D01*
X8594114Y-11941733D02*
X8603637Y-11922685D01*
X8603637Y-11922685D02*
X8622685Y-11913161D01*
X8622685Y-11913161D02*
X8660780Y-11913161D01*
X8660780Y-11913161D02*
X8679828Y-11922685D01*
X8679828Y-11922685D02*
X8689352Y-11941733D01*
X8689352Y-11941733D02*
X8689352Y-11960780D01*
X8689352Y-11960780D02*
X8594114Y-11979828D01*
X8765542Y-12036971D02*
X8784590Y-12046495D01*
X8784590Y-12046495D02*
X8822685Y-12046495D01*
X8822685Y-12046495D02*
X8841733Y-12036971D01*
X8841733Y-12036971D02*
X8851257Y-12017923D01*
X8851257Y-12017923D02*
X8851257Y-12008399D01*
X8851257Y-12008399D02*
X8841733Y-11989352D01*
X8841733Y-11989352D02*
X8822685Y-11979828D01*
X8822685Y-11979828D02*
X8794114Y-11979828D01*
X8794114Y-11979828D02*
X8775066Y-11970304D01*
X8775066Y-11970304D02*
X8765542Y-11951256D01*
X8765542Y-11951256D02*
X8765542Y-11941733D01*
X8765542Y-11941733D02*
X8775066Y-11922685D01*
X8775066Y-11922685D02*
X8794114Y-11913161D01*
X8794114Y-11913161D02*
X8822685Y-11913161D01*
X8822685Y-11913161D02*
X8841733Y-11922685D01*
X8917923Y-12122685D02*
X8927447Y-12113161D01*
X8927447Y-12113161D02*
X8946495Y-12084590D01*
X8946495Y-12084590D02*
X8956018Y-12065542D01*
X8956018Y-12065542D02*
X8965542Y-12036971D01*
X8965542Y-12036971D02*
X8975066Y-11989352D01*
X8975066Y-11989352D02*
X8975066Y-11951256D01*
X8975066Y-11951256D02*
X8965542Y-11903637D01*
X8965542Y-11903637D02*
X8956018Y-11875066D01*
X8956018Y-11875066D02*
X8946495Y-11856018D01*
X8946495Y-11856018D02*
X8927447Y-11827447D01*
X8927447Y-11827447D02*
X8917923Y-11817923D01*
D15*
X3933346Y-12264973D02*
X3933346Y-12173048D01*
X3841422Y-12173048D01*
X3841422Y-12264973D01*
X3933346Y-12264973D01*
D11*
X4317923Y-12310495D02*
X4203637Y-12310495D01*
X4260780Y-12310495D02*
X4260780Y-12110495D01*
X4260780Y-12110495D02*
X4241732Y-12139066D01*
X4241732Y-12139066D02*
X4222685Y-12158114D01*
X4222685Y-12158114D02*
X4203637Y-12167637D01*
X4403637Y-12291447D02*
X4413161Y-12300971D01*
X4413161Y-12300971D02*
X4403637Y-12310495D01*
X4403637Y-12310495D02*
X4394113Y-12300971D01*
X4394113Y-12300971D02*
X4403637Y-12291447D01*
X4403637Y-12291447D02*
X4403637Y-12310495D01*
X4479828Y-12110495D02*
X4603637Y-12110495D01*
X4603637Y-12110495D02*
X4536970Y-12186685D01*
X4536970Y-12186685D02*
X4565542Y-12186685D01*
X4565542Y-12186685D02*
X4584589Y-12196209D01*
X4584589Y-12196209D02*
X4594113Y-12205733D01*
X4594113Y-12205733D02*
X4603637Y-12224780D01*
X4603637Y-12224780D02*
X4603637Y-12272399D01*
X4603637Y-12272399D02*
X4594113Y-12291447D01*
X4594113Y-12291447D02*
X4584589Y-12300971D01*
X4584589Y-12300971D02*
X4565542Y-12310495D01*
X4565542Y-12310495D02*
X4508399Y-12310495D01*
X4508399Y-12310495D02*
X4489351Y-12300971D01*
X4489351Y-12300971D02*
X4479828Y-12291447D01*
X4727447Y-12110495D02*
X4746494Y-12110495D01*
X4746494Y-12110495D02*
X4765542Y-12120018D01*
X4765542Y-12120018D02*
X4775066Y-12129542D01*
X4775066Y-12129542D02*
X4784589Y-12148590D01*
X4784589Y-12148590D02*
X4794113Y-12186685D01*
X4794113Y-12186685D02*
X4794113Y-12234304D01*
X4794113Y-12234304D02*
X4784589Y-12272399D01*
X4784589Y-12272399D02*
X4775066Y-12291447D01*
X4775066Y-12291447D02*
X4765542Y-12300971D01*
X4765542Y-12300971D02*
X4746494Y-12310495D01*
X4746494Y-12310495D02*
X4727447Y-12310495D01*
X4727447Y-12310495D02*
X4708399Y-12300971D01*
X4708399Y-12300971D02*
X4698875Y-12291447D01*
X4698875Y-12291447D02*
X4689351Y-12272399D01*
X4689351Y-12272399D02*
X4679828Y-12234304D01*
X4679828Y-12234304D02*
X4679828Y-12186685D01*
X4679828Y-12186685D02*
X4689351Y-12148590D01*
X4689351Y-12148590D02*
X4698875Y-12129542D01*
X4698875Y-12129542D02*
X4708399Y-12120018D01*
X4708399Y-12120018D02*
X4727447Y-12110495D01*
X4917923Y-12110495D02*
X4936970Y-12110495D01*
X4936970Y-12110495D02*
X4956018Y-12120018D01*
X4956018Y-12120018D02*
X4965542Y-12129542D01*
X4965542Y-12129542D02*
X4975066Y-12148590D01*
X4975066Y-12148590D02*
X4984589Y-12186685D01*
X4984589Y-12186685D02*
X4984589Y-12234304D01*
X4984589Y-12234304D02*
X4975066Y-12272399D01*
X4975066Y-12272399D02*
X4965542Y-12291447D01*
X4965542Y-12291447D02*
X4956018Y-12300971D01*
X4956018Y-12300971D02*
X4936970Y-12310495D01*
X4936970Y-12310495D02*
X4917923Y-12310495D01*
X4917923Y-12310495D02*
X4898875Y-12300971D01*
X4898875Y-12300971D02*
X4889351Y-12291447D01*
X4889351Y-12291447D02*
X4879828Y-12272399D01*
X4879828Y-12272399D02*
X4870304Y-12234304D01*
X4870304Y-12234304D02*
X4870304Y-12186685D01*
X4870304Y-12186685D02*
X4879828Y-12148590D01*
X4879828Y-12148590D02*
X4889351Y-12129542D01*
X4889351Y-12129542D02*
X4898875Y-12120018D01*
X4898875Y-12120018D02*
X4917923Y-12110495D01*
X5070304Y-12310495D02*
X5070304Y-12177161D01*
X5070304Y-12196209D02*
X5079828Y-12186685D01*
X5079828Y-12186685D02*
X5098875Y-12177161D01*
X5098875Y-12177161D02*
X5127447Y-12177161D01*
X5127447Y-12177161D02*
X5146494Y-12186685D01*
X5146494Y-12186685D02*
X5156018Y-12205733D01*
X5156018Y-12205733D02*
X5156018Y-12310495D01*
X5156018Y-12205733D02*
X5165542Y-12186685D01*
X5165542Y-12186685D02*
X5184589Y-12177161D01*
X5184589Y-12177161D02*
X5213161Y-12177161D01*
X5213161Y-12177161D02*
X5232209Y-12186685D01*
X5232209Y-12186685D02*
X5241732Y-12205733D01*
X5241732Y-12205733D02*
X5241732Y-12310495D01*
X5336970Y-12310495D02*
X5336970Y-12177161D01*
X5336970Y-12196209D02*
X5346494Y-12186685D01*
X5346494Y-12186685D02*
X5365542Y-12177161D01*
X5365542Y-12177161D02*
X5394113Y-12177161D01*
X5394113Y-12177161D02*
X5413161Y-12186685D01*
X5413161Y-12186685D02*
X5422685Y-12205733D01*
X5422685Y-12205733D02*
X5422685Y-12310495D01*
X5422685Y-12205733D02*
X5432209Y-12186685D01*
X5432209Y-12186685D02*
X5451256Y-12177161D01*
X5451256Y-12177161D02*
X5479828Y-12177161D01*
X5479828Y-12177161D02*
X5498875Y-12186685D01*
X5498875Y-12186685D02*
X5508399Y-12205733D01*
X5508399Y-12205733D02*
X5508399Y-12310495D01*
X5898875Y-12100971D02*
X5727447Y-12358114D01*
X6156018Y-12110495D02*
X6175066Y-12110495D01*
X6175066Y-12110495D02*
X6194113Y-12120018D01*
X6194113Y-12120018D02*
X6203637Y-12129542D01*
X6203637Y-12129542D02*
X6213161Y-12148590D01*
X6213161Y-12148590D02*
X6222685Y-12186685D01*
X6222685Y-12186685D02*
X6222685Y-12234304D01*
X6222685Y-12234304D02*
X6213161Y-12272399D01*
X6213161Y-12272399D02*
X6203637Y-12291447D01*
X6203637Y-12291447D02*
X6194113Y-12300971D01*
X6194113Y-12300971D02*
X6175066Y-12310495D01*
X6175066Y-12310495D02*
X6156018Y-12310495D01*
X6156018Y-12310495D02*
X6136970Y-12300971D01*
X6136970Y-12300971D02*
X6127447Y-12291447D01*
X6127447Y-12291447D02*
X6117923Y-12272399D01*
X6117923Y-12272399D02*
X6108399Y-12234304D01*
X6108399Y-12234304D02*
X6108399Y-12186685D01*
X6108399Y-12186685D02*
X6117923Y-12148590D01*
X6117923Y-12148590D02*
X6127447Y-12129542D01*
X6127447Y-12129542D02*
X6136970Y-12120018D01*
X6136970Y-12120018D02*
X6156018Y-12110495D01*
X6308399Y-12291447D02*
X6317923Y-12300971D01*
X6317923Y-12300971D02*
X6308399Y-12310495D01*
X6308399Y-12310495D02*
X6298875Y-12300971D01*
X6298875Y-12300971D02*
X6308399Y-12291447D01*
X6308399Y-12291447D02*
X6308399Y-12310495D01*
X6441732Y-12110495D02*
X6460780Y-12110495D01*
X6460780Y-12110495D02*
X6479828Y-12120018D01*
X6479828Y-12120018D02*
X6489351Y-12129542D01*
X6489351Y-12129542D02*
X6498875Y-12148590D01*
X6498875Y-12148590D02*
X6508399Y-12186685D01*
X6508399Y-12186685D02*
X6508399Y-12234304D01*
X6508399Y-12234304D02*
X6498875Y-12272399D01*
X6498875Y-12272399D02*
X6489351Y-12291447D01*
X6489351Y-12291447D02*
X6479828Y-12300971D01*
X6479828Y-12300971D02*
X6460780Y-12310495D01*
X6460780Y-12310495D02*
X6441732Y-12310495D01*
X6441732Y-12310495D02*
X6422685Y-12300971D01*
X6422685Y-12300971D02*
X6413161Y-12291447D01*
X6413161Y-12291447D02*
X6403637Y-12272399D01*
X6403637Y-12272399D02*
X6394113Y-12234304D01*
X6394113Y-12234304D02*
X6394113Y-12186685D01*
X6394113Y-12186685D02*
X6403637Y-12148590D01*
X6403637Y-12148590D02*
X6413161Y-12129542D01*
X6413161Y-12129542D02*
X6422685Y-12120018D01*
X6422685Y-12120018D02*
X6441732Y-12110495D01*
X6689351Y-12110495D02*
X6594113Y-12110495D01*
X6594113Y-12110495D02*
X6584590Y-12205733D01*
X6584590Y-12205733D02*
X6594113Y-12196209D01*
X6594113Y-12196209D02*
X6613161Y-12186685D01*
X6613161Y-12186685D02*
X6660780Y-12186685D01*
X6660780Y-12186685D02*
X6679828Y-12196209D01*
X6679828Y-12196209D02*
X6689351Y-12205733D01*
X6689351Y-12205733D02*
X6698875Y-12224780D01*
X6698875Y-12224780D02*
X6698875Y-12272399D01*
X6698875Y-12272399D02*
X6689351Y-12291447D01*
X6689351Y-12291447D02*
X6679828Y-12300971D01*
X6679828Y-12300971D02*
X6660780Y-12310495D01*
X6660780Y-12310495D02*
X6613161Y-12310495D01*
X6613161Y-12310495D02*
X6594113Y-12300971D01*
X6594113Y-12300971D02*
X6584590Y-12291447D01*
X6889351Y-12310495D02*
X6775066Y-12310495D01*
X6832209Y-12310495D02*
X6832209Y-12110495D01*
X6832209Y-12110495D02*
X6813161Y-12139066D01*
X6813161Y-12139066D02*
X6794113Y-12158114D01*
X6794113Y-12158114D02*
X6775066Y-12167637D01*
X6965542Y-12129542D02*
X6975066Y-12120018D01*
X6975066Y-12120018D02*
X6994113Y-12110495D01*
X6994113Y-12110495D02*
X7041732Y-12110495D01*
X7041732Y-12110495D02*
X7060780Y-12120018D01*
X7060780Y-12120018D02*
X7070304Y-12129542D01*
X7070304Y-12129542D02*
X7079828Y-12148590D01*
X7079828Y-12148590D02*
X7079828Y-12167637D01*
X7079828Y-12167637D02*
X7070304Y-12196209D01*
X7070304Y-12196209D02*
X6956018Y-12310495D01*
X6956018Y-12310495D02*
X7079828Y-12310495D01*
X7156018Y-12110495D02*
X7156018Y-12148590D01*
X7232209Y-12110495D02*
X7232209Y-12148590D01*
X7527447Y-12386685D02*
X7517923Y-12377161D01*
X7517923Y-12377161D02*
X7498875Y-12348590D01*
X7498875Y-12348590D02*
X7489352Y-12329542D01*
X7489352Y-12329542D02*
X7479828Y-12300971D01*
X7479828Y-12300971D02*
X7470304Y-12253352D01*
X7470304Y-12253352D02*
X7470304Y-12215256D01*
X7470304Y-12215256D02*
X7479828Y-12167637D01*
X7479828Y-12167637D02*
X7489352Y-12139066D01*
X7489352Y-12139066D02*
X7498875Y-12120018D01*
X7498875Y-12120018D02*
X7517923Y-12091447D01*
X7517923Y-12091447D02*
X7527447Y-12081923D01*
X7594113Y-12129542D02*
X7603637Y-12120018D01*
X7603637Y-12120018D02*
X7622685Y-12110495D01*
X7622685Y-12110495D02*
X7670304Y-12110495D01*
X7670304Y-12110495D02*
X7689352Y-12120018D01*
X7689352Y-12120018D02*
X7698875Y-12129542D01*
X7698875Y-12129542D02*
X7708399Y-12148590D01*
X7708399Y-12148590D02*
X7708399Y-12167637D01*
X7708399Y-12167637D02*
X7698875Y-12196209D01*
X7698875Y-12196209D02*
X7584590Y-12310495D01*
X7584590Y-12310495D02*
X7708399Y-12310495D01*
X7946494Y-12310495D02*
X7946494Y-12110495D01*
X8032209Y-12310495D02*
X8032209Y-12205733D01*
X8032209Y-12205733D02*
X8022685Y-12186685D01*
X8022685Y-12186685D02*
X8003637Y-12177161D01*
X8003637Y-12177161D02*
X7975066Y-12177161D01*
X7975066Y-12177161D02*
X7956018Y-12186685D01*
X7956018Y-12186685D02*
X7946494Y-12196209D01*
X8156018Y-12310495D02*
X8136971Y-12300971D01*
X8136971Y-12300971D02*
X8127447Y-12291447D01*
X8127447Y-12291447D02*
X8117923Y-12272399D01*
X8117923Y-12272399D02*
X8117923Y-12215256D01*
X8117923Y-12215256D02*
X8127447Y-12196209D01*
X8127447Y-12196209D02*
X8136971Y-12186685D01*
X8136971Y-12186685D02*
X8156018Y-12177161D01*
X8156018Y-12177161D02*
X8184590Y-12177161D01*
X8184590Y-12177161D02*
X8203637Y-12186685D01*
X8203637Y-12186685D02*
X8213161Y-12196209D01*
X8213161Y-12196209D02*
X8222685Y-12215256D01*
X8222685Y-12215256D02*
X8222685Y-12272399D01*
X8222685Y-12272399D02*
X8213161Y-12291447D01*
X8213161Y-12291447D02*
X8203637Y-12300971D01*
X8203637Y-12300971D02*
X8184590Y-12310495D01*
X8184590Y-12310495D02*
X8156018Y-12310495D01*
X8336971Y-12310495D02*
X8317923Y-12300971D01*
X8317923Y-12300971D02*
X8308399Y-12281923D01*
X8308399Y-12281923D02*
X8308399Y-12110495D01*
X8489352Y-12300971D02*
X8470304Y-12310495D01*
X8470304Y-12310495D02*
X8432209Y-12310495D01*
X8432209Y-12310495D02*
X8413161Y-12300971D01*
X8413161Y-12300971D02*
X8403637Y-12281923D01*
X8403637Y-12281923D02*
X8403637Y-12205733D01*
X8403637Y-12205733D02*
X8413161Y-12186685D01*
X8413161Y-12186685D02*
X8432209Y-12177161D01*
X8432209Y-12177161D02*
X8470304Y-12177161D01*
X8470304Y-12177161D02*
X8489352Y-12186685D01*
X8489352Y-12186685D02*
X8498876Y-12205733D01*
X8498876Y-12205733D02*
X8498876Y-12224780D01*
X8498876Y-12224780D02*
X8403637Y-12243828D01*
X8575066Y-12300971D02*
X8594114Y-12310495D01*
X8594114Y-12310495D02*
X8632209Y-12310495D01*
X8632209Y-12310495D02*
X8651257Y-12300971D01*
X8651257Y-12300971D02*
X8660780Y-12281923D01*
X8660780Y-12281923D02*
X8660780Y-12272399D01*
X8660780Y-12272399D02*
X8651257Y-12253352D01*
X8651257Y-12253352D02*
X8632209Y-12243828D01*
X8632209Y-12243828D02*
X8603637Y-12243828D01*
X8603637Y-12243828D02*
X8584590Y-12234304D01*
X8584590Y-12234304D02*
X8575066Y-12215256D01*
X8575066Y-12215256D02*
X8575066Y-12205733D01*
X8575066Y-12205733D02*
X8584590Y-12186685D01*
X8584590Y-12186685D02*
X8603637Y-12177161D01*
X8603637Y-12177161D02*
X8632209Y-12177161D01*
X8632209Y-12177161D02*
X8651257Y-12186685D01*
X8727447Y-12386685D02*
X8736971Y-12377161D01*
X8736971Y-12377161D02*
X8756018Y-12348590D01*
X8756018Y-12348590D02*
X8765542Y-12329542D01*
X8765542Y-12329542D02*
X8775066Y-12300971D01*
X8775066Y-12300971D02*
X8784590Y-12253352D01*
X8784590Y-12253352D02*
X8784590Y-12215256D01*
X8784590Y-12215256D02*
X8775066Y-12167637D01*
X8775066Y-12167637D02*
X8765542Y-12139066D01*
X8765542Y-12139066D02*
X8756018Y-12120018D01*
X8756018Y-12120018D02*
X8736971Y-12091447D01*
X8736971Y-12091447D02*
X8727447Y-12081923D01*
M02*
