M48
; DRILL file {KiCad 7.0.6} date Fri Sep 20 23:27:31 2024
; FORMAT={-:-/ absolute / metric / decimal}
; #@! TF.CreationDate,2024-09-20T23:27:31+02:00
; #@! TF.GenerationSoftware,Kicad,Pcbnew,7.0.6
; #@! TF.FileFunction,Plated,1,2,PTH
FMAT,2
METRIC
; #@! TA.AperFunction,Plated,PTH,ViaDrill
T1C0.400
; #@! TA.AperFunction,Plated,PTH,ComponentDrill
T2C0.500
; #@! TA.AperFunction,Plated,PTH,ComponentDrill
T3C1.092
; #@! TA.AperFunction,Plated,PTH,ComponentDrill
T4C1.300
%
G90
G05
T1
X40.98Y-55.54
X40.99Y-42.74
X40.99Y-61.95
X41.0Y-49.14
X41.02Y-68.34
X41.47Y-72.65
X46.97Y-41.24
X46.99Y-47.64
X46.99Y-54.06
X46.99Y-60.45
X46.99Y-66.85
X48.0Y-44.0
X54.0Y-72.0
X55.48Y-58.15
X57.0Y-75.0
X61.0Y-70.0
X62.0Y-59.0
X72.14Y-49.82
X84.73Y-58.74
X88.65Y-50.99
X99.78Y-67.56
T2
X67.096Y-76.375
X67.096Y-77.625
T3
X51.38Y-43.03
X51.38Y-45.57
X51.38Y-48.11
X51.38Y-50.65
X51.38Y-53.19
X51.38Y-55.73
X51.38Y-58.27
X51.38Y-60.81
X51.38Y-63.35
X51.38Y-65.89
X51.38Y-68.43
X51.38Y-70.97
X66.62Y-43.03
X66.62Y-45.57
X66.62Y-48.11
X66.62Y-50.65
X66.62Y-53.19
X66.62Y-55.73
X66.62Y-58.27
X66.62Y-60.81
X66.62Y-63.35
X66.62Y-65.89
X66.62Y-68.43
X66.62Y-70.97
T4
X58.185Y-85.625
X63.815Y-82.375
T0
M30
