G04 #@! TF.GenerationSoftware,KiCad,Pcbnew,7.0.6*
G04 #@! TF.CreationDate,2024-09-20T23:27:03+02:00*
G04 #@! TF.ProjectId,KoalaKeeb_v0.2_right,4b6f616c-614b-4656-9562-5f76302e325f,rev?*
G04 #@! TF.SameCoordinates,Original*
G04 #@! TF.FileFunction,Paste,Top*
G04 #@! TF.FilePolarity,Positive*
%FSLAX46Y46*%
G04 Gerber Fmt 4.6, Leading zero omitted, Abs format (unit mm)*
G04 Created by KiCad (PCBNEW 7.0.6) date 2024-09-20 23:27:03*
%MOMM*%
%LPD*%
G01*
G04 APERTURE LIST*
G04 Aperture macros list*
%AMRoundRect*
0 Rectangle with rounded corners*
0 $1 Rounding radius*
0 $2 $3 $4 $5 $6 $7 $8 $9 X,Y pos of 4 corners*
0 Add a 4 corners polygon primitive as box body*
4,1,4,$2,$3,$4,$5,$6,$7,$8,$9,$2,$3,0*
0 Add four circle primitives for the rounded corners*
1,1,$1+$1,$2,$3*
1,1,$1+$1,$4,$5*
1,1,$1+$1,$6,$7*
1,1,$1+$1,$8,$9*
0 Add four rect primitives between the rounded corners*
20,1,$1+$1,$2,$3,$4,$5,0*
20,1,$1+$1,$4,$5,$6,$7,0*
20,1,$1+$1,$6,$7,$8,$9,0*
20,1,$1+$1,$8,$9,$2,$3,0*%
%AMRotRect*
0 Rectangle, with rotation*
0 The origin of the aperture is its center*
0 $1 length*
0 $2 width*
0 $3 Rotation angle, in degrees counterclockwise*
0 Add horizontal line*
21,1,$1,$2,0,0,$3*%
G04 Aperture macros list end*
%ADD10RotRect,0.500000X1.000000X301.000000*%
%ADD11RotRect,0.500000X0.800000X31.000000*%
%ADD12R,1.700000X0.820000*%
%ADD13RoundRect,0.205000X0.645000X0.205000X-0.645000X0.205000X-0.645000X-0.205000X0.645000X-0.205000X0*%
%ADD14RoundRect,0.205000X-0.645000X-0.205000X0.645000X-0.205000X0.645000X0.205000X-0.645000X0.205000X0*%
G04 APERTURE END LIST*
D10*
X49186924Y-79618553D03*
X50732038Y-82190055D03*
X51504595Y-83475806D03*
D11*
X51436907Y-84916437D03*
X49636856Y-85998017D03*
X46083093Y-80083563D03*
X47883144Y-79001983D03*
D12*
X46550000Y-63650000D03*
X46550000Y-65150000D03*
D13*
X41450000Y-65150000D03*
D12*
X41450000Y-63650000D03*
X41450000Y-49150000D03*
X41450000Y-47650000D03*
D14*
X46550000Y-47650000D03*
D12*
X46550000Y-49150000D03*
X41450000Y-42750000D03*
X41450000Y-41250000D03*
D14*
X46550000Y-41250000D03*
D12*
X46550000Y-42750000D03*
X41450000Y-68350000D03*
X41450000Y-66850000D03*
D14*
X46550000Y-66850000D03*
D12*
X46550000Y-68350000D03*
X46550000Y-44450000D03*
X46550000Y-45950000D03*
D13*
X41450000Y-45950000D03*
D12*
X41450000Y-44450000D03*
X41450000Y-61950000D03*
X41450000Y-60450000D03*
D14*
X46550000Y-60450000D03*
D12*
X46550000Y-61950000D03*
X46550000Y-50850000D03*
X46550000Y-52350000D03*
D13*
X41450000Y-52350000D03*
D12*
X41450000Y-50850000D03*
X46550000Y-57250000D03*
X46550000Y-58750000D03*
D13*
X41450000Y-58750000D03*
D12*
X41450000Y-57250000D03*
X41450000Y-55550000D03*
X41450000Y-54050000D03*
D14*
X46550000Y-54050000D03*
D12*
X46550000Y-55550000D03*
X46550000Y-70050000D03*
X46550000Y-71550000D03*
D13*
X41450000Y-71550000D03*
D12*
X41450000Y-70050000D03*
M02*
