G04 #@! TF.GenerationSoftware,KiCad,Pcbnew,7.0.6*
G04 #@! TF.CreationDate,2023-08-29T20:54:38+02:00*
G04 #@! TF.ProjectId,KoalaKeeb,4b6f616c-614b-4656-9562-2e6b69636164,rev?*
G04 #@! TF.SameCoordinates,Original*
G04 #@! TF.FileFunction,Soldermask,Top*
G04 #@! TF.FilePolarity,Negative*
%FSLAX46Y46*%
G04 Gerber Fmt 4.6, Leading zero omitted, Abs format (unit mm)*
G04 Created by KiCad (PCBNEW 7.0.6) date 2023-08-29 20:54:38*
%MOMM*%
%LPD*%
G01*
G04 APERTURE LIST*
G04 Aperture macros list*
%AMRoundRect*
0 Rectangle with rounded corners*
0 $1 Rounding radius*
0 $2 $3 $4 $5 $6 $7 $8 $9 X,Y pos of 4 corners*
0 Add a 4 corners polygon primitive as box body*
4,1,4,$2,$3,$4,$5,$6,$7,$8,$9,$2,$3,0*
0 Add four circle primitives for the rounded corners*
1,1,$1+$1,$2,$3*
1,1,$1+$1,$4,$5*
1,1,$1+$1,$6,$7*
1,1,$1+$1,$8,$9*
0 Add four rect primitives between the rounded corners*
20,1,$1+$1,$2,$3,$4,$5,0*
20,1,$1+$1,$4,$5,$6,$7,0*
20,1,$1+$1,$6,$7,$8,$9,0*
20,1,$1+$1,$8,$9,$2,$3,0*%
%AMRotRect*
0 Rectangle, with rotation*
0 The origin of the aperture is its center*
0 $1 length*
0 $2 width*
0 $3 Rotation angle, in degrees counterclockwise*
0 Add horizontal line*
21,1,$1,$2,0,0,$3*%
G04 Aperture macros list end*
%ADD10R,1.700000X0.820000*%
%ADD11RoundRect,0.205000X-0.645000X-0.205000X0.645000X-0.205000X0.645000X0.205000X-0.645000X0.205000X0*%
%ADD12C,1.701800*%
%ADD13C,3.000000*%
%ADD14C,3.429000*%
%ADD15C,0.990600*%
%ADD16C,1.000000*%
%ADD17C,2.500000*%
%ADD18C,0.850000*%
%ADD19RotRect,0.500000X1.000000X300.000000*%
%ADD20RotRect,0.500000X0.800000X30.000000*%
%ADD21RotRect,0.500000X1.000000X60.000000*%
%ADD22RotRect,0.500000X0.800000X150.000000*%
%ADD23C,1.752600*%
G04 APERTURE END LIST*
D10*
X43650000Y-70050000D03*
X43650000Y-71550000D03*
X48750000Y-71550000D03*
D11*
X48750000Y-70050000D03*
D10*
X271300000Y-47700000D03*
X271300000Y-49200000D03*
X276400000Y-49200000D03*
D11*
X276400000Y-47700000D03*
D12*
X236500000Y-55000000D03*
D13*
X237000000Y-58750000D03*
D14*
X242000000Y-55000000D03*
D13*
X242000000Y-60950000D03*
D15*
X247220000Y-50800000D03*
D12*
X247500000Y-55000000D03*
D16*
X67096000Y-76375000D03*
X67096000Y-77625000D03*
D12*
X144500000Y-66000000D03*
D13*
X145000000Y-69750000D03*
D14*
X150000000Y-66000000D03*
D13*
X150000000Y-71950000D03*
D15*
X155220000Y-61800000D03*
D12*
X155500000Y-66000000D03*
D10*
X43650000Y-57250000D03*
X43650000Y-58750000D03*
X48750000Y-58750000D03*
D11*
X48750000Y-57250000D03*
D12*
X228583557Y-89044935D03*
D13*
X228424781Y-92824788D03*
D14*
X234000000Y-90000000D03*
D13*
X232966793Y-95859606D03*
D15*
X239870019Y-86770251D03*
D12*
X239416443Y-90955065D03*
D10*
X43650000Y-54050000D03*
X43650000Y-55550000D03*
X48750000Y-55550000D03*
D11*
X48750000Y-54050000D03*
D10*
X271300000Y-66900000D03*
X271300000Y-68400000D03*
X276400000Y-68400000D03*
D11*
X276400000Y-66900000D03*
D10*
X271300000Y-41300000D03*
X271300000Y-42800000D03*
X276400000Y-42800000D03*
D11*
X276400000Y-41300000D03*
D12*
X126500000Y-37000000D03*
D13*
X127000000Y-40750000D03*
D14*
X132000000Y-37000000D03*
D13*
X132000000Y-42950000D03*
D15*
X137220000Y-32800000D03*
D12*
X137500000Y-37000000D03*
D17*
X261814583Y-85625000D03*
X256185417Y-82375000D03*
D12*
X90500000Y-53000000D03*
D13*
X91000000Y-56750000D03*
D14*
X96000000Y-53000000D03*
D13*
X96000000Y-58950000D03*
D15*
X101220000Y-48800000D03*
D12*
X101500000Y-53000000D03*
D10*
X271300000Y-54100000D03*
X271300000Y-55600000D03*
X276400000Y-55600000D03*
D11*
X276400000Y-54100000D03*
D12*
X83500000Y-55000000D03*
D13*
X83000000Y-51250000D03*
D14*
X78000000Y-55000000D03*
D13*
X78000000Y-49050000D03*
D15*
X72780000Y-59200000D03*
D12*
X72500000Y-55000000D03*
D10*
X43650000Y-44450000D03*
X43650000Y-45950000D03*
X48750000Y-45950000D03*
D11*
X48750000Y-44450000D03*
D12*
X218500000Y-36000000D03*
D13*
X219000000Y-39750000D03*
D14*
X224000000Y-36000000D03*
D13*
X224000000Y-41950000D03*
D15*
X229220000Y-31800000D03*
D12*
X229500000Y-36000000D03*
X236500000Y-72000000D03*
D13*
X237000000Y-75750000D03*
D14*
X242000000Y-72000000D03*
D13*
X242000000Y-77950000D03*
D15*
X247220000Y-67800000D03*
D12*
X247500000Y-72000000D03*
D10*
X43650000Y-41250000D03*
X43650000Y-42750000D03*
X48750000Y-42750000D03*
D11*
X48750000Y-41250000D03*
D12*
X90500000Y-70000000D03*
D13*
X91000000Y-73750000D03*
D14*
X96000000Y-70000000D03*
D13*
X96000000Y-75950000D03*
D15*
X101220000Y-65800000D03*
D12*
X101500000Y-70000000D03*
X80583557Y-90955065D03*
D13*
X81727142Y-94561270D03*
D14*
X86000000Y-90000000D03*
D13*
X87033207Y-95859606D03*
D15*
X90411374Y-84957364D03*
D12*
X91416443Y-89044935D03*
X90500000Y-36000000D03*
D13*
X91000000Y-39750000D03*
D14*
X96000000Y-36000000D03*
D13*
X96000000Y-41950000D03*
D15*
X101220000Y-31800000D03*
D12*
X101500000Y-36000000D03*
X62015307Y-98324400D03*
D13*
X64053280Y-101511746D03*
D14*
X67000000Y-96000000D03*
D13*
X69514579Y-101392531D03*
D15*
X69955930Y-89987440D03*
D12*
X71984693Y-93675600D03*
D10*
X271300000Y-60500000D03*
X271300000Y-62000000D03*
X276400000Y-62000000D03*
D11*
X276400000Y-60500000D03*
D10*
X43650000Y-66850000D03*
X43650000Y-68350000D03*
X48750000Y-68350000D03*
D11*
X48750000Y-66850000D03*
D18*
X48250000Y-80700962D03*
X49750000Y-83299038D03*
D19*
X49477147Y-79126443D03*
X50977147Y-81724519D03*
X51727147Y-83023557D03*
D20*
X51634327Y-84462788D03*
X49815673Y-85512788D03*
X46365673Y-79537212D03*
X48184327Y-78487212D03*
D12*
X126500000Y-54000000D03*
D13*
X127000000Y-57750000D03*
D14*
X132000000Y-54000000D03*
D13*
X132000000Y-59950000D03*
D15*
X137220000Y-49800000D03*
D12*
X137500000Y-54000000D03*
X175500000Y-49000000D03*
D13*
X175000000Y-45250000D03*
D14*
X170000000Y-49000000D03*
D13*
X170000000Y-43050000D03*
D15*
X164780000Y-53200000D03*
D12*
X164500000Y-49000000D03*
X182500000Y-71000000D03*
D13*
X183000000Y-74750000D03*
D14*
X188000000Y-71000000D03*
D13*
X188000000Y-76950000D03*
D15*
X193220000Y-66800000D03*
D12*
X193500000Y-71000000D03*
X108500000Y-64000000D03*
D13*
X109000000Y-67750000D03*
D14*
X114000000Y-64000000D03*
D13*
X114000000Y-69950000D03*
D15*
X119220000Y-59800000D03*
D12*
X119500000Y-64000000D03*
D10*
X43650000Y-63650000D03*
X43650000Y-65150000D03*
X48750000Y-65150000D03*
D11*
X48750000Y-63650000D03*
D12*
X200500000Y-47000000D03*
D13*
X201000000Y-50750000D03*
D14*
X206000000Y-47000000D03*
D13*
X206000000Y-52950000D03*
D15*
X211220000Y-42800000D03*
D12*
X211500000Y-47000000D03*
D18*
X270250000Y-83299038D03*
X271750000Y-80700962D03*
D21*
X268272853Y-83023557D03*
X269772853Y-80425481D03*
X270522853Y-79126443D03*
D22*
X271815673Y-78487212D03*
X273634327Y-79537212D03*
X270184327Y-85512788D03*
X268365673Y-84462788D03*
D10*
X43650000Y-47650000D03*
X43650000Y-49150000D03*
X48750000Y-49150000D03*
D11*
X48750000Y-47650000D03*
D12*
X248015307Y-93675600D03*
D13*
X246883643Y-97285563D03*
D14*
X253000000Y-96000000D03*
D13*
X250485421Y-101392531D03*
D15*
X259505923Y-94399575D03*
D12*
X257984693Y-98324400D03*
D16*
X252904000Y-77625000D03*
X252904000Y-76375000D03*
D12*
X126500000Y-71000000D03*
D13*
X127000000Y-74750000D03*
D14*
X132000000Y-71000000D03*
D13*
X132000000Y-76950000D03*
D15*
X137220000Y-66800000D03*
D12*
X137500000Y-71000000D03*
X175500000Y-66000000D03*
D13*
X175000000Y-62250000D03*
D14*
X170000000Y-66000000D03*
D13*
X170000000Y-60050000D03*
D15*
X164780000Y-70200000D03*
D12*
X164500000Y-66000000D03*
D23*
X252380000Y-43030000D03*
X252380000Y-45570000D03*
X252380000Y-48110000D03*
X252380000Y-50650000D03*
X252380000Y-53190000D03*
X252380000Y-55730000D03*
X252380000Y-58270000D03*
X252380000Y-60810000D03*
X252380000Y-63350000D03*
X252380000Y-65890000D03*
X252380000Y-68430000D03*
X252380000Y-70970000D03*
X267620000Y-70970000D03*
X267620000Y-68430000D03*
X267620000Y-65890000D03*
X267620000Y-63350000D03*
X267620000Y-60810000D03*
X267620000Y-58270000D03*
X267620000Y-55730000D03*
X267620000Y-53190000D03*
X267620000Y-50650000D03*
X267620000Y-48110000D03*
X267620000Y-45570000D03*
X267620000Y-43030000D03*
D12*
X200500000Y-64000000D03*
D13*
X201000000Y-67750000D03*
D14*
X206000000Y-64000000D03*
D13*
X206000000Y-69950000D03*
D15*
X211220000Y-59800000D03*
D12*
X211500000Y-64000000D03*
X200500000Y-30000000D03*
D13*
X201000000Y-33750000D03*
D14*
X206000000Y-30000000D03*
D13*
X206000000Y-35950000D03*
D15*
X211220000Y-25800000D03*
D12*
X211500000Y-30000000D03*
D10*
X271300000Y-57300000D03*
X271300000Y-58800000D03*
X276400000Y-58800000D03*
D11*
X276400000Y-57300000D03*
D12*
X236500000Y-38000000D03*
D13*
X237000000Y-41750000D03*
D14*
X242000000Y-38000000D03*
D13*
X242000000Y-43950000D03*
D15*
X247220000Y-33800000D03*
D12*
X247500000Y-38000000D03*
X83500000Y-72000000D03*
D13*
X83000000Y-68250000D03*
D14*
X78000000Y-72000000D03*
D13*
X78000000Y-66050000D03*
D15*
X72780000Y-76200000D03*
D12*
X72500000Y-72000000D03*
X218500000Y-70000000D03*
D13*
X219000000Y-73750000D03*
D14*
X224000000Y-70000000D03*
D13*
X224000000Y-75950000D03*
D15*
X229220000Y-65800000D03*
D12*
X229500000Y-70000000D03*
X144500000Y-83000000D03*
D13*
X145000000Y-86750000D03*
D14*
X150000000Y-83000000D03*
D13*
X150000000Y-88950000D03*
D15*
X155220000Y-78800000D03*
D12*
X155500000Y-83000000D03*
D10*
X43650000Y-50850000D03*
X43650000Y-52350000D03*
X48750000Y-52350000D03*
D11*
X48750000Y-50850000D03*
D12*
X188000000Y-42500000D03*
D13*
X191750000Y-42000000D03*
D14*
X188000000Y-37000000D03*
D13*
X193950000Y-37000000D03*
D15*
X183800000Y-31780000D03*
D12*
X188000000Y-31500000D03*
X83500000Y-38000000D03*
D13*
X83000000Y-34250000D03*
D14*
X78000000Y-38000000D03*
D13*
X78000000Y-32050000D03*
D15*
X72780000Y-42200000D03*
D12*
X72500000Y-38000000D03*
D17*
X63814583Y-82375000D03*
X58185417Y-85625000D03*
D23*
X52380000Y-43030000D03*
X52380000Y-45570000D03*
X52380000Y-48110000D03*
X52380000Y-50650000D03*
X52380000Y-53190000D03*
X52380000Y-55730000D03*
X52380000Y-58270000D03*
X52380000Y-60810000D03*
X52380000Y-63350000D03*
X52380000Y-65890000D03*
X52380000Y-68430000D03*
X52380000Y-70970000D03*
X67620000Y-70970000D03*
X67620000Y-68430000D03*
X67620000Y-65890000D03*
X67620000Y-63350000D03*
X67620000Y-60810000D03*
X67620000Y-58270000D03*
X67620000Y-55730000D03*
X67620000Y-53190000D03*
X67620000Y-50650000D03*
X67620000Y-48110000D03*
X67620000Y-45570000D03*
X67620000Y-43030000D03*
D12*
X108500000Y-30000000D03*
D13*
X109000000Y-33750000D03*
D14*
X114000000Y-30000000D03*
D13*
X114000000Y-35950000D03*
D15*
X119220000Y-25800000D03*
D12*
X119500000Y-30000000D03*
X108500000Y-47000000D03*
D13*
X109000000Y-50750000D03*
D14*
X114000000Y-47000000D03*
D13*
X114000000Y-52950000D03*
D15*
X119220000Y-42800000D03*
D12*
X119500000Y-47000000D03*
X144500000Y-49000000D03*
D13*
X145000000Y-52750000D03*
D14*
X150000000Y-49000000D03*
D13*
X150000000Y-54950000D03*
D15*
X155220000Y-44800000D03*
D12*
X155500000Y-49000000D03*
X182500000Y-54000000D03*
D13*
X183000000Y-57750000D03*
D14*
X188000000Y-54000000D03*
D13*
X188000000Y-59950000D03*
D15*
X193220000Y-49800000D03*
D12*
X193500000Y-54000000D03*
D10*
X43650000Y-60450000D03*
X43650000Y-61950000D03*
X48750000Y-61950000D03*
D11*
X48750000Y-60450000D03*
D10*
X271300000Y-44500000D03*
X271300000Y-46000000D03*
X276400000Y-46000000D03*
D11*
X276400000Y-44500000D03*
D12*
X218500000Y-53000000D03*
D13*
X219000000Y-56750000D03*
D14*
X224000000Y-53000000D03*
D13*
X224000000Y-58950000D03*
D15*
X229220000Y-48800000D03*
D12*
X229500000Y-53000000D03*
D10*
X271300000Y-50900000D03*
X271300000Y-52400000D03*
X276400000Y-52400000D03*
D11*
X276400000Y-50900000D03*
D10*
X271300000Y-63700000D03*
X271300000Y-65200000D03*
X276400000Y-65200000D03*
D11*
X276400000Y-63700000D03*
D10*
X271300000Y-70100000D03*
X271300000Y-71600000D03*
X276400000Y-71600000D03*
D11*
X276400000Y-70100000D03*
D12*
X175500000Y-83000000D03*
D13*
X175000000Y-79250000D03*
D14*
X170000000Y-83000000D03*
D13*
X170000000Y-77050000D03*
D15*
X164780000Y-87200000D03*
D12*
X164500000Y-83000000D03*
M02*
