G04 #@! TF.GenerationSoftware,KiCad,Pcbnew,7.0.6*
G04 #@! TF.CreationDate,2023-08-29T20:54:38+02:00*
G04 #@! TF.ProjectId,KoalaKeeb,4b6f616c-614b-4656-9562-2e6b69636164,rev?*
G04 #@! TF.SameCoordinates,Original*
G04 #@! TF.FileFunction,Paste,Top*
G04 #@! TF.FilePolarity,Positive*
%FSLAX46Y46*%
G04 Gerber Fmt 4.6, Leading zero omitted, Abs format (unit mm)*
G04 Created by KiCad (PCBNEW 7.0.6) date 2023-08-29 20:54:38*
%MOMM*%
%LPD*%
G01*
G04 APERTURE LIST*
G04 Aperture macros list*
%AMRoundRect*
0 Rectangle with rounded corners*
0 $1 Rounding radius*
0 $2 $3 $4 $5 $6 $7 $8 $9 X,Y pos of 4 corners*
0 Add a 4 corners polygon primitive as box body*
4,1,4,$2,$3,$4,$5,$6,$7,$8,$9,$2,$3,0*
0 Add four circle primitives for the rounded corners*
1,1,$1+$1,$2,$3*
1,1,$1+$1,$4,$5*
1,1,$1+$1,$6,$7*
1,1,$1+$1,$8,$9*
0 Add four rect primitives between the rounded corners*
20,1,$1+$1,$2,$3,$4,$5,0*
20,1,$1+$1,$4,$5,$6,$7,0*
20,1,$1+$1,$6,$7,$8,$9,0*
20,1,$1+$1,$8,$9,$2,$3,0*%
%AMRotRect*
0 Rectangle, with rotation*
0 The origin of the aperture is its center*
0 $1 length*
0 $2 width*
0 $3 Rotation angle, in degrees counterclockwise*
0 Add horizontal line*
21,1,$1,$2,0,0,$3*%
G04 Aperture macros list end*
%ADD10R,1.700000X0.820000*%
%ADD11RoundRect,0.205000X-0.645000X-0.205000X0.645000X-0.205000X0.645000X0.205000X-0.645000X0.205000X0*%
%ADD12RotRect,0.500000X1.000000X300.000000*%
%ADD13RotRect,0.500000X0.800000X30.000000*%
%ADD14RotRect,0.500000X1.000000X60.000000*%
%ADD15RotRect,0.500000X0.800000X150.000000*%
G04 APERTURE END LIST*
D10*
X43650000Y-70050000D03*
X43650000Y-71550000D03*
X48750000Y-71550000D03*
D11*
X48750000Y-70050000D03*
D10*
X271300000Y-47700000D03*
X271300000Y-49200000D03*
X276400000Y-49200000D03*
D11*
X276400000Y-47700000D03*
D10*
X43650000Y-57250000D03*
X43650000Y-58750000D03*
X48750000Y-58750000D03*
D11*
X48750000Y-57250000D03*
D10*
X43650000Y-54050000D03*
X43650000Y-55550000D03*
X48750000Y-55550000D03*
D11*
X48750000Y-54050000D03*
D10*
X271300000Y-66900000D03*
X271300000Y-68400000D03*
X276400000Y-68400000D03*
D11*
X276400000Y-66900000D03*
D10*
X271300000Y-41300000D03*
X271300000Y-42800000D03*
X276400000Y-42800000D03*
D11*
X276400000Y-41300000D03*
D10*
X271300000Y-54100000D03*
X271300000Y-55600000D03*
X276400000Y-55600000D03*
D11*
X276400000Y-54100000D03*
D10*
X43650000Y-44450000D03*
X43650000Y-45950000D03*
X48750000Y-45950000D03*
D11*
X48750000Y-44450000D03*
D10*
X43650000Y-41250000D03*
X43650000Y-42750000D03*
X48750000Y-42750000D03*
D11*
X48750000Y-41250000D03*
D10*
X271300000Y-60500000D03*
X271300000Y-62000000D03*
X276400000Y-62000000D03*
D11*
X276400000Y-60500000D03*
D10*
X43650000Y-66850000D03*
X43650000Y-68350000D03*
X48750000Y-68350000D03*
D11*
X48750000Y-66850000D03*
D12*
X49477147Y-79126443D03*
X50977147Y-81724519D03*
X51727147Y-83023557D03*
D13*
X51634327Y-84462788D03*
X49815673Y-85512788D03*
X46365673Y-79537212D03*
X48184327Y-78487212D03*
D10*
X43650000Y-63650000D03*
X43650000Y-65150000D03*
X48750000Y-65150000D03*
D11*
X48750000Y-63650000D03*
D14*
X268272853Y-83023557D03*
X269772853Y-80425481D03*
X270522853Y-79126443D03*
D15*
X271815673Y-78487212D03*
X273634327Y-79537212D03*
X270184327Y-85512788D03*
X268365673Y-84462788D03*
D10*
X43650000Y-47650000D03*
X43650000Y-49150000D03*
X48750000Y-49150000D03*
D11*
X48750000Y-47650000D03*
D10*
X271300000Y-57300000D03*
X271300000Y-58800000D03*
X276400000Y-58800000D03*
D11*
X276400000Y-57300000D03*
D10*
X43650000Y-50850000D03*
X43650000Y-52350000D03*
X48750000Y-52350000D03*
D11*
X48750000Y-50850000D03*
D10*
X43650000Y-60450000D03*
X43650000Y-61950000D03*
X48750000Y-61950000D03*
D11*
X48750000Y-60450000D03*
D10*
X271300000Y-44500000D03*
X271300000Y-46000000D03*
X276400000Y-46000000D03*
D11*
X276400000Y-44500000D03*
D10*
X271300000Y-50900000D03*
X271300000Y-52400000D03*
X276400000Y-52400000D03*
D11*
X276400000Y-50900000D03*
D10*
X271300000Y-63700000D03*
X271300000Y-65200000D03*
X276400000Y-65200000D03*
D11*
X276400000Y-63700000D03*
D10*
X271300000Y-70100000D03*
X271300000Y-71600000D03*
X276400000Y-71600000D03*
D11*
X276400000Y-70100000D03*
M02*
