M48
; DRILL file {KiCad 7.0.6} date Fri Sep 20 23:29:48 2024
; FORMAT={-:-/ absolute / metric / decimal}
; #@! TF.CreationDate,2024-09-20T23:29:48+02:00
; #@! TF.GenerationSoftware,Kicad,Pcbnew,7.0.6
; #@! TF.FileFunction,Plated,1,2,PTH
FMAT,2
METRIC
; #@! TA.AperFunction,Plated,PTH,ViaDrill
T1C0.400
; #@! TA.AperFunction,Plated,PTH,ComponentDrill
T2C0.500
; #@! TA.AperFunction,Plated,PTH,ComponentDrill
T3C1.092
; #@! TA.AperFunction,Plated,PTH,ComponentDrill
T4C1.300
%
G90
G05
T1
X262.28Y-80.61
X267.07Y-75.83
X273.0Y-42.8
X273.0Y-49.19
X273.0Y-55.6
X273.0Y-62.0
X273.0Y-68.39
X278.99Y-41.29
X278.99Y-66.9
X279.0Y-47.7
X279.0Y-54.1
X279.0Y-60.5
X279.78Y-43.83
T2
X252.904Y-76.375
X252.904Y-77.625
T3
X253.38Y-43.03
X253.38Y-45.57
X253.38Y-48.11
X253.38Y-50.65
X253.38Y-53.19
X253.38Y-55.73
X253.38Y-58.27
X253.38Y-60.81
X253.38Y-63.35
X253.38Y-65.89
X253.38Y-68.43
X253.38Y-70.97
X268.62Y-43.03
X268.62Y-45.57
X268.62Y-48.11
X268.62Y-50.65
X268.62Y-53.19
X268.62Y-55.73
X268.62Y-58.27
X268.62Y-60.81
X268.62Y-63.35
X268.62Y-65.89
X268.62Y-68.43
X268.62Y-70.97
T4
X256.185Y-82.375
X261.815Y-85.625
T0
M30
