G04 #@! TF.GenerationSoftware,KiCad,Pcbnew,7.0.6*
G04 #@! TF.CreationDate,2024-09-20T23:27:03+02:00*
G04 #@! TF.ProjectId,KoalaKeeb_v0.2_right,4b6f616c-614b-4656-9562-5f76302e325f,rev?*
G04 #@! TF.SameCoordinates,Original*
G04 #@! TF.FileFunction,Soldermask,Top*
G04 #@! TF.FilePolarity,Negative*
%FSLAX46Y46*%
G04 Gerber Fmt 4.6, Leading zero omitted, Abs format (unit mm)*
G04 Created by KiCad (PCBNEW 7.0.6) date 2024-09-20 23:27:03*
%MOMM*%
%LPD*%
G01*
G04 APERTURE LIST*
G04 Aperture macros list*
%AMRoundRect*
0 Rectangle with rounded corners*
0 $1 Rounding radius*
0 $2 $3 $4 $5 $6 $7 $8 $9 X,Y pos of 4 corners*
0 Add a 4 corners polygon primitive as box body*
4,1,4,$2,$3,$4,$5,$6,$7,$8,$9,$2,$3,0*
0 Add four circle primitives for the rounded corners*
1,1,$1+$1,$2,$3*
1,1,$1+$1,$4,$5*
1,1,$1+$1,$6,$7*
1,1,$1+$1,$8,$9*
0 Add four rect primitives between the rounded corners*
20,1,$1+$1,$2,$3,$4,$5,0*
20,1,$1+$1,$4,$5,$6,$7,0*
20,1,$1+$1,$6,$7,$8,$9,0*
20,1,$1+$1,$8,$9,$2,$3,0*%
%AMRotRect*
0 Rectangle, with rotation*
0 The origin of the aperture is its center*
0 $1 length*
0 $2 width*
0 $3 Rotation angle, in degrees counterclockwise*
0 Add horizontal line*
21,1,$1,$2,0,0,$3*%
G04 Aperture macros list end*
%ADD10C,0.850000*%
%ADD11RotRect,0.500000X1.000000X301.000000*%
%ADD12RotRect,0.500000X0.800000X31.000000*%
%ADD13C,1.000000*%
%ADD14C,1.701800*%
%ADD15C,3.000000*%
%ADD16C,3.429000*%
%ADD17C,0.990600*%
%ADD18R,1.700000X0.820000*%
%ADD19RoundRect,0.205000X0.645000X0.205000X-0.645000X0.205000X-0.645000X-0.205000X0.645000X-0.205000X0*%
%ADD20RoundRect,0.205000X-0.645000X-0.205000X0.645000X-0.205000X0.645000X0.205000X-0.645000X0.205000X0*%
%ADD21C,2.500000*%
%ADD22C,1.752600*%
G04 APERTURE END LIST*
D10*
X47987443Y-81214249D03*
X49532557Y-83785751D03*
D11*
X49186924Y-79618553D03*
X50732038Y-82190055D03*
X51504595Y-83475806D03*
D12*
X51436907Y-84916437D03*
X49636856Y-85998017D03*
X46083093Y-80083563D03*
X47883144Y-79001983D03*
D13*
X67096000Y-76375000D03*
X67096000Y-77625000D03*
D14*
X144500000Y-66000000D03*
D15*
X145000000Y-69750000D03*
D16*
X150000000Y-66000000D03*
D15*
X150000000Y-71950000D03*
D17*
X155220000Y-61800000D03*
D14*
X155500000Y-66000000D03*
X126500000Y-54000000D03*
D15*
X127000000Y-57750000D03*
D16*
X132000000Y-54000000D03*
D15*
X132000000Y-59950000D03*
D17*
X137220000Y-49800000D03*
D14*
X137500000Y-54000000D03*
D18*
X46550000Y-63650000D03*
X46550000Y-65150000D03*
D19*
X41450000Y-65150000D03*
D18*
X41450000Y-63650000D03*
X41450000Y-49150000D03*
X41450000Y-47650000D03*
D20*
X46550000Y-47650000D03*
D18*
X46550000Y-49150000D03*
D14*
X80583557Y-90955065D03*
D15*
X81727142Y-94561270D03*
D16*
X86000000Y-90000000D03*
D15*
X87033207Y-95859606D03*
D17*
X90411374Y-84957364D03*
D14*
X91416443Y-89044935D03*
X108500000Y-64000000D03*
D15*
X109000000Y-67750000D03*
D16*
X114000000Y-64000000D03*
D15*
X114000000Y-69950000D03*
D17*
X119220000Y-59800000D03*
D14*
X119500000Y-64000000D03*
X90500000Y-70000000D03*
D15*
X91000000Y-73750000D03*
D16*
X96000000Y-70000000D03*
D15*
X96000000Y-75950000D03*
D17*
X101220000Y-65800000D03*
D14*
X101500000Y-70000000D03*
X126500000Y-71000000D03*
D15*
X127000000Y-74750000D03*
D16*
X132000000Y-71000000D03*
D15*
X132000000Y-76950000D03*
D17*
X137220000Y-66800000D03*
D14*
X137500000Y-71000000D03*
D18*
X41450000Y-42750000D03*
X41450000Y-41250000D03*
D20*
X46550000Y-41250000D03*
D18*
X46550000Y-42750000D03*
D14*
X62015307Y-98324400D03*
D15*
X64053280Y-101511746D03*
D16*
X67000000Y-96000000D03*
D15*
X69514579Y-101392531D03*
D17*
X69955930Y-89987440D03*
D14*
X71984693Y-93675600D03*
D18*
X41450000Y-68350000D03*
X41450000Y-66850000D03*
D20*
X46550000Y-66850000D03*
D18*
X46550000Y-68350000D03*
D14*
X90500000Y-36000000D03*
D15*
X91000000Y-39750000D03*
D16*
X96000000Y-36000000D03*
D15*
X96000000Y-41950000D03*
D17*
X101220000Y-31800000D03*
D14*
X101500000Y-36000000D03*
D18*
X46550000Y-44450000D03*
X46550000Y-45950000D03*
D19*
X41450000Y-45950000D03*
D18*
X41450000Y-44450000D03*
D14*
X90500000Y-53000000D03*
D15*
X91000000Y-56750000D03*
D16*
X96000000Y-53000000D03*
D15*
X96000000Y-58950000D03*
D17*
X101220000Y-48800000D03*
D14*
X101500000Y-53000000D03*
X83500000Y-55000000D03*
D15*
X83000000Y-51250000D03*
D16*
X78000000Y-55000000D03*
D15*
X78000000Y-49050000D03*
D17*
X72780000Y-59200000D03*
D14*
X72500000Y-55000000D03*
X83500000Y-38000000D03*
D15*
X83000000Y-34250000D03*
D16*
X78000000Y-38000000D03*
D15*
X78000000Y-32050000D03*
D17*
X72780000Y-42200000D03*
D14*
X72500000Y-38000000D03*
D21*
X63814583Y-82375000D03*
X58185417Y-85625000D03*
D22*
X51380000Y-43030000D03*
X51380000Y-45570000D03*
X51380000Y-48110000D03*
X51380000Y-50650000D03*
X51380000Y-53190000D03*
X51380000Y-55730000D03*
X51380000Y-58270000D03*
X51380000Y-60810000D03*
X51380000Y-63350000D03*
X51380000Y-65890000D03*
X51380000Y-68430000D03*
X51380000Y-70970000D03*
X66620000Y-70970000D03*
X66620000Y-68430000D03*
X66620000Y-65890000D03*
X66620000Y-63350000D03*
X66620000Y-60810000D03*
X66620000Y-58270000D03*
X66620000Y-55730000D03*
X66620000Y-53190000D03*
X66620000Y-50650000D03*
X66620000Y-48110000D03*
X66620000Y-45570000D03*
X66620000Y-43030000D03*
D14*
X144500000Y-49000000D03*
D15*
X145000000Y-52750000D03*
D16*
X150000000Y-49000000D03*
D15*
X150000000Y-54950000D03*
D17*
X155220000Y-44800000D03*
D14*
X155500000Y-49000000D03*
X108500000Y-30000000D03*
D15*
X109000000Y-33750000D03*
D16*
X114000000Y-30000000D03*
D15*
X114000000Y-35950000D03*
D17*
X119220000Y-25800000D03*
D14*
X119500000Y-30000000D03*
X108500000Y-47000000D03*
D15*
X109000000Y-50750000D03*
D16*
X114000000Y-47000000D03*
D15*
X114000000Y-52950000D03*
D17*
X119220000Y-42800000D03*
D14*
X119500000Y-47000000D03*
D18*
X41450000Y-61950000D03*
X41450000Y-60450000D03*
D20*
X46550000Y-60450000D03*
D18*
X46550000Y-61950000D03*
D14*
X83500000Y-72000000D03*
D15*
X83000000Y-68250000D03*
D16*
X78000000Y-72000000D03*
D15*
X78000000Y-66050000D03*
D17*
X72780000Y-76200000D03*
D14*
X72500000Y-72000000D03*
X144500000Y-83000000D03*
D15*
X145000000Y-86750000D03*
D16*
X150000000Y-83000000D03*
D15*
X150000000Y-88950000D03*
D17*
X155220000Y-78800000D03*
D14*
X155500000Y-83000000D03*
D18*
X46550000Y-50850000D03*
X46550000Y-52350000D03*
D19*
X41450000Y-52350000D03*
D18*
X41450000Y-50850000D03*
X46550000Y-57250000D03*
X46550000Y-58750000D03*
D19*
X41450000Y-58750000D03*
D18*
X41450000Y-57250000D03*
X41450000Y-55550000D03*
X41450000Y-54050000D03*
D20*
X46550000Y-54050000D03*
D18*
X46550000Y-55550000D03*
D14*
X126500000Y-37000000D03*
D15*
X127000000Y-40750000D03*
D16*
X132000000Y-37000000D03*
D15*
X132000000Y-42950000D03*
D17*
X137220000Y-32800000D03*
D14*
X137500000Y-37000000D03*
D18*
X46550000Y-70050000D03*
X46550000Y-71550000D03*
D19*
X41450000Y-71550000D03*
D18*
X41450000Y-70050000D03*
M02*
