M48
; DRILL file {KiCad 7.0.6} date Tue Aug 29 20:56:30 2023
; FORMAT={-:-/ absolute / metric / decimal}
; #@! TF.CreationDate,2023-08-29T20:56:30+02:00
; #@! TF.GenerationSoftware,Kicad,Pcbnew,7.0.6
; #@! TF.FileFunction,Plated,1,2,PTH
FMAT,2
METRIC
; #@! TA.AperFunction,Plated,PTH,ViaDrill
T1C0.400
; #@! TA.AperFunction,Plated,PTH,ComponentDrill
T2C0.500
; #@! TA.AperFunction,Plated,PTH,ComponentDrill
T3C1.092
; #@! TA.AperFunction,Plated,PTH,ComponentDrill
T4C1.300
%
G90
G05
T1
X53.1Y-74.9
X53.1Y-78.2
X68.0Y-80.4
X69.4Y-76.6
X70.0Y-40.0
X82.6Y-42.8
X87.0Y-49.0
X87.0Y-59.0
X194.2Y-43.0
X209.5Y-49.5
X229.8Y-76.0
X230.0Y-59.0
X245.3Y-75.0
X247.8Y-44.0
X248.0Y-61.0
X271.6Y-74.0
T2
X67.096Y-76.375
X67.096Y-77.625
X252.904Y-76.375
X252.904Y-77.625
T3
X52.38Y-43.03
X52.38Y-45.57
X52.38Y-48.11
X52.38Y-50.65
X52.38Y-53.19
X52.38Y-55.73
X52.38Y-58.27
X52.38Y-60.81
X52.38Y-63.35
X52.38Y-65.89
X52.38Y-68.43
X52.38Y-70.97
X67.62Y-43.03
X67.62Y-45.57
X67.62Y-48.11
X67.62Y-50.65
X67.62Y-53.19
X67.62Y-55.73
X67.62Y-58.27
X67.62Y-60.81
X67.62Y-63.35
X67.62Y-65.89
X67.62Y-68.43
X67.62Y-70.97
X252.38Y-43.03
X252.38Y-45.57
X252.38Y-48.11
X252.38Y-50.65
X252.38Y-53.19
X252.38Y-55.73
X252.38Y-58.27
X252.38Y-60.81
X252.38Y-63.35
X252.38Y-65.89
X252.38Y-68.43
X252.38Y-70.97
X267.62Y-43.03
X267.62Y-45.57
X267.62Y-48.11
X267.62Y-50.65
X267.62Y-53.19
X267.62Y-55.73
X267.62Y-58.27
X267.62Y-60.81
X267.62Y-63.35
X267.62Y-65.89
X267.62Y-68.43
X267.62Y-70.97
T4
X58.185Y-85.625
X63.815Y-82.375
X256.185Y-82.375
X261.815Y-85.625
T0
M30
