M48
; DRILL file {KiCad 7.0.6} date Tue Aug 29 20:56:30 2023
; FORMAT={-:-/ absolute / metric / decimal}
; #@! TF.CreationDate,2023-08-29T20:56:30+02:00
; #@! TF.GenerationSoftware,Kicad,Pcbnew,7.0.6
; #@! TF.FileFunction,NonPlated,1,2,NPTH
FMAT,2
METRIC
; #@! TA.AperFunction,NonPlated,NPTH,ComponentDrill
T1C0.850
; #@! TA.AperFunction,NonPlated,NPTH,ComponentDrill
T2C0.991
; #@! TA.AperFunction,NonPlated,NPTH,ComponentDrill
T3C1.702
; #@! TA.AperFunction,NonPlated,NPTH,ComponentDrill
T4C3.000
; #@! TA.AperFunction,NonPlated,NPTH,ComponentDrill
T5C3.429
%
G90
G05
T1
X48.25Y-80.701
X49.75Y-83.299
X270.25Y-83.299
X271.75Y-80.701
T2
X69.956Y-89.987
X72.78Y-42.2
X72.78Y-59.2
X72.78Y-76.2
X90.411Y-84.957
X101.22Y-31.8
X101.22Y-48.8
X101.22Y-65.8
X119.22Y-25.8
X119.22Y-42.8
X119.22Y-59.8
X137.22Y-32.8
X137.22Y-49.8
X137.22Y-66.8
X155.22Y-44.8
X155.22Y-61.8
X155.22Y-78.8
X164.78Y-53.2
X164.78Y-70.2
X164.78Y-87.2
X183.8Y-31.78
X193.22Y-49.8
X193.22Y-66.8
X211.22Y-25.8
X211.22Y-42.8
X211.22Y-59.8
X229.22Y-31.8
X229.22Y-48.8
X229.22Y-65.8
X239.87Y-86.77
X247.22Y-33.8
X247.22Y-50.8
X247.22Y-67.8
X259.506Y-94.4
T3
X62.015Y-98.324
X71.985Y-93.676
X72.5Y-38.0
X72.5Y-55.0
X72.5Y-72.0
X80.584Y-90.955
X83.5Y-38.0
X83.5Y-55.0
X83.5Y-72.0
X90.5Y-36.0
X90.5Y-53.0
X90.5Y-70.0
X91.416Y-89.045
X101.5Y-36.0
X101.5Y-53.0
X101.5Y-70.0
X108.5Y-30.0
X108.5Y-47.0
X108.5Y-64.0
X119.5Y-30.0
X119.5Y-47.0
X119.5Y-64.0
X126.5Y-37.0
X126.5Y-54.0
X126.5Y-71.0
X137.5Y-37.0
X137.5Y-54.0
X137.5Y-71.0
X144.5Y-49.0
X144.5Y-66.0
X144.5Y-83.0
X155.5Y-49.0
X155.5Y-66.0
X155.5Y-83.0
X164.5Y-49.0
X164.5Y-66.0
X164.5Y-83.0
X175.5Y-49.0
X175.5Y-66.0
X175.5Y-83.0
X182.5Y-54.0
X182.5Y-71.0
X188.0Y-31.5
X188.0Y-42.5
X193.5Y-54.0
X193.5Y-71.0
X200.5Y-30.0
X200.5Y-47.0
X200.5Y-64.0
X211.5Y-30.0
X211.5Y-47.0
X211.5Y-64.0
X218.5Y-36.0
X218.5Y-53.0
X218.5Y-70.0
X228.584Y-89.045
X229.5Y-36.0
X229.5Y-53.0
X229.5Y-70.0
X236.5Y-38.0
X236.5Y-55.0
X236.5Y-72.0
X239.416Y-90.955
X247.5Y-38.0
X247.5Y-55.0
X247.5Y-72.0
X248.015Y-93.676
X257.985Y-98.324
T4
X64.053Y-101.512
X69.515Y-101.393
X78.0Y-32.05
X78.0Y-49.05
X78.0Y-66.05
X81.727Y-94.561
X83.0Y-34.25
X83.0Y-51.25
X83.0Y-68.25
X87.033Y-95.86
X91.0Y-39.75
X91.0Y-56.75
X91.0Y-73.75
X96.0Y-41.95
X96.0Y-58.95
X96.0Y-75.95
X109.0Y-33.75
X109.0Y-50.75
X109.0Y-67.75
X114.0Y-35.95
X114.0Y-52.95
X114.0Y-69.95
X127.0Y-40.75
X127.0Y-57.75
X127.0Y-74.75
X132.0Y-42.95
X132.0Y-59.95
X132.0Y-76.95
X145.0Y-52.75
X145.0Y-69.75
X145.0Y-86.75
X150.0Y-54.95
X150.0Y-71.95
X150.0Y-88.95
X170.0Y-43.05
X170.0Y-60.05
X170.0Y-77.05
X175.0Y-45.25
X175.0Y-62.25
X175.0Y-79.25
X183.0Y-57.75
X183.0Y-74.75
X188.0Y-59.95
X188.0Y-76.95
X191.75Y-42.0
X193.95Y-37.0
X201.0Y-33.75
X201.0Y-50.75
X201.0Y-67.75
X206.0Y-35.95
X206.0Y-52.95
X206.0Y-69.95
X219.0Y-39.75
X219.0Y-56.75
X219.0Y-73.75
X224.0Y-41.95
X224.0Y-58.95
X224.0Y-75.95
X228.425Y-92.825
X232.967Y-95.86
X237.0Y-41.75
X237.0Y-58.75
X237.0Y-75.75
X242.0Y-43.95
X242.0Y-60.95
X242.0Y-77.95
X246.884Y-97.286
X250.485Y-101.393
T5
X67.0Y-96.0
X78.0Y-38.0
X78.0Y-55.0
X78.0Y-72.0
X86.0Y-90.0
X96.0Y-36.0
X96.0Y-53.0
X96.0Y-70.0
X114.0Y-30.0
X114.0Y-47.0
X114.0Y-64.0
X132.0Y-37.0
X132.0Y-54.0
X132.0Y-71.0
X150.0Y-49.0
X150.0Y-66.0
X150.0Y-83.0
X170.0Y-49.0
X170.0Y-66.0
X170.0Y-83.0
X188.0Y-37.0
X188.0Y-54.0
X188.0Y-71.0
X206.0Y-30.0
X206.0Y-47.0
X206.0Y-64.0
X224.0Y-36.0
X224.0Y-53.0
X224.0Y-70.0
X234.0Y-90.0
X242.0Y-38.0
X242.0Y-55.0
X242.0Y-72.0
X253.0Y-96.0
T0
M30
