G04 #@! TF.GenerationSoftware,KiCad,Pcbnew,7.0.6*
G04 #@! TF.CreationDate,2023-08-29T20:54:38+02:00*
G04 #@! TF.ProjectId,KoalaKeeb,4b6f616c-614b-4656-9562-2e6b69636164,rev?*
G04 #@! TF.SameCoordinates,Original*
G04 #@! TF.FileFunction,Profile,NP*
%FSLAX46Y46*%
G04 Gerber Fmt 4.6, Leading zero omitted, Abs format (unit mm)*
G04 Created by KiCad (PCBNEW 7.0.6) date 2023-08-29 20:54:38*
%MOMM*%
%LPD*%
G01*
G04 APERTURE LIST*
G04 #@! TA.AperFunction,Profile*
%ADD10C,0.100000*%
G04 #@! TD*
G04 APERTURE END LIST*
D10*
X153000000Y-93026401D02*
G75*
G03*
X61796928Y-107790785I0J-289073599D01*
G01*
X162504783Y-40554468D02*
X177804796Y-40558632D01*
X71051469Y-29947310D02*
G75*
G03*
X69847310Y-31151469I31J-1204190D01*
G01*
X158500000Y-51900000D02*
X161300000Y-51900000D01*
X68648531Y-38352690D02*
X42851469Y-38247310D01*
X158500000Y-52600000D02*
X161300000Y-52600000D01*
X214404796Y-23158632D02*
X214404796Y-26258632D01*
X158504151Y-41699995D02*
X158500000Y-51900000D01*
X198904796Y-21658596D02*
G75*
G03*
X197404796Y-23158632I4J-1500004D01*
G01*
X166804796Y-93085033D02*
X162104796Y-93058632D01*
X120900000Y-21600000D02*
X106900000Y-21600000D01*
X258007875Y-107849395D02*
G75*
G03*
X259164326Y-107336615I296925J890795D01*
G01*
X103939340Y-27601259D02*
X88500000Y-27600000D01*
X278157486Y-39510101D02*
X278187891Y-74058632D01*
X140500000Y-39000000D02*
X140500000Y-30000000D01*
X158500000Y-59100000D02*
X161300000Y-59100000D01*
X140500038Y-30000000D02*
G75*
G03*
X138918862Y-28418862I-1581138J0D01*
G01*
X161300000Y-59100000D02*
X161308766Y-92179029D01*
X195904796Y-28458596D02*
G75*
G03*
X197404796Y-26958632I4J1499996D01*
G01*
X41616905Y-74000000D02*
G75*
G03*
X41700000Y-74300000I583095J0D01*
G01*
X158500000Y-55900000D02*
X161300000Y-55900000D01*
X161300000Y-55900000D02*
X161300000Y-58500000D01*
X157300013Y-40495836D02*
X142000000Y-40500000D01*
X106900000Y-21600000D02*
G75*
G03*
X105400000Y-23100000I0J-1500000D01*
G01*
X161308735Y-92179026D02*
G75*
G03*
X162104796Y-93058632I796065J-79574D01*
G01*
X214404867Y-26258629D02*
G75*
G03*
X215865456Y-27659891I1460633J60629D01*
G01*
X180885934Y-28477496D02*
G75*
G03*
X179304796Y-30058632I-34J-1581104D01*
G01*
X69847310Y-31151469D02*
X69852690Y-37148531D01*
X161300000Y-52600000D02*
X161300000Y-55200000D01*
X105400000Y-23100000D02*
X105400000Y-26200000D01*
X162504783Y-40554445D02*
G75*
G03*
X161300645Y-41758627I17J-1204155D01*
G01*
X251156265Y-38411322D02*
X276953327Y-38305942D01*
X158500000Y-58500000D02*
X158500000Y-55900000D01*
X259164327Y-107336616D02*
X278104796Y-74358632D01*
X42851469Y-38247310D02*
G75*
G03*
X41647310Y-39451469I31J-1204190D01*
G01*
X232509026Y-28858629D02*
G75*
G03*
X233756265Y-30055534I1247274J51429D01*
G01*
X157700000Y-93000000D02*
G75*
G03*
X158496030Y-92120397I0J800000D01*
G01*
X158504164Y-41699995D02*
G75*
G03*
X157300013Y-40495836I-1204164J-5D01*
G01*
X153000000Y-93026401D02*
X157700000Y-93000000D01*
X233756265Y-30055534D02*
X248753327Y-30005942D01*
X214404768Y-23158632D02*
G75*
G03*
X212904796Y-21658632I-1499968J32D01*
G01*
X161300000Y-58500000D02*
X158500000Y-58500000D01*
X161300000Y-55200000D02*
X158500000Y-55200000D01*
X197404796Y-26958632D02*
X197404796Y-23158632D01*
X258007868Y-107849418D02*
G75*
G03*
X166804796Y-93085033I-91203068J-274309182D01*
G01*
X232508927Y-28858632D02*
G75*
G03*
X231304796Y-27654473I-1204127J32D01*
G01*
X122400000Y-26900000D02*
X122400000Y-23100000D01*
X68648531Y-38352690D02*
G75*
G03*
X69852690Y-37148531I-31J1204190D01*
G01*
X278157458Y-39510101D02*
G75*
G03*
X276953327Y-38305942I-1204158J1D01*
G01*
X122400000Y-23100000D02*
G75*
G03*
X120900000Y-21600000I-1500000J0D01*
G01*
X249957458Y-31210101D02*
G75*
G03*
X248753327Y-30005942I-1204158J1D01*
G01*
X161300645Y-41758627D02*
X161300000Y-51900000D01*
X198904796Y-21658632D02*
X212904796Y-21658632D01*
X41647310Y-39451469D02*
X41616905Y-74000000D01*
X249957486Y-31210101D02*
X249952106Y-37207163D01*
X60640469Y-107277984D02*
X41700000Y-74300000D01*
X122400000Y-26900000D02*
G75*
G03*
X123900000Y-28400000I1500000J0D01*
G01*
X88500000Y-27595841D02*
G75*
G03*
X87295841Y-28800000I0J-1204159D01*
G01*
X140500000Y-39000000D02*
G75*
G03*
X142000000Y-40500000I1500000J0D01*
G01*
X158500000Y-55200000D02*
X158500000Y-52600000D01*
X177804796Y-40558596D02*
G75*
G03*
X179304796Y-39058632I4J1499996D01*
G01*
X103939340Y-27601260D02*
G75*
G03*
X105399999Y-26200000I-40J1461960D01*
G01*
X180885934Y-28477494D02*
X195904796Y-28458632D01*
X86048531Y-29996903D02*
G75*
G03*
X87295840Y-28800000I-31J1248403D01*
G01*
X179304796Y-39058632D02*
X179304796Y-30058632D01*
X215865456Y-27659891D02*
X231304796Y-27658632D01*
X60640471Y-107277983D02*
G75*
G03*
X61796928Y-107790783I859529J377983D01*
G01*
X278104781Y-74358623D02*
G75*
G03*
X278187891Y-74058632I-499981J300023D01*
G01*
X138918862Y-28418862D02*
X123900000Y-28400000D01*
X158496030Y-92120397D02*
X158500000Y-59100000D01*
X86048531Y-29996902D02*
X71051469Y-29947310D01*
X249952178Y-37207163D02*
G75*
G03*
X251156265Y-38411322I1204122J-37D01*
G01*
M02*
