G04 #@! TF.GenerationSoftware,KiCad,Pcbnew,7.0.6*
G04 #@! TF.CreationDate,2023-08-29T20:54:38+02:00*
G04 #@! TF.ProjectId,KoalaKeeb,4b6f616c-614b-4656-9562-2e6b69636164,rev?*
G04 #@! TF.SameCoordinates,Original*
G04 #@! TF.FileFunction,Legend,Bot*
G04 #@! TF.FilePolarity,Positive*
%FSLAX46Y46*%
G04 Gerber Fmt 4.6, Leading zero omitted, Abs format (unit mm)*
G04 Created by KiCad (PCBNEW 7.0.6) date 2023-08-29 20:54:38*
%MOMM*%
%LPD*%
G01*
G04 APERTURE LIST*
G04 Aperture macros list*
%AMRotRect*
0 Rectangle, with rotation*
0 The origin of the aperture is its center*
0 $1 length*
0 $2 width*
0 $3 Rotation angle, in degrees counterclockwise*
0 Add horizontal line*
21,1,$1,$2,0,0,$3*%
G04 Aperture macros list end*
%ADD10C,0.150000*%
%ADD11C,0.381000*%
%ADD12C,1.752600*%
%ADD13C,1.701800*%
%ADD14C,3.000000*%
%ADD15C,3.429000*%
%ADD16C,0.990600*%
%ADD17R,2.600000X2.600000*%
%ADD18C,1.000000*%
%ADD19RotRect,2.600000X2.600000X350.000000*%
%ADD20C,2.500000*%
%ADD21RotRect,2.600000X2.600000X10.000000*%
%ADD22RotRect,2.600000X2.600000X25.000000*%
%ADD23C,0.850000*%
%ADD24RotRect,2.600000X2.600000X335.000000*%
G04 APERTURE END LIST*
D10*
X238809523Y-53407200D02*
X238666666Y-53454819D01*
X238666666Y-53454819D02*
X238428571Y-53454819D01*
X238428571Y-53454819D02*
X238333333Y-53407200D01*
X238333333Y-53407200D02*
X238285714Y-53359580D01*
X238285714Y-53359580D02*
X238238095Y-53264342D01*
X238238095Y-53264342D02*
X238238095Y-53169104D01*
X238238095Y-53169104D02*
X238285714Y-53073866D01*
X238285714Y-53073866D02*
X238333333Y-53026247D01*
X238333333Y-53026247D02*
X238428571Y-52978628D01*
X238428571Y-52978628D02*
X238619047Y-52931009D01*
X238619047Y-52931009D02*
X238714285Y-52883390D01*
X238714285Y-52883390D02*
X238761904Y-52835771D01*
X238761904Y-52835771D02*
X238809523Y-52740533D01*
X238809523Y-52740533D02*
X238809523Y-52645295D01*
X238809523Y-52645295D02*
X238761904Y-52550057D01*
X238761904Y-52550057D02*
X238714285Y-52502438D01*
X238714285Y-52502438D02*
X238619047Y-52454819D01*
X238619047Y-52454819D02*
X238380952Y-52454819D01*
X238380952Y-52454819D02*
X238238095Y-52502438D01*
X237904761Y-52454819D02*
X237666666Y-53454819D01*
X237666666Y-53454819D02*
X237476190Y-52740533D01*
X237476190Y-52740533D02*
X237285714Y-53454819D01*
X237285714Y-53454819D02*
X237047619Y-52454819D01*
X236142857Y-53454819D02*
X236714285Y-53454819D01*
X236428571Y-53454819D02*
X236428571Y-52454819D01*
X236428571Y-52454819D02*
X236523809Y-52597676D01*
X236523809Y-52597676D02*
X236619047Y-52692914D01*
X236619047Y-52692914D02*
X236714285Y-52740533D01*
X235523809Y-52454819D02*
X235428571Y-52454819D01*
X235428571Y-52454819D02*
X235333333Y-52502438D01*
X235333333Y-52502438D02*
X235285714Y-52550057D01*
X235285714Y-52550057D02*
X235238095Y-52645295D01*
X235238095Y-52645295D02*
X235190476Y-52835771D01*
X235190476Y-52835771D02*
X235190476Y-53073866D01*
X235190476Y-53073866D02*
X235238095Y-53264342D01*
X235238095Y-53264342D02*
X235285714Y-53359580D01*
X235285714Y-53359580D02*
X235333333Y-53407200D01*
X235333333Y-53407200D02*
X235428571Y-53454819D01*
X235428571Y-53454819D02*
X235523809Y-53454819D01*
X235523809Y-53454819D02*
X235619047Y-53407200D01*
X235619047Y-53407200D02*
X235666666Y-53359580D01*
X235666666Y-53359580D02*
X235714285Y-53264342D01*
X235714285Y-53264342D02*
X235761904Y-53073866D01*
X235761904Y-53073866D02*
X235761904Y-52835771D01*
X235761904Y-52835771D02*
X235714285Y-52645295D01*
X235714285Y-52645295D02*
X235666666Y-52550057D01*
X235666666Y-52550057D02*
X235619047Y-52502438D01*
X235619047Y-52502438D02*
X235523809Y-52454819D01*
X146809523Y-64407200D02*
X146666666Y-64454819D01*
X146666666Y-64454819D02*
X146428571Y-64454819D01*
X146428571Y-64454819D02*
X146333333Y-64407200D01*
X146333333Y-64407200D02*
X146285714Y-64359580D01*
X146285714Y-64359580D02*
X146238095Y-64264342D01*
X146238095Y-64264342D02*
X146238095Y-64169104D01*
X146238095Y-64169104D02*
X146285714Y-64073866D01*
X146285714Y-64073866D02*
X146333333Y-64026247D01*
X146333333Y-64026247D02*
X146428571Y-63978628D01*
X146428571Y-63978628D02*
X146619047Y-63931009D01*
X146619047Y-63931009D02*
X146714285Y-63883390D01*
X146714285Y-63883390D02*
X146761904Y-63835771D01*
X146761904Y-63835771D02*
X146809523Y-63740533D01*
X146809523Y-63740533D02*
X146809523Y-63645295D01*
X146809523Y-63645295D02*
X146761904Y-63550057D01*
X146761904Y-63550057D02*
X146714285Y-63502438D01*
X146714285Y-63502438D02*
X146619047Y-63454819D01*
X146619047Y-63454819D02*
X146380952Y-63454819D01*
X146380952Y-63454819D02*
X146238095Y-63502438D01*
X145904761Y-63454819D02*
X145666666Y-64454819D01*
X145666666Y-64454819D02*
X145476190Y-63740533D01*
X145476190Y-63740533D02*
X145285714Y-64454819D01*
X145285714Y-64454819D02*
X145047619Y-63454819D01*
X144714285Y-63550057D02*
X144666666Y-63502438D01*
X144666666Y-63502438D02*
X144571428Y-63454819D01*
X144571428Y-63454819D02*
X144333333Y-63454819D01*
X144333333Y-63454819D02*
X144238095Y-63502438D01*
X144238095Y-63502438D02*
X144190476Y-63550057D01*
X144190476Y-63550057D02*
X144142857Y-63645295D01*
X144142857Y-63645295D02*
X144142857Y-63740533D01*
X144142857Y-63740533D02*
X144190476Y-63883390D01*
X144190476Y-63883390D02*
X144761904Y-64454819D01*
X144761904Y-64454819D02*
X144142857Y-64454819D01*
X143809523Y-63454819D02*
X143142857Y-63454819D01*
X143142857Y-63454819D02*
X143571428Y-64454819D01*
X231134581Y-87877378D02*
X230985625Y-87899466D01*
X230985625Y-87899466D02*
X230751147Y-87858122D01*
X230751147Y-87858122D02*
X230665625Y-87794688D01*
X230665625Y-87794688D02*
X230626998Y-87739524D01*
X230626998Y-87739524D02*
X230596641Y-87637463D01*
X230596641Y-87637463D02*
X230613179Y-87543672D01*
X230613179Y-87543672D02*
X230676612Y-87458150D01*
X230676612Y-87458150D02*
X230731777Y-87419523D01*
X230731777Y-87419523D02*
X230833837Y-87389166D01*
X230833837Y-87389166D02*
X231029688Y-87375346D01*
X231029688Y-87375346D02*
X231131748Y-87344988D01*
X231131748Y-87344988D02*
X231186913Y-87306361D01*
X231186913Y-87306361D02*
X231250346Y-87220839D01*
X231250346Y-87220839D02*
X231266884Y-87127048D01*
X231266884Y-87127048D02*
X231236527Y-87024988D01*
X231236527Y-87024988D02*
X231197900Y-86969823D01*
X231197900Y-86969823D02*
X231112378Y-86906390D01*
X231112378Y-86906390D02*
X230877900Y-86865045D01*
X230877900Y-86865045D02*
X230728944Y-86887134D01*
X230408944Y-86782355D02*
X230000817Y-87725818D01*
X230000817Y-87725818D02*
X229937269Y-86989308D01*
X229937269Y-86989308D02*
X229625653Y-87659667D01*
X229625653Y-87659667D02*
X229564823Y-86633514D01*
X228500158Y-87461212D02*
X229062905Y-87560439D01*
X228781532Y-87510825D02*
X228955180Y-86526018D01*
X228955180Y-86526018D02*
X229024164Y-86683242D01*
X229024164Y-86683242D02*
X229101418Y-86793571D01*
X229101418Y-86793571D02*
X229186940Y-86857005D01*
X227829685Y-86327562D02*
X228017268Y-86360638D01*
X228017268Y-86360638D02*
X228102790Y-86424072D01*
X228102790Y-86424072D02*
X228141417Y-86479236D01*
X228141417Y-86479236D02*
X228210401Y-86636461D01*
X228210401Y-86636461D02*
X228224221Y-86832313D01*
X228224221Y-86832313D02*
X228158069Y-87207477D01*
X228158069Y-87207477D02*
X228094636Y-87293000D01*
X228094636Y-87293000D02*
X228039471Y-87331626D01*
X228039471Y-87331626D02*
X227937411Y-87361984D01*
X227937411Y-87361984D02*
X227749828Y-87328908D01*
X227749828Y-87328908D02*
X227664306Y-87265475D01*
X227664306Y-87265475D02*
X227625680Y-87210310D01*
X227625680Y-87210310D02*
X227595322Y-87108250D01*
X227595322Y-87108250D02*
X227636667Y-86873772D01*
X227636667Y-86873772D02*
X227700100Y-86788250D01*
X227700100Y-86788250D02*
X227755265Y-86749623D01*
X227755265Y-86749623D02*
X227857325Y-86719265D01*
X227857325Y-86719265D02*
X228044907Y-86752341D01*
X228044907Y-86752341D02*
X228130430Y-86815775D01*
X228130430Y-86815775D02*
X228169056Y-86870939D01*
X228169056Y-86870939D02*
X228199414Y-86972999D01*
X128809523Y-35407200D02*
X128666666Y-35454819D01*
X128666666Y-35454819D02*
X128428571Y-35454819D01*
X128428571Y-35454819D02*
X128333333Y-35407200D01*
X128333333Y-35407200D02*
X128285714Y-35359580D01*
X128285714Y-35359580D02*
X128238095Y-35264342D01*
X128238095Y-35264342D02*
X128238095Y-35169104D01*
X128238095Y-35169104D02*
X128285714Y-35073866D01*
X128285714Y-35073866D02*
X128333333Y-35026247D01*
X128333333Y-35026247D02*
X128428571Y-34978628D01*
X128428571Y-34978628D02*
X128619047Y-34931009D01*
X128619047Y-34931009D02*
X128714285Y-34883390D01*
X128714285Y-34883390D02*
X128761904Y-34835771D01*
X128761904Y-34835771D02*
X128809523Y-34740533D01*
X128809523Y-34740533D02*
X128809523Y-34645295D01*
X128809523Y-34645295D02*
X128761904Y-34550057D01*
X128761904Y-34550057D02*
X128714285Y-34502438D01*
X128714285Y-34502438D02*
X128619047Y-34454819D01*
X128619047Y-34454819D02*
X128380952Y-34454819D01*
X128380952Y-34454819D02*
X128238095Y-34502438D01*
X127904761Y-34454819D02*
X127666666Y-35454819D01*
X127666666Y-35454819D02*
X127476190Y-34740533D01*
X127476190Y-34740533D02*
X127285714Y-35454819D01*
X127285714Y-35454819D02*
X127047619Y-34454819D01*
X126714285Y-34550057D02*
X126666666Y-34502438D01*
X126666666Y-34502438D02*
X126571428Y-34454819D01*
X126571428Y-34454819D02*
X126333333Y-34454819D01*
X126333333Y-34454819D02*
X126238095Y-34502438D01*
X126238095Y-34502438D02*
X126190476Y-34550057D01*
X126190476Y-34550057D02*
X126142857Y-34645295D01*
X126142857Y-34645295D02*
X126142857Y-34740533D01*
X126142857Y-34740533D02*
X126190476Y-34883390D01*
X126190476Y-34883390D02*
X126761904Y-35454819D01*
X126761904Y-35454819D02*
X126142857Y-35454819D01*
X125190476Y-35454819D02*
X125761904Y-35454819D01*
X125476190Y-35454819D02*
X125476190Y-34454819D01*
X125476190Y-34454819D02*
X125571428Y-34597676D01*
X125571428Y-34597676D02*
X125666666Y-34692914D01*
X125666666Y-34692914D02*
X125761904Y-34740533D01*
X92809523Y-51407200D02*
X92666666Y-51454819D01*
X92666666Y-51454819D02*
X92428571Y-51454819D01*
X92428571Y-51454819D02*
X92333333Y-51407200D01*
X92333333Y-51407200D02*
X92285714Y-51359580D01*
X92285714Y-51359580D02*
X92238095Y-51264342D01*
X92238095Y-51264342D02*
X92238095Y-51169104D01*
X92238095Y-51169104D02*
X92285714Y-51073866D01*
X92285714Y-51073866D02*
X92333333Y-51026247D01*
X92333333Y-51026247D02*
X92428571Y-50978628D01*
X92428571Y-50978628D02*
X92619047Y-50931009D01*
X92619047Y-50931009D02*
X92714285Y-50883390D01*
X92714285Y-50883390D02*
X92761904Y-50835771D01*
X92761904Y-50835771D02*
X92809523Y-50740533D01*
X92809523Y-50740533D02*
X92809523Y-50645295D01*
X92809523Y-50645295D02*
X92761904Y-50550057D01*
X92761904Y-50550057D02*
X92714285Y-50502438D01*
X92714285Y-50502438D02*
X92619047Y-50454819D01*
X92619047Y-50454819D02*
X92380952Y-50454819D01*
X92380952Y-50454819D02*
X92238095Y-50502438D01*
X91904761Y-50454819D02*
X91666666Y-51454819D01*
X91666666Y-51454819D02*
X91476190Y-50740533D01*
X91476190Y-50740533D02*
X91285714Y-51454819D01*
X91285714Y-51454819D02*
X91047619Y-50454819D01*
X90714285Y-50550057D02*
X90666666Y-50502438D01*
X90666666Y-50502438D02*
X90571428Y-50454819D01*
X90571428Y-50454819D02*
X90333333Y-50454819D01*
X90333333Y-50454819D02*
X90238095Y-50502438D01*
X90238095Y-50502438D02*
X90190476Y-50550057D01*
X90190476Y-50550057D02*
X90142857Y-50645295D01*
X90142857Y-50645295D02*
X90142857Y-50740533D01*
X90142857Y-50740533D02*
X90190476Y-50883390D01*
X90190476Y-50883390D02*
X90761904Y-51454819D01*
X90761904Y-51454819D02*
X90142857Y-51454819D01*
X89285714Y-50788152D02*
X89285714Y-51454819D01*
X89523809Y-50407200D02*
X89761904Y-51121485D01*
X89761904Y-51121485D02*
X89142857Y-51121485D01*
X84809523Y-57407200D02*
X84666666Y-57454819D01*
X84666666Y-57454819D02*
X84428571Y-57454819D01*
X84428571Y-57454819D02*
X84333333Y-57407200D01*
X84333333Y-57407200D02*
X84285714Y-57359580D01*
X84285714Y-57359580D02*
X84238095Y-57264342D01*
X84238095Y-57264342D02*
X84238095Y-57169104D01*
X84238095Y-57169104D02*
X84285714Y-57073866D01*
X84285714Y-57073866D02*
X84333333Y-57026247D01*
X84333333Y-57026247D02*
X84428571Y-56978628D01*
X84428571Y-56978628D02*
X84619047Y-56931009D01*
X84619047Y-56931009D02*
X84714285Y-56883390D01*
X84714285Y-56883390D02*
X84761904Y-56835771D01*
X84761904Y-56835771D02*
X84809523Y-56740533D01*
X84809523Y-56740533D02*
X84809523Y-56645295D01*
X84809523Y-56645295D02*
X84761904Y-56550057D01*
X84761904Y-56550057D02*
X84714285Y-56502438D01*
X84714285Y-56502438D02*
X84619047Y-56454819D01*
X84619047Y-56454819D02*
X84380952Y-56454819D01*
X84380952Y-56454819D02*
X84238095Y-56502438D01*
X83904761Y-56454819D02*
X83666666Y-57454819D01*
X83666666Y-57454819D02*
X83476190Y-56740533D01*
X83476190Y-56740533D02*
X83285714Y-57454819D01*
X83285714Y-57454819D02*
X83047619Y-56454819D01*
X82714285Y-56550057D02*
X82666666Y-56502438D01*
X82666666Y-56502438D02*
X82571428Y-56454819D01*
X82571428Y-56454819D02*
X82333333Y-56454819D01*
X82333333Y-56454819D02*
X82238095Y-56502438D01*
X82238095Y-56502438D02*
X82190476Y-56550057D01*
X82190476Y-56550057D02*
X82142857Y-56645295D01*
X82142857Y-56645295D02*
X82142857Y-56740533D01*
X82142857Y-56740533D02*
X82190476Y-56883390D01*
X82190476Y-56883390D02*
X82761904Y-57454819D01*
X82761904Y-57454819D02*
X82142857Y-57454819D01*
X81809523Y-56454819D02*
X81190476Y-56454819D01*
X81190476Y-56454819D02*
X81523809Y-56835771D01*
X81523809Y-56835771D02*
X81380952Y-56835771D01*
X81380952Y-56835771D02*
X81285714Y-56883390D01*
X81285714Y-56883390D02*
X81238095Y-56931009D01*
X81238095Y-56931009D02*
X81190476Y-57026247D01*
X81190476Y-57026247D02*
X81190476Y-57264342D01*
X81190476Y-57264342D02*
X81238095Y-57359580D01*
X81238095Y-57359580D02*
X81285714Y-57407200D01*
X81285714Y-57407200D02*
X81380952Y-57454819D01*
X81380952Y-57454819D02*
X81666666Y-57454819D01*
X81666666Y-57454819D02*
X81761904Y-57407200D01*
X81761904Y-57407200D02*
X81809523Y-57359580D01*
X220333332Y-34407200D02*
X220190475Y-34454819D01*
X220190475Y-34454819D02*
X219952380Y-34454819D01*
X219952380Y-34454819D02*
X219857142Y-34407200D01*
X219857142Y-34407200D02*
X219809523Y-34359580D01*
X219809523Y-34359580D02*
X219761904Y-34264342D01*
X219761904Y-34264342D02*
X219761904Y-34169104D01*
X219761904Y-34169104D02*
X219809523Y-34073866D01*
X219809523Y-34073866D02*
X219857142Y-34026247D01*
X219857142Y-34026247D02*
X219952380Y-33978628D01*
X219952380Y-33978628D02*
X220142856Y-33931009D01*
X220142856Y-33931009D02*
X220238094Y-33883390D01*
X220238094Y-33883390D02*
X220285713Y-33835771D01*
X220285713Y-33835771D02*
X220333332Y-33740533D01*
X220333332Y-33740533D02*
X220333332Y-33645295D01*
X220333332Y-33645295D02*
X220285713Y-33550057D01*
X220285713Y-33550057D02*
X220238094Y-33502438D01*
X220238094Y-33502438D02*
X220142856Y-33454819D01*
X220142856Y-33454819D02*
X219904761Y-33454819D01*
X219904761Y-33454819D02*
X219761904Y-33502438D01*
X219428570Y-33454819D02*
X219190475Y-34454819D01*
X219190475Y-34454819D02*
X218999999Y-33740533D01*
X218999999Y-33740533D02*
X218809523Y-34454819D01*
X218809523Y-34454819D02*
X218571428Y-33454819D01*
X217761904Y-33788152D02*
X217761904Y-34454819D01*
X217999999Y-33407200D02*
X218238094Y-34121485D01*
X218238094Y-34121485D02*
X217619047Y-34121485D01*
X238809523Y-70407200D02*
X238666666Y-70454819D01*
X238666666Y-70454819D02*
X238428571Y-70454819D01*
X238428571Y-70454819D02*
X238333333Y-70407200D01*
X238333333Y-70407200D02*
X238285714Y-70359580D01*
X238285714Y-70359580D02*
X238238095Y-70264342D01*
X238238095Y-70264342D02*
X238238095Y-70169104D01*
X238238095Y-70169104D02*
X238285714Y-70073866D01*
X238285714Y-70073866D02*
X238333333Y-70026247D01*
X238333333Y-70026247D02*
X238428571Y-69978628D01*
X238428571Y-69978628D02*
X238619047Y-69931009D01*
X238619047Y-69931009D02*
X238714285Y-69883390D01*
X238714285Y-69883390D02*
X238761904Y-69835771D01*
X238761904Y-69835771D02*
X238809523Y-69740533D01*
X238809523Y-69740533D02*
X238809523Y-69645295D01*
X238809523Y-69645295D02*
X238761904Y-69550057D01*
X238761904Y-69550057D02*
X238714285Y-69502438D01*
X238714285Y-69502438D02*
X238619047Y-69454819D01*
X238619047Y-69454819D02*
X238380952Y-69454819D01*
X238380952Y-69454819D02*
X238238095Y-69502438D01*
X237904761Y-69454819D02*
X237666666Y-70454819D01*
X237666666Y-70454819D02*
X237476190Y-69740533D01*
X237476190Y-69740533D02*
X237285714Y-70454819D01*
X237285714Y-70454819D02*
X237047619Y-69454819D01*
X236142857Y-70454819D02*
X236714285Y-70454819D01*
X236428571Y-70454819D02*
X236428571Y-69454819D01*
X236428571Y-69454819D02*
X236523809Y-69597676D01*
X236523809Y-69597676D02*
X236619047Y-69692914D01*
X236619047Y-69692914D02*
X236714285Y-69740533D01*
X235238095Y-69454819D02*
X235714285Y-69454819D01*
X235714285Y-69454819D02*
X235761904Y-69931009D01*
X235761904Y-69931009D02*
X235714285Y-69883390D01*
X235714285Y-69883390D02*
X235619047Y-69835771D01*
X235619047Y-69835771D02*
X235380952Y-69835771D01*
X235380952Y-69835771D02*
X235285714Y-69883390D01*
X235285714Y-69883390D02*
X235238095Y-69931009D01*
X235238095Y-69931009D02*
X235190476Y-70026247D01*
X235190476Y-70026247D02*
X235190476Y-70264342D01*
X235190476Y-70264342D02*
X235238095Y-70359580D01*
X235238095Y-70359580D02*
X235285714Y-70407200D01*
X235285714Y-70407200D02*
X235380952Y-70454819D01*
X235380952Y-70454819D02*
X235619047Y-70454819D01*
X235619047Y-70454819D02*
X235714285Y-70407200D01*
X235714285Y-70407200D02*
X235761904Y-70359580D01*
X92809523Y-68407200D02*
X92666666Y-68454819D01*
X92666666Y-68454819D02*
X92428571Y-68454819D01*
X92428571Y-68454819D02*
X92333333Y-68407200D01*
X92333333Y-68407200D02*
X92285714Y-68359580D01*
X92285714Y-68359580D02*
X92238095Y-68264342D01*
X92238095Y-68264342D02*
X92238095Y-68169104D01*
X92238095Y-68169104D02*
X92285714Y-68073866D01*
X92285714Y-68073866D02*
X92333333Y-68026247D01*
X92333333Y-68026247D02*
X92428571Y-67978628D01*
X92428571Y-67978628D02*
X92619047Y-67931009D01*
X92619047Y-67931009D02*
X92714285Y-67883390D01*
X92714285Y-67883390D02*
X92761904Y-67835771D01*
X92761904Y-67835771D02*
X92809523Y-67740533D01*
X92809523Y-67740533D02*
X92809523Y-67645295D01*
X92809523Y-67645295D02*
X92761904Y-67550057D01*
X92761904Y-67550057D02*
X92714285Y-67502438D01*
X92714285Y-67502438D02*
X92619047Y-67454819D01*
X92619047Y-67454819D02*
X92380952Y-67454819D01*
X92380952Y-67454819D02*
X92238095Y-67502438D01*
X91904761Y-67454819D02*
X91666666Y-68454819D01*
X91666666Y-68454819D02*
X91476190Y-67740533D01*
X91476190Y-67740533D02*
X91285714Y-68454819D01*
X91285714Y-68454819D02*
X91047619Y-67454819D01*
X90714285Y-67550057D02*
X90666666Y-67502438D01*
X90666666Y-67502438D02*
X90571428Y-67454819D01*
X90571428Y-67454819D02*
X90333333Y-67454819D01*
X90333333Y-67454819D02*
X90238095Y-67502438D01*
X90238095Y-67502438D02*
X90190476Y-67550057D01*
X90190476Y-67550057D02*
X90142857Y-67645295D01*
X90142857Y-67645295D02*
X90142857Y-67740533D01*
X90142857Y-67740533D02*
X90190476Y-67883390D01*
X90190476Y-67883390D02*
X90761904Y-68454819D01*
X90761904Y-68454819D02*
X90142857Y-68454819D01*
X89666666Y-68454819D02*
X89476190Y-68454819D01*
X89476190Y-68454819D02*
X89380952Y-68407200D01*
X89380952Y-68407200D02*
X89333333Y-68359580D01*
X89333333Y-68359580D02*
X89238095Y-68216723D01*
X89238095Y-68216723D02*
X89190476Y-68026247D01*
X89190476Y-68026247D02*
X89190476Y-67645295D01*
X89190476Y-67645295D02*
X89238095Y-67550057D01*
X89238095Y-67550057D02*
X89285714Y-67502438D01*
X89285714Y-67502438D02*
X89380952Y-67454819D01*
X89380952Y-67454819D02*
X89571428Y-67454819D01*
X89571428Y-67454819D02*
X89666666Y-67502438D01*
X89666666Y-67502438D02*
X89714285Y-67550057D01*
X89714285Y-67550057D02*
X89761904Y-67645295D01*
X89761904Y-67645295D02*
X89761904Y-67883390D01*
X89761904Y-67883390D02*
X89714285Y-67978628D01*
X89714285Y-67978628D02*
X89666666Y-68026247D01*
X89666666Y-68026247D02*
X89571428Y-68073866D01*
X89571428Y-68073866D02*
X89380952Y-68073866D01*
X89380952Y-68073866D02*
X89285714Y-68026247D01*
X89285714Y-68026247D02*
X89238095Y-67978628D01*
X89238095Y-67978628D02*
X89190476Y-67883390D01*
X82581407Y-88985418D02*
X82448989Y-89057120D01*
X82448989Y-89057120D02*
X82214511Y-89098465D01*
X82214511Y-89098465D02*
X82112451Y-89068107D01*
X82112451Y-89068107D02*
X82057286Y-89029481D01*
X82057286Y-89029481D02*
X81993853Y-88943958D01*
X81993853Y-88943958D02*
X81977315Y-88850167D01*
X81977315Y-88850167D02*
X82007673Y-88748107D01*
X82007673Y-88748107D02*
X82046299Y-88692942D01*
X82046299Y-88692942D02*
X82131822Y-88629509D01*
X82131822Y-88629509D02*
X82311135Y-88549537D01*
X82311135Y-88549537D02*
X82396657Y-88486104D01*
X82396657Y-88486104D02*
X82435284Y-88430939D01*
X82435284Y-88430939D02*
X82465642Y-88328879D01*
X82465642Y-88328879D02*
X82449104Y-88235088D01*
X82449104Y-88235088D02*
X82385670Y-88149566D01*
X82385670Y-88149566D02*
X82330506Y-88110939D01*
X82330506Y-88110939D02*
X82228445Y-88080581D01*
X82228445Y-88080581D02*
X81993967Y-88121926D01*
X81993967Y-88121926D02*
X81861550Y-88193629D01*
X81525011Y-88204616D02*
X81464181Y-89230768D01*
X81464181Y-89230768D02*
X81152565Y-88560410D01*
X81152565Y-88560410D02*
X81089017Y-89296920D01*
X81089017Y-89296920D02*
X80680890Y-88353457D01*
X80399517Y-88403071D02*
X79789874Y-88510567D01*
X79789874Y-88510567D02*
X80184295Y-88827849D01*
X80184295Y-88827849D02*
X80043608Y-88852656D01*
X80043608Y-88852656D02*
X79958086Y-88916090D01*
X79958086Y-88916090D02*
X79919459Y-88971254D01*
X79919459Y-88971254D02*
X79889102Y-89073315D01*
X79889102Y-89073315D02*
X79930446Y-89307793D01*
X79930446Y-89307793D02*
X79993880Y-89393315D01*
X79993880Y-89393315D02*
X80049044Y-89431942D01*
X80049044Y-89431942D02*
X80151105Y-89462299D01*
X80151105Y-89462299D02*
X80432478Y-89412685D01*
X80432478Y-89412685D02*
X80518000Y-89349252D01*
X80518000Y-89349252D02*
X80556627Y-89294087D01*
X79003636Y-88987678D02*
X79119401Y-89644216D01*
X79171962Y-88571168D02*
X79530475Y-89233258D01*
X79530475Y-89233258D02*
X78920832Y-89340754D01*
X92809523Y-34407200D02*
X92666666Y-34454819D01*
X92666666Y-34454819D02*
X92428571Y-34454819D01*
X92428571Y-34454819D02*
X92333333Y-34407200D01*
X92333333Y-34407200D02*
X92285714Y-34359580D01*
X92285714Y-34359580D02*
X92238095Y-34264342D01*
X92238095Y-34264342D02*
X92238095Y-34169104D01*
X92238095Y-34169104D02*
X92285714Y-34073866D01*
X92285714Y-34073866D02*
X92333333Y-34026247D01*
X92333333Y-34026247D02*
X92428571Y-33978628D01*
X92428571Y-33978628D02*
X92619047Y-33931009D01*
X92619047Y-33931009D02*
X92714285Y-33883390D01*
X92714285Y-33883390D02*
X92761904Y-33835771D01*
X92761904Y-33835771D02*
X92809523Y-33740533D01*
X92809523Y-33740533D02*
X92809523Y-33645295D01*
X92809523Y-33645295D02*
X92761904Y-33550057D01*
X92761904Y-33550057D02*
X92714285Y-33502438D01*
X92714285Y-33502438D02*
X92619047Y-33454819D01*
X92619047Y-33454819D02*
X92380952Y-33454819D01*
X92380952Y-33454819D02*
X92238095Y-33502438D01*
X91904761Y-33454819D02*
X91666666Y-34454819D01*
X91666666Y-34454819D02*
X91476190Y-33740533D01*
X91476190Y-33740533D02*
X91285714Y-34454819D01*
X91285714Y-34454819D02*
X91047619Y-33454819D01*
X90142857Y-34454819D02*
X90714285Y-34454819D01*
X90428571Y-34454819D02*
X90428571Y-33454819D01*
X90428571Y-33454819D02*
X90523809Y-33597676D01*
X90523809Y-33597676D02*
X90619047Y-33692914D01*
X90619047Y-33692914D02*
X90714285Y-33740533D01*
X89666666Y-34454819D02*
X89476190Y-34454819D01*
X89476190Y-34454819D02*
X89380952Y-34407200D01*
X89380952Y-34407200D02*
X89333333Y-34359580D01*
X89333333Y-34359580D02*
X89238095Y-34216723D01*
X89238095Y-34216723D02*
X89190476Y-34026247D01*
X89190476Y-34026247D02*
X89190476Y-33645295D01*
X89190476Y-33645295D02*
X89238095Y-33550057D01*
X89238095Y-33550057D02*
X89285714Y-33502438D01*
X89285714Y-33502438D02*
X89380952Y-33454819D01*
X89380952Y-33454819D02*
X89571428Y-33454819D01*
X89571428Y-33454819D02*
X89666666Y-33502438D01*
X89666666Y-33502438D02*
X89714285Y-33550057D01*
X89714285Y-33550057D02*
X89761904Y-33645295D01*
X89761904Y-33645295D02*
X89761904Y-33883390D01*
X89761904Y-33883390D02*
X89714285Y-33978628D01*
X89714285Y-33978628D02*
X89666666Y-34026247D01*
X89666666Y-34026247D02*
X89571428Y-34073866D01*
X89571428Y-34073866D02*
X89380952Y-34073866D01*
X89380952Y-34073866D02*
X89285714Y-34026247D01*
X89285714Y-34026247D02*
X89238095Y-33978628D01*
X89238095Y-33978628D02*
X89190476Y-33883390D01*
X63435300Y-95904786D02*
X63325952Y-96008318D01*
X63325952Y-96008318D02*
X63110165Y-96108941D01*
X63110165Y-96108941D02*
X63003725Y-96106033D01*
X63003725Y-96106033D02*
X62940443Y-96083000D01*
X62940443Y-96083000D02*
X62857036Y-96016810D01*
X62857036Y-96016810D02*
X62816787Y-95930495D01*
X62816787Y-95930495D02*
X62819695Y-95824055D01*
X62819695Y-95824055D02*
X62842728Y-95760773D01*
X62842728Y-95760773D02*
X62908918Y-95677366D01*
X62908918Y-95677366D02*
X63061423Y-95553710D01*
X63061423Y-95553710D02*
X63127614Y-95470303D01*
X63127614Y-95470303D02*
X63150647Y-95407021D01*
X63150647Y-95407021D02*
X63153555Y-95300581D01*
X63153555Y-95300581D02*
X63113305Y-95214266D01*
X63113305Y-95214266D02*
X63029898Y-95148076D01*
X63029898Y-95148076D02*
X62966616Y-95125043D01*
X62966616Y-95125043D02*
X62860177Y-95122135D01*
X62860177Y-95122135D02*
X62644389Y-95222758D01*
X62644389Y-95222758D02*
X62535041Y-95326290D01*
X62212814Y-95424005D02*
X62419644Y-96430936D01*
X62419644Y-96430936D02*
X61945144Y-95864072D01*
X61945144Y-95864072D02*
X62074384Y-96591933D01*
X62074384Y-96591933D02*
X61435979Y-95786249D01*
X61177034Y-95906997D02*
X60615986Y-96168618D01*
X60615986Y-96168618D02*
X61079086Y-96373005D01*
X61079086Y-96373005D02*
X60949613Y-96433379D01*
X60949613Y-96433379D02*
X60883423Y-96516786D01*
X60883423Y-96516786D02*
X60860390Y-96580068D01*
X60860390Y-96580068D02*
X60857482Y-96686508D01*
X60857482Y-96686508D02*
X60958105Y-96902296D01*
X60958105Y-96902296D02*
X61041512Y-96968486D01*
X61041512Y-96968486D02*
X61104795Y-96991519D01*
X61104795Y-96991519D02*
X61211234Y-96994427D01*
X61211234Y-96994427D02*
X61470179Y-96873679D01*
X61470179Y-96873679D02*
X61536370Y-96790272D01*
X61536370Y-96790272D02*
X61559402Y-96726990D01*
X60313883Y-96309491D02*
X59752836Y-96571112D01*
X59752836Y-96571112D02*
X60215936Y-96775499D01*
X60215936Y-96775499D02*
X60086463Y-96835873D01*
X60086463Y-96835873D02*
X60020273Y-96919280D01*
X60020273Y-96919280D02*
X59997240Y-96982562D01*
X59997240Y-96982562D02*
X59994332Y-97089002D01*
X59994332Y-97089002D02*
X60094955Y-97304789D01*
X60094955Y-97304789D02*
X60178362Y-97370980D01*
X60178362Y-97370980D02*
X60241644Y-97394012D01*
X60241644Y-97394012D02*
X60348084Y-97396921D01*
X60348084Y-97396921D02*
X60607029Y-97276173D01*
X60607029Y-97276173D02*
X60673219Y-97192766D01*
X60673219Y-97192766D02*
X60696252Y-97129483D01*
X128809523Y-52407200D02*
X128666666Y-52454819D01*
X128666666Y-52454819D02*
X128428571Y-52454819D01*
X128428571Y-52454819D02*
X128333333Y-52407200D01*
X128333333Y-52407200D02*
X128285714Y-52359580D01*
X128285714Y-52359580D02*
X128238095Y-52264342D01*
X128238095Y-52264342D02*
X128238095Y-52169104D01*
X128238095Y-52169104D02*
X128285714Y-52073866D01*
X128285714Y-52073866D02*
X128333333Y-52026247D01*
X128333333Y-52026247D02*
X128428571Y-51978628D01*
X128428571Y-51978628D02*
X128619047Y-51931009D01*
X128619047Y-51931009D02*
X128714285Y-51883390D01*
X128714285Y-51883390D02*
X128761904Y-51835771D01*
X128761904Y-51835771D02*
X128809523Y-51740533D01*
X128809523Y-51740533D02*
X128809523Y-51645295D01*
X128809523Y-51645295D02*
X128761904Y-51550057D01*
X128761904Y-51550057D02*
X128714285Y-51502438D01*
X128714285Y-51502438D02*
X128619047Y-51454819D01*
X128619047Y-51454819D02*
X128380952Y-51454819D01*
X128380952Y-51454819D02*
X128238095Y-51502438D01*
X127904761Y-51454819D02*
X127666666Y-52454819D01*
X127666666Y-52454819D02*
X127476190Y-51740533D01*
X127476190Y-51740533D02*
X127285714Y-52454819D01*
X127285714Y-52454819D02*
X127047619Y-51454819D01*
X126714285Y-51550057D02*
X126666666Y-51502438D01*
X126666666Y-51502438D02*
X126571428Y-51454819D01*
X126571428Y-51454819D02*
X126333333Y-51454819D01*
X126333333Y-51454819D02*
X126238095Y-51502438D01*
X126238095Y-51502438D02*
X126190476Y-51550057D01*
X126190476Y-51550057D02*
X126142857Y-51645295D01*
X126142857Y-51645295D02*
X126142857Y-51740533D01*
X126142857Y-51740533D02*
X126190476Y-51883390D01*
X126190476Y-51883390D02*
X126761904Y-52454819D01*
X126761904Y-52454819D02*
X126142857Y-52454819D01*
X125285714Y-51454819D02*
X125476190Y-51454819D01*
X125476190Y-51454819D02*
X125571428Y-51502438D01*
X125571428Y-51502438D02*
X125619047Y-51550057D01*
X125619047Y-51550057D02*
X125714285Y-51692914D01*
X125714285Y-51692914D02*
X125761904Y-51883390D01*
X125761904Y-51883390D02*
X125761904Y-52264342D01*
X125761904Y-52264342D02*
X125714285Y-52359580D01*
X125714285Y-52359580D02*
X125666666Y-52407200D01*
X125666666Y-52407200D02*
X125571428Y-52454819D01*
X125571428Y-52454819D02*
X125380952Y-52454819D01*
X125380952Y-52454819D02*
X125285714Y-52407200D01*
X125285714Y-52407200D02*
X125238095Y-52359580D01*
X125238095Y-52359580D02*
X125190476Y-52264342D01*
X125190476Y-52264342D02*
X125190476Y-52026247D01*
X125190476Y-52026247D02*
X125238095Y-51931009D01*
X125238095Y-51931009D02*
X125285714Y-51883390D01*
X125285714Y-51883390D02*
X125380952Y-51835771D01*
X125380952Y-51835771D02*
X125571428Y-51835771D01*
X125571428Y-51835771D02*
X125666666Y-51883390D01*
X125666666Y-51883390D02*
X125714285Y-51931009D01*
X125714285Y-51931009D02*
X125761904Y-52026247D01*
X176333332Y-51407200D02*
X176190475Y-51454819D01*
X176190475Y-51454819D02*
X175952380Y-51454819D01*
X175952380Y-51454819D02*
X175857142Y-51407200D01*
X175857142Y-51407200D02*
X175809523Y-51359580D01*
X175809523Y-51359580D02*
X175761904Y-51264342D01*
X175761904Y-51264342D02*
X175761904Y-51169104D01*
X175761904Y-51169104D02*
X175809523Y-51073866D01*
X175809523Y-51073866D02*
X175857142Y-51026247D01*
X175857142Y-51026247D02*
X175952380Y-50978628D01*
X175952380Y-50978628D02*
X176142856Y-50931009D01*
X176142856Y-50931009D02*
X176238094Y-50883390D01*
X176238094Y-50883390D02*
X176285713Y-50835771D01*
X176285713Y-50835771D02*
X176333332Y-50740533D01*
X176333332Y-50740533D02*
X176333332Y-50645295D01*
X176333332Y-50645295D02*
X176285713Y-50550057D01*
X176285713Y-50550057D02*
X176238094Y-50502438D01*
X176238094Y-50502438D02*
X176142856Y-50454819D01*
X176142856Y-50454819D02*
X175904761Y-50454819D01*
X175904761Y-50454819D02*
X175761904Y-50502438D01*
X175428570Y-50454819D02*
X175190475Y-51454819D01*
X175190475Y-51454819D02*
X174999999Y-50740533D01*
X174999999Y-50740533D02*
X174809523Y-51454819D01*
X174809523Y-51454819D02*
X174571428Y-50454819D01*
X173666666Y-51454819D02*
X174238094Y-51454819D01*
X173952380Y-51454819D02*
X173952380Y-50454819D01*
X173952380Y-50454819D02*
X174047618Y-50597676D01*
X174047618Y-50597676D02*
X174142856Y-50692914D01*
X174142856Y-50692914D02*
X174238094Y-50740533D01*
X184864523Y-69407200D02*
X184721666Y-69454819D01*
X184721666Y-69454819D02*
X184483571Y-69454819D01*
X184483571Y-69454819D02*
X184388333Y-69407200D01*
X184388333Y-69407200D02*
X184340714Y-69359580D01*
X184340714Y-69359580D02*
X184293095Y-69264342D01*
X184293095Y-69264342D02*
X184293095Y-69169104D01*
X184293095Y-69169104D02*
X184340714Y-69073866D01*
X184340714Y-69073866D02*
X184388333Y-69026247D01*
X184388333Y-69026247D02*
X184483571Y-68978628D01*
X184483571Y-68978628D02*
X184674047Y-68931009D01*
X184674047Y-68931009D02*
X184769285Y-68883390D01*
X184769285Y-68883390D02*
X184816904Y-68835771D01*
X184816904Y-68835771D02*
X184864523Y-68740533D01*
X184864523Y-68740533D02*
X184864523Y-68645295D01*
X184864523Y-68645295D02*
X184816904Y-68550057D01*
X184816904Y-68550057D02*
X184769285Y-68502438D01*
X184769285Y-68502438D02*
X184674047Y-68454819D01*
X184674047Y-68454819D02*
X184435952Y-68454819D01*
X184435952Y-68454819D02*
X184293095Y-68502438D01*
X183959761Y-68454819D02*
X183721666Y-69454819D01*
X183721666Y-69454819D02*
X183531190Y-68740533D01*
X183531190Y-68740533D02*
X183340714Y-69454819D01*
X183340714Y-69454819D02*
X183102619Y-68454819D01*
X182197857Y-69454819D02*
X182769285Y-69454819D01*
X182483571Y-69454819D02*
X182483571Y-68454819D01*
X182483571Y-68454819D02*
X182578809Y-68597676D01*
X182578809Y-68597676D02*
X182674047Y-68692914D01*
X182674047Y-68692914D02*
X182769285Y-68740533D01*
X181816904Y-68550057D02*
X181769285Y-68502438D01*
X181769285Y-68502438D02*
X181674047Y-68454819D01*
X181674047Y-68454819D02*
X181435952Y-68454819D01*
X181435952Y-68454819D02*
X181340714Y-68502438D01*
X181340714Y-68502438D02*
X181293095Y-68550057D01*
X181293095Y-68550057D02*
X181245476Y-68645295D01*
X181245476Y-68645295D02*
X181245476Y-68740533D01*
X181245476Y-68740533D02*
X181293095Y-68883390D01*
X181293095Y-68883390D02*
X181864523Y-69454819D01*
X181864523Y-69454819D02*
X181245476Y-69454819D01*
X110809523Y-62407200D02*
X110666666Y-62454819D01*
X110666666Y-62454819D02*
X110428571Y-62454819D01*
X110428571Y-62454819D02*
X110333333Y-62407200D01*
X110333333Y-62407200D02*
X110285714Y-62359580D01*
X110285714Y-62359580D02*
X110238095Y-62264342D01*
X110238095Y-62264342D02*
X110238095Y-62169104D01*
X110238095Y-62169104D02*
X110285714Y-62073866D01*
X110285714Y-62073866D02*
X110333333Y-62026247D01*
X110333333Y-62026247D02*
X110428571Y-61978628D01*
X110428571Y-61978628D02*
X110619047Y-61931009D01*
X110619047Y-61931009D02*
X110714285Y-61883390D01*
X110714285Y-61883390D02*
X110761904Y-61835771D01*
X110761904Y-61835771D02*
X110809523Y-61740533D01*
X110809523Y-61740533D02*
X110809523Y-61645295D01*
X110809523Y-61645295D02*
X110761904Y-61550057D01*
X110761904Y-61550057D02*
X110714285Y-61502438D01*
X110714285Y-61502438D02*
X110619047Y-61454819D01*
X110619047Y-61454819D02*
X110380952Y-61454819D01*
X110380952Y-61454819D02*
X110238095Y-61502438D01*
X109904761Y-61454819D02*
X109666666Y-62454819D01*
X109666666Y-62454819D02*
X109476190Y-61740533D01*
X109476190Y-61740533D02*
X109285714Y-62454819D01*
X109285714Y-62454819D02*
X109047619Y-61454819D01*
X108761904Y-61454819D02*
X108142857Y-61454819D01*
X108142857Y-61454819D02*
X108476190Y-61835771D01*
X108476190Y-61835771D02*
X108333333Y-61835771D01*
X108333333Y-61835771D02*
X108238095Y-61883390D01*
X108238095Y-61883390D02*
X108190476Y-61931009D01*
X108190476Y-61931009D02*
X108142857Y-62026247D01*
X108142857Y-62026247D02*
X108142857Y-62264342D01*
X108142857Y-62264342D02*
X108190476Y-62359580D01*
X108190476Y-62359580D02*
X108238095Y-62407200D01*
X108238095Y-62407200D02*
X108333333Y-62454819D01*
X108333333Y-62454819D02*
X108619047Y-62454819D01*
X108619047Y-62454819D02*
X108714285Y-62407200D01*
X108714285Y-62407200D02*
X108761904Y-62359580D01*
X107523809Y-61454819D02*
X107428571Y-61454819D01*
X107428571Y-61454819D02*
X107333333Y-61502438D01*
X107333333Y-61502438D02*
X107285714Y-61550057D01*
X107285714Y-61550057D02*
X107238095Y-61645295D01*
X107238095Y-61645295D02*
X107190476Y-61835771D01*
X107190476Y-61835771D02*
X107190476Y-62073866D01*
X107190476Y-62073866D02*
X107238095Y-62264342D01*
X107238095Y-62264342D02*
X107285714Y-62359580D01*
X107285714Y-62359580D02*
X107333333Y-62407200D01*
X107333333Y-62407200D02*
X107428571Y-62454819D01*
X107428571Y-62454819D02*
X107523809Y-62454819D01*
X107523809Y-62454819D02*
X107619047Y-62407200D01*
X107619047Y-62407200D02*
X107666666Y-62359580D01*
X107666666Y-62359580D02*
X107714285Y-62264342D01*
X107714285Y-62264342D02*
X107761904Y-62073866D01*
X107761904Y-62073866D02*
X107761904Y-61835771D01*
X107761904Y-61835771D02*
X107714285Y-61645295D01*
X107714285Y-61645295D02*
X107666666Y-61550057D01*
X107666666Y-61550057D02*
X107619047Y-61502438D01*
X107619047Y-61502438D02*
X107523809Y-61454819D01*
X202333332Y-45407200D02*
X202190475Y-45454819D01*
X202190475Y-45454819D02*
X201952380Y-45454819D01*
X201952380Y-45454819D02*
X201857142Y-45407200D01*
X201857142Y-45407200D02*
X201809523Y-45359580D01*
X201809523Y-45359580D02*
X201761904Y-45264342D01*
X201761904Y-45264342D02*
X201761904Y-45169104D01*
X201761904Y-45169104D02*
X201809523Y-45073866D01*
X201809523Y-45073866D02*
X201857142Y-45026247D01*
X201857142Y-45026247D02*
X201952380Y-44978628D01*
X201952380Y-44978628D02*
X202142856Y-44931009D01*
X202142856Y-44931009D02*
X202238094Y-44883390D01*
X202238094Y-44883390D02*
X202285713Y-44835771D01*
X202285713Y-44835771D02*
X202333332Y-44740533D01*
X202333332Y-44740533D02*
X202333332Y-44645295D01*
X202333332Y-44645295D02*
X202285713Y-44550057D01*
X202285713Y-44550057D02*
X202238094Y-44502438D01*
X202238094Y-44502438D02*
X202142856Y-44454819D01*
X202142856Y-44454819D02*
X201904761Y-44454819D01*
X201904761Y-44454819D02*
X201761904Y-44502438D01*
X201428570Y-44454819D02*
X201190475Y-45454819D01*
X201190475Y-45454819D02*
X200999999Y-44740533D01*
X200999999Y-44740533D02*
X200809523Y-45454819D01*
X200809523Y-45454819D02*
X200571428Y-44454819D01*
X200047618Y-44883390D02*
X200142856Y-44835771D01*
X200142856Y-44835771D02*
X200190475Y-44788152D01*
X200190475Y-44788152D02*
X200238094Y-44692914D01*
X200238094Y-44692914D02*
X200238094Y-44645295D01*
X200238094Y-44645295D02*
X200190475Y-44550057D01*
X200190475Y-44550057D02*
X200142856Y-44502438D01*
X200142856Y-44502438D02*
X200047618Y-44454819D01*
X200047618Y-44454819D02*
X199857142Y-44454819D01*
X199857142Y-44454819D02*
X199761904Y-44502438D01*
X199761904Y-44502438D02*
X199714285Y-44550057D01*
X199714285Y-44550057D02*
X199666666Y-44645295D01*
X199666666Y-44645295D02*
X199666666Y-44692914D01*
X199666666Y-44692914D02*
X199714285Y-44788152D01*
X199714285Y-44788152D02*
X199761904Y-44835771D01*
X199761904Y-44835771D02*
X199857142Y-44883390D01*
X199857142Y-44883390D02*
X200047618Y-44883390D01*
X200047618Y-44883390D02*
X200142856Y-44931009D01*
X200142856Y-44931009D02*
X200190475Y-44978628D01*
X200190475Y-44978628D02*
X200238094Y-45073866D01*
X200238094Y-45073866D02*
X200238094Y-45264342D01*
X200238094Y-45264342D02*
X200190475Y-45359580D01*
X200190475Y-45359580D02*
X200142856Y-45407200D01*
X200142856Y-45407200D02*
X200047618Y-45454819D01*
X200047618Y-45454819D02*
X199857142Y-45454819D01*
X199857142Y-45454819D02*
X199761904Y-45407200D01*
X199761904Y-45407200D02*
X199714285Y-45359580D01*
X199714285Y-45359580D02*
X199666666Y-45264342D01*
X199666666Y-45264342D02*
X199666666Y-45073866D01*
X199666666Y-45073866D02*
X199714285Y-44978628D01*
X199714285Y-44978628D02*
X199761904Y-44931009D01*
X199761904Y-44931009D02*
X199857142Y-44883390D01*
X250781593Y-93208079D02*
X250631996Y-93190862D01*
X250631996Y-93190862D02*
X250416208Y-93090239D01*
X250416208Y-93090239D02*
X250350018Y-93006832D01*
X250350018Y-93006832D02*
X250326985Y-92943550D01*
X250326985Y-92943550D02*
X250324077Y-92837110D01*
X250324077Y-92837110D02*
X250364326Y-92750795D01*
X250364326Y-92750795D02*
X250447733Y-92684605D01*
X250447733Y-92684605D02*
X250511015Y-92661572D01*
X250511015Y-92661572D02*
X250617455Y-92658664D01*
X250617455Y-92658664D02*
X250810210Y-92696005D01*
X250810210Y-92696005D02*
X250916649Y-92693097D01*
X250916649Y-92693097D02*
X250979931Y-92670064D01*
X250979931Y-92670064D02*
X251063338Y-92603874D01*
X251063338Y-92603874D02*
X251103588Y-92517559D01*
X251103588Y-92517559D02*
X251100680Y-92411119D01*
X251100680Y-92411119D02*
X251077647Y-92347837D01*
X251077647Y-92347837D02*
X251011456Y-92264430D01*
X251011456Y-92264430D02*
X250795669Y-92163806D01*
X250795669Y-92163806D02*
X250646072Y-92146590D01*
X250364094Y-91962560D02*
X249725688Y-92768244D01*
X249725688Y-92768244D02*
X249854928Y-92040383D01*
X249854928Y-92040383D02*
X249380428Y-92607247D01*
X249380428Y-92607247D02*
X249587258Y-91600315D01*
X248344648Y-92124254D02*
X248862538Y-92365751D01*
X248603593Y-92245002D02*
X249026211Y-91338695D01*
X249026211Y-91338695D02*
X249052152Y-91508417D01*
X249052152Y-91508417D02*
X249098218Y-91634981D01*
X249098218Y-91634981D02*
X249164408Y-91718388D01*
X248465163Y-91077074D02*
X247860958Y-90795328D01*
X247860958Y-90795328D02*
X247826757Y-91882758D01*
X128809523Y-69407200D02*
X128666666Y-69454819D01*
X128666666Y-69454819D02*
X128428571Y-69454819D01*
X128428571Y-69454819D02*
X128333333Y-69407200D01*
X128333333Y-69407200D02*
X128285714Y-69359580D01*
X128285714Y-69359580D02*
X128238095Y-69264342D01*
X128238095Y-69264342D02*
X128238095Y-69169104D01*
X128238095Y-69169104D02*
X128285714Y-69073866D01*
X128285714Y-69073866D02*
X128333333Y-69026247D01*
X128333333Y-69026247D02*
X128428571Y-68978628D01*
X128428571Y-68978628D02*
X128619047Y-68931009D01*
X128619047Y-68931009D02*
X128714285Y-68883390D01*
X128714285Y-68883390D02*
X128761904Y-68835771D01*
X128761904Y-68835771D02*
X128809523Y-68740533D01*
X128809523Y-68740533D02*
X128809523Y-68645295D01*
X128809523Y-68645295D02*
X128761904Y-68550057D01*
X128761904Y-68550057D02*
X128714285Y-68502438D01*
X128714285Y-68502438D02*
X128619047Y-68454819D01*
X128619047Y-68454819D02*
X128380952Y-68454819D01*
X128380952Y-68454819D02*
X128238095Y-68502438D01*
X127904761Y-68454819D02*
X127666666Y-69454819D01*
X127666666Y-69454819D02*
X127476190Y-68740533D01*
X127476190Y-68740533D02*
X127285714Y-69454819D01*
X127285714Y-69454819D02*
X127047619Y-68454819D01*
X126761904Y-68454819D02*
X126142857Y-68454819D01*
X126142857Y-68454819D02*
X126476190Y-68835771D01*
X126476190Y-68835771D02*
X126333333Y-68835771D01*
X126333333Y-68835771D02*
X126238095Y-68883390D01*
X126238095Y-68883390D02*
X126190476Y-68931009D01*
X126190476Y-68931009D02*
X126142857Y-69026247D01*
X126142857Y-69026247D02*
X126142857Y-69264342D01*
X126142857Y-69264342D02*
X126190476Y-69359580D01*
X126190476Y-69359580D02*
X126238095Y-69407200D01*
X126238095Y-69407200D02*
X126333333Y-69454819D01*
X126333333Y-69454819D02*
X126619047Y-69454819D01*
X126619047Y-69454819D02*
X126714285Y-69407200D01*
X126714285Y-69407200D02*
X126761904Y-69359580D01*
X125190476Y-69454819D02*
X125761904Y-69454819D01*
X125476190Y-69454819D02*
X125476190Y-68454819D01*
X125476190Y-68454819D02*
X125571428Y-68597676D01*
X125571428Y-68597676D02*
X125666666Y-68692914D01*
X125666666Y-68692914D02*
X125761904Y-68740533D01*
X176333332Y-68407200D02*
X176190475Y-68454819D01*
X176190475Y-68454819D02*
X175952380Y-68454819D01*
X175952380Y-68454819D02*
X175857142Y-68407200D01*
X175857142Y-68407200D02*
X175809523Y-68359580D01*
X175809523Y-68359580D02*
X175761904Y-68264342D01*
X175761904Y-68264342D02*
X175761904Y-68169104D01*
X175761904Y-68169104D02*
X175809523Y-68073866D01*
X175809523Y-68073866D02*
X175857142Y-68026247D01*
X175857142Y-68026247D02*
X175952380Y-67978628D01*
X175952380Y-67978628D02*
X176142856Y-67931009D01*
X176142856Y-67931009D02*
X176238094Y-67883390D01*
X176238094Y-67883390D02*
X176285713Y-67835771D01*
X176285713Y-67835771D02*
X176333332Y-67740533D01*
X176333332Y-67740533D02*
X176333332Y-67645295D01*
X176333332Y-67645295D02*
X176285713Y-67550057D01*
X176285713Y-67550057D02*
X176238094Y-67502438D01*
X176238094Y-67502438D02*
X176142856Y-67454819D01*
X176142856Y-67454819D02*
X175904761Y-67454819D01*
X175904761Y-67454819D02*
X175761904Y-67502438D01*
X175428570Y-67454819D02*
X175190475Y-68454819D01*
X175190475Y-68454819D02*
X174999999Y-67740533D01*
X174999999Y-67740533D02*
X174809523Y-68454819D01*
X174809523Y-68454819D02*
X174571428Y-67454819D01*
X173761904Y-67454819D02*
X173952380Y-67454819D01*
X173952380Y-67454819D02*
X174047618Y-67502438D01*
X174047618Y-67502438D02*
X174095237Y-67550057D01*
X174095237Y-67550057D02*
X174190475Y-67692914D01*
X174190475Y-67692914D02*
X174238094Y-67883390D01*
X174238094Y-67883390D02*
X174238094Y-68264342D01*
X174238094Y-68264342D02*
X174190475Y-68359580D01*
X174190475Y-68359580D02*
X174142856Y-68407200D01*
X174142856Y-68407200D02*
X174047618Y-68454819D01*
X174047618Y-68454819D02*
X173857142Y-68454819D01*
X173857142Y-68454819D02*
X173761904Y-68407200D01*
X173761904Y-68407200D02*
X173714285Y-68359580D01*
X173714285Y-68359580D02*
X173666666Y-68264342D01*
X173666666Y-68264342D02*
X173666666Y-68026247D01*
X173666666Y-68026247D02*
X173714285Y-67931009D01*
X173714285Y-67931009D02*
X173761904Y-67883390D01*
X173761904Y-67883390D02*
X173857142Y-67835771D01*
X173857142Y-67835771D02*
X174047618Y-67835771D01*
X174047618Y-67835771D02*
X174142856Y-67883390D01*
X174142856Y-67883390D02*
X174190475Y-67931009D01*
X174190475Y-67931009D02*
X174238094Y-68026247D01*
X255262809Y-45062295D02*
X255186619Y-45062295D01*
X255186619Y-45062295D02*
X255110428Y-45100390D01*
X255110428Y-45100390D02*
X255072333Y-45138485D01*
X255072333Y-45138485D02*
X255034238Y-45214676D01*
X255034238Y-45214676D02*
X254996143Y-45367057D01*
X254996143Y-45367057D02*
X254996143Y-45557533D01*
X254996143Y-45557533D02*
X255034238Y-45709914D01*
X255034238Y-45709914D02*
X255072333Y-45786104D01*
X255072333Y-45786104D02*
X255110428Y-45824200D01*
X255110428Y-45824200D02*
X255186619Y-45862295D01*
X255186619Y-45862295D02*
X255262809Y-45862295D01*
X255262809Y-45862295D02*
X255339000Y-45824200D01*
X255339000Y-45824200D02*
X255377095Y-45786104D01*
X255377095Y-45786104D02*
X255415190Y-45709914D01*
X255415190Y-45709914D02*
X255453286Y-45557533D01*
X255453286Y-45557533D02*
X255453286Y-45367057D01*
X255453286Y-45367057D02*
X255415190Y-45214676D01*
X255415190Y-45214676D02*
X255377095Y-45138485D01*
X255377095Y-45138485D02*
X255339000Y-45100390D01*
X255339000Y-45100390D02*
X255262809Y-45062295D01*
X254500904Y-45062295D02*
X254424714Y-45062295D01*
X254424714Y-45062295D02*
X254348523Y-45100390D01*
X254348523Y-45100390D02*
X254310428Y-45138485D01*
X254310428Y-45138485D02*
X254272333Y-45214676D01*
X254272333Y-45214676D02*
X254234238Y-45367057D01*
X254234238Y-45367057D02*
X254234238Y-45557533D01*
X254234238Y-45557533D02*
X254272333Y-45709914D01*
X254272333Y-45709914D02*
X254310428Y-45786104D01*
X254310428Y-45786104D02*
X254348523Y-45824200D01*
X254348523Y-45824200D02*
X254424714Y-45862295D01*
X254424714Y-45862295D02*
X254500904Y-45862295D01*
X254500904Y-45862295D02*
X254577095Y-45824200D01*
X254577095Y-45824200D02*
X254615190Y-45786104D01*
X254615190Y-45786104D02*
X254653285Y-45709914D01*
X254653285Y-45709914D02*
X254691381Y-45557533D01*
X254691381Y-45557533D02*
X254691381Y-45367057D01*
X254691381Y-45367057D02*
X254653285Y-45214676D01*
X254653285Y-45214676D02*
X254615190Y-45138485D01*
X254615190Y-45138485D02*
X254577095Y-45100390D01*
X254577095Y-45100390D02*
X254500904Y-45062295D01*
X253777095Y-45405152D02*
X253853285Y-45367057D01*
X253853285Y-45367057D02*
X253891380Y-45328961D01*
X253891380Y-45328961D02*
X253929476Y-45252771D01*
X253929476Y-45252771D02*
X253929476Y-45214676D01*
X253929476Y-45214676D02*
X253891380Y-45138485D01*
X253891380Y-45138485D02*
X253853285Y-45100390D01*
X253853285Y-45100390D02*
X253777095Y-45062295D01*
X253777095Y-45062295D02*
X253624714Y-45062295D01*
X253624714Y-45062295D02*
X253548523Y-45100390D01*
X253548523Y-45100390D02*
X253510428Y-45138485D01*
X253510428Y-45138485D02*
X253472333Y-45214676D01*
X253472333Y-45214676D02*
X253472333Y-45252771D01*
X253472333Y-45252771D02*
X253510428Y-45328961D01*
X253510428Y-45328961D02*
X253548523Y-45367057D01*
X253548523Y-45367057D02*
X253624714Y-45405152D01*
X253624714Y-45405152D02*
X253777095Y-45405152D01*
X253777095Y-45405152D02*
X253853285Y-45443247D01*
X253853285Y-45443247D02*
X253891380Y-45481342D01*
X253891380Y-45481342D02*
X253929476Y-45557533D01*
X253929476Y-45557533D02*
X253929476Y-45709914D01*
X253929476Y-45709914D02*
X253891380Y-45786104D01*
X253891380Y-45786104D02*
X253853285Y-45824200D01*
X253853285Y-45824200D02*
X253777095Y-45862295D01*
X253777095Y-45862295D02*
X253624714Y-45862295D01*
X253624714Y-45862295D02*
X253548523Y-45824200D01*
X253548523Y-45824200D02*
X253510428Y-45786104D01*
X253510428Y-45786104D02*
X253472333Y-45709914D01*
X253472333Y-45709914D02*
X253472333Y-45557533D01*
X253472333Y-45557533D02*
X253510428Y-45481342D01*
X253510428Y-45481342D02*
X253548523Y-45443247D01*
X253548523Y-45443247D02*
X253624714Y-45405152D01*
X266070524Y-66252295D02*
X266527667Y-66252295D01*
X266299095Y-66252295D02*
X266299095Y-65452295D01*
X266299095Y-65452295D02*
X266375286Y-65566580D01*
X266375286Y-65566580D02*
X266451476Y-65642771D01*
X266451476Y-65642771D02*
X266527667Y-65680866D01*
X265308619Y-66252295D02*
X265765762Y-66252295D01*
X265537190Y-66252295D02*
X265537190Y-65452295D01*
X265537190Y-65452295D02*
X265613381Y-65566580D01*
X265613381Y-65566580D02*
X265689571Y-65642771D01*
X265689571Y-65642771D02*
X265765762Y-65680866D01*
X264546714Y-66252295D02*
X265003857Y-66252295D01*
X264775285Y-66252295D02*
X264775285Y-65452295D01*
X264775285Y-65452295D02*
X264851476Y-65566580D01*
X264851476Y-65566580D02*
X264927666Y-65642771D01*
X264927666Y-65642771D02*
X265003857Y-65680866D01*
X255262809Y-52752295D02*
X255186619Y-52752295D01*
X255186619Y-52752295D02*
X255110428Y-52790390D01*
X255110428Y-52790390D02*
X255072333Y-52828485D01*
X255072333Y-52828485D02*
X255034238Y-52904676D01*
X255034238Y-52904676D02*
X254996143Y-53057057D01*
X254996143Y-53057057D02*
X254996143Y-53247533D01*
X254996143Y-53247533D02*
X255034238Y-53399914D01*
X255034238Y-53399914D02*
X255072333Y-53476104D01*
X255072333Y-53476104D02*
X255110428Y-53514200D01*
X255110428Y-53514200D02*
X255186619Y-53552295D01*
X255186619Y-53552295D02*
X255262809Y-53552295D01*
X255262809Y-53552295D02*
X255339000Y-53514200D01*
X255339000Y-53514200D02*
X255377095Y-53476104D01*
X255377095Y-53476104D02*
X255415190Y-53399914D01*
X255415190Y-53399914D02*
X255453286Y-53247533D01*
X255453286Y-53247533D02*
X255453286Y-53057057D01*
X255453286Y-53057057D02*
X255415190Y-52904676D01*
X255415190Y-52904676D02*
X255377095Y-52828485D01*
X255377095Y-52828485D02*
X255339000Y-52790390D01*
X255339000Y-52790390D02*
X255262809Y-52752295D01*
X254234238Y-53552295D02*
X254691381Y-53552295D01*
X254462809Y-53552295D02*
X254462809Y-52752295D01*
X254462809Y-52752295D02*
X254539000Y-52866580D01*
X254539000Y-52866580D02*
X254615190Y-52942771D01*
X254615190Y-52942771D02*
X254691381Y-52980866D01*
X253967571Y-52752295D02*
X253434237Y-52752295D01*
X253434237Y-52752295D02*
X253777095Y-53552295D01*
X254996143Y-68792295D02*
X255453286Y-68792295D01*
X255224714Y-68792295D02*
X255224714Y-67992295D01*
X255224714Y-67992295D02*
X255300905Y-68106580D01*
X255300905Y-68106580D02*
X255377095Y-68182771D01*
X255377095Y-68182771D02*
X255453286Y-68220866D01*
X254500904Y-67992295D02*
X254424714Y-67992295D01*
X254424714Y-67992295D02*
X254348523Y-68030390D01*
X254348523Y-68030390D02*
X254310428Y-68068485D01*
X254310428Y-68068485D02*
X254272333Y-68144676D01*
X254272333Y-68144676D02*
X254234238Y-68297057D01*
X254234238Y-68297057D02*
X254234238Y-68487533D01*
X254234238Y-68487533D02*
X254272333Y-68639914D01*
X254272333Y-68639914D02*
X254310428Y-68716104D01*
X254310428Y-68716104D02*
X254348523Y-68754200D01*
X254348523Y-68754200D02*
X254424714Y-68792295D01*
X254424714Y-68792295D02*
X254500904Y-68792295D01*
X254500904Y-68792295D02*
X254577095Y-68754200D01*
X254577095Y-68754200D02*
X254615190Y-68716104D01*
X254615190Y-68716104D02*
X254653285Y-68639914D01*
X254653285Y-68639914D02*
X254691381Y-68487533D01*
X254691381Y-68487533D02*
X254691381Y-68297057D01*
X254691381Y-68297057D02*
X254653285Y-68144676D01*
X254653285Y-68144676D02*
X254615190Y-68068485D01*
X254615190Y-68068485D02*
X254577095Y-68030390D01*
X254577095Y-68030390D02*
X254500904Y-67992295D01*
X253548523Y-68258961D02*
X253548523Y-68792295D01*
X253738999Y-67954200D02*
X253929476Y-68525628D01*
X253929476Y-68525628D02*
X253434237Y-68525628D01*
X255269999Y-65502295D02*
X255193809Y-65502295D01*
X255193809Y-65502295D02*
X255117618Y-65540390D01*
X255117618Y-65540390D02*
X255079523Y-65578485D01*
X255079523Y-65578485D02*
X255041428Y-65654676D01*
X255041428Y-65654676D02*
X255003333Y-65807057D01*
X255003333Y-65807057D02*
X255003333Y-65997533D01*
X255003333Y-65997533D02*
X255041428Y-66149914D01*
X255041428Y-66149914D02*
X255079523Y-66226104D01*
X255079523Y-66226104D02*
X255117618Y-66264200D01*
X255117618Y-66264200D02*
X255193809Y-66302295D01*
X255193809Y-66302295D02*
X255269999Y-66302295D01*
X255269999Y-66302295D02*
X255346190Y-66264200D01*
X255346190Y-66264200D02*
X255384285Y-66226104D01*
X255384285Y-66226104D02*
X255422380Y-66149914D01*
X255422380Y-66149914D02*
X255460476Y-65997533D01*
X255460476Y-65997533D02*
X255460476Y-65807057D01*
X255460476Y-65807057D02*
X255422380Y-65654676D01*
X255422380Y-65654676D02*
X255384285Y-65578485D01*
X255384285Y-65578485D02*
X255346190Y-65540390D01*
X255346190Y-65540390D02*
X255269999Y-65502295D01*
X254241428Y-66302295D02*
X254698571Y-66302295D01*
X254469999Y-66302295D02*
X254469999Y-65502295D01*
X254469999Y-65502295D02*
X254546190Y-65616580D01*
X254546190Y-65616580D02*
X254622380Y-65692771D01*
X254622380Y-65692771D02*
X254698571Y-65730866D01*
X253479523Y-66302295D02*
X253936666Y-66302295D01*
X253708094Y-66302295D02*
X253708094Y-65502295D01*
X253708094Y-65502295D02*
X253784285Y-65616580D01*
X253784285Y-65616580D02*
X253860475Y-65692771D01*
X253860475Y-65692771D02*
X253936666Y-65730866D01*
X266603857Y-50212295D02*
X266337190Y-51012295D01*
X266337190Y-51012295D02*
X266070524Y-50212295D01*
X265346714Y-50936104D02*
X265384810Y-50974200D01*
X265384810Y-50974200D02*
X265499095Y-51012295D01*
X265499095Y-51012295D02*
X265575286Y-51012295D01*
X265575286Y-51012295D02*
X265689572Y-50974200D01*
X265689572Y-50974200D02*
X265765762Y-50898009D01*
X265765762Y-50898009D02*
X265803857Y-50821819D01*
X265803857Y-50821819D02*
X265841953Y-50669438D01*
X265841953Y-50669438D02*
X265841953Y-50555152D01*
X265841953Y-50555152D02*
X265803857Y-50402771D01*
X265803857Y-50402771D02*
X265765762Y-50326580D01*
X265765762Y-50326580D02*
X265689572Y-50250390D01*
X265689572Y-50250390D02*
X265575286Y-50212295D01*
X265575286Y-50212295D02*
X265499095Y-50212295D01*
X265499095Y-50212295D02*
X265384810Y-50250390D01*
X265384810Y-50250390D02*
X265346714Y-50288485D01*
X264546714Y-50936104D02*
X264584810Y-50974200D01*
X264584810Y-50974200D02*
X264699095Y-51012295D01*
X264699095Y-51012295D02*
X264775286Y-51012295D01*
X264775286Y-51012295D02*
X264889572Y-50974200D01*
X264889572Y-50974200D02*
X264965762Y-50898009D01*
X264965762Y-50898009D02*
X265003857Y-50821819D01*
X265003857Y-50821819D02*
X265041953Y-50669438D01*
X265041953Y-50669438D02*
X265041953Y-50555152D01*
X265041953Y-50555152D02*
X265003857Y-50402771D01*
X265003857Y-50402771D02*
X264965762Y-50326580D01*
X264965762Y-50326580D02*
X264889572Y-50250390D01*
X264889572Y-50250390D02*
X264775286Y-50212295D01*
X264775286Y-50212295D02*
X264699095Y-50212295D01*
X264699095Y-50212295D02*
X264584810Y-50250390D01*
X264584810Y-50250390D02*
X264546714Y-50288485D01*
X266064190Y-45170390D02*
X266140380Y-45132295D01*
X266140380Y-45132295D02*
X266254666Y-45132295D01*
X266254666Y-45132295D02*
X266368952Y-45170390D01*
X266368952Y-45170390D02*
X266445142Y-45246580D01*
X266445142Y-45246580D02*
X266483237Y-45322771D01*
X266483237Y-45322771D02*
X266521333Y-45475152D01*
X266521333Y-45475152D02*
X266521333Y-45589438D01*
X266521333Y-45589438D02*
X266483237Y-45741819D01*
X266483237Y-45741819D02*
X266445142Y-45818009D01*
X266445142Y-45818009D02*
X266368952Y-45894200D01*
X266368952Y-45894200D02*
X266254666Y-45932295D01*
X266254666Y-45932295D02*
X266178475Y-45932295D01*
X266178475Y-45932295D02*
X266064190Y-45894200D01*
X266064190Y-45894200D02*
X266026094Y-45856104D01*
X266026094Y-45856104D02*
X266026094Y-45589438D01*
X266026094Y-45589438D02*
X266178475Y-45589438D01*
X265683237Y-45932295D02*
X265683237Y-45132295D01*
X265683237Y-45132295D02*
X265226094Y-45932295D01*
X265226094Y-45932295D02*
X265226094Y-45132295D01*
X264845142Y-45932295D02*
X264845142Y-45132295D01*
X264845142Y-45132295D02*
X264654666Y-45132295D01*
X264654666Y-45132295D02*
X264540380Y-45170390D01*
X264540380Y-45170390D02*
X264464190Y-45246580D01*
X264464190Y-45246580D02*
X264426095Y-45322771D01*
X264426095Y-45322771D02*
X264387999Y-45475152D01*
X264387999Y-45475152D02*
X264387999Y-45589438D01*
X264387999Y-45589438D02*
X264426095Y-45741819D01*
X264426095Y-45741819D02*
X264464190Y-45818009D01*
X264464190Y-45818009D02*
X264540380Y-45894200D01*
X264540380Y-45894200D02*
X264654666Y-45932295D01*
X264654666Y-45932295D02*
X264845142Y-45932295D01*
X266337190Y-55292295D02*
X266261000Y-55292295D01*
X266261000Y-55292295D02*
X266184809Y-55330390D01*
X266184809Y-55330390D02*
X266146714Y-55368485D01*
X266146714Y-55368485D02*
X266108619Y-55444676D01*
X266108619Y-55444676D02*
X266070524Y-55597057D01*
X266070524Y-55597057D02*
X266070524Y-55787533D01*
X266070524Y-55787533D02*
X266108619Y-55939914D01*
X266108619Y-55939914D02*
X266146714Y-56016104D01*
X266146714Y-56016104D02*
X266184809Y-56054200D01*
X266184809Y-56054200D02*
X266261000Y-56092295D01*
X266261000Y-56092295D02*
X266337190Y-56092295D01*
X266337190Y-56092295D02*
X266413381Y-56054200D01*
X266413381Y-56054200D02*
X266451476Y-56016104D01*
X266451476Y-56016104D02*
X266489571Y-55939914D01*
X266489571Y-55939914D02*
X266527667Y-55787533D01*
X266527667Y-55787533D02*
X266527667Y-55597057D01*
X266527667Y-55597057D02*
X266489571Y-55444676D01*
X266489571Y-55444676D02*
X266451476Y-55368485D01*
X266451476Y-55368485D02*
X266413381Y-55330390D01*
X266413381Y-55330390D02*
X266337190Y-55292295D01*
X265765762Y-55368485D02*
X265727666Y-55330390D01*
X265727666Y-55330390D02*
X265651476Y-55292295D01*
X265651476Y-55292295D02*
X265461000Y-55292295D01*
X265461000Y-55292295D02*
X265384809Y-55330390D01*
X265384809Y-55330390D02*
X265346714Y-55368485D01*
X265346714Y-55368485D02*
X265308619Y-55444676D01*
X265308619Y-55444676D02*
X265308619Y-55520866D01*
X265308619Y-55520866D02*
X265346714Y-55635152D01*
X265346714Y-55635152D02*
X265803857Y-56092295D01*
X265803857Y-56092295D02*
X265308619Y-56092295D01*
X264927666Y-56092295D02*
X264775285Y-56092295D01*
X264775285Y-56092295D02*
X264699095Y-56054200D01*
X264699095Y-56054200D02*
X264660999Y-56016104D01*
X264660999Y-56016104D02*
X264584809Y-55901819D01*
X264584809Y-55901819D02*
X264546714Y-55749438D01*
X264546714Y-55749438D02*
X264546714Y-55444676D01*
X264546714Y-55444676D02*
X264584809Y-55368485D01*
X264584809Y-55368485D02*
X264622904Y-55330390D01*
X264622904Y-55330390D02*
X264699095Y-55292295D01*
X264699095Y-55292295D02*
X264851476Y-55292295D01*
X264851476Y-55292295D02*
X264927666Y-55330390D01*
X264927666Y-55330390D02*
X264965761Y-55368485D01*
X264965761Y-55368485D02*
X265003857Y-55444676D01*
X265003857Y-55444676D02*
X265003857Y-55635152D01*
X265003857Y-55635152D02*
X264965761Y-55711342D01*
X264965761Y-55711342D02*
X264927666Y-55749438D01*
X264927666Y-55749438D02*
X264851476Y-55787533D01*
X264851476Y-55787533D02*
X264699095Y-55787533D01*
X264699095Y-55787533D02*
X264622904Y-55749438D01*
X264622904Y-55749438D02*
X264584809Y-55711342D01*
X264584809Y-55711342D02*
X264546714Y-55635152D01*
X255003333Y-71342295D02*
X255460476Y-71342295D01*
X255231904Y-71342295D02*
X255231904Y-70542295D01*
X255231904Y-70542295D02*
X255308095Y-70656580D01*
X255308095Y-70656580D02*
X255384285Y-70732771D01*
X255384285Y-70732771D02*
X255460476Y-70770866D01*
X254508094Y-70542295D02*
X254431904Y-70542295D01*
X254431904Y-70542295D02*
X254355713Y-70580390D01*
X254355713Y-70580390D02*
X254317618Y-70618485D01*
X254317618Y-70618485D02*
X254279523Y-70694676D01*
X254279523Y-70694676D02*
X254241428Y-70847057D01*
X254241428Y-70847057D02*
X254241428Y-71037533D01*
X254241428Y-71037533D02*
X254279523Y-71189914D01*
X254279523Y-71189914D02*
X254317618Y-71266104D01*
X254317618Y-71266104D02*
X254355713Y-71304200D01*
X254355713Y-71304200D02*
X254431904Y-71342295D01*
X254431904Y-71342295D02*
X254508094Y-71342295D01*
X254508094Y-71342295D02*
X254584285Y-71304200D01*
X254584285Y-71304200D02*
X254622380Y-71266104D01*
X254622380Y-71266104D02*
X254660475Y-71189914D01*
X254660475Y-71189914D02*
X254698571Y-71037533D01*
X254698571Y-71037533D02*
X254698571Y-70847057D01*
X254698571Y-70847057D02*
X254660475Y-70694676D01*
X254660475Y-70694676D02*
X254622380Y-70618485D01*
X254622380Y-70618485D02*
X254584285Y-70580390D01*
X254584285Y-70580390D02*
X254508094Y-70542295D01*
X253555713Y-70542295D02*
X253708094Y-70542295D01*
X253708094Y-70542295D02*
X253784285Y-70580390D01*
X253784285Y-70580390D02*
X253822380Y-70618485D01*
X253822380Y-70618485D02*
X253898570Y-70732771D01*
X253898570Y-70732771D02*
X253936666Y-70885152D01*
X253936666Y-70885152D02*
X253936666Y-71189914D01*
X253936666Y-71189914D02*
X253898570Y-71266104D01*
X253898570Y-71266104D02*
X253860475Y-71304200D01*
X253860475Y-71304200D02*
X253784285Y-71342295D01*
X253784285Y-71342295D02*
X253631904Y-71342295D01*
X253631904Y-71342295D02*
X253555713Y-71304200D01*
X253555713Y-71304200D02*
X253517618Y-71266104D01*
X253517618Y-71266104D02*
X253479523Y-71189914D01*
X253479523Y-71189914D02*
X253479523Y-70999438D01*
X253479523Y-70999438D02*
X253517618Y-70923247D01*
X253517618Y-70923247D02*
X253555713Y-70885152D01*
X253555713Y-70885152D02*
X253631904Y-70847057D01*
X253631904Y-70847057D02*
X253784285Y-70847057D01*
X253784285Y-70847057D02*
X253860475Y-70885152D01*
X253860475Y-70885152D02*
X253898570Y-70923247D01*
X253898570Y-70923247D02*
X253936666Y-70999438D01*
X255262809Y-55362295D02*
X255186619Y-55362295D01*
X255186619Y-55362295D02*
X255110428Y-55400390D01*
X255110428Y-55400390D02*
X255072333Y-55438485D01*
X255072333Y-55438485D02*
X255034238Y-55514676D01*
X255034238Y-55514676D02*
X254996143Y-55667057D01*
X254996143Y-55667057D02*
X254996143Y-55857533D01*
X254996143Y-55857533D02*
X255034238Y-56009914D01*
X255034238Y-56009914D02*
X255072333Y-56086104D01*
X255072333Y-56086104D02*
X255110428Y-56124200D01*
X255110428Y-56124200D02*
X255186619Y-56162295D01*
X255186619Y-56162295D02*
X255262809Y-56162295D01*
X255262809Y-56162295D02*
X255339000Y-56124200D01*
X255339000Y-56124200D02*
X255377095Y-56086104D01*
X255377095Y-56086104D02*
X255415190Y-56009914D01*
X255415190Y-56009914D02*
X255453286Y-55857533D01*
X255453286Y-55857533D02*
X255453286Y-55667057D01*
X255453286Y-55667057D02*
X255415190Y-55514676D01*
X255415190Y-55514676D02*
X255377095Y-55438485D01*
X255377095Y-55438485D02*
X255339000Y-55400390D01*
X255339000Y-55400390D02*
X255262809Y-55362295D01*
X254691381Y-55438485D02*
X254653285Y-55400390D01*
X254653285Y-55400390D02*
X254577095Y-55362295D01*
X254577095Y-55362295D02*
X254386619Y-55362295D01*
X254386619Y-55362295D02*
X254310428Y-55400390D01*
X254310428Y-55400390D02*
X254272333Y-55438485D01*
X254272333Y-55438485D02*
X254234238Y-55514676D01*
X254234238Y-55514676D02*
X254234238Y-55590866D01*
X254234238Y-55590866D02*
X254272333Y-55705152D01*
X254272333Y-55705152D02*
X254729476Y-56162295D01*
X254729476Y-56162295D02*
X254234238Y-56162295D01*
X253738999Y-55362295D02*
X253662809Y-55362295D01*
X253662809Y-55362295D02*
X253586618Y-55400390D01*
X253586618Y-55400390D02*
X253548523Y-55438485D01*
X253548523Y-55438485D02*
X253510428Y-55514676D01*
X253510428Y-55514676D02*
X253472333Y-55667057D01*
X253472333Y-55667057D02*
X253472333Y-55857533D01*
X253472333Y-55857533D02*
X253510428Y-56009914D01*
X253510428Y-56009914D02*
X253548523Y-56086104D01*
X253548523Y-56086104D02*
X253586618Y-56124200D01*
X253586618Y-56124200D02*
X253662809Y-56162295D01*
X253662809Y-56162295D02*
X253738999Y-56162295D01*
X253738999Y-56162295D02*
X253815190Y-56124200D01*
X253815190Y-56124200D02*
X253853285Y-56086104D01*
X253853285Y-56086104D02*
X253891380Y-56009914D01*
X253891380Y-56009914D02*
X253929476Y-55857533D01*
X253929476Y-55857533D02*
X253929476Y-55667057D01*
X253929476Y-55667057D02*
X253891380Y-55514676D01*
X253891380Y-55514676D02*
X253853285Y-55438485D01*
X253853285Y-55438485D02*
X253815190Y-55400390D01*
X253815190Y-55400390D02*
X253738999Y-55362295D01*
X266339999Y-70572295D02*
X266263809Y-70572295D01*
X266263809Y-70572295D02*
X266187618Y-70610390D01*
X266187618Y-70610390D02*
X266149523Y-70648485D01*
X266149523Y-70648485D02*
X266111428Y-70724676D01*
X266111428Y-70724676D02*
X266073333Y-70877057D01*
X266073333Y-70877057D02*
X266073333Y-71067533D01*
X266073333Y-71067533D02*
X266111428Y-71219914D01*
X266111428Y-71219914D02*
X266149523Y-71296104D01*
X266149523Y-71296104D02*
X266187618Y-71334200D01*
X266187618Y-71334200D02*
X266263809Y-71372295D01*
X266263809Y-71372295D02*
X266339999Y-71372295D01*
X266339999Y-71372295D02*
X266416190Y-71334200D01*
X266416190Y-71334200D02*
X266454285Y-71296104D01*
X266454285Y-71296104D02*
X266492380Y-71219914D01*
X266492380Y-71219914D02*
X266530476Y-71067533D01*
X266530476Y-71067533D02*
X266530476Y-70877057D01*
X266530476Y-70877057D02*
X266492380Y-70724676D01*
X266492380Y-70724676D02*
X266454285Y-70648485D01*
X266454285Y-70648485D02*
X266416190Y-70610390D01*
X266416190Y-70610390D02*
X266339999Y-70572295D01*
X265578094Y-70572295D02*
X265501904Y-70572295D01*
X265501904Y-70572295D02*
X265425713Y-70610390D01*
X265425713Y-70610390D02*
X265387618Y-70648485D01*
X265387618Y-70648485D02*
X265349523Y-70724676D01*
X265349523Y-70724676D02*
X265311428Y-70877057D01*
X265311428Y-70877057D02*
X265311428Y-71067533D01*
X265311428Y-71067533D02*
X265349523Y-71219914D01*
X265349523Y-71219914D02*
X265387618Y-71296104D01*
X265387618Y-71296104D02*
X265425713Y-71334200D01*
X265425713Y-71334200D02*
X265501904Y-71372295D01*
X265501904Y-71372295D02*
X265578094Y-71372295D01*
X265578094Y-71372295D02*
X265654285Y-71334200D01*
X265654285Y-71334200D02*
X265692380Y-71296104D01*
X265692380Y-71296104D02*
X265730475Y-71219914D01*
X265730475Y-71219914D02*
X265768571Y-71067533D01*
X265768571Y-71067533D02*
X265768571Y-70877057D01*
X265768571Y-70877057D02*
X265730475Y-70724676D01*
X265730475Y-70724676D02*
X265692380Y-70648485D01*
X265692380Y-70648485D02*
X265654285Y-70610390D01*
X265654285Y-70610390D02*
X265578094Y-70572295D01*
X264930475Y-71372295D02*
X264778094Y-71372295D01*
X264778094Y-71372295D02*
X264701904Y-71334200D01*
X264701904Y-71334200D02*
X264663808Y-71296104D01*
X264663808Y-71296104D02*
X264587618Y-71181819D01*
X264587618Y-71181819D02*
X264549523Y-71029438D01*
X264549523Y-71029438D02*
X264549523Y-70724676D01*
X264549523Y-70724676D02*
X264587618Y-70648485D01*
X264587618Y-70648485D02*
X264625713Y-70610390D01*
X264625713Y-70610390D02*
X264701904Y-70572295D01*
X264701904Y-70572295D02*
X264854285Y-70572295D01*
X264854285Y-70572295D02*
X264930475Y-70610390D01*
X264930475Y-70610390D02*
X264968570Y-70648485D01*
X264968570Y-70648485D02*
X265006666Y-70724676D01*
X265006666Y-70724676D02*
X265006666Y-70915152D01*
X265006666Y-70915152D02*
X264968570Y-70991342D01*
X264968570Y-70991342D02*
X264930475Y-71029438D01*
X264930475Y-71029438D02*
X264854285Y-71067533D01*
X264854285Y-71067533D02*
X264701904Y-71067533D01*
X264701904Y-71067533D02*
X264625713Y-71029438D01*
X264625713Y-71029438D02*
X264587618Y-70991342D01*
X264587618Y-70991342D02*
X264549523Y-70915152D01*
X254996143Y-63712295D02*
X255453286Y-63712295D01*
X255224714Y-63712295D02*
X255224714Y-62912295D01*
X255224714Y-62912295D02*
X255300905Y-63026580D01*
X255300905Y-63026580D02*
X255377095Y-63102771D01*
X255377095Y-63102771D02*
X255453286Y-63140866D01*
X254500904Y-62912295D02*
X254424714Y-62912295D01*
X254424714Y-62912295D02*
X254348523Y-62950390D01*
X254348523Y-62950390D02*
X254310428Y-62988485D01*
X254310428Y-62988485D02*
X254272333Y-63064676D01*
X254272333Y-63064676D02*
X254234238Y-63217057D01*
X254234238Y-63217057D02*
X254234238Y-63407533D01*
X254234238Y-63407533D02*
X254272333Y-63559914D01*
X254272333Y-63559914D02*
X254310428Y-63636104D01*
X254310428Y-63636104D02*
X254348523Y-63674200D01*
X254348523Y-63674200D02*
X254424714Y-63712295D01*
X254424714Y-63712295D02*
X254500904Y-63712295D01*
X254500904Y-63712295D02*
X254577095Y-63674200D01*
X254577095Y-63674200D02*
X254615190Y-63636104D01*
X254615190Y-63636104D02*
X254653285Y-63559914D01*
X254653285Y-63559914D02*
X254691381Y-63407533D01*
X254691381Y-63407533D02*
X254691381Y-63217057D01*
X254691381Y-63217057D02*
X254653285Y-63064676D01*
X254653285Y-63064676D02*
X254615190Y-62988485D01*
X254615190Y-62988485D02*
X254577095Y-62950390D01*
X254577095Y-62950390D02*
X254500904Y-62912295D01*
X253738999Y-62912295D02*
X253662809Y-62912295D01*
X253662809Y-62912295D02*
X253586618Y-62950390D01*
X253586618Y-62950390D02*
X253548523Y-62988485D01*
X253548523Y-62988485D02*
X253510428Y-63064676D01*
X253510428Y-63064676D02*
X253472333Y-63217057D01*
X253472333Y-63217057D02*
X253472333Y-63407533D01*
X253472333Y-63407533D02*
X253510428Y-63559914D01*
X253510428Y-63559914D02*
X253548523Y-63636104D01*
X253548523Y-63636104D02*
X253586618Y-63674200D01*
X253586618Y-63674200D02*
X253662809Y-63712295D01*
X253662809Y-63712295D02*
X253738999Y-63712295D01*
X253738999Y-63712295D02*
X253815190Y-63674200D01*
X253815190Y-63674200D02*
X253853285Y-63636104D01*
X253853285Y-63636104D02*
X253891380Y-63559914D01*
X253891380Y-63559914D02*
X253929476Y-63407533D01*
X253929476Y-63407533D02*
X253929476Y-63217057D01*
X253929476Y-63217057D02*
X253891380Y-63064676D01*
X253891380Y-63064676D02*
X253853285Y-62988485D01*
X253853285Y-62988485D02*
X253815190Y-62950390D01*
X253815190Y-62950390D02*
X253738999Y-62912295D01*
X255148523Y-50250390D02*
X255224713Y-50212295D01*
X255224713Y-50212295D02*
X255338999Y-50212295D01*
X255338999Y-50212295D02*
X255453285Y-50250390D01*
X255453285Y-50250390D02*
X255529475Y-50326580D01*
X255529475Y-50326580D02*
X255567570Y-50402771D01*
X255567570Y-50402771D02*
X255605666Y-50555152D01*
X255605666Y-50555152D02*
X255605666Y-50669438D01*
X255605666Y-50669438D02*
X255567570Y-50821819D01*
X255567570Y-50821819D02*
X255529475Y-50898009D01*
X255529475Y-50898009D02*
X255453285Y-50974200D01*
X255453285Y-50974200D02*
X255338999Y-51012295D01*
X255338999Y-51012295D02*
X255262808Y-51012295D01*
X255262808Y-51012295D02*
X255148523Y-50974200D01*
X255148523Y-50974200D02*
X255110427Y-50936104D01*
X255110427Y-50936104D02*
X255110427Y-50669438D01*
X255110427Y-50669438D02*
X255262808Y-50669438D01*
X254767570Y-51012295D02*
X254767570Y-50212295D01*
X254767570Y-50212295D02*
X254310427Y-51012295D01*
X254310427Y-51012295D02*
X254310427Y-50212295D01*
X253929475Y-51012295D02*
X253929475Y-50212295D01*
X253929475Y-50212295D02*
X253738999Y-50212295D01*
X253738999Y-50212295D02*
X253624713Y-50250390D01*
X253624713Y-50250390D02*
X253548523Y-50326580D01*
X253548523Y-50326580D02*
X253510428Y-50402771D01*
X253510428Y-50402771D02*
X253472332Y-50555152D01*
X253472332Y-50555152D02*
X253472332Y-50669438D01*
X253472332Y-50669438D02*
X253510428Y-50821819D01*
X253510428Y-50821819D02*
X253548523Y-50898009D01*
X253548523Y-50898009D02*
X253624713Y-50974200D01*
X253624713Y-50974200D02*
X253738999Y-51012295D01*
X253738999Y-51012295D02*
X253929475Y-51012295D01*
X255262809Y-42592295D02*
X255186619Y-42592295D01*
X255186619Y-42592295D02*
X255110428Y-42630390D01*
X255110428Y-42630390D02*
X255072333Y-42668485D01*
X255072333Y-42668485D02*
X255034238Y-42744676D01*
X255034238Y-42744676D02*
X254996143Y-42897057D01*
X254996143Y-42897057D02*
X254996143Y-43087533D01*
X254996143Y-43087533D02*
X255034238Y-43239914D01*
X255034238Y-43239914D02*
X255072333Y-43316104D01*
X255072333Y-43316104D02*
X255110428Y-43354200D01*
X255110428Y-43354200D02*
X255186619Y-43392295D01*
X255186619Y-43392295D02*
X255262809Y-43392295D01*
X255262809Y-43392295D02*
X255339000Y-43354200D01*
X255339000Y-43354200D02*
X255377095Y-43316104D01*
X255377095Y-43316104D02*
X255415190Y-43239914D01*
X255415190Y-43239914D02*
X255453286Y-43087533D01*
X255453286Y-43087533D02*
X255453286Y-42897057D01*
X255453286Y-42897057D02*
X255415190Y-42744676D01*
X255415190Y-42744676D02*
X255377095Y-42668485D01*
X255377095Y-42668485D02*
X255339000Y-42630390D01*
X255339000Y-42630390D02*
X255262809Y-42592295D01*
X254500904Y-42592295D02*
X254424714Y-42592295D01*
X254424714Y-42592295D02*
X254348523Y-42630390D01*
X254348523Y-42630390D02*
X254310428Y-42668485D01*
X254310428Y-42668485D02*
X254272333Y-42744676D01*
X254272333Y-42744676D02*
X254234238Y-42897057D01*
X254234238Y-42897057D02*
X254234238Y-43087533D01*
X254234238Y-43087533D02*
X254272333Y-43239914D01*
X254272333Y-43239914D02*
X254310428Y-43316104D01*
X254310428Y-43316104D02*
X254348523Y-43354200D01*
X254348523Y-43354200D02*
X254424714Y-43392295D01*
X254424714Y-43392295D02*
X254500904Y-43392295D01*
X254500904Y-43392295D02*
X254577095Y-43354200D01*
X254577095Y-43354200D02*
X254615190Y-43316104D01*
X254615190Y-43316104D02*
X254653285Y-43239914D01*
X254653285Y-43239914D02*
X254691381Y-43087533D01*
X254691381Y-43087533D02*
X254691381Y-42897057D01*
X254691381Y-42897057D02*
X254653285Y-42744676D01*
X254653285Y-42744676D02*
X254615190Y-42668485D01*
X254615190Y-42668485D02*
X254577095Y-42630390D01*
X254577095Y-42630390D02*
X254500904Y-42592295D01*
X253548523Y-42592295D02*
X253700904Y-42592295D01*
X253700904Y-42592295D02*
X253777095Y-42630390D01*
X253777095Y-42630390D02*
X253815190Y-42668485D01*
X253815190Y-42668485D02*
X253891380Y-42782771D01*
X253891380Y-42782771D02*
X253929476Y-42935152D01*
X253929476Y-42935152D02*
X253929476Y-43239914D01*
X253929476Y-43239914D02*
X253891380Y-43316104D01*
X253891380Y-43316104D02*
X253853285Y-43354200D01*
X253853285Y-43354200D02*
X253777095Y-43392295D01*
X253777095Y-43392295D02*
X253624714Y-43392295D01*
X253624714Y-43392295D02*
X253548523Y-43354200D01*
X253548523Y-43354200D02*
X253510428Y-43316104D01*
X253510428Y-43316104D02*
X253472333Y-43239914D01*
X253472333Y-43239914D02*
X253472333Y-43049438D01*
X253472333Y-43049438D02*
X253510428Y-42973247D01*
X253510428Y-42973247D02*
X253548523Y-42935152D01*
X253548523Y-42935152D02*
X253624714Y-42897057D01*
X253624714Y-42897057D02*
X253777095Y-42897057D01*
X253777095Y-42897057D02*
X253853285Y-42935152D01*
X253853285Y-42935152D02*
X253891380Y-42973247D01*
X253891380Y-42973247D02*
X253929476Y-43049438D01*
X255148523Y-47710390D02*
X255224713Y-47672295D01*
X255224713Y-47672295D02*
X255338999Y-47672295D01*
X255338999Y-47672295D02*
X255453285Y-47710390D01*
X255453285Y-47710390D02*
X255529475Y-47786580D01*
X255529475Y-47786580D02*
X255567570Y-47862771D01*
X255567570Y-47862771D02*
X255605666Y-48015152D01*
X255605666Y-48015152D02*
X255605666Y-48129438D01*
X255605666Y-48129438D02*
X255567570Y-48281819D01*
X255567570Y-48281819D02*
X255529475Y-48358009D01*
X255529475Y-48358009D02*
X255453285Y-48434200D01*
X255453285Y-48434200D02*
X255338999Y-48472295D01*
X255338999Y-48472295D02*
X255262808Y-48472295D01*
X255262808Y-48472295D02*
X255148523Y-48434200D01*
X255148523Y-48434200D02*
X255110427Y-48396104D01*
X255110427Y-48396104D02*
X255110427Y-48129438D01*
X255110427Y-48129438D02*
X255262808Y-48129438D01*
X254767570Y-48472295D02*
X254767570Y-47672295D01*
X254767570Y-47672295D02*
X254310427Y-48472295D01*
X254310427Y-48472295D02*
X254310427Y-47672295D01*
X253929475Y-48472295D02*
X253929475Y-47672295D01*
X253929475Y-47672295D02*
X253738999Y-47672295D01*
X253738999Y-47672295D02*
X253624713Y-47710390D01*
X253624713Y-47710390D02*
X253548523Y-47786580D01*
X253548523Y-47786580D02*
X253510428Y-47862771D01*
X253510428Y-47862771D02*
X253472332Y-48015152D01*
X253472332Y-48015152D02*
X253472332Y-48129438D01*
X253472332Y-48129438D02*
X253510428Y-48281819D01*
X253510428Y-48281819D02*
X253548523Y-48358009D01*
X253548523Y-48358009D02*
X253624713Y-48434200D01*
X253624713Y-48434200D02*
X253738999Y-48472295D01*
X253738999Y-48472295D02*
X253929475Y-48472295D01*
X266070524Y-61172295D02*
X266527667Y-61172295D01*
X266299095Y-61172295D02*
X266299095Y-60372295D01*
X266299095Y-60372295D02*
X266375286Y-60486580D01*
X266375286Y-60486580D02*
X266451476Y-60562771D01*
X266451476Y-60562771D02*
X266527667Y-60600866D01*
X265308619Y-61172295D02*
X265765762Y-61172295D01*
X265537190Y-61172295D02*
X265537190Y-60372295D01*
X265537190Y-60372295D02*
X265613381Y-60486580D01*
X265613381Y-60486580D02*
X265689571Y-60562771D01*
X265689571Y-60562771D02*
X265765762Y-60600866D01*
X264584809Y-60372295D02*
X264965761Y-60372295D01*
X264965761Y-60372295D02*
X265003857Y-60753247D01*
X265003857Y-60753247D02*
X264965761Y-60715152D01*
X264965761Y-60715152D02*
X264889571Y-60677057D01*
X264889571Y-60677057D02*
X264699095Y-60677057D01*
X264699095Y-60677057D02*
X264622904Y-60715152D01*
X264622904Y-60715152D02*
X264584809Y-60753247D01*
X264584809Y-60753247D02*
X264546714Y-60829438D01*
X264546714Y-60829438D02*
X264546714Y-61019914D01*
X264546714Y-61019914D02*
X264584809Y-61096104D01*
X264584809Y-61096104D02*
X264622904Y-61134200D01*
X264622904Y-61134200D02*
X264699095Y-61172295D01*
X264699095Y-61172295D02*
X264889571Y-61172295D01*
X264889571Y-61172295D02*
X264965761Y-61134200D01*
X264965761Y-61134200D02*
X265003857Y-61096104D01*
X266337190Y-57832295D02*
X266261000Y-57832295D01*
X266261000Y-57832295D02*
X266184809Y-57870390D01*
X266184809Y-57870390D02*
X266146714Y-57908485D01*
X266146714Y-57908485D02*
X266108619Y-57984676D01*
X266108619Y-57984676D02*
X266070524Y-58137057D01*
X266070524Y-58137057D02*
X266070524Y-58327533D01*
X266070524Y-58327533D02*
X266108619Y-58479914D01*
X266108619Y-58479914D02*
X266146714Y-58556104D01*
X266146714Y-58556104D02*
X266184809Y-58594200D01*
X266184809Y-58594200D02*
X266261000Y-58632295D01*
X266261000Y-58632295D02*
X266337190Y-58632295D01*
X266337190Y-58632295D02*
X266413381Y-58594200D01*
X266413381Y-58594200D02*
X266451476Y-58556104D01*
X266451476Y-58556104D02*
X266489571Y-58479914D01*
X266489571Y-58479914D02*
X266527667Y-58327533D01*
X266527667Y-58327533D02*
X266527667Y-58137057D01*
X266527667Y-58137057D02*
X266489571Y-57984676D01*
X266489571Y-57984676D02*
X266451476Y-57908485D01*
X266451476Y-57908485D02*
X266413381Y-57870390D01*
X266413381Y-57870390D02*
X266337190Y-57832295D01*
X265575285Y-57832295D02*
X265499095Y-57832295D01*
X265499095Y-57832295D02*
X265422904Y-57870390D01*
X265422904Y-57870390D02*
X265384809Y-57908485D01*
X265384809Y-57908485D02*
X265346714Y-57984676D01*
X265346714Y-57984676D02*
X265308619Y-58137057D01*
X265308619Y-58137057D02*
X265308619Y-58327533D01*
X265308619Y-58327533D02*
X265346714Y-58479914D01*
X265346714Y-58479914D02*
X265384809Y-58556104D01*
X265384809Y-58556104D02*
X265422904Y-58594200D01*
X265422904Y-58594200D02*
X265499095Y-58632295D01*
X265499095Y-58632295D02*
X265575285Y-58632295D01*
X265575285Y-58632295D02*
X265651476Y-58594200D01*
X265651476Y-58594200D02*
X265689571Y-58556104D01*
X265689571Y-58556104D02*
X265727666Y-58479914D01*
X265727666Y-58479914D02*
X265765762Y-58327533D01*
X265765762Y-58327533D02*
X265765762Y-58137057D01*
X265765762Y-58137057D02*
X265727666Y-57984676D01*
X265727666Y-57984676D02*
X265689571Y-57908485D01*
X265689571Y-57908485D02*
X265651476Y-57870390D01*
X265651476Y-57870390D02*
X265575285Y-57832295D01*
X265003857Y-57908485D02*
X264965761Y-57870390D01*
X264965761Y-57870390D02*
X264889571Y-57832295D01*
X264889571Y-57832295D02*
X264699095Y-57832295D01*
X264699095Y-57832295D02*
X264622904Y-57870390D01*
X264622904Y-57870390D02*
X264584809Y-57908485D01*
X264584809Y-57908485D02*
X264546714Y-57984676D01*
X264546714Y-57984676D02*
X264546714Y-58060866D01*
X264546714Y-58060866D02*
X264584809Y-58175152D01*
X264584809Y-58175152D02*
X265041952Y-58632295D01*
X265041952Y-58632295D02*
X264546714Y-58632295D01*
X266337190Y-67992295D02*
X266261000Y-67992295D01*
X266261000Y-67992295D02*
X266184809Y-68030390D01*
X266184809Y-68030390D02*
X266146714Y-68068485D01*
X266146714Y-68068485D02*
X266108619Y-68144676D01*
X266108619Y-68144676D02*
X266070524Y-68297057D01*
X266070524Y-68297057D02*
X266070524Y-68487533D01*
X266070524Y-68487533D02*
X266108619Y-68639914D01*
X266108619Y-68639914D02*
X266146714Y-68716104D01*
X266146714Y-68716104D02*
X266184809Y-68754200D01*
X266184809Y-68754200D02*
X266261000Y-68792295D01*
X266261000Y-68792295D02*
X266337190Y-68792295D01*
X266337190Y-68792295D02*
X266413381Y-68754200D01*
X266413381Y-68754200D02*
X266451476Y-68716104D01*
X266451476Y-68716104D02*
X266489571Y-68639914D01*
X266489571Y-68639914D02*
X266527667Y-68487533D01*
X266527667Y-68487533D02*
X266527667Y-68297057D01*
X266527667Y-68297057D02*
X266489571Y-68144676D01*
X266489571Y-68144676D02*
X266451476Y-68068485D01*
X266451476Y-68068485D02*
X266413381Y-68030390D01*
X266413381Y-68030390D02*
X266337190Y-67992295D01*
X265308619Y-68792295D02*
X265765762Y-68792295D01*
X265537190Y-68792295D02*
X265537190Y-67992295D01*
X265537190Y-67992295D02*
X265613381Y-68106580D01*
X265613381Y-68106580D02*
X265689571Y-68182771D01*
X265689571Y-68182771D02*
X265765762Y-68220866D01*
X264813380Y-67992295D02*
X264737190Y-67992295D01*
X264737190Y-67992295D02*
X264660999Y-68030390D01*
X264660999Y-68030390D02*
X264622904Y-68068485D01*
X264622904Y-68068485D02*
X264584809Y-68144676D01*
X264584809Y-68144676D02*
X264546714Y-68297057D01*
X264546714Y-68297057D02*
X264546714Y-68487533D01*
X264546714Y-68487533D02*
X264584809Y-68639914D01*
X264584809Y-68639914D02*
X264622904Y-68716104D01*
X264622904Y-68716104D02*
X264660999Y-68754200D01*
X264660999Y-68754200D02*
X264737190Y-68792295D01*
X264737190Y-68792295D02*
X264813380Y-68792295D01*
X264813380Y-68792295D02*
X264889571Y-68754200D01*
X264889571Y-68754200D02*
X264927666Y-68716104D01*
X264927666Y-68716104D02*
X264965761Y-68639914D01*
X264965761Y-68639914D02*
X265003857Y-68487533D01*
X265003857Y-68487533D02*
X265003857Y-68297057D01*
X265003857Y-68297057D02*
X264965761Y-68144676D01*
X264965761Y-68144676D02*
X264927666Y-68068485D01*
X264927666Y-68068485D02*
X264889571Y-68030390D01*
X264889571Y-68030390D02*
X264813380Y-67992295D01*
X255262809Y-57862295D02*
X255186619Y-57862295D01*
X255186619Y-57862295D02*
X255110428Y-57900390D01*
X255110428Y-57900390D02*
X255072333Y-57938485D01*
X255072333Y-57938485D02*
X255034238Y-58014676D01*
X255034238Y-58014676D02*
X254996143Y-58167057D01*
X254996143Y-58167057D02*
X254996143Y-58357533D01*
X254996143Y-58357533D02*
X255034238Y-58509914D01*
X255034238Y-58509914D02*
X255072333Y-58586104D01*
X255072333Y-58586104D02*
X255110428Y-58624200D01*
X255110428Y-58624200D02*
X255186619Y-58662295D01*
X255186619Y-58662295D02*
X255262809Y-58662295D01*
X255262809Y-58662295D02*
X255339000Y-58624200D01*
X255339000Y-58624200D02*
X255377095Y-58586104D01*
X255377095Y-58586104D02*
X255415190Y-58509914D01*
X255415190Y-58509914D02*
X255453286Y-58357533D01*
X255453286Y-58357533D02*
X255453286Y-58167057D01*
X255453286Y-58167057D02*
X255415190Y-58014676D01*
X255415190Y-58014676D02*
X255377095Y-57938485D01*
X255377095Y-57938485D02*
X255339000Y-57900390D01*
X255339000Y-57900390D02*
X255262809Y-57862295D01*
X254691381Y-57938485D02*
X254653285Y-57900390D01*
X254653285Y-57900390D02*
X254577095Y-57862295D01*
X254577095Y-57862295D02*
X254386619Y-57862295D01*
X254386619Y-57862295D02*
X254310428Y-57900390D01*
X254310428Y-57900390D02*
X254272333Y-57938485D01*
X254272333Y-57938485D02*
X254234238Y-58014676D01*
X254234238Y-58014676D02*
X254234238Y-58090866D01*
X254234238Y-58090866D02*
X254272333Y-58205152D01*
X254272333Y-58205152D02*
X254729476Y-58662295D01*
X254729476Y-58662295D02*
X254234238Y-58662295D01*
X253929476Y-57938485D02*
X253891380Y-57900390D01*
X253891380Y-57900390D02*
X253815190Y-57862295D01*
X253815190Y-57862295D02*
X253624714Y-57862295D01*
X253624714Y-57862295D02*
X253548523Y-57900390D01*
X253548523Y-57900390D02*
X253510428Y-57938485D01*
X253510428Y-57938485D02*
X253472333Y-58014676D01*
X253472333Y-58014676D02*
X253472333Y-58090866D01*
X253472333Y-58090866D02*
X253510428Y-58205152D01*
X253510428Y-58205152D02*
X253967571Y-58662295D01*
X253967571Y-58662295D02*
X253472333Y-58662295D01*
X255262809Y-60362295D02*
X255186619Y-60362295D01*
X255186619Y-60362295D02*
X255110428Y-60400390D01*
X255110428Y-60400390D02*
X255072333Y-60438485D01*
X255072333Y-60438485D02*
X255034238Y-60514676D01*
X255034238Y-60514676D02*
X254996143Y-60667057D01*
X254996143Y-60667057D02*
X254996143Y-60857533D01*
X254996143Y-60857533D02*
X255034238Y-61009914D01*
X255034238Y-61009914D02*
X255072333Y-61086104D01*
X255072333Y-61086104D02*
X255110428Y-61124200D01*
X255110428Y-61124200D02*
X255186619Y-61162295D01*
X255186619Y-61162295D02*
X255262809Y-61162295D01*
X255262809Y-61162295D02*
X255339000Y-61124200D01*
X255339000Y-61124200D02*
X255377095Y-61086104D01*
X255377095Y-61086104D02*
X255415190Y-61009914D01*
X255415190Y-61009914D02*
X255453286Y-60857533D01*
X255453286Y-60857533D02*
X255453286Y-60667057D01*
X255453286Y-60667057D02*
X255415190Y-60514676D01*
X255415190Y-60514676D02*
X255377095Y-60438485D01*
X255377095Y-60438485D02*
X255339000Y-60400390D01*
X255339000Y-60400390D02*
X255262809Y-60362295D01*
X254691381Y-60438485D02*
X254653285Y-60400390D01*
X254653285Y-60400390D02*
X254577095Y-60362295D01*
X254577095Y-60362295D02*
X254386619Y-60362295D01*
X254386619Y-60362295D02*
X254310428Y-60400390D01*
X254310428Y-60400390D02*
X254272333Y-60438485D01*
X254272333Y-60438485D02*
X254234238Y-60514676D01*
X254234238Y-60514676D02*
X254234238Y-60590866D01*
X254234238Y-60590866D02*
X254272333Y-60705152D01*
X254272333Y-60705152D02*
X254729476Y-61162295D01*
X254729476Y-61162295D02*
X254234238Y-61162295D01*
X253548523Y-60628961D02*
X253548523Y-61162295D01*
X253738999Y-60324200D02*
X253929476Y-60895628D01*
X253929476Y-60895628D02*
X253434237Y-60895628D01*
X266337190Y-52752295D02*
X266261000Y-52752295D01*
X266261000Y-52752295D02*
X266184809Y-52790390D01*
X266184809Y-52790390D02*
X266146714Y-52828485D01*
X266146714Y-52828485D02*
X266108619Y-52904676D01*
X266108619Y-52904676D02*
X266070524Y-53057057D01*
X266070524Y-53057057D02*
X266070524Y-53247533D01*
X266070524Y-53247533D02*
X266108619Y-53399914D01*
X266108619Y-53399914D02*
X266146714Y-53476104D01*
X266146714Y-53476104D02*
X266184809Y-53514200D01*
X266184809Y-53514200D02*
X266261000Y-53552295D01*
X266261000Y-53552295D02*
X266337190Y-53552295D01*
X266337190Y-53552295D02*
X266413381Y-53514200D01*
X266413381Y-53514200D02*
X266451476Y-53476104D01*
X266451476Y-53476104D02*
X266489571Y-53399914D01*
X266489571Y-53399914D02*
X266527667Y-53247533D01*
X266527667Y-53247533D02*
X266527667Y-53057057D01*
X266527667Y-53057057D02*
X266489571Y-52904676D01*
X266489571Y-52904676D02*
X266451476Y-52828485D01*
X266451476Y-52828485D02*
X266413381Y-52790390D01*
X266413381Y-52790390D02*
X266337190Y-52752295D01*
X265803857Y-52752295D02*
X265308619Y-52752295D01*
X265308619Y-52752295D02*
X265575285Y-53057057D01*
X265575285Y-53057057D02*
X265461000Y-53057057D01*
X265461000Y-53057057D02*
X265384809Y-53095152D01*
X265384809Y-53095152D02*
X265346714Y-53133247D01*
X265346714Y-53133247D02*
X265308619Y-53209438D01*
X265308619Y-53209438D02*
X265308619Y-53399914D01*
X265308619Y-53399914D02*
X265346714Y-53476104D01*
X265346714Y-53476104D02*
X265384809Y-53514200D01*
X265384809Y-53514200D02*
X265461000Y-53552295D01*
X265461000Y-53552295D02*
X265689571Y-53552295D01*
X265689571Y-53552295D02*
X265765762Y-53514200D01*
X265765762Y-53514200D02*
X265803857Y-53476104D01*
X264546714Y-53552295D02*
X265003857Y-53552295D01*
X264775285Y-53552295D02*
X264775285Y-52752295D01*
X264775285Y-52752295D02*
X264851476Y-52866580D01*
X264851476Y-52866580D02*
X264927666Y-52942771D01*
X264927666Y-52942771D02*
X265003857Y-52980866D01*
X266070524Y-63712295D02*
X266527667Y-63712295D01*
X266299095Y-63712295D02*
X266299095Y-62912295D01*
X266299095Y-62912295D02*
X266375286Y-63026580D01*
X266375286Y-63026580D02*
X266451476Y-63102771D01*
X266451476Y-63102771D02*
X266527667Y-63140866D01*
X265308619Y-63712295D02*
X265765762Y-63712295D01*
X265537190Y-63712295D02*
X265537190Y-62912295D01*
X265537190Y-62912295D02*
X265613381Y-63026580D01*
X265613381Y-63026580D02*
X265689571Y-63102771D01*
X265689571Y-63102771D02*
X265765762Y-63140866D01*
X265041952Y-62912295D02*
X264546714Y-62912295D01*
X264546714Y-62912295D02*
X264813380Y-63217057D01*
X264813380Y-63217057D02*
X264699095Y-63217057D01*
X264699095Y-63217057D02*
X264622904Y-63255152D01*
X264622904Y-63255152D02*
X264584809Y-63293247D01*
X264584809Y-63293247D02*
X264546714Y-63369438D01*
X264546714Y-63369438D02*
X264546714Y-63559914D01*
X264546714Y-63559914D02*
X264584809Y-63636104D01*
X264584809Y-63636104D02*
X264622904Y-63674200D01*
X264622904Y-63674200D02*
X264699095Y-63712295D01*
X264699095Y-63712295D02*
X264927666Y-63712295D01*
X264927666Y-63712295D02*
X265003857Y-63674200D01*
X265003857Y-63674200D02*
X265041952Y-63636104D01*
X266026094Y-48472295D02*
X266292761Y-48091342D01*
X266483237Y-48472295D02*
X266483237Y-47672295D01*
X266483237Y-47672295D02*
X266178475Y-47672295D01*
X266178475Y-47672295D02*
X266102285Y-47710390D01*
X266102285Y-47710390D02*
X266064190Y-47748485D01*
X266064190Y-47748485D02*
X266026094Y-47824676D01*
X266026094Y-47824676D02*
X266026094Y-47938961D01*
X266026094Y-47938961D02*
X266064190Y-48015152D01*
X266064190Y-48015152D02*
X266102285Y-48053247D01*
X266102285Y-48053247D02*
X266178475Y-48091342D01*
X266178475Y-48091342D02*
X266483237Y-48091342D01*
X265721333Y-48434200D02*
X265607047Y-48472295D01*
X265607047Y-48472295D02*
X265416571Y-48472295D01*
X265416571Y-48472295D02*
X265340380Y-48434200D01*
X265340380Y-48434200D02*
X265302285Y-48396104D01*
X265302285Y-48396104D02*
X265264190Y-48319914D01*
X265264190Y-48319914D02*
X265264190Y-48243723D01*
X265264190Y-48243723D02*
X265302285Y-48167533D01*
X265302285Y-48167533D02*
X265340380Y-48129438D01*
X265340380Y-48129438D02*
X265416571Y-48091342D01*
X265416571Y-48091342D02*
X265568952Y-48053247D01*
X265568952Y-48053247D02*
X265645142Y-48015152D01*
X265645142Y-48015152D02*
X265683237Y-47977057D01*
X265683237Y-47977057D02*
X265721333Y-47900866D01*
X265721333Y-47900866D02*
X265721333Y-47824676D01*
X265721333Y-47824676D02*
X265683237Y-47748485D01*
X265683237Y-47748485D02*
X265645142Y-47710390D01*
X265645142Y-47710390D02*
X265568952Y-47672295D01*
X265568952Y-47672295D02*
X265378475Y-47672295D01*
X265378475Y-47672295D02*
X265264190Y-47710390D01*
X265035618Y-47672295D02*
X264578475Y-47672295D01*
X264807047Y-48472295D02*
X264807047Y-47672295D01*
X266026095Y-43392295D02*
X266292762Y-43011342D01*
X266483238Y-43392295D02*
X266483238Y-42592295D01*
X266483238Y-42592295D02*
X266178476Y-42592295D01*
X266178476Y-42592295D02*
X266102286Y-42630390D01*
X266102286Y-42630390D02*
X266064191Y-42668485D01*
X266064191Y-42668485D02*
X266026095Y-42744676D01*
X266026095Y-42744676D02*
X266026095Y-42858961D01*
X266026095Y-42858961D02*
X266064191Y-42935152D01*
X266064191Y-42935152D02*
X266102286Y-42973247D01*
X266102286Y-42973247D02*
X266178476Y-43011342D01*
X266178476Y-43011342D02*
X266483238Y-43011342D01*
X265721334Y-43163723D02*
X265340381Y-43163723D01*
X265797524Y-43392295D02*
X265530857Y-42592295D01*
X265530857Y-42592295D02*
X265264191Y-43392295D01*
X265073715Y-42592295D02*
X264883239Y-43392295D01*
X264883239Y-43392295D02*
X264730858Y-42820866D01*
X264730858Y-42820866D02*
X264578477Y-43392295D01*
X264578477Y-43392295D02*
X264388001Y-42592295D01*
X202809523Y-62407200D02*
X202666666Y-62454819D01*
X202666666Y-62454819D02*
X202428571Y-62454819D01*
X202428571Y-62454819D02*
X202333333Y-62407200D01*
X202333333Y-62407200D02*
X202285714Y-62359580D01*
X202285714Y-62359580D02*
X202238095Y-62264342D01*
X202238095Y-62264342D02*
X202238095Y-62169104D01*
X202238095Y-62169104D02*
X202285714Y-62073866D01*
X202285714Y-62073866D02*
X202333333Y-62026247D01*
X202333333Y-62026247D02*
X202428571Y-61978628D01*
X202428571Y-61978628D02*
X202619047Y-61931009D01*
X202619047Y-61931009D02*
X202714285Y-61883390D01*
X202714285Y-61883390D02*
X202761904Y-61835771D01*
X202761904Y-61835771D02*
X202809523Y-61740533D01*
X202809523Y-61740533D02*
X202809523Y-61645295D01*
X202809523Y-61645295D02*
X202761904Y-61550057D01*
X202761904Y-61550057D02*
X202714285Y-61502438D01*
X202714285Y-61502438D02*
X202619047Y-61454819D01*
X202619047Y-61454819D02*
X202380952Y-61454819D01*
X202380952Y-61454819D02*
X202238095Y-61502438D01*
X201904761Y-61454819D02*
X201666666Y-62454819D01*
X201666666Y-62454819D02*
X201476190Y-61740533D01*
X201476190Y-61740533D02*
X201285714Y-62454819D01*
X201285714Y-62454819D02*
X201047619Y-61454819D01*
X200142857Y-62454819D02*
X200714285Y-62454819D01*
X200428571Y-62454819D02*
X200428571Y-61454819D01*
X200428571Y-61454819D02*
X200523809Y-61597676D01*
X200523809Y-61597676D02*
X200619047Y-61692914D01*
X200619047Y-61692914D02*
X200714285Y-61740533D01*
X199809523Y-61454819D02*
X199190476Y-61454819D01*
X199190476Y-61454819D02*
X199523809Y-61835771D01*
X199523809Y-61835771D02*
X199380952Y-61835771D01*
X199380952Y-61835771D02*
X199285714Y-61883390D01*
X199285714Y-61883390D02*
X199238095Y-61931009D01*
X199238095Y-61931009D02*
X199190476Y-62026247D01*
X199190476Y-62026247D02*
X199190476Y-62264342D01*
X199190476Y-62264342D02*
X199238095Y-62359580D01*
X199238095Y-62359580D02*
X199285714Y-62407200D01*
X199285714Y-62407200D02*
X199380952Y-62454819D01*
X199380952Y-62454819D02*
X199666666Y-62454819D01*
X199666666Y-62454819D02*
X199761904Y-62407200D01*
X199761904Y-62407200D02*
X199809523Y-62359580D01*
X202333332Y-28407200D02*
X202190475Y-28454819D01*
X202190475Y-28454819D02*
X201952380Y-28454819D01*
X201952380Y-28454819D02*
X201857142Y-28407200D01*
X201857142Y-28407200D02*
X201809523Y-28359580D01*
X201809523Y-28359580D02*
X201761904Y-28264342D01*
X201761904Y-28264342D02*
X201761904Y-28169104D01*
X201761904Y-28169104D02*
X201809523Y-28073866D01*
X201809523Y-28073866D02*
X201857142Y-28026247D01*
X201857142Y-28026247D02*
X201952380Y-27978628D01*
X201952380Y-27978628D02*
X202142856Y-27931009D01*
X202142856Y-27931009D02*
X202238094Y-27883390D01*
X202238094Y-27883390D02*
X202285713Y-27835771D01*
X202285713Y-27835771D02*
X202333332Y-27740533D01*
X202333332Y-27740533D02*
X202333332Y-27645295D01*
X202333332Y-27645295D02*
X202285713Y-27550057D01*
X202285713Y-27550057D02*
X202238094Y-27502438D01*
X202238094Y-27502438D02*
X202142856Y-27454819D01*
X202142856Y-27454819D02*
X201904761Y-27454819D01*
X201904761Y-27454819D02*
X201761904Y-27502438D01*
X201428570Y-27454819D02*
X201190475Y-28454819D01*
X201190475Y-28454819D02*
X200999999Y-27740533D01*
X200999999Y-27740533D02*
X200809523Y-28454819D01*
X200809523Y-28454819D02*
X200571428Y-27454819D01*
X200285713Y-27454819D02*
X199666666Y-27454819D01*
X199666666Y-27454819D02*
X199999999Y-27835771D01*
X199999999Y-27835771D02*
X199857142Y-27835771D01*
X199857142Y-27835771D02*
X199761904Y-27883390D01*
X199761904Y-27883390D02*
X199714285Y-27931009D01*
X199714285Y-27931009D02*
X199666666Y-28026247D01*
X199666666Y-28026247D02*
X199666666Y-28264342D01*
X199666666Y-28264342D02*
X199714285Y-28359580D01*
X199714285Y-28359580D02*
X199761904Y-28407200D01*
X199761904Y-28407200D02*
X199857142Y-28454819D01*
X199857142Y-28454819D02*
X200142856Y-28454819D01*
X200142856Y-28454819D02*
X200238094Y-28407200D01*
X200238094Y-28407200D02*
X200285713Y-28359580D01*
X238333332Y-36407200D02*
X238190475Y-36454819D01*
X238190475Y-36454819D02*
X237952380Y-36454819D01*
X237952380Y-36454819D02*
X237857142Y-36407200D01*
X237857142Y-36407200D02*
X237809523Y-36359580D01*
X237809523Y-36359580D02*
X237761904Y-36264342D01*
X237761904Y-36264342D02*
X237761904Y-36169104D01*
X237761904Y-36169104D02*
X237809523Y-36073866D01*
X237809523Y-36073866D02*
X237857142Y-36026247D01*
X237857142Y-36026247D02*
X237952380Y-35978628D01*
X237952380Y-35978628D02*
X238142856Y-35931009D01*
X238142856Y-35931009D02*
X238238094Y-35883390D01*
X238238094Y-35883390D02*
X238285713Y-35835771D01*
X238285713Y-35835771D02*
X238333332Y-35740533D01*
X238333332Y-35740533D02*
X238333332Y-35645295D01*
X238333332Y-35645295D02*
X238285713Y-35550057D01*
X238285713Y-35550057D02*
X238238094Y-35502438D01*
X238238094Y-35502438D02*
X238142856Y-35454819D01*
X238142856Y-35454819D02*
X237904761Y-35454819D01*
X237904761Y-35454819D02*
X237761904Y-35502438D01*
X237428570Y-35454819D02*
X237190475Y-36454819D01*
X237190475Y-36454819D02*
X236999999Y-35740533D01*
X236999999Y-35740533D02*
X236809523Y-36454819D01*
X236809523Y-36454819D02*
X236571428Y-35454819D01*
X235714285Y-35454819D02*
X236190475Y-35454819D01*
X236190475Y-35454819D02*
X236238094Y-35931009D01*
X236238094Y-35931009D02*
X236190475Y-35883390D01*
X236190475Y-35883390D02*
X236095237Y-35835771D01*
X236095237Y-35835771D02*
X235857142Y-35835771D01*
X235857142Y-35835771D02*
X235761904Y-35883390D01*
X235761904Y-35883390D02*
X235714285Y-35931009D01*
X235714285Y-35931009D02*
X235666666Y-36026247D01*
X235666666Y-36026247D02*
X235666666Y-36264342D01*
X235666666Y-36264342D02*
X235714285Y-36359580D01*
X235714285Y-36359580D02*
X235761904Y-36407200D01*
X235761904Y-36407200D02*
X235857142Y-36454819D01*
X235857142Y-36454819D02*
X236095237Y-36454819D01*
X236095237Y-36454819D02*
X236190475Y-36407200D01*
X236190475Y-36407200D02*
X236238094Y-36359580D01*
X84809523Y-74407200D02*
X84666666Y-74454819D01*
X84666666Y-74454819D02*
X84428571Y-74454819D01*
X84428571Y-74454819D02*
X84333333Y-74407200D01*
X84333333Y-74407200D02*
X84285714Y-74359580D01*
X84285714Y-74359580D02*
X84238095Y-74264342D01*
X84238095Y-74264342D02*
X84238095Y-74169104D01*
X84238095Y-74169104D02*
X84285714Y-74073866D01*
X84285714Y-74073866D02*
X84333333Y-74026247D01*
X84333333Y-74026247D02*
X84428571Y-73978628D01*
X84428571Y-73978628D02*
X84619047Y-73931009D01*
X84619047Y-73931009D02*
X84714285Y-73883390D01*
X84714285Y-73883390D02*
X84761904Y-73835771D01*
X84761904Y-73835771D02*
X84809523Y-73740533D01*
X84809523Y-73740533D02*
X84809523Y-73645295D01*
X84809523Y-73645295D02*
X84761904Y-73550057D01*
X84761904Y-73550057D02*
X84714285Y-73502438D01*
X84714285Y-73502438D02*
X84619047Y-73454819D01*
X84619047Y-73454819D02*
X84380952Y-73454819D01*
X84380952Y-73454819D02*
X84238095Y-73502438D01*
X83904761Y-73454819D02*
X83666666Y-74454819D01*
X83666666Y-74454819D02*
X83476190Y-73740533D01*
X83476190Y-73740533D02*
X83285714Y-74454819D01*
X83285714Y-74454819D02*
X83047619Y-73454819D01*
X82714285Y-73550057D02*
X82666666Y-73502438D01*
X82666666Y-73502438D02*
X82571428Y-73454819D01*
X82571428Y-73454819D02*
X82333333Y-73454819D01*
X82333333Y-73454819D02*
X82238095Y-73502438D01*
X82238095Y-73502438D02*
X82190476Y-73550057D01*
X82190476Y-73550057D02*
X82142857Y-73645295D01*
X82142857Y-73645295D02*
X82142857Y-73740533D01*
X82142857Y-73740533D02*
X82190476Y-73883390D01*
X82190476Y-73883390D02*
X82761904Y-74454819D01*
X82761904Y-74454819D02*
X82142857Y-74454819D01*
X81571428Y-73883390D02*
X81666666Y-73835771D01*
X81666666Y-73835771D02*
X81714285Y-73788152D01*
X81714285Y-73788152D02*
X81761904Y-73692914D01*
X81761904Y-73692914D02*
X81761904Y-73645295D01*
X81761904Y-73645295D02*
X81714285Y-73550057D01*
X81714285Y-73550057D02*
X81666666Y-73502438D01*
X81666666Y-73502438D02*
X81571428Y-73454819D01*
X81571428Y-73454819D02*
X81380952Y-73454819D01*
X81380952Y-73454819D02*
X81285714Y-73502438D01*
X81285714Y-73502438D02*
X81238095Y-73550057D01*
X81238095Y-73550057D02*
X81190476Y-73645295D01*
X81190476Y-73645295D02*
X81190476Y-73692914D01*
X81190476Y-73692914D02*
X81238095Y-73788152D01*
X81238095Y-73788152D02*
X81285714Y-73835771D01*
X81285714Y-73835771D02*
X81380952Y-73883390D01*
X81380952Y-73883390D02*
X81571428Y-73883390D01*
X81571428Y-73883390D02*
X81666666Y-73931009D01*
X81666666Y-73931009D02*
X81714285Y-73978628D01*
X81714285Y-73978628D02*
X81761904Y-74073866D01*
X81761904Y-74073866D02*
X81761904Y-74264342D01*
X81761904Y-74264342D02*
X81714285Y-74359580D01*
X81714285Y-74359580D02*
X81666666Y-74407200D01*
X81666666Y-74407200D02*
X81571428Y-74454819D01*
X81571428Y-74454819D02*
X81380952Y-74454819D01*
X81380952Y-74454819D02*
X81285714Y-74407200D01*
X81285714Y-74407200D02*
X81238095Y-74359580D01*
X81238095Y-74359580D02*
X81190476Y-74264342D01*
X81190476Y-74264342D02*
X81190476Y-74073866D01*
X81190476Y-74073866D02*
X81238095Y-73978628D01*
X81238095Y-73978628D02*
X81285714Y-73931009D01*
X81285714Y-73931009D02*
X81380952Y-73883390D01*
X220809523Y-68407200D02*
X220666666Y-68454819D01*
X220666666Y-68454819D02*
X220428571Y-68454819D01*
X220428571Y-68454819D02*
X220333333Y-68407200D01*
X220333333Y-68407200D02*
X220285714Y-68359580D01*
X220285714Y-68359580D02*
X220238095Y-68264342D01*
X220238095Y-68264342D02*
X220238095Y-68169104D01*
X220238095Y-68169104D02*
X220285714Y-68073866D01*
X220285714Y-68073866D02*
X220333333Y-68026247D01*
X220333333Y-68026247D02*
X220428571Y-67978628D01*
X220428571Y-67978628D02*
X220619047Y-67931009D01*
X220619047Y-67931009D02*
X220714285Y-67883390D01*
X220714285Y-67883390D02*
X220761904Y-67835771D01*
X220761904Y-67835771D02*
X220809523Y-67740533D01*
X220809523Y-67740533D02*
X220809523Y-67645295D01*
X220809523Y-67645295D02*
X220761904Y-67550057D01*
X220761904Y-67550057D02*
X220714285Y-67502438D01*
X220714285Y-67502438D02*
X220619047Y-67454819D01*
X220619047Y-67454819D02*
X220380952Y-67454819D01*
X220380952Y-67454819D02*
X220238095Y-67502438D01*
X219904761Y-67454819D02*
X219666666Y-68454819D01*
X219666666Y-68454819D02*
X219476190Y-67740533D01*
X219476190Y-67740533D02*
X219285714Y-68454819D01*
X219285714Y-68454819D02*
X219047619Y-67454819D01*
X218142857Y-68454819D02*
X218714285Y-68454819D01*
X218428571Y-68454819D02*
X218428571Y-67454819D01*
X218428571Y-67454819D02*
X218523809Y-67597676D01*
X218523809Y-67597676D02*
X218619047Y-67692914D01*
X218619047Y-67692914D02*
X218714285Y-67740533D01*
X217285714Y-67788152D02*
X217285714Y-68454819D01*
X217523809Y-67407200D02*
X217761904Y-68121485D01*
X217761904Y-68121485D02*
X217142857Y-68121485D01*
X146809523Y-81407200D02*
X146666666Y-81454819D01*
X146666666Y-81454819D02*
X146428571Y-81454819D01*
X146428571Y-81454819D02*
X146333333Y-81407200D01*
X146333333Y-81407200D02*
X146285714Y-81359580D01*
X146285714Y-81359580D02*
X146238095Y-81264342D01*
X146238095Y-81264342D02*
X146238095Y-81169104D01*
X146238095Y-81169104D02*
X146285714Y-81073866D01*
X146285714Y-81073866D02*
X146333333Y-81026247D01*
X146333333Y-81026247D02*
X146428571Y-80978628D01*
X146428571Y-80978628D02*
X146619047Y-80931009D01*
X146619047Y-80931009D02*
X146714285Y-80883390D01*
X146714285Y-80883390D02*
X146761904Y-80835771D01*
X146761904Y-80835771D02*
X146809523Y-80740533D01*
X146809523Y-80740533D02*
X146809523Y-80645295D01*
X146809523Y-80645295D02*
X146761904Y-80550057D01*
X146761904Y-80550057D02*
X146714285Y-80502438D01*
X146714285Y-80502438D02*
X146619047Y-80454819D01*
X146619047Y-80454819D02*
X146380952Y-80454819D01*
X146380952Y-80454819D02*
X146238095Y-80502438D01*
X145904761Y-80454819D02*
X145666666Y-81454819D01*
X145666666Y-81454819D02*
X145476190Y-80740533D01*
X145476190Y-80740533D02*
X145285714Y-81454819D01*
X145285714Y-81454819D02*
X145047619Y-80454819D01*
X144761904Y-80454819D02*
X144142857Y-80454819D01*
X144142857Y-80454819D02*
X144476190Y-80835771D01*
X144476190Y-80835771D02*
X144333333Y-80835771D01*
X144333333Y-80835771D02*
X144238095Y-80883390D01*
X144238095Y-80883390D02*
X144190476Y-80931009D01*
X144190476Y-80931009D02*
X144142857Y-81026247D01*
X144142857Y-81026247D02*
X144142857Y-81264342D01*
X144142857Y-81264342D02*
X144190476Y-81359580D01*
X144190476Y-81359580D02*
X144238095Y-81407200D01*
X144238095Y-81407200D02*
X144333333Y-81454819D01*
X144333333Y-81454819D02*
X144619047Y-81454819D01*
X144619047Y-81454819D02*
X144714285Y-81407200D01*
X144714285Y-81407200D02*
X144761904Y-81359580D01*
X143761904Y-80550057D02*
X143714285Y-80502438D01*
X143714285Y-80502438D02*
X143619047Y-80454819D01*
X143619047Y-80454819D02*
X143380952Y-80454819D01*
X143380952Y-80454819D02*
X143285714Y-80502438D01*
X143285714Y-80502438D02*
X143238095Y-80550057D01*
X143238095Y-80550057D02*
X143190476Y-80645295D01*
X143190476Y-80645295D02*
X143190476Y-80740533D01*
X143190476Y-80740533D02*
X143238095Y-80883390D01*
X143238095Y-80883390D02*
X143809523Y-81454819D01*
X143809523Y-81454819D02*
X143190476Y-81454819D01*
X186407200Y-40611667D02*
X186454819Y-40754524D01*
X186454819Y-40754524D02*
X186454819Y-40992619D01*
X186454819Y-40992619D02*
X186407200Y-41087857D01*
X186407200Y-41087857D02*
X186359580Y-41135476D01*
X186359580Y-41135476D02*
X186264342Y-41183095D01*
X186264342Y-41183095D02*
X186169104Y-41183095D01*
X186169104Y-41183095D02*
X186073866Y-41135476D01*
X186073866Y-41135476D02*
X186026247Y-41087857D01*
X186026247Y-41087857D02*
X185978628Y-40992619D01*
X185978628Y-40992619D02*
X185931009Y-40802143D01*
X185931009Y-40802143D02*
X185883390Y-40706905D01*
X185883390Y-40706905D02*
X185835771Y-40659286D01*
X185835771Y-40659286D02*
X185740533Y-40611667D01*
X185740533Y-40611667D02*
X185645295Y-40611667D01*
X185645295Y-40611667D02*
X185550057Y-40659286D01*
X185550057Y-40659286D02*
X185502438Y-40706905D01*
X185502438Y-40706905D02*
X185454819Y-40802143D01*
X185454819Y-40802143D02*
X185454819Y-41040238D01*
X185454819Y-41040238D02*
X185502438Y-41183095D01*
X185454819Y-41516429D02*
X186454819Y-41754524D01*
X186454819Y-41754524D02*
X185740533Y-41945000D01*
X185740533Y-41945000D02*
X186454819Y-42135476D01*
X186454819Y-42135476D02*
X185454819Y-42373572D01*
X185550057Y-42706905D02*
X185502438Y-42754524D01*
X185502438Y-42754524D02*
X185454819Y-42849762D01*
X185454819Y-42849762D02*
X185454819Y-43087857D01*
X185454819Y-43087857D02*
X185502438Y-43183095D01*
X185502438Y-43183095D02*
X185550057Y-43230714D01*
X185550057Y-43230714D02*
X185645295Y-43278333D01*
X185645295Y-43278333D02*
X185740533Y-43278333D01*
X185740533Y-43278333D02*
X185883390Y-43230714D01*
X185883390Y-43230714D02*
X186454819Y-42659286D01*
X186454819Y-42659286D02*
X186454819Y-43278333D01*
X84809523Y-40407200D02*
X84666666Y-40454819D01*
X84666666Y-40454819D02*
X84428571Y-40454819D01*
X84428571Y-40454819D02*
X84333333Y-40407200D01*
X84333333Y-40407200D02*
X84285714Y-40359580D01*
X84285714Y-40359580D02*
X84238095Y-40264342D01*
X84238095Y-40264342D02*
X84238095Y-40169104D01*
X84238095Y-40169104D02*
X84285714Y-40073866D01*
X84285714Y-40073866D02*
X84333333Y-40026247D01*
X84333333Y-40026247D02*
X84428571Y-39978628D01*
X84428571Y-39978628D02*
X84619047Y-39931009D01*
X84619047Y-39931009D02*
X84714285Y-39883390D01*
X84714285Y-39883390D02*
X84761904Y-39835771D01*
X84761904Y-39835771D02*
X84809523Y-39740533D01*
X84809523Y-39740533D02*
X84809523Y-39645295D01*
X84809523Y-39645295D02*
X84761904Y-39550057D01*
X84761904Y-39550057D02*
X84714285Y-39502438D01*
X84714285Y-39502438D02*
X84619047Y-39454819D01*
X84619047Y-39454819D02*
X84380952Y-39454819D01*
X84380952Y-39454819D02*
X84238095Y-39502438D01*
X83904761Y-39454819D02*
X83666666Y-40454819D01*
X83666666Y-40454819D02*
X83476190Y-39740533D01*
X83476190Y-39740533D02*
X83285714Y-40454819D01*
X83285714Y-40454819D02*
X83047619Y-39454819D01*
X82142857Y-40454819D02*
X82714285Y-40454819D01*
X82428571Y-40454819D02*
X82428571Y-39454819D01*
X82428571Y-39454819D02*
X82523809Y-39597676D01*
X82523809Y-39597676D02*
X82619047Y-39692914D01*
X82619047Y-39692914D02*
X82714285Y-39740533D01*
X81571428Y-39883390D02*
X81666666Y-39835771D01*
X81666666Y-39835771D02*
X81714285Y-39788152D01*
X81714285Y-39788152D02*
X81761904Y-39692914D01*
X81761904Y-39692914D02*
X81761904Y-39645295D01*
X81761904Y-39645295D02*
X81714285Y-39550057D01*
X81714285Y-39550057D02*
X81666666Y-39502438D01*
X81666666Y-39502438D02*
X81571428Y-39454819D01*
X81571428Y-39454819D02*
X81380952Y-39454819D01*
X81380952Y-39454819D02*
X81285714Y-39502438D01*
X81285714Y-39502438D02*
X81238095Y-39550057D01*
X81238095Y-39550057D02*
X81190476Y-39645295D01*
X81190476Y-39645295D02*
X81190476Y-39692914D01*
X81190476Y-39692914D02*
X81238095Y-39788152D01*
X81238095Y-39788152D02*
X81285714Y-39835771D01*
X81285714Y-39835771D02*
X81380952Y-39883390D01*
X81380952Y-39883390D02*
X81571428Y-39883390D01*
X81571428Y-39883390D02*
X81666666Y-39931009D01*
X81666666Y-39931009D02*
X81714285Y-39978628D01*
X81714285Y-39978628D02*
X81761904Y-40073866D01*
X81761904Y-40073866D02*
X81761904Y-40264342D01*
X81761904Y-40264342D02*
X81714285Y-40359580D01*
X81714285Y-40359580D02*
X81666666Y-40407200D01*
X81666666Y-40407200D02*
X81571428Y-40454819D01*
X81571428Y-40454819D02*
X81380952Y-40454819D01*
X81380952Y-40454819D02*
X81285714Y-40407200D01*
X81285714Y-40407200D02*
X81238095Y-40359580D01*
X81238095Y-40359580D02*
X81190476Y-40264342D01*
X81190476Y-40264342D02*
X81190476Y-40073866D01*
X81190476Y-40073866D02*
X81238095Y-39978628D01*
X81238095Y-39978628D02*
X81285714Y-39931009D01*
X81285714Y-39931009D02*
X81380952Y-39883390D01*
X66070524Y-61172295D02*
X66527667Y-61172295D01*
X66299095Y-61172295D02*
X66299095Y-60372295D01*
X66299095Y-60372295D02*
X66375286Y-60486580D01*
X66375286Y-60486580D02*
X66451476Y-60562771D01*
X66451476Y-60562771D02*
X66527667Y-60600866D01*
X65308619Y-61172295D02*
X65765762Y-61172295D01*
X65537190Y-61172295D02*
X65537190Y-60372295D01*
X65537190Y-60372295D02*
X65613381Y-60486580D01*
X65613381Y-60486580D02*
X65689571Y-60562771D01*
X65689571Y-60562771D02*
X65765762Y-60600866D01*
X64584809Y-60372295D02*
X64965761Y-60372295D01*
X64965761Y-60372295D02*
X65003857Y-60753247D01*
X65003857Y-60753247D02*
X64965761Y-60715152D01*
X64965761Y-60715152D02*
X64889571Y-60677057D01*
X64889571Y-60677057D02*
X64699095Y-60677057D01*
X64699095Y-60677057D02*
X64622904Y-60715152D01*
X64622904Y-60715152D02*
X64584809Y-60753247D01*
X64584809Y-60753247D02*
X64546714Y-60829438D01*
X64546714Y-60829438D02*
X64546714Y-61019914D01*
X64546714Y-61019914D02*
X64584809Y-61096104D01*
X64584809Y-61096104D02*
X64622904Y-61134200D01*
X64622904Y-61134200D02*
X64699095Y-61172295D01*
X64699095Y-61172295D02*
X64889571Y-61172295D01*
X64889571Y-61172295D02*
X64965761Y-61134200D01*
X64965761Y-61134200D02*
X65003857Y-61096104D01*
X66337190Y-57832295D02*
X66261000Y-57832295D01*
X66261000Y-57832295D02*
X66184809Y-57870390D01*
X66184809Y-57870390D02*
X66146714Y-57908485D01*
X66146714Y-57908485D02*
X66108619Y-57984676D01*
X66108619Y-57984676D02*
X66070524Y-58137057D01*
X66070524Y-58137057D02*
X66070524Y-58327533D01*
X66070524Y-58327533D02*
X66108619Y-58479914D01*
X66108619Y-58479914D02*
X66146714Y-58556104D01*
X66146714Y-58556104D02*
X66184809Y-58594200D01*
X66184809Y-58594200D02*
X66261000Y-58632295D01*
X66261000Y-58632295D02*
X66337190Y-58632295D01*
X66337190Y-58632295D02*
X66413381Y-58594200D01*
X66413381Y-58594200D02*
X66451476Y-58556104D01*
X66451476Y-58556104D02*
X66489571Y-58479914D01*
X66489571Y-58479914D02*
X66527667Y-58327533D01*
X66527667Y-58327533D02*
X66527667Y-58137057D01*
X66527667Y-58137057D02*
X66489571Y-57984676D01*
X66489571Y-57984676D02*
X66451476Y-57908485D01*
X66451476Y-57908485D02*
X66413381Y-57870390D01*
X66413381Y-57870390D02*
X66337190Y-57832295D01*
X65575285Y-57832295D02*
X65499095Y-57832295D01*
X65499095Y-57832295D02*
X65422904Y-57870390D01*
X65422904Y-57870390D02*
X65384809Y-57908485D01*
X65384809Y-57908485D02*
X65346714Y-57984676D01*
X65346714Y-57984676D02*
X65308619Y-58137057D01*
X65308619Y-58137057D02*
X65308619Y-58327533D01*
X65308619Y-58327533D02*
X65346714Y-58479914D01*
X65346714Y-58479914D02*
X65384809Y-58556104D01*
X65384809Y-58556104D02*
X65422904Y-58594200D01*
X65422904Y-58594200D02*
X65499095Y-58632295D01*
X65499095Y-58632295D02*
X65575285Y-58632295D01*
X65575285Y-58632295D02*
X65651476Y-58594200D01*
X65651476Y-58594200D02*
X65689571Y-58556104D01*
X65689571Y-58556104D02*
X65727666Y-58479914D01*
X65727666Y-58479914D02*
X65765762Y-58327533D01*
X65765762Y-58327533D02*
X65765762Y-58137057D01*
X65765762Y-58137057D02*
X65727666Y-57984676D01*
X65727666Y-57984676D02*
X65689571Y-57908485D01*
X65689571Y-57908485D02*
X65651476Y-57870390D01*
X65651476Y-57870390D02*
X65575285Y-57832295D01*
X65003857Y-57908485D02*
X64965761Y-57870390D01*
X64965761Y-57870390D02*
X64889571Y-57832295D01*
X64889571Y-57832295D02*
X64699095Y-57832295D01*
X64699095Y-57832295D02*
X64622904Y-57870390D01*
X64622904Y-57870390D02*
X64584809Y-57908485D01*
X64584809Y-57908485D02*
X64546714Y-57984676D01*
X64546714Y-57984676D02*
X64546714Y-58060866D01*
X64546714Y-58060866D02*
X64584809Y-58175152D01*
X64584809Y-58175152D02*
X65041952Y-58632295D01*
X65041952Y-58632295D02*
X64546714Y-58632295D01*
X55269999Y-65502295D02*
X55193809Y-65502295D01*
X55193809Y-65502295D02*
X55117618Y-65540390D01*
X55117618Y-65540390D02*
X55079523Y-65578485D01*
X55079523Y-65578485D02*
X55041428Y-65654676D01*
X55041428Y-65654676D02*
X55003333Y-65807057D01*
X55003333Y-65807057D02*
X55003333Y-65997533D01*
X55003333Y-65997533D02*
X55041428Y-66149914D01*
X55041428Y-66149914D02*
X55079523Y-66226104D01*
X55079523Y-66226104D02*
X55117618Y-66264200D01*
X55117618Y-66264200D02*
X55193809Y-66302295D01*
X55193809Y-66302295D02*
X55269999Y-66302295D01*
X55269999Y-66302295D02*
X55346190Y-66264200D01*
X55346190Y-66264200D02*
X55384285Y-66226104D01*
X55384285Y-66226104D02*
X55422380Y-66149914D01*
X55422380Y-66149914D02*
X55460476Y-65997533D01*
X55460476Y-65997533D02*
X55460476Y-65807057D01*
X55460476Y-65807057D02*
X55422380Y-65654676D01*
X55422380Y-65654676D02*
X55384285Y-65578485D01*
X55384285Y-65578485D02*
X55346190Y-65540390D01*
X55346190Y-65540390D02*
X55269999Y-65502295D01*
X54241428Y-66302295D02*
X54698571Y-66302295D01*
X54469999Y-66302295D02*
X54469999Y-65502295D01*
X54469999Y-65502295D02*
X54546190Y-65616580D01*
X54546190Y-65616580D02*
X54622380Y-65692771D01*
X54622380Y-65692771D02*
X54698571Y-65730866D01*
X53479523Y-66302295D02*
X53936666Y-66302295D01*
X53708094Y-66302295D02*
X53708094Y-65502295D01*
X53708094Y-65502295D02*
X53784285Y-65616580D01*
X53784285Y-65616580D02*
X53860475Y-65692771D01*
X53860475Y-65692771D02*
X53936666Y-65730866D01*
X66337190Y-55292295D02*
X66261000Y-55292295D01*
X66261000Y-55292295D02*
X66184809Y-55330390D01*
X66184809Y-55330390D02*
X66146714Y-55368485D01*
X66146714Y-55368485D02*
X66108619Y-55444676D01*
X66108619Y-55444676D02*
X66070524Y-55597057D01*
X66070524Y-55597057D02*
X66070524Y-55787533D01*
X66070524Y-55787533D02*
X66108619Y-55939914D01*
X66108619Y-55939914D02*
X66146714Y-56016104D01*
X66146714Y-56016104D02*
X66184809Y-56054200D01*
X66184809Y-56054200D02*
X66261000Y-56092295D01*
X66261000Y-56092295D02*
X66337190Y-56092295D01*
X66337190Y-56092295D02*
X66413381Y-56054200D01*
X66413381Y-56054200D02*
X66451476Y-56016104D01*
X66451476Y-56016104D02*
X66489571Y-55939914D01*
X66489571Y-55939914D02*
X66527667Y-55787533D01*
X66527667Y-55787533D02*
X66527667Y-55597057D01*
X66527667Y-55597057D02*
X66489571Y-55444676D01*
X66489571Y-55444676D02*
X66451476Y-55368485D01*
X66451476Y-55368485D02*
X66413381Y-55330390D01*
X66413381Y-55330390D02*
X66337190Y-55292295D01*
X65765762Y-55368485D02*
X65727666Y-55330390D01*
X65727666Y-55330390D02*
X65651476Y-55292295D01*
X65651476Y-55292295D02*
X65461000Y-55292295D01*
X65461000Y-55292295D02*
X65384809Y-55330390D01*
X65384809Y-55330390D02*
X65346714Y-55368485D01*
X65346714Y-55368485D02*
X65308619Y-55444676D01*
X65308619Y-55444676D02*
X65308619Y-55520866D01*
X65308619Y-55520866D02*
X65346714Y-55635152D01*
X65346714Y-55635152D02*
X65803857Y-56092295D01*
X65803857Y-56092295D02*
X65308619Y-56092295D01*
X64927666Y-56092295D02*
X64775285Y-56092295D01*
X64775285Y-56092295D02*
X64699095Y-56054200D01*
X64699095Y-56054200D02*
X64660999Y-56016104D01*
X64660999Y-56016104D02*
X64584809Y-55901819D01*
X64584809Y-55901819D02*
X64546714Y-55749438D01*
X64546714Y-55749438D02*
X64546714Y-55444676D01*
X64546714Y-55444676D02*
X64584809Y-55368485D01*
X64584809Y-55368485D02*
X64622904Y-55330390D01*
X64622904Y-55330390D02*
X64699095Y-55292295D01*
X64699095Y-55292295D02*
X64851476Y-55292295D01*
X64851476Y-55292295D02*
X64927666Y-55330390D01*
X64927666Y-55330390D02*
X64965761Y-55368485D01*
X64965761Y-55368485D02*
X65003857Y-55444676D01*
X65003857Y-55444676D02*
X65003857Y-55635152D01*
X65003857Y-55635152D02*
X64965761Y-55711342D01*
X64965761Y-55711342D02*
X64927666Y-55749438D01*
X64927666Y-55749438D02*
X64851476Y-55787533D01*
X64851476Y-55787533D02*
X64699095Y-55787533D01*
X64699095Y-55787533D02*
X64622904Y-55749438D01*
X64622904Y-55749438D02*
X64584809Y-55711342D01*
X64584809Y-55711342D02*
X64546714Y-55635152D01*
X55148523Y-50250390D02*
X55224713Y-50212295D01*
X55224713Y-50212295D02*
X55338999Y-50212295D01*
X55338999Y-50212295D02*
X55453285Y-50250390D01*
X55453285Y-50250390D02*
X55529475Y-50326580D01*
X55529475Y-50326580D02*
X55567570Y-50402771D01*
X55567570Y-50402771D02*
X55605666Y-50555152D01*
X55605666Y-50555152D02*
X55605666Y-50669438D01*
X55605666Y-50669438D02*
X55567570Y-50821819D01*
X55567570Y-50821819D02*
X55529475Y-50898009D01*
X55529475Y-50898009D02*
X55453285Y-50974200D01*
X55453285Y-50974200D02*
X55338999Y-51012295D01*
X55338999Y-51012295D02*
X55262808Y-51012295D01*
X55262808Y-51012295D02*
X55148523Y-50974200D01*
X55148523Y-50974200D02*
X55110427Y-50936104D01*
X55110427Y-50936104D02*
X55110427Y-50669438D01*
X55110427Y-50669438D02*
X55262808Y-50669438D01*
X54767570Y-51012295D02*
X54767570Y-50212295D01*
X54767570Y-50212295D02*
X54310427Y-51012295D01*
X54310427Y-51012295D02*
X54310427Y-50212295D01*
X53929475Y-51012295D02*
X53929475Y-50212295D01*
X53929475Y-50212295D02*
X53738999Y-50212295D01*
X53738999Y-50212295D02*
X53624713Y-50250390D01*
X53624713Y-50250390D02*
X53548523Y-50326580D01*
X53548523Y-50326580D02*
X53510428Y-50402771D01*
X53510428Y-50402771D02*
X53472332Y-50555152D01*
X53472332Y-50555152D02*
X53472332Y-50669438D01*
X53472332Y-50669438D02*
X53510428Y-50821819D01*
X53510428Y-50821819D02*
X53548523Y-50898009D01*
X53548523Y-50898009D02*
X53624713Y-50974200D01*
X53624713Y-50974200D02*
X53738999Y-51012295D01*
X53738999Y-51012295D02*
X53929475Y-51012295D01*
X54996143Y-68792295D02*
X55453286Y-68792295D01*
X55224714Y-68792295D02*
X55224714Y-67992295D01*
X55224714Y-67992295D02*
X55300905Y-68106580D01*
X55300905Y-68106580D02*
X55377095Y-68182771D01*
X55377095Y-68182771D02*
X55453286Y-68220866D01*
X54500904Y-67992295D02*
X54424714Y-67992295D01*
X54424714Y-67992295D02*
X54348523Y-68030390D01*
X54348523Y-68030390D02*
X54310428Y-68068485D01*
X54310428Y-68068485D02*
X54272333Y-68144676D01*
X54272333Y-68144676D02*
X54234238Y-68297057D01*
X54234238Y-68297057D02*
X54234238Y-68487533D01*
X54234238Y-68487533D02*
X54272333Y-68639914D01*
X54272333Y-68639914D02*
X54310428Y-68716104D01*
X54310428Y-68716104D02*
X54348523Y-68754200D01*
X54348523Y-68754200D02*
X54424714Y-68792295D01*
X54424714Y-68792295D02*
X54500904Y-68792295D01*
X54500904Y-68792295D02*
X54577095Y-68754200D01*
X54577095Y-68754200D02*
X54615190Y-68716104D01*
X54615190Y-68716104D02*
X54653285Y-68639914D01*
X54653285Y-68639914D02*
X54691381Y-68487533D01*
X54691381Y-68487533D02*
X54691381Y-68297057D01*
X54691381Y-68297057D02*
X54653285Y-68144676D01*
X54653285Y-68144676D02*
X54615190Y-68068485D01*
X54615190Y-68068485D02*
X54577095Y-68030390D01*
X54577095Y-68030390D02*
X54500904Y-67992295D01*
X53548523Y-68258961D02*
X53548523Y-68792295D01*
X53738999Y-67954200D02*
X53929476Y-68525628D01*
X53929476Y-68525628D02*
X53434237Y-68525628D01*
X66064190Y-45170390D02*
X66140380Y-45132295D01*
X66140380Y-45132295D02*
X66254666Y-45132295D01*
X66254666Y-45132295D02*
X66368952Y-45170390D01*
X66368952Y-45170390D02*
X66445142Y-45246580D01*
X66445142Y-45246580D02*
X66483237Y-45322771D01*
X66483237Y-45322771D02*
X66521333Y-45475152D01*
X66521333Y-45475152D02*
X66521333Y-45589438D01*
X66521333Y-45589438D02*
X66483237Y-45741819D01*
X66483237Y-45741819D02*
X66445142Y-45818009D01*
X66445142Y-45818009D02*
X66368952Y-45894200D01*
X66368952Y-45894200D02*
X66254666Y-45932295D01*
X66254666Y-45932295D02*
X66178475Y-45932295D01*
X66178475Y-45932295D02*
X66064190Y-45894200D01*
X66064190Y-45894200D02*
X66026094Y-45856104D01*
X66026094Y-45856104D02*
X66026094Y-45589438D01*
X66026094Y-45589438D02*
X66178475Y-45589438D01*
X65683237Y-45932295D02*
X65683237Y-45132295D01*
X65683237Y-45132295D02*
X65226094Y-45932295D01*
X65226094Y-45932295D02*
X65226094Y-45132295D01*
X64845142Y-45932295D02*
X64845142Y-45132295D01*
X64845142Y-45132295D02*
X64654666Y-45132295D01*
X64654666Y-45132295D02*
X64540380Y-45170390D01*
X64540380Y-45170390D02*
X64464190Y-45246580D01*
X64464190Y-45246580D02*
X64426095Y-45322771D01*
X64426095Y-45322771D02*
X64387999Y-45475152D01*
X64387999Y-45475152D02*
X64387999Y-45589438D01*
X64387999Y-45589438D02*
X64426095Y-45741819D01*
X64426095Y-45741819D02*
X64464190Y-45818009D01*
X64464190Y-45818009D02*
X64540380Y-45894200D01*
X64540380Y-45894200D02*
X64654666Y-45932295D01*
X64654666Y-45932295D02*
X64845142Y-45932295D01*
X55262809Y-42592295D02*
X55186619Y-42592295D01*
X55186619Y-42592295D02*
X55110428Y-42630390D01*
X55110428Y-42630390D02*
X55072333Y-42668485D01*
X55072333Y-42668485D02*
X55034238Y-42744676D01*
X55034238Y-42744676D02*
X54996143Y-42897057D01*
X54996143Y-42897057D02*
X54996143Y-43087533D01*
X54996143Y-43087533D02*
X55034238Y-43239914D01*
X55034238Y-43239914D02*
X55072333Y-43316104D01*
X55072333Y-43316104D02*
X55110428Y-43354200D01*
X55110428Y-43354200D02*
X55186619Y-43392295D01*
X55186619Y-43392295D02*
X55262809Y-43392295D01*
X55262809Y-43392295D02*
X55339000Y-43354200D01*
X55339000Y-43354200D02*
X55377095Y-43316104D01*
X55377095Y-43316104D02*
X55415190Y-43239914D01*
X55415190Y-43239914D02*
X55453286Y-43087533D01*
X55453286Y-43087533D02*
X55453286Y-42897057D01*
X55453286Y-42897057D02*
X55415190Y-42744676D01*
X55415190Y-42744676D02*
X55377095Y-42668485D01*
X55377095Y-42668485D02*
X55339000Y-42630390D01*
X55339000Y-42630390D02*
X55262809Y-42592295D01*
X54500904Y-42592295D02*
X54424714Y-42592295D01*
X54424714Y-42592295D02*
X54348523Y-42630390D01*
X54348523Y-42630390D02*
X54310428Y-42668485D01*
X54310428Y-42668485D02*
X54272333Y-42744676D01*
X54272333Y-42744676D02*
X54234238Y-42897057D01*
X54234238Y-42897057D02*
X54234238Y-43087533D01*
X54234238Y-43087533D02*
X54272333Y-43239914D01*
X54272333Y-43239914D02*
X54310428Y-43316104D01*
X54310428Y-43316104D02*
X54348523Y-43354200D01*
X54348523Y-43354200D02*
X54424714Y-43392295D01*
X54424714Y-43392295D02*
X54500904Y-43392295D01*
X54500904Y-43392295D02*
X54577095Y-43354200D01*
X54577095Y-43354200D02*
X54615190Y-43316104D01*
X54615190Y-43316104D02*
X54653285Y-43239914D01*
X54653285Y-43239914D02*
X54691381Y-43087533D01*
X54691381Y-43087533D02*
X54691381Y-42897057D01*
X54691381Y-42897057D02*
X54653285Y-42744676D01*
X54653285Y-42744676D02*
X54615190Y-42668485D01*
X54615190Y-42668485D02*
X54577095Y-42630390D01*
X54577095Y-42630390D02*
X54500904Y-42592295D01*
X53548523Y-42592295D02*
X53700904Y-42592295D01*
X53700904Y-42592295D02*
X53777095Y-42630390D01*
X53777095Y-42630390D02*
X53815190Y-42668485D01*
X53815190Y-42668485D02*
X53891380Y-42782771D01*
X53891380Y-42782771D02*
X53929476Y-42935152D01*
X53929476Y-42935152D02*
X53929476Y-43239914D01*
X53929476Y-43239914D02*
X53891380Y-43316104D01*
X53891380Y-43316104D02*
X53853285Y-43354200D01*
X53853285Y-43354200D02*
X53777095Y-43392295D01*
X53777095Y-43392295D02*
X53624714Y-43392295D01*
X53624714Y-43392295D02*
X53548523Y-43354200D01*
X53548523Y-43354200D02*
X53510428Y-43316104D01*
X53510428Y-43316104D02*
X53472333Y-43239914D01*
X53472333Y-43239914D02*
X53472333Y-43049438D01*
X53472333Y-43049438D02*
X53510428Y-42973247D01*
X53510428Y-42973247D02*
X53548523Y-42935152D01*
X53548523Y-42935152D02*
X53624714Y-42897057D01*
X53624714Y-42897057D02*
X53777095Y-42897057D01*
X53777095Y-42897057D02*
X53853285Y-42935152D01*
X53853285Y-42935152D02*
X53891380Y-42973247D01*
X53891380Y-42973247D02*
X53929476Y-43049438D01*
X66070524Y-66252295D02*
X66527667Y-66252295D01*
X66299095Y-66252295D02*
X66299095Y-65452295D01*
X66299095Y-65452295D02*
X66375286Y-65566580D01*
X66375286Y-65566580D02*
X66451476Y-65642771D01*
X66451476Y-65642771D02*
X66527667Y-65680866D01*
X65308619Y-66252295D02*
X65765762Y-66252295D01*
X65537190Y-66252295D02*
X65537190Y-65452295D01*
X65537190Y-65452295D02*
X65613381Y-65566580D01*
X65613381Y-65566580D02*
X65689571Y-65642771D01*
X65689571Y-65642771D02*
X65765762Y-65680866D01*
X64546714Y-66252295D02*
X65003857Y-66252295D01*
X64775285Y-66252295D02*
X64775285Y-65452295D01*
X64775285Y-65452295D02*
X64851476Y-65566580D01*
X64851476Y-65566580D02*
X64927666Y-65642771D01*
X64927666Y-65642771D02*
X65003857Y-65680866D01*
X55262809Y-60362295D02*
X55186619Y-60362295D01*
X55186619Y-60362295D02*
X55110428Y-60400390D01*
X55110428Y-60400390D02*
X55072333Y-60438485D01*
X55072333Y-60438485D02*
X55034238Y-60514676D01*
X55034238Y-60514676D02*
X54996143Y-60667057D01*
X54996143Y-60667057D02*
X54996143Y-60857533D01*
X54996143Y-60857533D02*
X55034238Y-61009914D01*
X55034238Y-61009914D02*
X55072333Y-61086104D01*
X55072333Y-61086104D02*
X55110428Y-61124200D01*
X55110428Y-61124200D02*
X55186619Y-61162295D01*
X55186619Y-61162295D02*
X55262809Y-61162295D01*
X55262809Y-61162295D02*
X55339000Y-61124200D01*
X55339000Y-61124200D02*
X55377095Y-61086104D01*
X55377095Y-61086104D02*
X55415190Y-61009914D01*
X55415190Y-61009914D02*
X55453286Y-60857533D01*
X55453286Y-60857533D02*
X55453286Y-60667057D01*
X55453286Y-60667057D02*
X55415190Y-60514676D01*
X55415190Y-60514676D02*
X55377095Y-60438485D01*
X55377095Y-60438485D02*
X55339000Y-60400390D01*
X55339000Y-60400390D02*
X55262809Y-60362295D01*
X54691381Y-60438485D02*
X54653285Y-60400390D01*
X54653285Y-60400390D02*
X54577095Y-60362295D01*
X54577095Y-60362295D02*
X54386619Y-60362295D01*
X54386619Y-60362295D02*
X54310428Y-60400390D01*
X54310428Y-60400390D02*
X54272333Y-60438485D01*
X54272333Y-60438485D02*
X54234238Y-60514676D01*
X54234238Y-60514676D02*
X54234238Y-60590866D01*
X54234238Y-60590866D02*
X54272333Y-60705152D01*
X54272333Y-60705152D02*
X54729476Y-61162295D01*
X54729476Y-61162295D02*
X54234238Y-61162295D01*
X53548523Y-60628961D02*
X53548523Y-61162295D01*
X53738999Y-60324200D02*
X53929476Y-60895628D01*
X53929476Y-60895628D02*
X53434237Y-60895628D01*
X55148523Y-47710390D02*
X55224713Y-47672295D01*
X55224713Y-47672295D02*
X55338999Y-47672295D01*
X55338999Y-47672295D02*
X55453285Y-47710390D01*
X55453285Y-47710390D02*
X55529475Y-47786580D01*
X55529475Y-47786580D02*
X55567570Y-47862771D01*
X55567570Y-47862771D02*
X55605666Y-48015152D01*
X55605666Y-48015152D02*
X55605666Y-48129438D01*
X55605666Y-48129438D02*
X55567570Y-48281819D01*
X55567570Y-48281819D02*
X55529475Y-48358009D01*
X55529475Y-48358009D02*
X55453285Y-48434200D01*
X55453285Y-48434200D02*
X55338999Y-48472295D01*
X55338999Y-48472295D02*
X55262808Y-48472295D01*
X55262808Y-48472295D02*
X55148523Y-48434200D01*
X55148523Y-48434200D02*
X55110427Y-48396104D01*
X55110427Y-48396104D02*
X55110427Y-48129438D01*
X55110427Y-48129438D02*
X55262808Y-48129438D01*
X54767570Y-48472295D02*
X54767570Y-47672295D01*
X54767570Y-47672295D02*
X54310427Y-48472295D01*
X54310427Y-48472295D02*
X54310427Y-47672295D01*
X53929475Y-48472295D02*
X53929475Y-47672295D01*
X53929475Y-47672295D02*
X53738999Y-47672295D01*
X53738999Y-47672295D02*
X53624713Y-47710390D01*
X53624713Y-47710390D02*
X53548523Y-47786580D01*
X53548523Y-47786580D02*
X53510428Y-47862771D01*
X53510428Y-47862771D02*
X53472332Y-48015152D01*
X53472332Y-48015152D02*
X53472332Y-48129438D01*
X53472332Y-48129438D02*
X53510428Y-48281819D01*
X53510428Y-48281819D02*
X53548523Y-48358009D01*
X53548523Y-48358009D02*
X53624713Y-48434200D01*
X53624713Y-48434200D02*
X53738999Y-48472295D01*
X53738999Y-48472295D02*
X53929475Y-48472295D01*
X66339999Y-70572295D02*
X66263809Y-70572295D01*
X66263809Y-70572295D02*
X66187618Y-70610390D01*
X66187618Y-70610390D02*
X66149523Y-70648485D01*
X66149523Y-70648485D02*
X66111428Y-70724676D01*
X66111428Y-70724676D02*
X66073333Y-70877057D01*
X66073333Y-70877057D02*
X66073333Y-71067533D01*
X66073333Y-71067533D02*
X66111428Y-71219914D01*
X66111428Y-71219914D02*
X66149523Y-71296104D01*
X66149523Y-71296104D02*
X66187618Y-71334200D01*
X66187618Y-71334200D02*
X66263809Y-71372295D01*
X66263809Y-71372295D02*
X66339999Y-71372295D01*
X66339999Y-71372295D02*
X66416190Y-71334200D01*
X66416190Y-71334200D02*
X66454285Y-71296104D01*
X66454285Y-71296104D02*
X66492380Y-71219914D01*
X66492380Y-71219914D02*
X66530476Y-71067533D01*
X66530476Y-71067533D02*
X66530476Y-70877057D01*
X66530476Y-70877057D02*
X66492380Y-70724676D01*
X66492380Y-70724676D02*
X66454285Y-70648485D01*
X66454285Y-70648485D02*
X66416190Y-70610390D01*
X66416190Y-70610390D02*
X66339999Y-70572295D01*
X65578094Y-70572295D02*
X65501904Y-70572295D01*
X65501904Y-70572295D02*
X65425713Y-70610390D01*
X65425713Y-70610390D02*
X65387618Y-70648485D01*
X65387618Y-70648485D02*
X65349523Y-70724676D01*
X65349523Y-70724676D02*
X65311428Y-70877057D01*
X65311428Y-70877057D02*
X65311428Y-71067533D01*
X65311428Y-71067533D02*
X65349523Y-71219914D01*
X65349523Y-71219914D02*
X65387618Y-71296104D01*
X65387618Y-71296104D02*
X65425713Y-71334200D01*
X65425713Y-71334200D02*
X65501904Y-71372295D01*
X65501904Y-71372295D02*
X65578094Y-71372295D01*
X65578094Y-71372295D02*
X65654285Y-71334200D01*
X65654285Y-71334200D02*
X65692380Y-71296104D01*
X65692380Y-71296104D02*
X65730475Y-71219914D01*
X65730475Y-71219914D02*
X65768571Y-71067533D01*
X65768571Y-71067533D02*
X65768571Y-70877057D01*
X65768571Y-70877057D02*
X65730475Y-70724676D01*
X65730475Y-70724676D02*
X65692380Y-70648485D01*
X65692380Y-70648485D02*
X65654285Y-70610390D01*
X65654285Y-70610390D02*
X65578094Y-70572295D01*
X64930475Y-71372295D02*
X64778094Y-71372295D01*
X64778094Y-71372295D02*
X64701904Y-71334200D01*
X64701904Y-71334200D02*
X64663808Y-71296104D01*
X64663808Y-71296104D02*
X64587618Y-71181819D01*
X64587618Y-71181819D02*
X64549523Y-71029438D01*
X64549523Y-71029438D02*
X64549523Y-70724676D01*
X64549523Y-70724676D02*
X64587618Y-70648485D01*
X64587618Y-70648485D02*
X64625713Y-70610390D01*
X64625713Y-70610390D02*
X64701904Y-70572295D01*
X64701904Y-70572295D02*
X64854285Y-70572295D01*
X64854285Y-70572295D02*
X64930475Y-70610390D01*
X64930475Y-70610390D02*
X64968570Y-70648485D01*
X64968570Y-70648485D02*
X65006666Y-70724676D01*
X65006666Y-70724676D02*
X65006666Y-70915152D01*
X65006666Y-70915152D02*
X64968570Y-70991342D01*
X64968570Y-70991342D02*
X64930475Y-71029438D01*
X64930475Y-71029438D02*
X64854285Y-71067533D01*
X64854285Y-71067533D02*
X64701904Y-71067533D01*
X64701904Y-71067533D02*
X64625713Y-71029438D01*
X64625713Y-71029438D02*
X64587618Y-70991342D01*
X64587618Y-70991342D02*
X64549523Y-70915152D01*
X66070524Y-63712295D02*
X66527667Y-63712295D01*
X66299095Y-63712295D02*
X66299095Y-62912295D01*
X66299095Y-62912295D02*
X66375286Y-63026580D01*
X66375286Y-63026580D02*
X66451476Y-63102771D01*
X66451476Y-63102771D02*
X66527667Y-63140866D01*
X65308619Y-63712295D02*
X65765762Y-63712295D01*
X65537190Y-63712295D02*
X65537190Y-62912295D01*
X65537190Y-62912295D02*
X65613381Y-63026580D01*
X65613381Y-63026580D02*
X65689571Y-63102771D01*
X65689571Y-63102771D02*
X65765762Y-63140866D01*
X65041952Y-62912295D02*
X64546714Y-62912295D01*
X64546714Y-62912295D02*
X64813380Y-63217057D01*
X64813380Y-63217057D02*
X64699095Y-63217057D01*
X64699095Y-63217057D02*
X64622904Y-63255152D01*
X64622904Y-63255152D02*
X64584809Y-63293247D01*
X64584809Y-63293247D02*
X64546714Y-63369438D01*
X64546714Y-63369438D02*
X64546714Y-63559914D01*
X64546714Y-63559914D02*
X64584809Y-63636104D01*
X64584809Y-63636104D02*
X64622904Y-63674200D01*
X64622904Y-63674200D02*
X64699095Y-63712295D01*
X64699095Y-63712295D02*
X64927666Y-63712295D01*
X64927666Y-63712295D02*
X65003857Y-63674200D01*
X65003857Y-63674200D02*
X65041952Y-63636104D01*
X66337190Y-52752295D02*
X66261000Y-52752295D01*
X66261000Y-52752295D02*
X66184809Y-52790390D01*
X66184809Y-52790390D02*
X66146714Y-52828485D01*
X66146714Y-52828485D02*
X66108619Y-52904676D01*
X66108619Y-52904676D02*
X66070524Y-53057057D01*
X66070524Y-53057057D02*
X66070524Y-53247533D01*
X66070524Y-53247533D02*
X66108619Y-53399914D01*
X66108619Y-53399914D02*
X66146714Y-53476104D01*
X66146714Y-53476104D02*
X66184809Y-53514200D01*
X66184809Y-53514200D02*
X66261000Y-53552295D01*
X66261000Y-53552295D02*
X66337190Y-53552295D01*
X66337190Y-53552295D02*
X66413381Y-53514200D01*
X66413381Y-53514200D02*
X66451476Y-53476104D01*
X66451476Y-53476104D02*
X66489571Y-53399914D01*
X66489571Y-53399914D02*
X66527667Y-53247533D01*
X66527667Y-53247533D02*
X66527667Y-53057057D01*
X66527667Y-53057057D02*
X66489571Y-52904676D01*
X66489571Y-52904676D02*
X66451476Y-52828485D01*
X66451476Y-52828485D02*
X66413381Y-52790390D01*
X66413381Y-52790390D02*
X66337190Y-52752295D01*
X65803857Y-52752295D02*
X65308619Y-52752295D01*
X65308619Y-52752295D02*
X65575285Y-53057057D01*
X65575285Y-53057057D02*
X65461000Y-53057057D01*
X65461000Y-53057057D02*
X65384809Y-53095152D01*
X65384809Y-53095152D02*
X65346714Y-53133247D01*
X65346714Y-53133247D02*
X65308619Y-53209438D01*
X65308619Y-53209438D02*
X65308619Y-53399914D01*
X65308619Y-53399914D02*
X65346714Y-53476104D01*
X65346714Y-53476104D02*
X65384809Y-53514200D01*
X65384809Y-53514200D02*
X65461000Y-53552295D01*
X65461000Y-53552295D02*
X65689571Y-53552295D01*
X65689571Y-53552295D02*
X65765762Y-53514200D01*
X65765762Y-53514200D02*
X65803857Y-53476104D01*
X64546714Y-53552295D02*
X65003857Y-53552295D01*
X64775285Y-53552295D02*
X64775285Y-52752295D01*
X64775285Y-52752295D02*
X64851476Y-52866580D01*
X64851476Y-52866580D02*
X64927666Y-52942771D01*
X64927666Y-52942771D02*
X65003857Y-52980866D01*
X55003333Y-71342295D02*
X55460476Y-71342295D01*
X55231904Y-71342295D02*
X55231904Y-70542295D01*
X55231904Y-70542295D02*
X55308095Y-70656580D01*
X55308095Y-70656580D02*
X55384285Y-70732771D01*
X55384285Y-70732771D02*
X55460476Y-70770866D01*
X54508094Y-70542295D02*
X54431904Y-70542295D01*
X54431904Y-70542295D02*
X54355713Y-70580390D01*
X54355713Y-70580390D02*
X54317618Y-70618485D01*
X54317618Y-70618485D02*
X54279523Y-70694676D01*
X54279523Y-70694676D02*
X54241428Y-70847057D01*
X54241428Y-70847057D02*
X54241428Y-71037533D01*
X54241428Y-71037533D02*
X54279523Y-71189914D01*
X54279523Y-71189914D02*
X54317618Y-71266104D01*
X54317618Y-71266104D02*
X54355713Y-71304200D01*
X54355713Y-71304200D02*
X54431904Y-71342295D01*
X54431904Y-71342295D02*
X54508094Y-71342295D01*
X54508094Y-71342295D02*
X54584285Y-71304200D01*
X54584285Y-71304200D02*
X54622380Y-71266104D01*
X54622380Y-71266104D02*
X54660475Y-71189914D01*
X54660475Y-71189914D02*
X54698571Y-71037533D01*
X54698571Y-71037533D02*
X54698571Y-70847057D01*
X54698571Y-70847057D02*
X54660475Y-70694676D01*
X54660475Y-70694676D02*
X54622380Y-70618485D01*
X54622380Y-70618485D02*
X54584285Y-70580390D01*
X54584285Y-70580390D02*
X54508094Y-70542295D01*
X53555713Y-70542295D02*
X53708094Y-70542295D01*
X53708094Y-70542295D02*
X53784285Y-70580390D01*
X53784285Y-70580390D02*
X53822380Y-70618485D01*
X53822380Y-70618485D02*
X53898570Y-70732771D01*
X53898570Y-70732771D02*
X53936666Y-70885152D01*
X53936666Y-70885152D02*
X53936666Y-71189914D01*
X53936666Y-71189914D02*
X53898570Y-71266104D01*
X53898570Y-71266104D02*
X53860475Y-71304200D01*
X53860475Y-71304200D02*
X53784285Y-71342295D01*
X53784285Y-71342295D02*
X53631904Y-71342295D01*
X53631904Y-71342295D02*
X53555713Y-71304200D01*
X53555713Y-71304200D02*
X53517618Y-71266104D01*
X53517618Y-71266104D02*
X53479523Y-71189914D01*
X53479523Y-71189914D02*
X53479523Y-70999438D01*
X53479523Y-70999438D02*
X53517618Y-70923247D01*
X53517618Y-70923247D02*
X53555713Y-70885152D01*
X53555713Y-70885152D02*
X53631904Y-70847057D01*
X53631904Y-70847057D02*
X53784285Y-70847057D01*
X53784285Y-70847057D02*
X53860475Y-70885152D01*
X53860475Y-70885152D02*
X53898570Y-70923247D01*
X53898570Y-70923247D02*
X53936666Y-70999438D01*
X55262809Y-45062295D02*
X55186619Y-45062295D01*
X55186619Y-45062295D02*
X55110428Y-45100390D01*
X55110428Y-45100390D02*
X55072333Y-45138485D01*
X55072333Y-45138485D02*
X55034238Y-45214676D01*
X55034238Y-45214676D02*
X54996143Y-45367057D01*
X54996143Y-45367057D02*
X54996143Y-45557533D01*
X54996143Y-45557533D02*
X55034238Y-45709914D01*
X55034238Y-45709914D02*
X55072333Y-45786104D01*
X55072333Y-45786104D02*
X55110428Y-45824200D01*
X55110428Y-45824200D02*
X55186619Y-45862295D01*
X55186619Y-45862295D02*
X55262809Y-45862295D01*
X55262809Y-45862295D02*
X55339000Y-45824200D01*
X55339000Y-45824200D02*
X55377095Y-45786104D01*
X55377095Y-45786104D02*
X55415190Y-45709914D01*
X55415190Y-45709914D02*
X55453286Y-45557533D01*
X55453286Y-45557533D02*
X55453286Y-45367057D01*
X55453286Y-45367057D02*
X55415190Y-45214676D01*
X55415190Y-45214676D02*
X55377095Y-45138485D01*
X55377095Y-45138485D02*
X55339000Y-45100390D01*
X55339000Y-45100390D02*
X55262809Y-45062295D01*
X54500904Y-45062295D02*
X54424714Y-45062295D01*
X54424714Y-45062295D02*
X54348523Y-45100390D01*
X54348523Y-45100390D02*
X54310428Y-45138485D01*
X54310428Y-45138485D02*
X54272333Y-45214676D01*
X54272333Y-45214676D02*
X54234238Y-45367057D01*
X54234238Y-45367057D02*
X54234238Y-45557533D01*
X54234238Y-45557533D02*
X54272333Y-45709914D01*
X54272333Y-45709914D02*
X54310428Y-45786104D01*
X54310428Y-45786104D02*
X54348523Y-45824200D01*
X54348523Y-45824200D02*
X54424714Y-45862295D01*
X54424714Y-45862295D02*
X54500904Y-45862295D01*
X54500904Y-45862295D02*
X54577095Y-45824200D01*
X54577095Y-45824200D02*
X54615190Y-45786104D01*
X54615190Y-45786104D02*
X54653285Y-45709914D01*
X54653285Y-45709914D02*
X54691381Y-45557533D01*
X54691381Y-45557533D02*
X54691381Y-45367057D01*
X54691381Y-45367057D02*
X54653285Y-45214676D01*
X54653285Y-45214676D02*
X54615190Y-45138485D01*
X54615190Y-45138485D02*
X54577095Y-45100390D01*
X54577095Y-45100390D02*
X54500904Y-45062295D01*
X53777095Y-45405152D02*
X53853285Y-45367057D01*
X53853285Y-45367057D02*
X53891380Y-45328961D01*
X53891380Y-45328961D02*
X53929476Y-45252771D01*
X53929476Y-45252771D02*
X53929476Y-45214676D01*
X53929476Y-45214676D02*
X53891380Y-45138485D01*
X53891380Y-45138485D02*
X53853285Y-45100390D01*
X53853285Y-45100390D02*
X53777095Y-45062295D01*
X53777095Y-45062295D02*
X53624714Y-45062295D01*
X53624714Y-45062295D02*
X53548523Y-45100390D01*
X53548523Y-45100390D02*
X53510428Y-45138485D01*
X53510428Y-45138485D02*
X53472333Y-45214676D01*
X53472333Y-45214676D02*
X53472333Y-45252771D01*
X53472333Y-45252771D02*
X53510428Y-45328961D01*
X53510428Y-45328961D02*
X53548523Y-45367057D01*
X53548523Y-45367057D02*
X53624714Y-45405152D01*
X53624714Y-45405152D02*
X53777095Y-45405152D01*
X53777095Y-45405152D02*
X53853285Y-45443247D01*
X53853285Y-45443247D02*
X53891380Y-45481342D01*
X53891380Y-45481342D02*
X53929476Y-45557533D01*
X53929476Y-45557533D02*
X53929476Y-45709914D01*
X53929476Y-45709914D02*
X53891380Y-45786104D01*
X53891380Y-45786104D02*
X53853285Y-45824200D01*
X53853285Y-45824200D02*
X53777095Y-45862295D01*
X53777095Y-45862295D02*
X53624714Y-45862295D01*
X53624714Y-45862295D02*
X53548523Y-45824200D01*
X53548523Y-45824200D02*
X53510428Y-45786104D01*
X53510428Y-45786104D02*
X53472333Y-45709914D01*
X53472333Y-45709914D02*
X53472333Y-45557533D01*
X53472333Y-45557533D02*
X53510428Y-45481342D01*
X53510428Y-45481342D02*
X53548523Y-45443247D01*
X53548523Y-45443247D02*
X53624714Y-45405152D01*
X55262809Y-57862295D02*
X55186619Y-57862295D01*
X55186619Y-57862295D02*
X55110428Y-57900390D01*
X55110428Y-57900390D02*
X55072333Y-57938485D01*
X55072333Y-57938485D02*
X55034238Y-58014676D01*
X55034238Y-58014676D02*
X54996143Y-58167057D01*
X54996143Y-58167057D02*
X54996143Y-58357533D01*
X54996143Y-58357533D02*
X55034238Y-58509914D01*
X55034238Y-58509914D02*
X55072333Y-58586104D01*
X55072333Y-58586104D02*
X55110428Y-58624200D01*
X55110428Y-58624200D02*
X55186619Y-58662295D01*
X55186619Y-58662295D02*
X55262809Y-58662295D01*
X55262809Y-58662295D02*
X55339000Y-58624200D01*
X55339000Y-58624200D02*
X55377095Y-58586104D01*
X55377095Y-58586104D02*
X55415190Y-58509914D01*
X55415190Y-58509914D02*
X55453286Y-58357533D01*
X55453286Y-58357533D02*
X55453286Y-58167057D01*
X55453286Y-58167057D02*
X55415190Y-58014676D01*
X55415190Y-58014676D02*
X55377095Y-57938485D01*
X55377095Y-57938485D02*
X55339000Y-57900390D01*
X55339000Y-57900390D02*
X55262809Y-57862295D01*
X54691381Y-57938485D02*
X54653285Y-57900390D01*
X54653285Y-57900390D02*
X54577095Y-57862295D01*
X54577095Y-57862295D02*
X54386619Y-57862295D01*
X54386619Y-57862295D02*
X54310428Y-57900390D01*
X54310428Y-57900390D02*
X54272333Y-57938485D01*
X54272333Y-57938485D02*
X54234238Y-58014676D01*
X54234238Y-58014676D02*
X54234238Y-58090866D01*
X54234238Y-58090866D02*
X54272333Y-58205152D01*
X54272333Y-58205152D02*
X54729476Y-58662295D01*
X54729476Y-58662295D02*
X54234238Y-58662295D01*
X53929476Y-57938485D02*
X53891380Y-57900390D01*
X53891380Y-57900390D02*
X53815190Y-57862295D01*
X53815190Y-57862295D02*
X53624714Y-57862295D01*
X53624714Y-57862295D02*
X53548523Y-57900390D01*
X53548523Y-57900390D02*
X53510428Y-57938485D01*
X53510428Y-57938485D02*
X53472333Y-58014676D01*
X53472333Y-58014676D02*
X53472333Y-58090866D01*
X53472333Y-58090866D02*
X53510428Y-58205152D01*
X53510428Y-58205152D02*
X53967571Y-58662295D01*
X53967571Y-58662295D02*
X53472333Y-58662295D01*
X66603857Y-50212295D02*
X66337190Y-51012295D01*
X66337190Y-51012295D02*
X66070524Y-50212295D01*
X65346714Y-50936104D02*
X65384810Y-50974200D01*
X65384810Y-50974200D02*
X65499095Y-51012295D01*
X65499095Y-51012295D02*
X65575286Y-51012295D01*
X65575286Y-51012295D02*
X65689572Y-50974200D01*
X65689572Y-50974200D02*
X65765762Y-50898009D01*
X65765762Y-50898009D02*
X65803857Y-50821819D01*
X65803857Y-50821819D02*
X65841953Y-50669438D01*
X65841953Y-50669438D02*
X65841953Y-50555152D01*
X65841953Y-50555152D02*
X65803857Y-50402771D01*
X65803857Y-50402771D02*
X65765762Y-50326580D01*
X65765762Y-50326580D02*
X65689572Y-50250390D01*
X65689572Y-50250390D02*
X65575286Y-50212295D01*
X65575286Y-50212295D02*
X65499095Y-50212295D01*
X65499095Y-50212295D02*
X65384810Y-50250390D01*
X65384810Y-50250390D02*
X65346714Y-50288485D01*
X64546714Y-50936104D02*
X64584810Y-50974200D01*
X64584810Y-50974200D02*
X64699095Y-51012295D01*
X64699095Y-51012295D02*
X64775286Y-51012295D01*
X64775286Y-51012295D02*
X64889572Y-50974200D01*
X64889572Y-50974200D02*
X64965762Y-50898009D01*
X64965762Y-50898009D02*
X65003857Y-50821819D01*
X65003857Y-50821819D02*
X65041953Y-50669438D01*
X65041953Y-50669438D02*
X65041953Y-50555152D01*
X65041953Y-50555152D02*
X65003857Y-50402771D01*
X65003857Y-50402771D02*
X64965762Y-50326580D01*
X64965762Y-50326580D02*
X64889572Y-50250390D01*
X64889572Y-50250390D02*
X64775286Y-50212295D01*
X64775286Y-50212295D02*
X64699095Y-50212295D01*
X64699095Y-50212295D02*
X64584810Y-50250390D01*
X64584810Y-50250390D02*
X64546714Y-50288485D01*
X66026095Y-43392295D02*
X66292762Y-43011342D01*
X66483238Y-43392295D02*
X66483238Y-42592295D01*
X66483238Y-42592295D02*
X66178476Y-42592295D01*
X66178476Y-42592295D02*
X66102286Y-42630390D01*
X66102286Y-42630390D02*
X66064191Y-42668485D01*
X66064191Y-42668485D02*
X66026095Y-42744676D01*
X66026095Y-42744676D02*
X66026095Y-42858961D01*
X66026095Y-42858961D02*
X66064191Y-42935152D01*
X66064191Y-42935152D02*
X66102286Y-42973247D01*
X66102286Y-42973247D02*
X66178476Y-43011342D01*
X66178476Y-43011342D02*
X66483238Y-43011342D01*
X65721334Y-43163723D02*
X65340381Y-43163723D01*
X65797524Y-43392295D02*
X65530857Y-42592295D01*
X65530857Y-42592295D02*
X65264191Y-43392295D01*
X65073715Y-42592295D02*
X64883239Y-43392295D01*
X64883239Y-43392295D02*
X64730858Y-42820866D01*
X64730858Y-42820866D02*
X64578477Y-43392295D01*
X64578477Y-43392295D02*
X64388001Y-42592295D01*
X55262809Y-55362295D02*
X55186619Y-55362295D01*
X55186619Y-55362295D02*
X55110428Y-55400390D01*
X55110428Y-55400390D02*
X55072333Y-55438485D01*
X55072333Y-55438485D02*
X55034238Y-55514676D01*
X55034238Y-55514676D02*
X54996143Y-55667057D01*
X54996143Y-55667057D02*
X54996143Y-55857533D01*
X54996143Y-55857533D02*
X55034238Y-56009914D01*
X55034238Y-56009914D02*
X55072333Y-56086104D01*
X55072333Y-56086104D02*
X55110428Y-56124200D01*
X55110428Y-56124200D02*
X55186619Y-56162295D01*
X55186619Y-56162295D02*
X55262809Y-56162295D01*
X55262809Y-56162295D02*
X55339000Y-56124200D01*
X55339000Y-56124200D02*
X55377095Y-56086104D01*
X55377095Y-56086104D02*
X55415190Y-56009914D01*
X55415190Y-56009914D02*
X55453286Y-55857533D01*
X55453286Y-55857533D02*
X55453286Y-55667057D01*
X55453286Y-55667057D02*
X55415190Y-55514676D01*
X55415190Y-55514676D02*
X55377095Y-55438485D01*
X55377095Y-55438485D02*
X55339000Y-55400390D01*
X55339000Y-55400390D02*
X55262809Y-55362295D01*
X54691381Y-55438485D02*
X54653285Y-55400390D01*
X54653285Y-55400390D02*
X54577095Y-55362295D01*
X54577095Y-55362295D02*
X54386619Y-55362295D01*
X54386619Y-55362295D02*
X54310428Y-55400390D01*
X54310428Y-55400390D02*
X54272333Y-55438485D01*
X54272333Y-55438485D02*
X54234238Y-55514676D01*
X54234238Y-55514676D02*
X54234238Y-55590866D01*
X54234238Y-55590866D02*
X54272333Y-55705152D01*
X54272333Y-55705152D02*
X54729476Y-56162295D01*
X54729476Y-56162295D02*
X54234238Y-56162295D01*
X53738999Y-55362295D02*
X53662809Y-55362295D01*
X53662809Y-55362295D02*
X53586618Y-55400390D01*
X53586618Y-55400390D02*
X53548523Y-55438485D01*
X53548523Y-55438485D02*
X53510428Y-55514676D01*
X53510428Y-55514676D02*
X53472333Y-55667057D01*
X53472333Y-55667057D02*
X53472333Y-55857533D01*
X53472333Y-55857533D02*
X53510428Y-56009914D01*
X53510428Y-56009914D02*
X53548523Y-56086104D01*
X53548523Y-56086104D02*
X53586618Y-56124200D01*
X53586618Y-56124200D02*
X53662809Y-56162295D01*
X53662809Y-56162295D02*
X53738999Y-56162295D01*
X53738999Y-56162295D02*
X53815190Y-56124200D01*
X53815190Y-56124200D02*
X53853285Y-56086104D01*
X53853285Y-56086104D02*
X53891380Y-56009914D01*
X53891380Y-56009914D02*
X53929476Y-55857533D01*
X53929476Y-55857533D02*
X53929476Y-55667057D01*
X53929476Y-55667057D02*
X53891380Y-55514676D01*
X53891380Y-55514676D02*
X53853285Y-55438485D01*
X53853285Y-55438485D02*
X53815190Y-55400390D01*
X53815190Y-55400390D02*
X53738999Y-55362295D01*
X55262809Y-52752295D02*
X55186619Y-52752295D01*
X55186619Y-52752295D02*
X55110428Y-52790390D01*
X55110428Y-52790390D02*
X55072333Y-52828485D01*
X55072333Y-52828485D02*
X55034238Y-52904676D01*
X55034238Y-52904676D02*
X54996143Y-53057057D01*
X54996143Y-53057057D02*
X54996143Y-53247533D01*
X54996143Y-53247533D02*
X55034238Y-53399914D01*
X55034238Y-53399914D02*
X55072333Y-53476104D01*
X55072333Y-53476104D02*
X55110428Y-53514200D01*
X55110428Y-53514200D02*
X55186619Y-53552295D01*
X55186619Y-53552295D02*
X55262809Y-53552295D01*
X55262809Y-53552295D02*
X55339000Y-53514200D01*
X55339000Y-53514200D02*
X55377095Y-53476104D01*
X55377095Y-53476104D02*
X55415190Y-53399914D01*
X55415190Y-53399914D02*
X55453286Y-53247533D01*
X55453286Y-53247533D02*
X55453286Y-53057057D01*
X55453286Y-53057057D02*
X55415190Y-52904676D01*
X55415190Y-52904676D02*
X55377095Y-52828485D01*
X55377095Y-52828485D02*
X55339000Y-52790390D01*
X55339000Y-52790390D02*
X55262809Y-52752295D01*
X54234238Y-53552295D02*
X54691381Y-53552295D01*
X54462809Y-53552295D02*
X54462809Y-52752295D01*
X54462809Y-52752295D02*
X54539000Y-52866580D01*
X54539000Y-52866580D02*
X54615190Y-52942771D01*
X54615190Y-52942771D02*
X54691381Y-52980866D01*
X53967571Y-52752295D02*
X53434237Y-52752295D01*
X53434237Y-52752295D02*
X53777095Y-53552295D01*
X66026094Y-48472295D02*
X66292761Y-48091342D01*
X66483237Y-48472295D02*
X66483237Y-47672295D01*
X66483237Y-47672295D02*
X66178475Y-47672295D01*
X66178475Y-47672295D02*
X66102285Y-47710390D01*
X66102285Y-47710390D02*
X66064190Y-47748485D01*
X66064190Y-47748485D02*
X66026094Y-47824676D01*
X66026094Y-47824676D02*
X66026094Y-47938961D01*
X66026094Y-47938961D02*
X66064190Y-48015152D01*
X66064190Y-48015152D02*
X66102285Y-48053247D01*
X66102285Y-48053247D02*
X66178475Y-48091342D01*
X66178475Y-48091342D02*
X66483237Y-48091342D01*
X65721333Y-48434200D02*
X65607047Y-48472295D01*
X65607047Y-48472295D02*
X65416571Y-48472295D01*
X65416571Y-48472295D02*
X65340380Y-48434200D01*
X65340380Y-48434200D02*
X65302285Y-48396104D01*
X65302285Y-48396104D02*
X65264190Y-48319914D01*
X65264190Y-48319914D02*
X65264190Y-48243723D01*
X65264190Y-48243723D02*
X65302285Y-48167533D01*
X65302285Y-48167533D02*
X65340380Y-48129438D01*
X65340380Y-48129438D02*
X65416571Y-48091342D01*
X65416571Y-48091342D02*
X65568952Y-48053247D01*
X65568952Y-48053247D02*
X65645142Y-48015152D01*
X65645142Y-48015152D02*
X65683237Y-47977057D01*
X65683237Y-47977057D02*
X65721333Y-47900866D01*
X65721333Y-47900866D02*
X65721333Y-47824676D01*
X65721333Y-47824676D02*
X65683237Y-47748485D01*
X65683237Y-47748485D02*
X65645142Y-47710390D01*
X65645142Y-47710390D02*
X65568952Y-47672295D01*
X65568952Y-47672295D02*
X65378475Y-47672295D01*
X65378475Y-47672295D02*
X65264190Y-47710390D01*
X65035618Y-47672295D02*
X64578475Y-47672295D01*
X64807047Y-48472295D02*
X64807047Y-47672295D01*
X66337190Y-67992295D02*
X66261000Y-67992295D01*
X66261000Y-67992295D02*
X66184809Y-68030390D01*
X66184809Y-68030390D02*
X66146714Y-68068485D01*
X66146714Y-68068485D02*
X66108619Y-68144676D01*
X66108619Y-68144676D02*
X66070524Y-68297057D01*
X66070524Y-68297057D02*
X66070524Y-68487533D01*
X66070524Y-68487533D02*
X66108619Y-68639914D01*
X66108619Y-68639914D02*
X66146714Y-68716104D01*
X66146714Y-68716104D02*
X66184809Y-68754200D01*
X66184809Y-68754200D02*
X66261000Y-68792295D01*
X66261000Y-68792295D02*
X66337190Y-68792295D01*
X66337190Y-68792295D02*
X66413381Y-68754200D01*
X66413381Y-68754200D02*
X66451476Y-68716104D01*
X66451476Y-68716104D02*
X66489571Y-68639914D01*
X66489571Y-68639914D02*
X66527667Y-68487533D01*
X66527667Y-68487533D02*
X66527667Y-68297057D01*
X66527667Y-68297057D02*
X66489571Y-68144676D01*
X66489571Y-68144676D02*
X66451476Y-68068485D01*
X66451476Y-68068485D02*
X66413381Y-68030390D01*
X66413381Y-68030390D02*
X66337190Y-67992295D01*
X65308619Y-68792295D02*
X65765762Y-68792295D01*
X65537190Y-68792295D02*
X65537190Y-67992295D01*
X65537190Y-67992295D02*
X65613381Y-68106580D01*
X65613381Y-68106580D02*
X65689571Y-68182771D01*
X65689571Y-68182771D02*
X65765762Y-68220866D01*
X64813380Y-67992295D02*
X64737190Y-67992295D01*
X64737190Y-67992295D02*
X64660999Y-68030390D01*
X64660999Y-68030390D02*
X64622904Y-68068485D01*
X64622904Y-68068485D02*
X64584809Y-68144676D01*
X64584809Y-68144676D02*
X64546714Y-68297057D01*
X64546714Y-68297057D02*
X64546714Y-68487533D01*
X64546714Y-68487533D02*
X64584809Y-68639914D01*
X64584809Y-68639914D02*
X64622904Y-68716104D01*
X64622904Y-68716104D02*
X64660999Y-68754200D01*
X64660999Y-68754200D02*
X64737190Y-68792295D01*
X64737190Y-68792295D02*
X64813380Y-68792295D01*
X64813380Y-68792295D02*
X64889571Y-68754200D01*
X64889571Y-68754200D02*
X64927666Y-68716104D01*
X64927666Y-68716104D02*
X64965761Y-68639914D01*
X64965761Y-68639914D02*
X65003857Y-68487533D01*
X65003857Y-68487533D02*
X65003857Y-68297057D01*
X65003857Y-68297057D02*
X64965761Y-68144676D01*
X64965761Y-68144676D02*
X64927666Y-68068485D01*
X64927666Y-68068485D02*
X64889571Y-68030390D01*
X64889571Y-68030390D02*
X64813380Y-67992295D01*
X54996143Y-63712295D02*
X55453286Y-63712295D01*
X55224714Y-63712295D02*
X55224714Y-62912295D01*
X55224714Y-62912295D02*
X55300905Y-63026580D01*
X55300905Y-63026580D02*
X55377095Y-63102771D01*
X55377095Y-63102771D02*
X55453286Y-63140866D01*
X54500904Y-62912295D02*
X54424714Y-62912295D01*
X54424714Y-62912295D02*
X54348523Y-62950390D01*
X54348523Y-62950390D02*
X54310428Y-62988485D01*
X54310428Y-62988485D02*
X54272333Y-63064676D01*
X54272333Y-63064676D02*
X54234238Y-63217057D01*
X54234238Y-63217057D02*
X54234238Y-63407533D01*
X54234238Y-63407533D02*
X54272333Y-63559914D01*
X54272333Y-63559914D02*
X54310428Y-63636104D01*
X54310428Y-63636104D02*
X54348523Y-63674200D01*
X54348523Y-63674200D02*
X54424714Y-63712295D01*
X54424714Y-63712295D02*
X54500904Y-63712295D01*
X54500904Y-63712295D02*
X54577095Y-63674200D01*
X54577095Y-63674200D02*
X54615190Y-63636104D01*
X54615190Y-63636104D02*
X54653285Y-63559914D01*
X54653285Y-63559914D02*
X54691381Y-63407533D01*
X54691381Y-63407533D02*
X54691381Y-63217057D01*
X54691381Y-63217057D02*
X54653285Y-63064676D01*
X54653285Y-63064676D02*
X54615190Y-62988485D01*
X54615190Y-62988485D02*
X54577095Y-62950390D01*
X54577095Y-62950390D02*
X54500904Y-62912295D01*
X53738999Y-62912295D02*
X53662809Y-62912295D01*
X53662809Y-62912295D02*
X53586618Y-62950390D01*
X53586618Y-62950390D02*
X53548523Y-62988485D01*
X53548523Y-62988485D02*
X53510428Y-63064676D01*
X53510428Y-63064676D02*
X53472333Y-63217057D01*
X53472333Y-63217057D02*
X53472333Y-63407533D01*
X53472333Y-63407533D02*
X53510428Y-63559914D01*
X53510428Y-63559914D02*
X53548523Y-63636104D01*
X53548523Y-63636104D02*
X53586618Y-63674200D01*
X53586618Y-63674200D02*
X53662809Y-63712295D01*
X53662809Y-63712295D02*
X53738999Y-63712295D01*
X53738999Y-63712295D02*
X53815190Y-63674200D01*
X53815190Y-63674200D02*
X53853285Y-63636104D01*
X53853285Y-63636104D02*
X53891380Y-63559914D01*
X53891380Y-63559914D02*
X53929476Y-63407533D01*
X53929476Y-63407533D02*
X53929476Y-63217057D01*
X53929476Y-63217057D02*
X53891380Y-63064676D01*
X53891380Y-63064676D02*
X53853285Y-62988485D01*
X53853285Y-62988485D02*
X53815190Y-62950390D01*
X53815190Y-62950390D02*
X53738999Y-62912295D01*
X110809523Y-28407200D02*
X110666666Y-28454819D01*
X110666666Y-28454819D02*
X110428571Y-28454819D01*
X110428571Y-28454819D02*
X110333333Y-28407200D01*
X110333333Y-28407200D02*
X110285714Y-28359580D01*
X110285714Y-28359580D02*
X110238095Y-28264342D01*
X110238095Y-28264342D02*
X110238095Y-28169104D01*
X110238095Y-28169104D02*
X110285714Y-28073866D01*
X110285714Y-28073866D02*
X110333333Y-28026247D01*
X110333333Y-28026247D02*
X110428571Y-27978628D01*
X110428571Y-27978628D02*
X110619047Y-27931009D01*
X110619047Y-27931009D02*
X110714285Y-27883390D01*
X110714285Y-27883390D02*
X110761904Y-27835771D01*
X110761904Y-27835771D02*
X110809523Y-27740533D01*
X110809523Y-27740533D02*
X110809523Y-27645295D01*
X110809523Y-27645295D02*
X110761904Y-27550057D01*
X110761904Y-27550057D02*
X110714285Y-27502438D01*
X110714285Y-27502438D02*
X110619047Y-27454819D01*
X110619047Y-27454819D02*
X110380952Y-27454819D01*
X110380952Y-27454819D02*
X110238095Y-27502438D01*
X109904761Y-27454819D02*
X109666666Y-28454819D01*
X109666666Y-28454819D02*
X109476190Y-27740533D01*
X109476190Y-27740533D02*
X109285714Y-28454819D01*
X109285714Y-28454819D02*
X109047619Y-27454819D01*
X108714285Y-27550057D02*
X108666666Y-27502438D01*
X108666666Y-27502438D02*
X108571428Y-27454819D01*
X108571428Y-27454819D02*
X108333333Y-27454819D01*
X108333333Y-27454819D02*
X108238095Y-27502438D01*
X108238095Y-27502438D02*
X108190476Y-27550057D01*
X108190476Y-27550057D02*
X108142857Y-27645295D01*
X108142857Y-27645295D02*
X108142857Y-27740533D01*
X108142857Y-27740533D02*
X108190476Y-27883390D01*
X108190476Y-27883390D02*
X108761904Y-28454819D01*
X108761904Y-28454819D02*
X108142857Y-28454819D01*
X107523809Y-27454819D02*
X107428571Y-27454819D01*
X107428571Y-27454819D02*
X107333333Y-27502438D01*
X107333333Y-27502438D02*
X107285714Y-27550057D01*
X107285714Y-27550057D02*
X107238095Y-27645295D01*
X107238095Y-27645295D02*
X107190476Y-27835771D01*
X107190476Y-27835771D02*
X107190476Y-28073866D01*
X107190476Y-28073866D02*
X107238095Y-28264342D01*
X107238095Y-28264342D02*
X107285714Y-28359580D01*
X107285714Y-28359580D02*
X107333333Y-28407200D01*
X107333333Y-28407200D02*
X107428571Y-28454819D01*
X107428571Y-28454819D02*
X107523809Y-28454819D01*
X107523809Y-28454819D02*
X107619047Y-28407200D01*
X107619047Y-28407200D02*
X107666666Y-28359580D01*
X107666666Y-28359580D02*
X107714285Y-28264342D01*
X107714285Y-28264342D02*
X107761904Y-28073866D01*
X107761904Y-28073866D02*
X107761904Y-27835771D01*
X107761904Y-27835771D02*
X107714285Y-27645295D01*
X107714285Y-27645295D02*
X107666666Y-27550057D01*
X107666666Y-27550057D02*
X107619047Y-27502438D01*
X107619047Y-27502438D02*
X107523809Y-27454819D01*
X110809523Y-45407200D02*
X110666666Y-45454819D01*
X110666666Y-45454819D02*
X110428571Y-45454819D01*
X110428571Y-45454819D02*
X110333333Y-45407200D01*
X110333333Y-45407200D02*
X110285714Y-45359580D01*
X110285714Y-45359580D02*
X110238095Y-45264342D01*
X110238095Y-45264342D02*
X110238095Y-45169104D01*
X110238095Y-45169104D02*
X110285714Y-45073866D01*
X110285714Y-45073866D02*
X110333333Y-45026247D01*
X110333333Y-45026247D02*
X110428571Y-44978628D01*
X110428571Y-44978628D02*
X110619047Y-44931009D01*
X110619047Y-44931009D02*
X110714285Y-44883390D01*
X110714285Y-44883390D02*
X110761904Y-44835771D01*
X110761904Y-44835771D02*
X110809523Y-44740533D01*
X110809523Y-44740533D02*
X110809523Y-44645295D01*
X110809523Y-44645295D02*
X110761904Y-44550057D01*
X110761904Y-44550057D02*
X110714285Y-44502438D01*
X110714285Y-44502438D02*
X110619047Y-44454819D01*
X110619047Y-44454819D02*
X110380952Y-44454819D01*
X110380952Y-44454819D02*
X110238095Y-44502438D01*
X109904761Y-44454819D02*
X109666666Y-45454819D01*
X109666666Y-45454819D02*
X109476190Y-44740533D01*
X109476190Y-44740533D02*
X109285714Y-45454819D01*
X109285714Y-45454819D02*
X109047619Y-44454819D01*
X108714285Y-44550057D02*
X108666666Y-44502438D01*
X108666666Y-44502438D02*
X108571428Y-44454819D01*
X108571428Y-44454819D02*
X108333333Y-44454819D01*
X108333333Y-44454819D02*
X108238095Y-44502438D01*
X108238095Y-44502438D02*
X108190476Y-44550057D01*
X108190476Y-44550057D02*
X108142857Y-44645295D01*
X108142857Y-44645295D02*
X108142857Y-44740533D01*
X108142857Y-44740533D02*
X108190476Y-44883390D01*
X108190476Y-44883390D02*
X108761904Y-45454819D01*
X108761904Y-45454819D02*
X108142857Y-45454819D01*
X107238095Y-44454819D02*
X107714285Y-44454819D01*
X107714285Y-44454819D02*
X107761904Y-44931009D01*
X107761904Y-44931009D02*
X107714285Y-44883390D01*
X107714285Y-44883390D02*
X107619047Y-44835771D01*
X107619047Y-44835771D02*
X107380952Y-44835771D01*
X107380952Y-44835771D02*
X107285714Y-44883390D01*
X107285714Y-44883390D02*
X107238095Y-44931009D01*
X107238095Y-44931009D02*
X107190476Y-45026247D01*
X107190476Y-45026247D02*
X107190476Y-45264342D01*
X107190476Y-45264342D02*
X107238095Y-45359580D01*
X107238095Y-45359580D02*
X107285714Y-45407200D01*
X107285714Y-45407200D02*
X107380952Y-45454819D01*
X107380952Y-45454819D02*
X107619047Y-45454819D01*
X107619047Y-45454819D02*
X107714285Y-45407200D01*
X107714285Y-45407200D02*
X107761904Y-45359580D01*
X146809523Y-47407200D02*
X146666666Y-47454819D01*
X146666666Y-47454819D02*
X146428571Y-47454819D01*
X146428571Y-47454819D02*
X146333333Y-47407200D01*
X146333333Y-47407200D02*
X146285714Y-47359580D01*
X146285714Y-47359580D02*
X146238095Y-47264342D01*
X146238095Y-47264342D02*
X146238095Y-47169104D01*
X146238095Y-47169104D02*
X146285714Y-47073866D01*
X146285714Y-47073866D02*
X146333333Y-47026247D01*
X146333333Y-47026247D02*
X146428571Y-46978628D01*
X146428571Y-46978628D02*
X146619047Y-46931009D01*
X146619047Y-46931009D02*
X146714285Y-46883390D01*
X146714285Y-46883390D02*
X146761904Y-46835771D01*
X146761904Y-46835771D02*
X146809523Y-46740533D01*
X146809523Y-46740533D02*
X146809523Y-46645295D01*
X146809523Y-46645295D02*
X146761904Y-46550057D01*
X146761904Y-46550057D02*
X146714285Y-46502438D01*
X146714285Y-46502438D02*
X146619047Y-46454819D01*
X146619047Y-46454819D02*
X146380952Y-46454819D01*
X146380952Y-46454819D02*
X146238095Y-46502438D01*
X145904761Y-46454819D02*
X145666666Y-47454819D01*
X145666666Y-47454819D02*
X145476190Y-46740533D01*
X145476190Y-46740533D02*
X145285714Y-47454819D01*
X145285714Y-47454819D02*
X145047619Y-46454819D01*
X144714285Y-46550057D02*
X144666666Y-46502438D01*
X144666666Y-46502438D02*
X144571428Y-46454819D01*
X144571428Y-46454819D02*
X144333333Y-46454819D01*
X144333333Y-46454819D02*
X144238095Y-46502438D01*
X144238095Y-46502438D02*
X144190476Y-46550057D01*
X144190476Y-46550057D02*
X144142857Y-46645295D01*
X144142857Y-46645295D02*
X144142857Y-46740533D01*
X144142857Y-46740533D02*
X144190476Y-46883390D01*
X144190476Y-46883390D02*
X144761904Y-47454819D01*
X144761904Y-47454819D02*
X144142857Y-47454819D01*
X143761904Y-46550057D02*
X143714285Y-46502438D01*
X143714285Y-46502438D02*
X143619047Y-46454819D01*
X143619047Y-46454819D02*
X143380952Y-46454819D01*
X143380952Y-46454819D02*
X143285714Y-46502438D01*
X143285714Y-46502438D02*
X143238095Y-46550057D01*
X143238095Y-46550057D02*
X143190476Y-46645295D01*
X143190476Y-46645295D02*
X143190476Y-46740533D01*
X143190476Y-46740533D02*
X143238095Y-46883390D01*
X143238095Y-46883390D02*
X143809523Y-47454819D01*
X143809523Y-47454819D02*
X143190476Y-47454819D01*
X184388332Y-52407200D02*
X184245475Y-52454819D01*
X184245475Y-52454819D02*
X184007380Y-52454819D01*
X184007380Y-52454819D02*
X183912142Y-52407200D01*
X183912142Y-52407200D02*
X183864523Y-52359580D01*
X183864523Y-52359580D02*
X183816904Y-52264342D01*
X183816904Y-52264342D02*
X183816904Y-52169104D01*
X183816904Y-52169104D02*
X183864523Y-52073866D01*
X183864523Y-52073866D02*
X183912142Y-52026247D01*
X183912142Y-52026247D02*
X184007380Y-51978628D01*
X184007380Y-51978628D02*
X184197856Y-51931009D01*
X184197856Y-51931009D02*
X184293094Y-51883390D01*
X184293094Y-51883390D02*
X184340713Y-51835771D01*
X184340713Y-51835771D02*
X184388332Y-51740533D01*
X184388332Y-51740533D02*
X184388332Y-51645295D01*
X184388332Y-51645295D02*
X184340713Y-51550057D01*
X184340713Y-51550057D02*
X184293094Y-51502438D01*
X184293094Y-51502438D02*
X184197856Y-51454819D01*
X184197856Y-51454819D02*
X183959761Y-51454819D01*
X183959761Y-51454819D02*
X183816904Y-51502438D01*
X183483570Y-51454819D02*
X183245475Y-52454819D01*
X183245475Y-52454819D02*
X183054999Y-51740533D01*
X183054999Y-51740533D02*
X182864523Y-52454819D01*
X182864523Y-52454819D02*
X182626428Y-51454819D01*
X182340713Y-51454819D02*
X181674047Y-51454819D01*
X181674047Y-51454819D02*
X182102618Y-52454819D01*
X220333332Y-51407200D02*
X220190475Y-51454819D01*
X220190475Y-51454819D02*
X219952380Y-51454819D01*
X219952380Y-51454819D02*
X219857142Y-51407200D01*
X219857142Y-51407200D02*
X219809523Y-51359580D01*
X219809523Y-51359580D02*
X219761904Y-51264342D01*
X219761904Y-51264342D02*
X219761904Y-51169104D01*
X219761904Y-51169104D02*
X219809523Y-51073866D01*
X219809523Y-51073866D02*
X219857142Y-51026247D01*
X219857142Y-51026247D02*
X219952380Y-50978628D01*
X219952380Y-50978628D02*
X220142856Y-50931009D01*
X220142856Y-50931009D02*
X220238094Y-50883390D01*
X220238094Y-50883390D02*
X220285713Y-50835771D01*
X220285713Y-50835771D02*
X220333332Y-50740533D01*
X220333332Y-50740533D02*
X220333332Y-50645295D01*
X220333332Y-50645295D02*
X220285713Y-50550057D01*
X220285713Y-50550057D02*
X220238094Y-50502438D01*
X220238094Y-50502438D02*
X220142856Y-50454819D01*
X220142856Y-50454819D02*
X219904761Y-50454819D01*
X219904761Y-50454819D02*
X219761904Y-50502438D01*
X219428570Y-50454819D02*
X219190475Y-51454819D01*
X219190475Y-51454819D02*
X218999999Y-50740533D01*
X218999999Y-50740533D02*
X218809523Y-51454819D01*
X218809523Y-51454819D02*
X218571428Y-50454819D01*
X218142856Y-51454819D02*
X217952380Y-51454819D01*
X217952380Y-51454819D02*
X217857142Y-51407200D01*
X217857142Y-51407200D02*
X217809523Y-51359580D01*
X217809523Y-51359580D02*
X217714285Y-51216723D01*
X217714285Y-51216723D02*
X217666666Y-51026247D01*
X217666666Y-51026247D02*
X217666666Y-50645295D01*
X217666666Y-50645295D02*
X217714285Y-50550057D01*
X217714285Y-50550057D02*
X217761904Y-50502438D01*
X217761904Y-50502438D02*
X217857142Y-50454819D01*
X217857142Y-50454819D02*
X218047618Y-50454819D01*
X218047618Y-50454819D02*
X218142856Y-50502438D01*
X218142856Y-50502438D02*
X218190475Y-50550057D01*
X218190475Y-50550057D02*
X218238094Y-50645295D01*
X218238094Y-50645295D02*
X218238094Y-50883390D01*
X218238094Y-50883390D02*
X218190475Y-50978628D01*
X218190475Y-50978628D02*
X218142856Y-51026247D01*
X218142856Y-51026247D02*
X218047618Y-51073866D01*
X218047618Y-51073866D02*
X217857142Y-51073866D01*
X217857142Y-51073866D02*
X217761904Y-51026247D01*
X217761904Y-51026247D02*
X217714285Y-50978628D01*
X217714285Y-50978628D02*
X217666666Y-50883390D01*
X176809523Y-85407200D02*
X176666666Y-85454819D01*
X176666666Y-85454819D02*
X176428571Y-85454819D01*
X176428571Y-85454819D02*
X176333333Y-85407200D01*
X176333333Y-85407200D02*
X176285714Y-85359580D01*
X176285714Y-85359580D02*
X176238095Y-85264342D01*
X176238095Y-85264342D02*
X176238095Y-85169104D01*
X176238095Y-85169104D02*
X176285714Y-85073866D01*
X176285714Y-85073866D02*
X176333333Y-85026247D01*
X176333333Y-85026247D02*
X176428571Y-84978628D01*
X176428571Y-84978628D02*
X176619047Y-84931009D01*
X176619047Y-84931009D02*
X176714285Y-84883390D01*
X176714285Y-84883390D02*
X176761904Y-84835771D01*
X176761904Y-84835771D02*
X176809523Y-84740533D01*
X176809523Y-84740533D02*
X176809523Y-84645295D01*
X176809523Y-84645295D02*
X176761904Y-84550057D01*
X176761904Y-84550057D02*
X176714285Y-84502438D01*
X176714285Y-84502438D02*
X176619047Y-84454819D01*
X176619047Y-84454819D02*
X176380952Y-84454819D01*
X176380952Y-84454819D02*
X176238095Y-84502438D01*
X175904761Y-84454819D02*
X175666666Y-85454819D01*
X175666666Y-85454819D02*
X175476190Y-84740533D01*
X175476190Y-84740533D02*
X175285714Y-85454819D01*
X175285714Y-85454819D02*
X175047619Y-84454819D01*
X174142857Y-85454819D02*
X174714285Y-85454819D01*
X174428571Y-85454819D02*
X174428571Y-84454819D01*
X174428571Y-84454819D02*
X174523809Y-84597676D01*
X174523809Y-84597676D02*
X174619047Y-84692914D01*
X174619047Y-84692914D02*
X174714285Y-84740533D01*
X173190476Y-85454819D02*
X173761904Y-85454819D01*
X173476190Y-85454819D02*
X173476190Y-84454819D01*
X173476190Y-84454819D02*
X173571428Y-84597676D01*
X173571428Y-84597676D02*
X173666666Y-84692914D01*
X173666666Y-84692914D02*
X173761904Y-84740533D01*
X235000000Y-56500000D02*
X235000000Y-57000000D01*
X235000000Y-60600000D02*
X235000000Y-61200000D01*
X235000000Y-61200000D02*
X239500000Y-61200000D01*
X239500000Y-56500000D02*
X235000000Y-56500000D01*
X239500000Y-57200000D02*
X239500000Y-56500000D01*
X240000000Y-61700000D02*
X240000000Y-62700000D01*
X240500000Y-63200000D02*
X240000000Y-62700000D01*
X243500000Y-58700000D02*
X241000000Y-58700000D01*
X243500000Y-63200000D02*
X240500000Y-63200000D01*
X244000000Y-59200000D02*
X243500000Y-58700000D01*
X244000000Y-62700000D02*
X243500000Y-63200000D01*
X240000000Y-61700000D02*
G75*
G03*
X239500000Y-61200000I-500001J-1D01*
G01*
X239500000Y-57200000D02*
G75*
G03*
X241000000Y-58700000I1500001J1D01*
G01*
X143000000Y-67500000D02*
X143000000Y-68000000D01*
X143000000Y-71600000D02*
X143000000Y-72200000D01*
X143000000Y-72200000D02*
X147500000Y-72200000D01*
X147500000Y-67500000D02*
X143000000Y-67500000D01*
X147500000Y-68200000D02*
X147500000Y-67500000D01*
X148000000Y-72700000D02*
X148000000Y-73700000D01*
X148500000Y-74200000D02*
X148000000Y-73700000D01*
X151500000Y-69700000D02*
X149000000Y-69700000D01*
X151500000Y-74200000D02*
X148500000Y-74200000D01*
X152000000Y-70200000D02*
X151500000Y-69700000D01*
X152000000Y-73700000D02*
X151500000Y-74200000D01*
X148000000Y-72700000D02*
G75*
G03*
X147500000Y-72200000I-500001J-1D01*
G01*
X147500000Y-68200000D02*
G75*
G03*
X149000000Y-69700000I1500001J1D01*
G01*
X226845873Y-90261674D02*
X226759049Y-90754078D01*
X226133916Y-94299386D02*
X226029727Y-94890271D01*
X226029727Y-94890271D02*
X230461362Y-95671688D01*
X231277508Y-91043091D02*
X226845873Y-90261674D01*
X231155955Y-91732457D02*
X231277508Y-91043091D01*
X230866942Y-96250916D02*
X230693294Y-97235723D01*
X231098873Y-97814951D02*
X230693294Y-97235723D01*
X234834713Y-93904261D02*
X232372694Y-93470141D01*
X234053297Y-98335896D02*
X231098873Y-97814951D01*
X235240293Y-94483489D02*
X234834713Y-93904261D01*
X234632525Y-97930316D02*
X234053297Y-98335896D01*
X230866941Y-96250916D02*
G75*
G03*
X230461362Y-95671688I-492404J86824D01*
G01*
X231155954Y-91732457D02*
G75*
G03*
X232372694Y-93470141I1477213J-260471D01*
G01*
X125000000Y-38500000D02*
X125000000Y-39000000D01*
X125000000Y-42600000D02*
X125000000Y-43200000D01*
X125000000Y-43200000D02*
X129500000Y-43200000D01*
X129500000Y-38500000D02*
X125000000Y-38500000D01*
X129500000Y-39200000D02*
X129500000Y-38500000D01*
X130000000Y-43700000D02*
X130000000Y-44700000D01*
X130500000Y-45200000D02*
X130000000Y-44700000D01*
X133500000Y-40700000D02*
X131000000Y-40700000D01*
X133500000Y-45200000D02*
X130500000Y-45200000D01*
X134000000Y-41200000D02*
X133500000Y-40700000D01*
X134000000Y-44700000D02*
X133500000Y-45200000D01*
X130000000Y-43700000D02*
G75*
G03*
X129500000Y-43200000I-500001J-1D01*
G01*
X129500000Y-39200000D02*
G75*
G03*
X131000000Y-40700000I1500001J1D01*
G01*
X89000000Y-54500000D02*
X89000000Y-55000000D01*
X89000000Y-58600000D02*
X89000000Y-59200000D01*
X89000000Y-59200000D02*
X93500000Y-59200000D01*
X93500000Y-54500000D02*
X89000000Y-54500000D01*
X93500000Y-55200000D02*
X93500000Y-54500000D01*
X94000000Y-59700000D02*
X94000000Y-60700000D01*
X94500000Y-61200000D02*
X94000000Y-60700000D01*
X97500000Y-56700000D02*
X95000000Y-56700000D01*
X97500000Y-61200000D02*
X94500000Y-61200000D01*
X98000000Y-57200000D02*
X97500000Y-56700000D01*
X98000000Y-60700000D02*
X97500000Y-61200000D01*
X94000000Y-59700000D02*
G75*
G03*
X93500000Y-59200000I-500001J-1D01*
G01*
X93500000Y-55200000D02*
G75*
G03*
X95000000Y-56700000I1500001J1D01*
G01*
X85000000Y-53500000D02*
X85000000Y-53000000D01*
X85000000Y-49400000D02*
X85000000Y-48800000D01*
X85000000Y-48800000D02*
X80500000Y-48800000D01*
X80500000Y-53500000D02*
X85000000Y-53500000D01*
X80500000Y-52800000D02*
X80500000Y-53500000D01*
X80000000Y-48300000D02*
X80000000Y-47300000D01*
X79500000Y-46800000D02*
X80000000Y-47300000D01*
X76500000Y-51300000D02*
X79000000Y-51300000D01*
X76500000Y-46800000D02*
X79500000Y-46800000D01*
X76000000Y-50800000D02*
X76500000Y-51300000D01*
X76000000Y-47300000D02*
X76500000Y-46800000D01*
X80000000Y-48300000D02*
G75*
G03*
X80500000Y-48800000I500001J1D01*
G01*
X80500000Y-52800000D02*
G75*
G03*
X79000000Y-51300000I-1500001J-1D01*
G01*
X217000000Y-37500000D02*
X217000000Y-38000000D01*
X217000000Y-41600000D02*
X217000000Y-42200000D01*
X217000000Y-42200000D02*
X221500000Y-42200000D01*
X221500000Y-37500000D02*
X217000000Y-37500000D01*
X221500000Y-38200000D02*
X221500000Y-37500000D01*
X222000000Y-42700000D02*
X222000000Y-43700000D01*
X222500000Y-44200000D02*
X222000000Y-43700000D01*
X225500000Y-39700000D02*
X223000000Y-39700000D01*
X225500000Y-44200000D02*
X222500000Y-44200000D01*
X226000000Y-40200000D02*
X225500000Y-39700000D01*
X226000000Y-43700000D02*
X225500000Y-44200000D01*
X222000000Y-42700000D02*
G75*
G03*
X221500000Y-42200000I-500001J-1D01*
G01*
X221500000Y-38200000D02*
G75*
G03*
X223000000Y-39700000I1500001J1D01*
G01*
X235000000Y-73500000D02*
X235000000Y-74000000D01*
X235000000Y-77600000D02*
X235000000Y-78200000D01*
X235000000Y-78200000D02*
X239500000Y-78200000D01*
X239500000Y-73500000D02*
X235000000Y-73500000D01*
X239500000Y-74200000D02*
X239500000Y-73500000D01*
X240000000Y-78700000D02*
X240000000Y-79700000D01*
X240500000Y-80200000D02*
X240000000Y-79700000D01*
X243500000Y-75700000D02*
X241000000Y-75700000D01*
X243500000Y-80200000D02*
X240500000Y-80200000D01*
X244000000Y-76200000D02*
X243500000Y-75700000D01*
X244000000Y-79700000D02*
X243500000Y-80200000D01*
X240000000Y-78700000D02*
G75*
G03*
X239500000Y-78200000I-500001J-1D01*
G01*
X239500000Y-74200000D02*
G75*
G03*
X241000000Y-75700000I1500001J1D01*
G01*
X89000000Y-71500000D02*
X89000000Y-72000000D01*
X89000000Y-75600000D02*
X89000000Y-76200000D01*
X89000000Y-76200000D02*
X93500000Y-76200000D01*
X93500000Y-71500000D02*
X89000000Y-71500000D01*
X93500000Y-72200000D02*
X93500000Y-71500000D01*
X94000000Y-76700000D02*
X94000000Y-77700000D01*
X94500000Y-78200000D02*
X94000000Y-77700000D01*
X97500000Y-73700000D02*
X95000000Y-73700000D01*
X97500000Y-78200000D02*
X94500000Y-78200000D01*
X98000000Y-74200000D02*
X97500000Y-73700000D01*
X98000000Y-77700000D02*
X97500000Y-78200000D01*
X94000000Y-76700000D02*
G75*
G03*
X93500000Y-76200000I-500001J-1D01*
G01*
X93500000Y-72200000D02*
G75*
G03*
X95000000Y-73700000I1500001J1D01*
G01*
X79366818Y-92692749D02*
X79453642Y-93185153D01*
X80078776Y-96730461D02*
X80182964Y-97321345D01*
X80182964Y-97321345D02*
X84614599Y-96539929D01*
X83798453Y-91911332D02*
X79366818Y-92692749D01*
X83920007Y-92600698D02*
X83798453Y-91911332D01*
X85193827Y-96945508D02*
X85367475Y-97930316D01*
X85946703Y-98335896D02*
X85367475Y-97930316D01*
X88119710Y-93383316D02*
X85657691Y-93817437D01*
X88901127Y-97814951D02*
X85946703Y-98335896D01*
X88698938Y-93788896D02*
X88119710Y-93383316D01*
X89306706Y-97235723D02*
X88901127Y-97814951D01*
X85193828Y-96945508D02*
G75*
G03*
X84614599Y-96539929I-492405J-86826D01*
G01*
X83920007Y-92600698D02*
G75*
G03*
X85657691Y-93817437I1477212J260474D01*
G01*
X89000000Y-37500000D02*
X89000000Y-38000000D01*
X89000000Y-41600000D02*
X89000000Y-42200000D01*
X89000000Y-42200000D02*
X93500000Y-42200000D01*
X93500000Y-37500000D02*
X89000000Y-37500000D01*
X93500000Y-38200000D02*
X93500000Y-37500000D01*
X94000000Y-42700000D02*
X94000000Y-43700000D01*
X94500000Y-44200000D02*
X94000000Y-43700000D01*
X97500000Y-39700000D02*
X95000000Y-39700000D01*
X97500000Y-44200000D02*
X94500000Y-44200000D01*
X98000000Y-40200000D02*
X97500000Y-39700000D01*
X98000000Y-43700000D02*
X97500000Y-44200000D01*
X94000000Y-42700000D02*
G75*
G03*
X93500000Y-42200000I-500001J-1D01*
G01*
X93500000Y-38200000D02*
G75*
G03*
X95000000Y-39700000I1500001J1D01*
G01*
X61289773Y-100317790D02*
X61501082Y-100770943D01*
X63022508Y-104033651D02*
X63276079Y-104577436D01*
X63276079Y-104577436D02*
X67354464Y-102675654D01*
X65368158Y-98416007D02*
X61289773Y-100317790D01*
X65663991Y-99050423D02*
X65368158Y-98416007D01*
X68018927Y-102917499D02*
X68441545Y-103823806D01*
X69106008Y-104065651D02*
X68441545Y-103823806D01*
X69923149Y-98719411D02*
X67657380Y-99775957D01*
X71824931Y-102797796D02*
X69106008Y-104065651D01*
X70587612Y-98961256D02*
X69923149Y-98719411D01*
X72066776Y-102133333D02*
X71824931Y-102797796D01*
X68018926Y-102917500D02*
G75*
G03*
X67354464Y-102675654I-453154J-211309D01*
G01*
X65663991Y-99050423D02*
G75*
G03*
X67657380Y-99775957I1359462J633929D01*
G01*
X125000000Y-55500000D02*
X125000000Y-56000000D01*
X125000000Y-59600000D02*
X125000000Y-60200000D01*
X125000000Y-60200000D02*
X129500000Y-60200000D01*
X129500000Y-55500000D02*
X125000000Y-55500000D01*
X129500000Y-56200000D02*
X129500000Y-55500000D01*
X130000000Y-60700000D02*
X130000000Y-61700000D01*
X130500000Y-62200000D02*
X130000000Y-61700000D01*
X133500000Y-57700000D02*
X131000000Y-57700000D01*
X133500000Y-62200000D02*
X130500000Y-62200000D01*
X134000000Y-58200000D02*
X133500000Y-57700000D01*
X134000000Y-61700000D02*
X133500000Y-62200000D01*
X130000000Y-60700000D02*
G75*
G03*
X129500000Y-60200000I-500001J-1D01*
G01*
X129500000Y-56200000D02*
G75*
G03*
X131000000Y-57700000I1500001J1D01*
G01*
X177000000Y-47500000D02*
X177000000Y-47000000D01*
X177000000Y-43400000D02*
X177000000Y-42800000D01*
X177000000Y-42800000D02*
X172500000Y-42800000D01*
X172500000Y-47500000D02*
X177000000Y-47500000D01*
X172500000Y-46800000D02*
X172500000Y-47500000D01*
X172000000Y-42300000D02*
X172000000Y-41300000D01*
X171500000Y-40800000D02*
X172000000Y-41300000D01*
X168500000Y-45300000D02*
X171000000Y-45300000D01*
X168500000Y-40800000D02*
X171500000Y-40800000D01*
X168000000Y-44800000D02*
X168500000Y-45300000D01*
X168000000Y-41300000D02*
X168500000Y-40800000D01*
X172000000Y-42300000D02*
G75*
G03*
X172500000Y-42800000I500001J1D01*
G01*
X172500000Y-46800000D02*
G75*
G03*
X171000000Y-45300000I-1500001J-1D01*
G01*
X181000000Y-72500000D02*
X181000000Y-73000000D01*
X181000000Y-76600000D02*
X181000000Y-77200000D01*
X181000000Y-77200000D02*
X185500000Y-77200000D01*
X185500000Y-72500000D02*
X181000000Y-72500000D01*
X185500000Y-73200000D02*
X185500000Y-72500000D01*
X186000000Y-77700000D02*
X186000000Y-78700000D01*
X186500000Y-79200000D02*
X186000000Y-78700000D01*
X189500000Y-74700000D02*
X187000000Y-74700000D01*
X189500000Y-79200000D02*
X186500000Y-79200000D01*
X190000000Y-75200000D02*
X189500000Y-74700000D01*
X190000000Y-78700000D02*
X189500000Y-79200000D01*
X186000000Y-77700000D02*
G75*
G03*
X185500000Y-77200000I-500001J-1D01*
G01*
X185500000Y-73200000D02*
G75*
G03*
X187000000Y-74700000I1500001J1D01*
G01*
X107000000Y-65500000D02*
X107000000Y-66000000D01*
X107000000Y-69600000D02*
X107000000Y-70200000D01*
X107000000Y-70200000D02*
X111500000Y-70200000D01*
X111500000Y-65500000D02*
X107000000Y-65500000D01*
X111500000Y-66200000D02*
X111500000Y-65500000D01*
X112000000Y-70700000D02*
X112000000Y-71700000D01*
X112500000Y-72200000D02*
X112000000Y-71700000D01*
X115500000Y-67700000D02*
X113000000Y-67700000D01*
X115500000Y-72200000D02*
X112500000Y-72200000D01*
X116000000Y-68200000D02*
X115500000Y-67700000D01*
X116000000Y-71700000D02*
X115500000Y-72200000D01*
X112000000Y-70700000D02*
G75*
G03*
X111500000Y-70200000I-500001J-1D01*
G01*
X111500000Y-66200000D02*
G75*
G03*
X113000000Y-67700000I1500001J1D01*
G01*
X199000000Y-48500000D02*
X199000000Y-49000000D01*
X199000000Y-52600000D02*
X199000000Y-53200000D01*
X199000000Y-53200000D02*
X203500000Y-53200000D01*
X203500000Y-48500000D02*
X199000000Y-48500000D01*
X203500000Y-49200000D02*
X203500000Y-48500000D01*
X204000000Y-53700000D02*
X204000000Y-54700000D01*
X204500000Y-55200000D02*
X204000000Y-54700000D01*
X207500000Y-50700000D02*
X205000000Y-50700000D01*
X207500000Y-55200000D02*
X204500000Y-55200000D01*
X208000000Y-51200000D02*
X207500000Y-50700000D01*
X208000000Y-54700000D02*
X207500000Y-55200000D01*
X204000000Y-53700000D02*
G75*
G03*
X203500000Y-53200000I-500001J-1D01*
G01*
X203500000Y-49200000D02*
G75*
G03*
X205000000Y-50700000I1500001J1D01*
G01*
X246021918Y-94401134D02*
X245810609Y-94854288D01*
X244289183Y-98116996D02*
X244035612Y-98660780D01*
X244035612Y-98660780D02*
X248113997Y-100562563D01*
X250100303Y-96302916D02*
X246021918Y-94401134D01*
X249804470Y-96937331D02*
X250100303Y-96302916D01*
X248355842Y-101227026D02*
X247933224Y-102133333D01*
X248175069Y-102797796D02*
X247933224Y-102133333D01*
X252795774Y-99987266D02*
X250530005Y-98930721D01*
X250893992Y-104065651D02*
X248175069Y-102797796D01*
X253037619Y-100651729D02*
X252795774Y-99987266D01*
X251558455Y-103823806D02*
X250893992Y-104065651D01*
X248355841Y-101227026D02*
G75*
G03*
X248113997Y-100562563I-453154J211309D01*
G01*
X249804471Y-96937331D02*
G75*
G03*
X250530005Y-98930721I1359464J-633927D01*
G01*
X125000000Y-72500000D02*
X125000000Y-73000000D01*
X125000000Y-76600000D02*
X125000000Y-77200000D01*
X125000000Y-77200000D02*
X129500000Y-77200000D01*
X129500000Y-72500000D02*
X125000000Y-72500000D01*
X129500000Y-73200000D02*
X129500000Y-72500000D01*
X130000000Y-77700000D02*
X130000000Y-78700000D01*
X130500000Y-79200000D02*
X130000000Y-78700000D01*
X133500000Y-74700000D02*
X131000000Y-74700000D01*
X133500000Y-79200000D02*
X130500000Y-79200000D01*
X134000000Y-75200000D02*
X133500000Y-74700000D01*
X134000000Y-78700000D02*
X133500000Y-79200000D01*
X130000000Y-77700000D02*
G75*
G03*
X129500000Y-77200000I-500001J-1D01*
G01*
X129500000Y-73200000D02*
G75*
G03*
X131000000Y-74700000I1500001J1D01*
G01*
X177000000Y-64500000D02*
X177000000Y-64000000D01*
X177000000Y-60400000D02*
X177000000Y-59800000D01*
X177000000Y-59800000D02*
X172500000Y-59800000D01*
X172500000Y-64500000D02*
X177000000Y-64500000D01*
X172500000Y-63800000D02*
X172500000Y-64500000D01*
X172000000Y-59300000D02*
X172000000Y-58300000D01*
X171500000Y-57800000D02*
X172000000Y-58300000D01*
X168500000Y-62300000D02*
X171000000Y-62300000D01*
X168500000Y-57800000D02*
X171500000Y-57800000D01*
X168000000Y-61800000D02*
X168500000Y-62300000D01*
X168000000Y-58300000D02*
X168500000Y-57800000D01*
X172000000Y-59300000D02*
G75*
G03*
X172500000Y-59800000I500001J1D01*
G01*
X172500000Y-63800000D02*
G75*
G03*
X171000000Y-62300000I-1500001J-1D01*
G01*
D11*
X268890000Y-39220000D02*
X251110000Y-39220000D01*
X251110000Y-39220000D02*
X251110000Y-72240000D01*
X268890000Y-72240000D02*
X268890000Y-39220000D01*
X251110000Y-72240000D02*
X268890000Y-72240000D01*
D10*
X199000000Y-65500000D02*
X199000000Y-66000000D01*
X199000000Y-69600000D02*
X199000000Y-70200000D01*
X199000000Y-70200000D02*
X203500000Y-70200000D01*
X203500000Y-65500000D02*
X199000000Y-65500000D01*
X203500000Y-66200000D02*
X203500000Y-65500000D01*
X204000000Y-70700000D02*
X204000000Y-71700000D01*
X204500000Y-72200000D02*
X204000000Y-71700000D01*
X207500000Y-67700000D02*
X205000000Y-67700000D01*
X207500000Y-72200000D02*
X204500000Y-72200000D01*
X208000000Y-68200000D02*
X207500000Y-67700000D01*
X208000000Y-71700000D02*
X207500000Y-72200000D01*
X204000000Y-70700000D02*
G75*
G03*
X203500000Y-70200000I-500001J-1D01*
G01*
X203500000Y-66200000D02*
G75*
G03*
X205000000Y-67700000I1500001J1D01*
G01*
X199000000Y-31500000D02*
X199000000Y-32000000D01*
X199000000Y-35600000D02*
X199000000Y-36200000D01*
X199000000Y-36200000D02*
X203500000Y-36200000D01*
X203500000Y-31500000D02*
X199000000Y-31500000D01*
X203500000Y-32200000D02*
X203500000Y-31500000D01*
X204000000Y-36700000D02*
X204000000Y-37700000D01*
X204500000Y-38200000D02*
X204000000Y-37700000D01*
X207500000Y-33700000D02*
X205000000Y-33700000D01*
X207500000Y-38200000D02*
X204500000Y-38200000D01*
X208000000Y-34200000D02*
X207500000Y-33700000D01*
X208000000Y-37700000D02*
X207500000Y-38200000D01*
X204000000Y-36700000D02*
G75*
G03*
X203500000Y-36200000I-500001J-1D01*
G01*
X203500000Y-32200000D02*
G75*
G03*
X205000000Y-33700000I1500001J1D01*
G01*
X235000000Y-39500000D02*
X235000000Y-40000000D01*
X235000000Y-43600000D02*
X235000000Y-44200000D01*
X235000000Y-44200000D02*
X239500000Y-44200000D01*
X239500000Y-39500000D02*
X235000000Y-39500000D01*
X239500000Y-40200000D02*
X239500000Y-39500000D01*
X240000000Y-44700000D02*
X240000000Y-45700000D01*
X240500000Y-46200000D02*
X240000000Y-45700000D01*
X243500000Y-41700000D02*
X241000000Y-41700000D01*
X243500000Y-46200000D02*
X240500000Y-46200000D01*
X244000000Y-42200000D02*
X243500000Y-41700000D01*
X244000000Y-45700000D02*
X243500000Y-46200000D01*
X240000000Y-44700000D02*
G75*
G03*
X239500000Y-44200000I-500001J-1D01*
G01*
X239500000Y-40200000D02*
G75*
G03*
X241000000Y-41700000I1500001J1D01*
G01*
X85000000Y-70500000D02*
X85000000Y-70000000D01*
X85000000Y-66400000D02*
X85000000Y-65800000D01*
X85000000Y-65800000D02*
X80500000Y-65800000D01*
X80500000Y-70500000D02*
X85000000Y-70500000D01*
X80500000Y-69800000D02*
X80500000Y-70500000D01*
X80000000Y-65300000D02*
X80000000Y-64300000D01*
X79500000Y-63800000D02*
X80000000Y-64300000D01*
X76500000Y-68300000D02*
X79000000Y-68300000D01*
X76500000Y-63800000D02*
X79500000Y-63800000D01*
X76000000Y-67800000D02*
X76500000Y-68300000D01*
X76000000Y-64300000D02*
X76500000Y-63800000D01*
X80000000Y-65300000D02*
G75*
G03*
X80500000Y-65800000I500001J1D01*
G01*
X80500000Y-69800000D02*
G75*
G03*
X79000000Y-68300000I-1500001J-1D01*
G01*
X217000000Y-71500000D02*
X217000000Y-72000000D01*
X217000000Y-75600000D02*
X217000000Y-76200000D01*
X217000000Y-76200000D02*
X221500000Y-76200000D01*
X221500000Y-71500000D02*
X217000000Y-71500000D01*
X221500000Y-72200000D02*
X221500000Y-71500000D01*
X222000000Y-76700000D02*
X222000000Y-77700000D01*
X222500000Y-78200000D02*
X222000000Y-77700000D01*
X225500000Y-73700000D02*
X223000000Y-73700000D01*
X225500000Y-78200000D02*
X222500000Y-78200000D01*
X226000000Y-74200000D02*
X225500000Y-73700000D01*
X226000000Y-77700000D02*
X225500000Y-78200000D01*
X222000000Y-76700000D02*
G75*
G03*
X221500000Y-76200000I-500001J-1D01*
G01*
X221500000Y-72200000D02*
G75*
G03*
X223000000Y-73700000I1500001J1D01*
G01*
X143000000Y-84500000D02*
X143000000Y-85000000D01*
X143000000Y-88600000D02*
X143000000Y-89200000D01*
X143000000Y-89200000D02*
X147500000Y-89200000D01*
X147500000Y-84500000D02*
X143000000Y-84500000D01*
X147500000Y-85200000D02*
X147500000Y-84500000D01*
X148000000Y-89700000D02*
X148000000Y-90700000D01*
X148500000Y-91200000D02*
X148000000Y-90700000D01*
X151500000Y-86700000D02*
X149000000Y-86700000D01*
X151500000Y-91200000D02*
X148500000Y-91200000D01*
X152000000Y-87200000D02*
X151500000Y-86700000D01*
X152000000Y-90700000D02*
X151500000Y-91200000D01*
X148000000Y-89700000D02*
G75*
G03*
X147500000Y-89200000I-500001J-1D01*
G01*
X147500000Y-85200000D02*
G75*
G03*
X149000000Y-86700000I1500001J1D01*
G01*
X189500000Y-44000000D02*
X190000000Y-44000000D01*
X193600000Y-44000000D02*
X194200000Y-44000000D01*
X194200000Y-44000000D02*
X194200000Y-39500000D01*
X189500000Y-39500000D02*
X189500000Y-44000000D01*
X190200000Y-39500000D02*
X189500000Y-39500000D01*
X194700000Y-39000000D02*
X195700000Y-39000000D01*
X196200000Y-38500000D02*
X195700000Y-39000000D01*
X191700000Y-35500000D02*
X191700000Y-38000000D01*
X196200000Y-35500000D02*
X196200000Y-38500000D01*
X192200000Y-35000000D02*
X191700000Y-35500000D01*
X195700000Y-35000000D02*
X196200000Y-35500000D01*
X194700000Y-39000000D02*
G75*
G03*
X194200000Y-39500000I1J-500001D01*
G01*
X190200000Y-39500000D02*
G75*
G03*
X191700000Y-38000000I-1J1500001D01*
G01*
X85000000Y-36500000D02*
X85000000Y-36000000D01*
X85000000Y-32400000D02*
X85000000Y-31800000D01*
X85000000Y-31800000D02*
X80500000Y-31800000D01*
X80500000Y-36500000D02*
X85000000Y-36500000D01*
X80500000Y-35800000D02*
X80500000Y-36500000D01*
X80000000Y-31300000D02*
X80000000Y-30300000D01*
X79500000Y-29800000D02*
X80000000Y-30300000D01*
X76500000Y-34300000D02*
X79000000Y-34300000D01*
X76500000Y-29800000D02*
X79500000Y-29800000D01*
X76000000Y-33800000D02*
X76500000Y-34300000D01*
X76000000Y-30300000D02*
X76500000Y-29800000D01*
X80000000Y-31300000D02*
G75*
G03*
X80500000Y-31800000I500001J1D01*
G01*
X80500000Y-35800000D02*
G75*
G03*
X79000000Y-34300000I-1500001J-1D01*
G01*
D11*
X68890000Y-39220000D02*
X51110000Y-39220000D01*
X51110000Y-39220000D02*
X51110000Y-72240000D01*
X68890000Y-72240000D02*
X68890000Y-39220000D01*
X51110000Y-72240000D02*
X68890000Y-72240000D01*
D10*
X107000000Y-31500000D02*
X107000000Y-32000000D01*
X107000000Y-35600000D02*
X107000000Y-36200000D01*
X107000000Y-36200000D02*
X111500000Y-36200000D01*
X111500000Y-31500000D02*
X107000000Y-31500000D01*
X111500000Y-32200000D02*
X111500000Y-31500000D01*
X112000000Y-36700000D02*
X112000000Y-37700000D01*
X112500000Y-38200000D02*
X112000000Y-37700000D01*
X115500000Y-33700000D02*
X113000000Y-33700000D01*
X115500000Y-38200000D02*
X112500000Y-38200000D01*
X116000000Y-34200000D02*
X115500000Y-33700000D01*
X116000000Y-37700000D02*
X115500000Y-38200000D01*
X112000000Y-36700000D02*
G75*
G03*
X111500000Y-36200000I-500001J-1D01*
G01*
X111500000Y-32200000D02*
G75*
G03*
X113000000Y-33700000I1500001J1D01*
G01*
X107000000Y-48500000D02*
X107000000Y-49000000D01*
X107000000Y-52600000D02*
X107000000Y-53200000D01*
X107000000Y-53200000D02*
X111500000Y-53200000D01*
X111500000Y-48500000D02*
X107000000Y-48500000D01*
X111500000Y-49200000D02*
X111500000Y-48500000D01*
X112000000Y-53700000D02*
X112000000Y-54700000D01*
X112500000Y-55200000D02*
X112000000Y-54700000D01*
X115500000Y-50700000D02*
X113000000Y-50700000D01*
X115500000Y-55200000D02*
X112500000Y-55200000D01*
X116000000Y-51200000D02*
X115500000Y-50700000D01*
X116000000Y-54700000D02*
X115500000Y-55200000D01*
X112000000Y-53700000D02*
G75*
G03*
X111500000Y-53200000I-500001J-1D01*
G01*
X111500000Y-49200000D02*
G75*
G03*
X113000000Y-50700000I1500001J1D01*
G01*
X143000000Y-50500000D02*
X143000000Y-51000000D01*
X143000000Y-54600000D02*
X143000000Y-55200000D01*
X143000000Y-55200000D02*
X147500000Y-55200000D01*
X147500000Y-50500000D02*
X143000000Y-50500000D01*
X147500000Y-51200000D02*
X147500000Y-50500000D01*
X148000000Y-55700000D02*
X148000000Y-56700000D01*
X148500000Y-57200000D02*
X148000000Y-56700000D01*
X151500000Y-52700000D02*
X149000000Y-52700000D01*
X151500000Y-57200000D02*
X148500000Y-57200000D01*
X152000000Y-53200000D02*
X151500000Y-52700000D01*
X152000000Y-56700000D02*
X151500000Y-57200000D01*
X148000000Y-55700000D02*
G75*
G03*
X147500000Y-55200000I-500001J-1D01*
G01*
X147500000Y-51200000D02*
G75*
G03*
X149000000Y-52700000I1500001J1D01*
G01*
X181000000Y-55500000D02*
X181000000Y-56000000D01*
X181000000Y-59600000D02*
X181000000Y-60200000D01*
X181000000Y-60200000D02*
X185500000Y-60200000D01*
X185500000Y-55500000D02*
X181000000Y-55500000D01*
X185500000Y-56200000D02*
X185500000Y-55500000D01*
X186000000Y-60700000D02*
X186000000Y-61700000D01*
X186500000Y-62200000D02*
X186000000Y-61700000D01*
X189500000Y-57700000D02*
X187000000Y-57700000D01*
X189500000Y-62200000D02*
X186500000Y-62200000D01*
X190000000Y-58200000D02*
X189500000Y-57700000D01*
X190000000Y-61700000D02*
X189500000Y-62200000D01*
X186000000Y-60700000D02*
G75*
G03*
X185500000Y-60200000I-500001J-1D01*
G01*
X185500000Y-56200000D02*
G75*
G03*
X187000000Y-57700000I1500001J1D01*
G01*
X217000000Y-54500000D02*
X217000000Y-55000000D01*
X217000000Y-58600000D02*
X217000000Y-59200000D01*
X217000000Y-59200000D02*
X221500000Y-59200000D01*
X221500000Y-54500000D02*
X217000000Y-54500000D01*
X221500000Y-55200000D02*
X221500000Y-54500000D01*
X222000000Y-59700000D02*
X222000000Y-60700000D01*
X222500000Y-61200000D02*
X222000000Y-60700000D01*
X225500000Y-56700000D02*
X223000000Y-56700000D01*
X225500000Y-61200000D02*
X222500000Y-61200000D01*
X226000000Y-57200000D02*
X225500000Y-56700000D01*
X226000000Y-60700000D02*
X225500000Y-61200000D01*
X222000000Y-59700000D02*
G75*
G03*
X221500000Y-59200000I-500001J-1D01*
G01*
X221500000Y-55200000D02*
G75*
G03*
X223000000Y-56700000I1500001J1D01*
G01*
X177000000Y-81500000D02*
X177000000Y-81000000D01*
X177000000Y-77400000D02*
X177000000Y-76800000D01*
X177000000Y-76800000D02*
X172500000Y-76800000D01*
X172500000Y-81500000D02*
X177000000Y-81500000D01*
X172500000Y-80800000D02*
X172500000Y-81500000D01*
X172000000Y-76300000D02*
X172000000Y-75300000D01*
X171500000Y-74800000D02*
X172000000Y-75300000D01*
X168500000Y-79300000D02*
X171000000Y-79300000D01*
X168500000Y-74800000D02*
X171500000Y-74800000D01*
X168000000Y-78800000D02*
X168500000Y-79300000D01*
X168000000Y-75300000D02*
X168500000Y-74800000D01*
X172000000Y-76300000D02*
G75*
G03*
X172500000Y-76800000I500001J1D01*
G01*
X172500000Y-80800000D02*
G75*
G03*
X171000000Y-79300000I-1500001J-1D01*
G01*
D12*
X252380000Y-43030000D03*
X252380000Y-45570000D03*
X252380000Y-48110000D03*
X252380000Y-50650000D03*
X252380000Y-53190000D03*
X252380000Y-55730000D03*
X252380000Y-58270000D03*
X252380000Y-60810000D03*
X252380000Y-63350000D03*
X252380000Y-65890000D03*
X252380000Y-68430000D03*
X252380000Y-70970000D03*
X267620000Y-70970000D03*
X267620000Y-68430000D03*
X267620000Y-65890000D03*
X267620000Y-63350000D03*
X267620000Y-60810000D03*
X267620000Y-58270000D03*
X267620000Y-55730000D03*
X267620000Y-53190000D03*
X267620000Y-50650000D03*
X267620000Y-48110000D03*
X267620000Y-45570000D03*
X267620000Y-43030000D03*
X52380000Y-43030000D03*
X52380000Y-45570000D03*
X52380000Y-48110000D03*
X52380000Y-50650000D03*
X52380000Y-53190000D03*
X52380000Y-55730000D03*
X52380000Y-58270000D03*
X52380000Y-60810000D03*
X52380000Y-63350000D03*
X52380000Y-65890000D03*
X52380000Y-68430000D03*
X52380000Y-70970000D03*
X67620000Y-70970000D03*
X67620000Y-68430000D03*
X67620000Y-65890000D03*
X67620000Y-63350000D03*
X67620000Y-60810000D03*
X67620000Y-58270000D03*
X67620000Y-55730000D03*
X67620000Y-53190000D03*
X67620000Y-50650000D03*
X67620000Y-48110000D03*
X67620000Y-45570000D03*
X67620000Y-43030000D03*
%LPC*%
D13*
X236500000Y-55000000D03*
D14*
X237000000Y-58750000D03*
D15*
X242000000Y-55000000D03*
D14*
X242000000Y-60950000D03*
D16*
X247220000Y-50800000D03*
D13*
X247500000Y-55000000D03*
D17*
X245275000Y-60950000D03*
X233725000Y-58750000D03*
D18*
X67096000Y-76375000D03*
X67096000Y-77625000D03*
D13*
X144500000Y-66000000D03*
D14*
X145000000Y-69750000D03*
D15*
X150000000Y-66000000D03*
D14*
X150000000Y-71950000D03*
D16*
X155220000Y-61800000D03*
D13*
X155500000Y-66000000D03*
D17*
X153275000Y-71950000D03*
X141725000Y-69750000D03*
D13*
X228583557Y-89044935D03*
D14*
X228424781Y-92824788D03*
D15*
X234000000Y-90000000D03*
D14*
X232966793Y-95859606D03*
D16*
X239870019Y-86770251D03*
D13*
X239416443Y-90955065D03*
D19*
X236192039Y-96428304D03*
X225199535Y-92256090D03*
D13*
X126500000Y-37000000D03*
D14*
X127000000Y-40750000D03*
D15*
X132000000Y-37000000D03*
D14*
X132000000Y-42950000D03*
D16*
X137220000Y-32800000D03*
D13*
X137500000Y-37000000D03*
D17*
X135275000Y-42950000D03*
X123725000Y-40750000D03*
D20*
X261814583Y-85625000D03*
X256185417Y-82375000D03*
D13*
X90500000Y-53000000D03*
D14*
X91000000Y-56750000D03*
D15*
X96000000Y-53000000D03*
D14*
X96000000Y-58950000D03*
D16*
X101220000Y-48800000D03*
D13*
X101500000Y-53000000D03*
D17*
X99275000Y-58950000D03*
X87725000Y-56750000D03*
D13*
X83500000Y-55000000D03*
D14*
X83000000Y-51250000D03*
D15*
X78000000Y-55000000D03*
D14*
X78000000Y-49050000D03*
D16*
X72780000Y-59200000D03*
D13*
X72500000Y-55000000D03*
D17*
X74725000Y-49050000D03*
X86275000Y-51250000D03*
D13*
X218500000Y-36000000D03*
D14*
X219000000Y-39750000D03*
D15*
X224000000Y-36000000D03*
D14*
X224000000Y-41950000D03*
D16*
X229220000Y-31800000D03*
D13*
X229500000Y-36000000D03*
D17*
X227275000Y-41950000D03*
X215725000Y-39750000D03*
D13*
X236500000Y-72000000D03*
D14*
X237000000Y-75750000D03*
D15*
X242000000Y-72000000D03*
D14*
X242000000Y-77950000D03*
D16*
X247220000Y-67800000D03*
D13*
X247500000Y-72000000D03*
D17*
X245275000Y-77950000D03*
X233725000Y-75750000D03*
D13*
X90500000Y-70000000D03*
D14*
X91000000Y-73750000D03*
D15*
X96000000Y-70000000D03*
D14*
X96000000Y-75950000D03*
D16*
X101220000Y-65800000D03*
D13*
X101500000Y-70000000D03*
D17*
X99275000Y-75950000D03*
X87725000Y-73750000D03*
D13*
X80583557Y-90955065D03*
D14*
X81727142Y-94561270D03*
D15*
X86000000Y-90000000D03*
D14*
X87033207Y-95859606D03*
D16*
X90411374Y-84957364D03*
D13*
X91416443Y-89044935D03*
D21*
X90258452Y-95290908D03*
X78501897Y-95129968D03*
D13*
X90500000Y-36000000D03*
D14*
X91000000Y-39750000D03*
D15*
X96000000Y-36000000D03*
D14*
X96000000Y-41950000D03*
D16*
X101220000Y-31800000D03*
D13*
X101500000Y-36000000D03*
D17*
X99275000Y-41950000D03*
X87725000Y-39750000D03*
D13*
X62015307Y-98324400D03*
D14*
X64053280Y-101511746D03*
D15*
X67000000Y-96000000D03*
D14*
X69514579Y-101392531D03*
D16*
X69955930Y-89987440D03*
D13*
X71984693Y-93675600D03*
D22*
X72482737Y-100008457D03*
X61085122Y-102895820D03*
D23*
X48250000Y-80700962D03*
X49750000Y-83299038D03*
D13*
X126500000Y-54000000D03*
D14*
X127000000Y-57750000D03*
D15*
X132000000Y-54000000D03*
D14*
X132000000Y-59950000D03*
D16*
X137220000Y-49800000D03*
D13*
X137500000Y-54000000D03*
D17*
X135275000Y-59950000D03*
X123725000Y-57750000D03*
D13*
X175500000Y-49000000D03*
D14*
X175000000Y-45250000D03*
D15*
X170000000Y-49000000D03*
D14*
X170000000Y-43050000D03*
D16*
X164780000Y-53200000D03*
D13*
X164500000Y-49000000D03*
D17*
X166725000Y-43050000D03*
X178275000Y-45250000D03*
D13*
X182500000Y-71000000D03*
D14*
X183000000Y-74750000D03*
D15*
X188000000Y-71000000D03*
D14*
X188000000Y-76950000D03*
D16*
X193220000Y-66800000D03*
D13*
X193500000Y-71000000D03*
D17*
X191275000Y-76950000D03*
X179725000Y-74750000D03*
D13*
X108500000Y-64000000D03*
D14*
X109000000Y-67750000D03*
D15*
X114000000Y-64000000D03*
D14*
X114000000Y-69950000D03*
D16*
X119220000Y-59800000D03*
D13*
X119500000Y-64000000D03*
D17*
X117275000Y-69950000D03*
X105725000Y-67750000D03*
D13*
X200500000Y-47000000D03*
D14*
X201000000Y-50750000D03*
D15*
X206000000Y-47000000D03*
D14*
X206000000Y-52950000D03*
D16*
X211220000Y-42800000D03*
D13*
X211500000Y-47000000D03*
D17*
X209275000Y-52950000D03*
X197725000Y-50750000D03*
D23*
X270250000Y-83299038D03*
X271750000Y-80700962D03*
D13*
X248015307Y-93675600D03*
D14*
X246883643Y-97285563D03*
D15*
X253000000Y-96000000D03*
D14*
X250485421Y-101392531D03*
D16*
X259505923Y-94399575D03*
D13*
X257984693Y-98324400D03*
D24*
X253453579Y-102776606D03*
X243915485Y-95901488D03*
D18*
X252904000Y-77625000D03*
X252904000Y-76375000D03*
D13*
X126500000Y-71000000D03*
D14*
X127000000Y-74750000D03*
D15*
X132000000Y-71000000D03*
D14*
X132000000Y-76950000D03*
D16*
X137220000Y-66800000D03*
D13*
X137500000Y-71000000D03*
D17*
X135275000Y-76950000D03*
X123725000Y-74750000D03*
D13*
X175500000Y-66000000D03*
D14*
X175000000Y-62250000D03*
D15*
X170000000Y-66000000D03*
D14*
X170000000Y-60050000D03*
D16*
X164780000Y-70200000D03*
D13*
X164500000Y-66000000D03*
D17*
X166725000Y-60050000D03*
X178275000Y-62250000D03*
D12*
X252380000Y-43030000D03*
X252380000Y-45570000D03*
X252380000Y-48110000D03*
X252380000Y-50650000D03*
X252380000Y-53190000D03*
X252380000Y-55730000D03*
X252380000Y-58270000D03*
X252380000Y-60810000D03*
X252380000Y-63350000D03*
X252380000Y-65890000D03*
X252380000Y-68430000D03*
X252380000Y-70970000D03*
X267620000Y-70970000D03*
X267620000Y-68430000D03*
X267620000Y-65890000D03*
X267620000Y-63350000D03*
X267620000Y-60810000D03*
X267620000Y-58270000D03*
X267620000Y-55730000D03*
X267620000Y-53190000D03*
X267620000Y-50650000D03*
X267620000Y-48110000D03*
X267620000Y-45570000D03*
X267620000Y-43030000D03*
D13*
X200500000Y-64000000D03*
D14*
X201000000Y-67750000D03*
D15*
X206000000Y-64000000D03*
D14*
X206000000Y-69950000D03*
D16*
X211220000Y-59800000D03*
D13*
X211500000Y-64000000D03*
D17*
X209275000Y-69950000D03*
X197725000Y-67750000D03*
D13*
X200500000Y-30000000D03*
D14*
X201000000Y-33750000D03*
D15*
X206000000Y-30000000D03*
D14*
X206000000Y-35950000D03*
D16*
X211220000Y-25800000D03*
D13*
X211500000Y-30000000D03*
D17*
X209275000Y-35950000D03*
X197725000Y-33750000D03*
D13*
X236500000Y-38000000D03*
D14*
X237000000Y-41750000D03*
D15*
X242000000Y-38000000D03*
D14*
X242000000Y-43950000D03*
D16*
X247220000Y-33800000D03*
D13*
X247500000Y-38000000D03*
D17*
X245275000Y-43950000D03*
X233725000Y-41750000D03*
D13*
X83500000Y-72000000D03*
D14*
X83000000Y-68250000D03*
D15*
X78000000Y-72000000D03*
D14*
X78000000Y-66050000D03*
D16*
X72780000Y-76200000D03*
D13*
X72500000Y-72000000D03*
D17*
X74725000Y-66050000D03*
X86275000Y-68250000D03*
D13*
X218500000Y-70000000D03*
D14*
X219000000Y-73750000D03*
D15*
X224000000Y-70000000D03*
D14*
X224000000Y-75950000D03*
D16*
X229220000Y-65800000D03*
D13*
X229500000Y-70000000D03*
D17*
X227275000Y-75950000D03*
X215725000Y-73750000D03*
D13*
X144500000Y-83000000D03*
D14*
X145000000Y-86750000D03*
D15*
X150000000Y-83000000D03*
D14*
X150000000Y-88950000D03*
D16*
X155220000Y-78800000D03*
D13*
X155500000Y-83000000D03*
D17*
X153275000Y-88950000D03*
X141725000Y-86750000D03*
D13*
X188000000Y-42500000D03*
D14*
X191750000Y-42000000D03*
D15*
X188000000Y-37000000D03*
D14*
X193950000Y-37000000D03*
D16*
X183800000Y-31780000D03*
D13*
X188000000Y-31500000D03*
D17*
X193950000Y-33725000D03*
X191750000Y-45275000D03*
D13*
X83500000Y-38000000D03*
D14*
X83000000Y-34250000D03*
D15*
X78000000Y-38000000D03*
D14*
X78000000Y-32050000D03*
D16*
X72780000Y-42200000D03*
D13*
X72500000Y-38000000D03*
D17*
X74725000Y-32050000D03*
X86275000Y-34250000D03*
D20*
X63814583Y-82375000D03*
X58185417Y-85625000D03*
D12*
X52380000Y-43030000D03*
X52380000Y-45570000D03*
X52380000Y-48110000D03*
X52380000Y-50650000D03*
X52380000Y-53190000D03*
X52380000Y-55730000D03*
X52380000Y-58270000D03*
X52380000Y-60810000D03*
X52380000Y-63350000D03*
X52380000Y-65890000D03*
X52380000Y-68430000D03*
X52380000Y-70970000D03*
X67620000Y-70970000D03*
X67620000Y-68430000D03*
X67620000Y-65890000D03*
X67620000Y-63350000D03*
X67620000Y-60810000D03*
X67620000Y-58270000D03*
X67620000Y-55730000D03*
X67620000Y-53190000D03*
X67620000Y-50650000D03*
X67620000Y-48110000D03*
X67620000Y-45570000D03*
X67620000Y-43030000D03*
D13*
X108500000Y-30000000D03*
D14*
X109000000Y-33750000D03*
D15*
X114000000Y-30000000D03*
D14*
X114000000Y-35950000D03*
D16*
X119220000Y-25800000D03*
D13*
X119500000Y-30000000D03*
D17*
X117275000Y-35950000D03*
X105725000Y-33750000D03*
D13*
X108500000Y-47000000D03*
D14*
X109000000Y-50750000D03*
D15*
X114000000Y-47000000D03*
D14*
X114000000Y-52950000D03*
D16*
X119220000Y-42800000D03*
D13*
X119500000Y-47000000D03*
D17*
X117275000Y-52950000D03*
X105725000Y-50750000D03*
D13*
X144500000Y-49000000D03*
D14*
X145000000Y-52750000D03*
D15*
X150000000Y-49000000D03*
D14*
X150000000Y-54950000D03*
D16*
X155220000Y-44800000D03*
D13*
X155500000Y-49000000D03*
D17*
X153275000Y-54950000D03*
X141725000Y-52750000D03*
D13*
X182500000Y-54000000D03*
D14*
X183000000Y-57750000D03*
D15*
X188000000Y-54000000D03*
D14*
X188000000Y-59950000D03*
D16*
X193220000Y-49800000D03*
D13*
X193500000Y-54000000D03*
D17*
X191275000Y-59950000D03*
X179725000Y-57750000D03*
D13*
X218500000Y-53000000D03*
D14*
X219000000Y-56750000D03*
D15*
X224000000Y-53000000D03*
D14*
X224000000Y-58950000D03*
D16*
X229220000Y-48800000D03*
D13*
X229500000Y-53000000D03*
D17*
X227275000Y-58950000D03*
X215725000Y-56750000D03*
D13*
X175500000Y-83000000D03*
D14*
X175000000Y-79250000D03*
D15*
X170000000Y-83000000D03*
D14*
X170000000Y-77050000D03*
D16*
X164780000Y-87200000D03*
D13*
X164500000Y-83000000D03*
D17*
X166725000Y-77050000D03*
X178275000Y-79250000D03*
%LPD*%
M02*
