G04 #@! TF.GenerationSoftware,KiCad,Pcbnew,7.0.6*
G04 #@! TF.CreationDate,2023-08-29T20:54:38+02:00*
G04 #@! TF.ProjectId,KoalaKeeb,4b6f616c-614b-4656-9562-2e6b69636164,rev?*
G04 #@! TF.SameCoordinates,Original*
G04 #@! TF.FileFunction,Paste,Bot*
G04 #@! TF.FilePolarity,Positive*
%FSLAX46Y46*%
G04 Gerber Fmt 4.6, Leading zero omitted, Abs format (unit mm)*
G04 Created by KiCad (PCBNEW 7.0.6) date 2023-08-29 20:54:38*
%MOMM*%
%LPD*%
G01*
G04 APERTURE LIST*
G04 Aperture macros list*
%AMRotRect*
0 Rectangle, with rotation*
0 The origin of the aperture is its center*
0 $1 length*
0 $2 width*
0 $3 Rotation angle, in degrees counterclockwise*
0 Add horizontal line*
21,1,$1,$2,0,0,$3*%
G04 Aperture macros list end*
%ADD10R,2.600000X2.600000*%
%ADD11RotRect,2.600000X2.600000X350.000000*%
%ADD12RotRect,2.600000X2.600000X10.000000*%
%ADD13RotRect,2.600000X2.600000X25.000000*%
%ADD14RotRect,2.600000X2.600000X335.000000*%
G04 APERTURE END LIST*
D10*
X245275000Y-60950000D03*
X233725000Y-58750000D03*
X153275000Y-71950000D03*
X141725000Y-69750000D03*
D11*
X236192039Y-96428304D03*
X225199535Y-92256090D03*
D10*
X135275000Y-42950000D03*
X123725000Y-40750000D03*
X99275000Y-58950000D03*
X87725000Y-56750000D03*
X74725000Y-49050000D03*
X86275000Y-51250000D03*
X227275000Y-41950000D03*
X215725000Y-39750000D03*
X245275000Y-77950000D03*
X233725000Y-75750000D03*
X99275000Y-75950000D03*
X87725000Y-73750000D03*
D12*
X90258452Y-95290908D03*
X78501897Y-95129968D03*
D10*
X99275000Y-41950000D03*
X87725000Y-39750000D03*
D13*
X72482737Y-100008457D03*
X61085122Y-102895820D03*
D10*
X135275000Y-59950000D03*
X123725000Y-57750000D03*
X166725000Y-43050000D03*
X178275000Y-45250000D03*
X191275000Y-76950000D03*
X179725000Y-74750000D03*
X117275000Y-69950000D03*
X105725000Y-67750000D03*
X209275000Y-52950000D03*
X197725000Y-50750000D03*
D14*
X253453579Y-102776606D03*
X243915485Y-95901488D03*
D10*
X135275000Y-76950000D03*
X123725000Y-74750000D03*
X166725000Y-60050000D03*
X178275000Y-62250000D03*
X209275000Y-69950000D03*
X197725000Y-67750000D03*
X209275000Y-35950000D03*
X197725000Y-33750000D03*
X245275000Y-43950000D03*
X233725000Y-41750000D03*
X74725000Y-66050000D03*
X86275000Y-68250000D03*
X227275000Y-75950000D03*
X215725000Y-73750000D03*
X153275000Y-88950000D03*
X141725000Y-86750000D03*
X193950000Y-33725000D03*
X191750000Y-45275000D03*
X74725000Y-32050000D03*
X86275000Y-34250000D03*
X117275000Y-35950000D03*
X105725000Y-33750000D03*
X117275000Y-52950000D03*
X105725000Y-50750000D03*
X153275000Y-54950000D03*
X141725000Y-52750000D03*
X191275000Y-59950000D03*
X179725000Y-57750000D03*
X227275000Y-58950000D03*
X215725000Y-56750000D03*
X166725000Y-77050000D03*
X178275000Y-79250000D03*
M02*
